G04 MADE WITH FRITZING*
G04 WWW.FRITZING.ORG*
G04 DOUBLE SIDED*
G04 HOLES PLATED*
G04 CONTOUR ON CENTER OF CONTOUR VECTOR*
%ASAXBY*%
%FSLAX23Y23*%
%MOIN*%
%OFA0B0*%
%SFA1.0B1.0*%
%ADD10C,0.010000*%
%ADD11R,0.001000X0.001000*%
%LNSILK0*%
G90*
G70*
G54D10*
X2372Y1685D02*
X2372Y1085D01*
D02*
X2372Y1085D02*
X2272Y1085D01*
D02*
X2272Y1085D02*
X2272Y1685D01*
D02*
X2272Y1685D02*
X2372Y1685D01*
G54D11*
X372Y2402D02*
X2225Y2402D01*
X358Y2401D02*
X2239Y2401D01*
X348Y2400D02*
X2249Y2400D01*
X340Y2399D02*
X2257Y2399D01*
X333Y2398D02*
X2264Y2398D01*
X327Y2397D02*
X2270Y2397D01*
X321Y2396D02*
X2276Y2396D01*
X316Y2395D02*
X2281Y2395D01*
X311Y2394D02*
X371Y2394D01*
X2226Y2394D02*
X2286Y2394D01*
X306Y2393D02*
X357Y2393D01*
X2240Y2393D02*
X2291Y2393D01*
X302Y2392D02*
X347Y2392D01*
X2250Y2392D02*
X2295Y2392D01*
X297Y2391D02*
X339Y2391D01*
X2258Y2391D02*
X2300Y2391D01*
X293Y2390D02*
X332Y2390D01*
X2265Y2390D02*
X2304Y2390D01*
X290Y2389D02*
X326Y2389D01*
X2271Y2389D02*
X2307Y2389D01*
X286Y2388D02*
X320Y2388D01*
X2277Y2388D02*
X2311Y2388D01*
X282Y2387D02*
X315Y2387D01*
X2282Y2387D02*
X2315Y2387D01*
X279Y2386D02*
X310Y2386D01*
X2287Y2386D02*
X2318Y2386D01*
X276Y2385D02*
X305Y2385D01*
X2292Y2385D02*
X2321Y2385D01*
X273Y2384D02*
X301Y2384D01*
X2296Y2384D02*
X2324Y2384D01*
X270Y2383D02*
X297Y2383D01*
X2300Y2383D02*
X2327Y2383D01*
X267Y2382D02*
X293Y2382D01*
X2304Y2382D02*
X2330Y2382D01*
X264Y2381D02*
X289Y2381D01*
X2308Y2381D02*
X2333Y2381D01*
X261Y2380D02*
X286Y2380D01*
X2311Y2380D02*
X2336Y2380D01*
X258Y2379D02*
X282Y2379D01*
X2315Y2379D02*
X2339Y2379D01*
X255Y2378D02*
X279Y2378D01*
X2318Y2378D02*
X2342Y2378D01*
X253Y2377D02*
X276Y2377D01*
X2321Y2377D02*
X2344Y2377D01*
X250Y2376D02*
X273Y2376D01*
X2324Y2376D02*
X2347Y2376D01*
X247Y2375D02*
X270Y2375D01*
X2327Y2375D02*
X2350Y2375D01*
X245Y2374D02*
X267Y2374D01*
X2330Y2374D02*
X2352Y2374D01*
X242Y2373D02*
X264Y2373D01*
X2333Y2373D02*
X2355Y2373D01*
X240Y2372D02*
X261Y2372D01*
X2336Y2372D02*
X2357Y2372D01*
X237Y2371D02*
X258Y2371D01*
X2339Y2371D02*
X2360Y2371D01*
X235Y2370D02*
X255Y2370D01*
X2342Y2370D02*
X2362Y2370D01*
X233Y2369D02*
X253Y2369D01*
X2344Y2369D02*
X2364Y2369D01*
X231Y2368D02*
X250Y2368D01*
X2347Y2368D02*
X2366Y2368D01*
X228Y2367D02*
X247Y2367D01*
X2350Y2367D02*
X2369Y2367D01*
X226Y2366D02*
X245Y2366D01*
X2352Y2366D02*
X2371Y2366D01*
X224Y2365D02*
X242Y2365D01*
X2355Y2365D02*
X2373Y2365D01*
X222Y2364D02*
X240Y2364D01*
X2357Y2364D02*
X2375Y2364D01*
X220Y2363D02*
X238Y2363D01*
X2359Y2363D02*
X2377Y2363D01*
X218Y2362D02*
X236Y2362D01*
X2361Y2362D02*
X2379Y2362D01*
X216Y2361D02*
X233Y2361D01*
X2364Y2361D02*
X2381Y2361D01*
X214Y2360D02*
X231Y2360D01*
X2366Y2360D02*
X2383Y2360D01*
X212Y2359D02*
X229Y2359D01*
X2368Y2359D02*
X2385Y2359D01*
X210Y2358D02*
X227Y2358D01*
X2370Y2358D02*
X2387Y2358D01*
X208Y2357D02*
X224Y2357D01*
X2373Y2357D02*
X2389Y2357D01*
X206Y2356D02*
X222Y2356D01*
X2375Y2356D02*
X2391Y2356D01*
X204Y2355D02*
X220Y2355D01*
X2377Y2355D02*
X2393Y2355D01*
X202Y2354D02*
X218Y2354D01*
X2379Y2354D02*
X2395Y2354D01*
X201Y2353D02*
X216Y2353D01*
X2381Y2353D02*
X2396Y2353D01*
X199Y2352D02*
X214Y2352D01*
X2383Y2352D02*
X2398Y2352D01*
X197Y2351D02*
X212Y2351D01*
X2384Y2351D02*
X2400Y2351D01*
X195Y2350D02*
X211Y2350D01*
X2386Y2350D02*
X2402Y2350D01*
X194Y2349D02*
X209Y2349D01*
X2388Y2349D02*
X2403Y2349D01*
X192Y2348D02*
X207Y2348D01*
X2390Y2348D02*
X2405Y2348D01*
X190Y2347D02*
X205Y2347D01*
X2392Y2347D02*
X2407Y2347D01*
X188Y2346D02*
X203Y2346D01*
X2394Y2346D02*
X2409Y2346D01*
X187Y2345D02*
X201Y2345D01*
X2396Y2345D02*
X2410Y2345D01*
X185Y2344D02*
X200Y2344D01*
X2397Y2344D02*
X2412Y2344D01*
X184Y2343D02*
X198Y2343D01*
X2399Y2343D02*
X2413Y2343D01*
X182Y2342D02*
X196Y2342D01*
X2401Y2342D02*
X2415Y2342D01*
X180Y2341D02*
X194Y2341D01*
X2403Y2341D02*
X2417Y2341D01*
X179Y2340D02*
X193Y2340D01*
X2404Y2340D02*
X2418Y2340D01*
X177Y2339D02*
X191Y2339D01*
X2406Y2339D02*
X2420Y2339D01*
X176Y2338D02*
X189Y2338D01*
X2408Y2338D02*
X2421Y2338D01*
X174Y2337D02*
X188Y2337D01*
X2409Y2337D02*
X2423Y2337D01*
X172Y2336D02*
X186Y2336D01*
X2411Y2336D02*
X2425Y2336D01*
X171Y2335D02*
X185Y2335D01*
X2412Y2335D02*
X2426Y2335D01*
X170Y2334D02*
X183Y2334D01*
X2414Y2334D02*
X2427Y2334D01*
X168Y2333D02*
X182Y2333D01*
X2415Y2333D02*
X2429Y2333D01*
X167Y2332D02*
X180Y2332D01*
X2417Y2332D02*
X2430Y2332D01*
X165Y2331D02*
X178Y2331D01*
X2419Y2331D02*
X2432Y2331D01*
X164Y2330D02*
X177Y2330D01*
X2420Y2330D02*
X2433Y2330D01*
X162Y2329D02*
X175Y2329D01*
X2422Y2329D02*
X2434Y2329D01*
X161Y2328D02*
X174Y2328D01*
X2423Y2328D02*
X2436Y2328D01*
X160Y2327D02*
X172Y2327D01*
X2425Y2327D02*
X2437Y2327D01*
X158Y2326D02*
X171Y2326D01*
X2426Y2326D02*
X2439Y2326D01*
X157Y2325D02*
X170Y2325D01*
X2427Y2325D02*
X2440Y2325D01*
X156Y2324D02*
X168Y2324D01*
X2429Y2324D02*
X2441Y2324D01*
X154Y2323D02*
X167Y2323D01*
X2430Y2323D02*
X2443Y2323D01*
X153Y2322D02*
X165Y2322D01*
X2432Y2322D02*
X2444Y2322D01*
X152Y2321D02*
X164Y2321D01*
X2433Y2321D02*
X2445Y2321D01*
X150Y2320D02*
X162Y2320D01*
X2435Y2320D02*
X2447Y2320D01*
X149Y2319D02*
X161Y2319D01*
X2436Y2319D02*
X2448Y2319D01*
X148Y2318D02*
X160Y2318D01*
X2437Y2318D02*
X2449Y2318D01*
X147Y2317D02*
X159Y2317D01*
X2438Y2317D02*
X2450Y2317D01*
X145Y2316D02*
X157Y2316D01*
X2440Y2316D02*
X2452Y2316D01*
X144Y2315D02*
X156Y2315D01*
X2441Y2315D02*
X2453Y2315D01*
X143Y2314D02*
X155Y2314D01*
X2442Y2314D02*
X2454Y2314D01*
X142Y2313D02*
X153Y2313D01*
X2444Y2313D02*
X2455Y2313D01*
X140Y2312D02*
X152Y2312D01*
X2445Y2312D02*
X2457Y2312D01*
X139Y2311D02*
X151Y2311D01*
X2446Y2311D02*
X2458Y2311D01*
X138Y2310D02*
X149Y2310D01*
X2448Y2310D02*
X2459Y2310D01*
X137Y2309D02*
X148Y2309D01*
X2449Y2309D02*
X2460Y2309D01*
X136Y2308D02*
X147Y2308D01*
X2450Y2308D02*
X2461Y2308D01*
X134Y2307D02*
X146Y2307D01*
X2451Y2307D02*
X2463Y2307D01*
X133Y2306D02*
X145Y2306D01*
X2452Y2306D02*
X2464Y2306D01*
X132Y2305D02*
X143Y2305D01*
X2454Y2305D02*
X2465Y2305D01*
X131Y2304D02*
X142Y2304D01*
X2455Y2304D02*
X2466Y2304D01*
X130Y2303D02*
X141Y2303D01*
X2456Y2303D02*
X2467Y2303D01*
X129Y2302D02*
X140Y2302D01*
X2457Y2302D02*
X2468Y2302D01*
X128Y2301D02*
X139Y2301D01*
X2458Y2301D02*
X2469Y2301D01*
X126Y2300D02*
X138Y2300D01*
X2459Y2300D02*
X2471Y2300D01*
X125Y2299D02*
X136Y2299D01*
X2461Y2299D02*
X2472Y2299D01*
X124Y2298D02*
X135Y2298D01*
X2462Y2298D02*
X2473Y2298D01*
X123Y2297D02*
X134Y2297D01*
X2463Y2297D02*
X2474Y2297D01*
X122Y2296D02*
X133Y2296D01*
X2464Y2296D02*
X2475Y2296D01*
X121Y2295D02*
X132Y2295D01*
X2465Y2295D02*
X2476Y2295D01*
X120Y2294D02*
X131Y2294D01*
X2466Y2294D02*
X2477Y2294D01*
X119Y2293D02*
X130Y2293D01*
X2467Y2293D02*
X2478Y2293D01*
X118Y2292D02*
X129Y2292D01*
X2468Y2292D02*
X2479Y2292D01*
X117Y2291D02*
X128Y2291D01*
X2469Y2291D02*
X2480Y2291D01*
X116Y2290D02*
X126Y2290D01*
X2471Y2290D02*
X2481Y2290D01*
X115Y2289D02*
X125Y2289D01*
X2472Y2289D02*
X2482Y2289D01*
X114Y2288D02*
X124Y2288D01*
X2473Y2288D02*
X2483Y2288D01*
X113Y2287D02*
X123Y2287D01*
X2474Y2287D02*
X2484Y2287D01*
X112Y2286D02*
X122Y2286D01*
X2475Y2286D02*
X2485Y2286D01*
X111Y2285D02*
X121Y2285D01*
X2476Y2285D02*
X2486Y2285D01*
X110Y2284D02*
X120Y2284D01*
X2477Y2284D02*
X2487Y2284D01*
X109Y2283D02*
X119Y2283D01*
X2478Y2283D02*
X2488Y2283D01*
X108Y2282D02*
X118Y2282D01*
X2479Y2282D02*
X2489Y2282D01*
X107Y2281D02*
X117Y2281D01*
X2480Y2281D02*
X2490Y2281D01*
X106Y2280D02*
X116Y2280D01*
X2481Y2280D02*
X2491Y2280D01*
X105Y2279D02*
X115Y2279D01*
X2482Y2279D02*
X2492Y2279D01*
X104Y2278D02*
X114Y2278D01*
X2483Y2278D02*
X2493Y2278D01*
X103Y2277D02*
X113Y2277D01*
X2484Y2277D02*
X2494Y2277D01*
X102Y2276D02*
X112Y2276D01*
X2485Y2276D02*
X2495Y2276D01*
X101Y2275D02*
X111Y2275D01*
X2486Y2275D02*
X2496Y2275D01*
X100Y2274D02*
X110Y2274D01*
X2487Y2274D02*
X2497Y2274D01*
X100Y2273D02*
X109Y2273D01*
X2488Y2273D02*
X2497Y2273D01*
X99Y2272D02*
X108Y2272D01*
X2489Y2272D02*
X2498Y2272D01*
X98Y2271D02*
X107Y2271D01*
X2490Y2271D02*
X2499Y2271D01*
X97Y2270D02*
X107Y2270D01*
X2490Y2270D02*
X2500Y2270D01*
X96Y2269D02*
X106Y2269D01*
X2491Y2269D02*
X2501Y2269D01*
X95Y2268D02*
X105Y2268D01*
X2492Y2268D02*
X2502Y2268D01*
X94Y2267D02*
X104Y2267D01*
X2493Y2267D02*
X2503Y2267D01*
X93Y2266D02*
X103Y2266D01*
X2494Y2266D02*
X2504Y2266D01*
X93Y2265D02*
X102Y2265D01*
X2495Y2265D02*
X2504Y2265D01*
X92Y2264D02*
X101Y2264D01*
X2496Y2264D02*
X2505Y2264D01*
X91Y2263D02*
X100Y2263D01*
X2497Y2263D02*
X2506Y2263D01*
X90Y2262D02*
X100Y2262D01*
X2497Y2262D02*
X2507Y2262D01*
X89Y2261D02*
X99Y2261D01*
X2498Y2261D02*
X2508Y2261D01*
X88Y2260D02*
X98Y2260D01*
X2499Y2260D02*
X2509Y2260D01*
X87Y2259D02*
X97Y2259D01*
X2500Y2259D02*
X2510Y2259D01*
X87Y2258D02*
X96Y2258D01*
X2501Y2258D02*
X2510Y2258D01*
X86Y2257D02*
X95Y2257D01*
X2502Y2257D02*
X2511Y2257D01*
X85Y2256D02*
X94Y2256D01*
X2503Y2256D02*
X2512Y2256D01*
X84Y2255D02*
X93Y2255D01*
X2504Y2255D02*
X2513Y2255D01*
X83Y2254D02*
X93Y2254D01*
X2504Y2254D02*
X2513Y2254D01*
X83Y2253D02*
X92Y2253D01*
X2505Y2253D02*
X2514Y2253D01*
X82Y2252D02*
X91Y2252D01*
X2506Y2252D02*
X2515Y2252D01*
X81Y2251D02*
X90Y2251D01*
X2507Y2251D02*
X2516Y2251D01*
X80Y2250D02*
X89Y2250D01*
X2508Y2250D02*
X2517Y2250D01*
X80Y2249D02*
X89Y2249D01*
X2508Y2249D02*
X2517Y2249D01*
X79Y2248D02*
X88Y2248D01*
X2509Y2248D02*
X2518Y2248D01*
X78Y2247D02*
X87Y2247D01*
X2510Y2247D02*
X2519Y2247D01*
X77Y2246D02*
X86Y2246D01*
X2511Y2246D02*
X2520Y2246D01*
X76Y2245D02*
X86Y2245D01*
X2511Y2245D02*
X2521Y2245D01*
X76Y2244D02*
X85Y2244D01*
X2512Y2244D02*
X2521Y2244D01*
X75Y2243D02*
X84Y2243D01*
X2513Y2243D02*
X2522Y2243D01*
X74Y2242D02*
X83Y2242D01*
X2514Y2242D02*
X2523Y2242D01*
X74Y2241D02*
X82Y2241D01*
X2515Y2241D02*
X2523Y2241D01*
X73Y2240D02*
X82Y2240D01*
X2515Y2240D02*
X2524Y2240D01*
X72Y2239D02*
X81Y2239D01*
X2516Y2239D02*
X2525Y2239D01*
X71Y2238D02*
X80Y2238D01*
X2517Y2238D02*
X2526Y2238D01*
X71Y2237D02*
X80Y2237D01*
X2517Y2237D02*
X2526Y2237D01*
X70Y2236D02*
X79Y2236D01*
X2518Y2236D02*
X2527Y2236D01*
X69Y2235D02*
X78Y2235D01*
X2519Y2235D02*
X2528Y2235D01*
X69Y2234D02*
X77Y2234D01*
X2520Y2234D02*
X2528Y2234D01*
X68Y2233D02*
X77Y2233D01*
X2520Y2233D02*
X2529Y2233D01*
X67Y2232D02*
X76Y2232D01*
X2521Y2232D02*
X2530Y2232D01*
X66Y2231D02*
X75Y2231D01*
X2522Y2231D02*
X2531Y2231D01*
X66Y2230D02*
X74Y2230D01*
X2523Y2230D02*
X2531Y2230D01*
X65Y2229D02*
X74Y2229D01*
X2523Y2229D02*
X2532Y2229D01*
X65Y2228D02*
X73Y2228D01*
X2524Y2228D02*
X2532Y2228D01*
X64Y2227D02*
X72Y2227D01*
X2525Y2227D02*
X2533Y2227D01*
X63Y2226D02*
X72Y2226D01*
X2525Y2226D02*
X2534Y2226D01*
X63Y2225D02*
X71Y2225D01*
X2526Y2225D02*
X2534Y2225D01*
X62Y2224D02*
X70Y2224D01*
X2527Y2224D02*
X2535Y2224D01*
X61Y2223D02*
X70Y2223D01*
X2527Y2223D02*
X2536Y2223D01*
X61Y2222D02*
X69Y2222D01*
X2528Y2222D02*
X2536Y2222D01*
X60Y2221D02*
X68Y2221D01*
X2529Y2221D02*
X2537Y2221D01*
X59Y2220D02*
X68Y2220D01*
X2529Y2220D02*
X2538Y2220D01*
X59Y2219D02*
X67Y2219D01*
X2530Y2219D02*
X2538Y2219D01*
X58Y2218D02*
X66Y2218D01*
X2531Y2218D02*
X2539Y2218D01*
X57Y2217D02*
X66Y2217D01*
X2531Y2217D02*
X2540Y2217D01*
X57Y2216D02*
X65Y2216D01*
X2532Y2216D02*
X2540Y2216D01*
X56Y2215D02*
X64Y2215D01*
X2532Y2215D02*
X2541Y2215D01*
X56Y2214D02*
X64Y2214D01*
X2533Y2214D02*
X2541Y2214D01*
X55Y2213D02*
X63Y2213D01*
X2534Y2213D02*
X2542Y2213D01*
X54Y2212D02*
X63Y2212D01*
X2534Y2212D02*
X2543Y2212D01*
X54Y2211D02*
X62Y2211D01*
X2535Y2211D02*
X2543Y2211D01*
X53Y2210D02*
X61Y2210D01*
X2536Y2210D02*
X2544Y2210D01*
X53Y2209D02*
X61Y2209D01*
X2536Y2209D02*
X2544Y2209D01*
X52Y2208D02*
X60Y2208D01*
X2537Y2208D02*
X2545Y2208D01*
X51Y2207D02*
X60Y2207D01*
X2537Y2207D02*
X2545Y2207D01*
X51Y2206D02*
X59Y2206D01*
X2538Y2206D02*
X2546Y2206D01*
X50Y2205D02*
X58Y2205D01*
X2539Y2205D02*
X2547Y2205D01*
X50Y2204D02*
X58Y2204D01*
X2539Y2204D02*
X2547Y2204D01*
X49Y2203D02*
X57Y2203D01*
X2540Y2203D02*
X2548Y2203D01*
X49Y2202D02*
X57Y2202D01*
X2540Y2202D02*
X2548Y2202D01*
X48Y2201D02*
X56Y2201D01*
X2541Y2201D02*
X2549Y2201D01*
X47Y2200D02*
X56Y2200D01*
X2541Y2200D02*
X2550Y2200D01*
X47Y2199D02*
X55Y2199D01*
X2542Y2199D02*
X2550Y2199D01*
X46Y2198D02*
X54Y2198D01*
X2543Y2198D02*
X2551Y2198D01*
X46Y2197D02*
X54Y2197D01*
X2543Y2197D02*
X2551Y2197D01*
X45Y2196D02*
X53Y2196D01*
X2544Y2196D02*
X2552Y2196D01*
X45Y2195D02*
X53Y2195D01*
X2544Y2195D02*
X2552Y2195D01*
X44Y2194D02*
X52Y2194D01*
X2545Y2194D02*
X2553Y2194D01*
X44Y2193D02*
X52Y2193D01*
X2545Y2193D02*
X2553Y2193D01*
X43Y2192D02*
X51Y2192D01*
X2546Y2192D02*
X2554Y2192D01*
X43Y2191D02*
X51Y2191D01*
X2546Y2191D02*
X2554Y2191D01*
X42Y2190D02*
X50Y2190D01*
X2547Y2190D02*
X2555Y2190D01*
X42Y2189D02*
X50Y2189D01*
X2547Y2189D02*
X2555Y2189D01*
X41Y2188D02*
X49Y2188D01*
X2548Y2188D02*
X2556Y2188D01*
X41Y2187D02*
X49Y2187D01*
X2548Y2187D02*
X2556Y2187D01*
X40Y2186D02*
X48Y2186D01*
X2549Y2186D02*
X2557Y2186D01*
X40Y2185D02*
X48Y2185D01*
X2549Y2185D02*
X2557Y2185D01*
X39Y2184D02*
X47Y2184D01*
X2550Y2184D02*
X2558Y2184D01*
X39Y2183D02*
X46Y2183D01*
X2551Y2183D02*
X2558Y2183D01*
X38Y2182D02*
X46Y2182D01*
X2551Y2182D02*
X2559Y2182D01*
X38Y2181D02*
X45Y2181D01*
X2552Y2181D02*
X2559Y2181D01*
X37Y2180D02*
X45Y2180D01*
X2552Y2180D02*
X2560Y2180D01*
X37Y2179D02*
X44Y2179D01*
X2553Y2179D02*
X2560Y2179D01*
X36Y2178D02*
X44Y2178D01*
X2553Y2178D02*
X2561Y2178D01*
X36Y2177D02*
X44Y2177D01*
X2553Y2177D02*
X2561Y2177D01*
X35Y2176D02*
X43Y2176D01*
X2554Y2176D02*
X2562Y2176D01*
X35Y2175D02*
X43Y2175D01*
X2554Y2175D02*
X2562Y2175D01*
X34Y2174D02*
X42Y2174D01*
X2555Y2174D02*
X2563Y2174D01*
X34Y2173D02*
X42Y2173D01*
X2555Y2173D02*
X2563Y2173D01*
X34Y2172D02*
X41Y2172D01*
X2556Y2172D02*
X2563Y2172D01*
X33Y2171D02*
X41Y2171D01*
X2556Y2171D02*
X2564Y2171D01*
X33Y2170D02*
X40Y2170D01*
X2557Y2170D02*
X2564Y2170D01*
X32Y2169D02*
X40Y2169D01*
X2557Y2169D02*
X2565Y2169D01*
X32Y2168D02*
X39Y2168D01*
X2558Y2168D02*
X2565Y2168D01*
X31Y2167D02*
X39Y2167D01*
X2558Y2167D02*
X2566Y2167D01*
X31Y2166D02*
X38Y2166D01*
X2559Y2166D02*
X2566Y2166D01*
X30Y2165D02*
X38Y2165D01*
X2559Y2165D02*
X2567Y2165D01*
X30Y2164D02*
X38Y2164D01*
X2559Y2164D02*
X2567Y2164D01*
X30Y2163D02*
X37Y2163D01*
X2560Y2163D02*
X2567Y2163D01*
X29Y2162D02*
X37Y2162D01*
X2560Y2162D02*
X2568Y2162D01*
X29Y2161D02*
X36Y2161D01*
X2561Y2161D02*
X2568Y2161D01*
X28Y2160D02*
X36Y2160D01*
X2561Y2160D02*
X2569Y2160D01*
X28Y2159D02*
X35Y2159D01*
X2562Y2159D02*
X2569Y2159D01*
X28Y2158D02*
X35Y2158D01*
X2562Y2158D02*
X2569Y2158D01*
X27Y2157D02*
X35Y2157D01*
X2562Y2157D02*
X2570Y2157D01*
X27Y2156D02*
X34Y2156D01*
X2563Y2156D02*
X2570Y2156D01*
X26Y2155D02*
X34Y2155D01*
X2563Y2155D02*
X2571Y2155D01*
X26Y2154D02*
X33Y2154D01*
X2564Y2154D02*
X2571Y2154D01*
X26Y2153D02*
X33Y2153D01*
X2564Y2153D02*
X2571Y2153D01*
X25Y2152D02*
X33Y2152D01*
X2564Y2152D02*
X2572Y2152D01*
X25Y2151D02*
X32Y2151D01*
X2565Y2151D02*
X2572Y2151D01*
X24Y2150D02*
X32Y2150D01*
X2565Y2150D02*
X2573Y2150D01*
X24Y2149D02*
X31Y2149D01*
X2566Y2149D02*
X2573Y2149D01*
X24Y2148D02*
X31Y2148D01*
X2566Y2148D02*
X2573Y2148D01*
X23Y2147D02*
X31Y2147D01*
X2566Y2147D02*
X2574Y2147D01*
X23Y2146D02*
X30Y2146D01*
X2567Y2146D02*
X2574Y2146D01*
X23Y2145D02*
X30Y2145D01*
X2567Y2145D02*
X2574Y2145D01*
X22Y2144D02*
X30Y2144D01*
X2567Y2144D02*
X2575Y2144D01*
X22Y2143D02*
X29Y2143D01*
X2568Y2143D02*
X2575Y2143D01*
X22Y2142D02*
X29Y2142D01*
X2568Y2142D02*
X2575Y2142D01*
X21Y2141D02*
X29Y2141D01*
X2568Y2141D02*
X2576Y2141D01*
X21Y2140D02*
X28Y2140D01*
X2569Y2140D02*
X2576Y2140D01*
X21Y2139D02*
X28Y2139D01*
X2569Y2139D02*
X2576Y2139D01*
X20Y2138D02*
X28Y2138D01*
X2569Y2138D02*
X2577Y2138D01*
X20Y2137D02*
X27Y2137D01*
X2570Y2137D02*
X2577Y2137D01*
X20Y2136D02*
X27Y2136D01*
X2570Y2136D02*
X2577Y2136D01*
X19Y2135D02*
X27Y2135D01*
X2570Y2135D02*
X2578Y2135D01*
X19Y2134D02*
X26Y2134D01*
X2571Y2134D02*
X2578Y2134D01*
X19Y2133D02*
X26Y2133D01*
X2571Y2133D02*
X2578Y2133D01*
X18Y2132D02*
X25Y2132D01*
X2572Y2132D02*
X2579Y2132D01*
X18Y2131D02*
X25Y2131D01*
X2572Y2131D02*
X2579Y2131D01*
X18Y2130D02*
X25Y2130D01*
X2572Y2130D02*
X2579Y2130D01*
X17Y2129D02*
X24Y2129D01*
X2573Y2129D02*
X2580Y2129D01*
X17Y2128D02*
X24Y2128D01*
X2573Y2128D02*
X2580Y2128D01*
X17Y2127D02*
X24Y2127D01*
X2573Y2127D02*
X2580Y2127D01*
X16Y2126D02*
X24Y2126D01*
X2573Y2126D02*
X2581Y2126D01*
X16Y2125D02*
X23Y2125D01*
X2574Y2125D02*
X2581Y2125D01*
X16Y2124D02*
X23Y2124D01*
X2574Y2124D02*
X2581Y2124D01*
X15Y2123D02*
X23Y2123D01*
X2574Y2123D02*
X2582Y2123D01*
X15Y2122D02*
X22Y2122D01*
X2575Y2122D02*
X2582Y2122D01*
X15Y2121D02*
X22Y2121D01*
X2575Y2121D02*
X2582Y2121D01*
X15Y2120D02*
X22Y2120D01*
X2575Y2120D02*
X2582Y2120D01*
X14Y2119D02*
X21Y2119D01*
X2576Y2119D02*
X2583Y2119D01*
X14Y2118D02*
X21Y2118D01*
X2576Y2118D02*
X2583Y2118D01*
X14Y2117D02*
X21Y2117D01*
X2576Y2117D02*
X2583Y2117D01*
X13Y2116D02*
X21Y2116D01*
X2576Y2116D02*
X2584Y2116D01*
X13Y2115D02*
X20Y2115D01*
X2577Y2115D02*
X2584Y2115D01*
X13Y2114D02*
X20Y2114D01*
X2577Y2114D02*
X2584Y2114D01*
X13Y2113D02*
X20Y2113D01*
X2577Y2113D02*
X2584Y2113D01*
X12Y2112D02*
X20Y2112D01*
X2577Y2112D02*
X2585Y2112D01*
X12Y2111D02*
X19Y2111D01*
X2578Y2111D02*
X2585Y2111D01*
X12Y2110D02*
X19Y2110D01*
X2578Y2110D02*
X2585Y2110D01*
X12Y2109D02*
X19Y2109D01*
X2578Y2109D02*
X2585Y2109D01*
X11Y2108D02*
X18Y2108D01*
X2579Y2108D02*
X2586Y2108D01*
X11Y2107D02*
X18Y2107D01*
X2579Y2107D02*
X2586Y2107D01*
X11Y2106D02*
X18Y2106D01*
X2579Y2106D02*
X2586Y2106D01*
X11Y2105D02*
X18Y2105D01*
X2579Y2105D02*
X2586Y2105D01*
X10Y2104D02*
X17Y2104D01*
X2580Y2104D02*
X2587Y2104D01*
X10Y2103D02*
X17Y2103D01*
X2580Y2103D02*
X2587Y2103D01*
X10Y2102D02*
X17Y2102D01*
X2580Y2102D02*
X2587Y2102D01*
X10Y2101D02*
X17Y2101D01*
X2580Y2101D02*
X2587Y2101D01*
X9Y2100D02*
X17Y2100D01*
X2580Y2100D02*
X2588Y2100D01*
X9Y2099D02*
X16Y2099D01*
X2581Y2099D02*
X2588Y2099D01*
X9Y2098D02*
X16Y2098D01*
X2581Y2098D02*
X2588Y2098D01*
X9Y2097D02*
X16Y2097D01*
X2581Y2097D02*
X2588Y2097D01*
X9Y2096D02*
X16Y2096D01*
X2581Y2096D02*
X2588Y2096D01*
X8Y2095D02*
X15Y2095D01*
X2582Y2095D02*
X2589Y2095D01*
X8Y2094D02*
X15Y2094D01*
X2582Y2094D02*
X2589Y2094D01*
X8Y2093D02*
X15Y2093D01*
X2582Y2093D02*
X2589Y2093D01*
X8Y2092D02*
X15Y2092D01*
X2582Y2092D02*
X2589Y2092D01*
X8Y2091D02*
X15Y2091D01*
X2582Y2091D02*
X2589Y2091D01*
X7Y2090D02*
X14Y2090D01*
X2583Y2090D02*
X2590Y2090D01*
X7Y2089D02*
X14Y2089D01*
X2583Y2089D02*
X2590Y2089D01*
X7Y2088D02*
X14Y2088D01*
X2583Y2088D02*
X2590Y2088D01*
X7Y2087D02*
X14Y2087D01*
X2583Y2087D02*
X2590Y2087D01*
X7Y2086D02*
X14Y2086D01*
X2583Y2086D02*
X2590Y2086D01*
X6Y2085D02*
X13Y2085D01*
X2584Y2085D02*
X2591Y2085D01*
X6Y2084D02*
X13Y2084D01*
X2584Y2084D02*
X2591Y2084D01*
X6Y2083D02*
X13Y2083D01*
X2584Y2083D02*
X2591Y2083D01*
X6Y2082D02*
X13Y2082D01*
X2584Y2082D02*
X2591Y2082D01*
X6Y2081D02*
X13Y2081D01*
X2584Y2081D02*
X2591Y2081D01*
X5Y2080D02*
X13Y2080D01*
X2584Y2080D02*
X2592Y2080D01*
X5Y2079D02*
X12Y2079D01*
X2585Y2079D02*
X2592Y2079D01*
X5Y2078D02*
X12Y2078D01*
X2585Y2078D02*
X2592Y2078D01*
X5Y2077D02*
X12Y2077D01*
X2585Y2077D02*
X2592Y2077D01*
X5Y2076D02*
X12Y2076D01*
X2585Y2076D02*
X2592Y2076D01*
X5Y2075D02*
X12Y2075D01*
X2585Y2075D02*
X2592Y2075D01*
X4Y2074D02*
X12Y2074D01*
X2585Y2074D02*
X2593Y2074D01*
X4Y2073D02*
X11Y2073D01*
X2586Y2073D02*
X2593Y2073D01*
X4Y2072D02*
X11Y2072D01*
X2586Y2072D02*
X2593Y2072D01*
X4Y2071D02*
X11Y2071D01*
X2586Y2071D02*
X2593Y2071D01*
X4Y2070D02*
X11Y2070D01*
X2586Y2070D02*
X2593Y2070D01*
X4Y2069D02*
X11Y2069D01*
X2586Y2069D02*
X2593Y2069D01*
X4Y2068D02*
X11Y2068D01*
X2586Y2068D02*
X2593Y2068D01*
X3Y2067D02*
X11Y2067D01*
X2586Y2067D02*
X2594Y2067D01*
X3Y2066D02*
X10Y2066D01*
X2587Y2066D02*
X2594Y2066D01*
X3Y2065D02*
X10Y2065D01*
X2587Y2065D02*
X2594Y2065D01*
X3Y2064D02*
X10Y2064D01*
X2587Y2064D02*
X2594Y2064D01*
X3Y2063D02*
X10Y2063D01*
X2587Y2063D02*
X2594Y2063D01*
X3Y2062D02*
X10Y2062D01*
X2587Y2062D02*
X2594Y2062D01*
X3Y2061D02*
X10Y2061D01*
X2587Y2061D02*
X2594Y2061D01*
X3Y2060D02*
X10Y2060D01*
X2587Y2060D02*
X2594Y2060D01*
X2Y2059D02*
X10Y2059D01*
X2587Y2059D02*
X2595Y2059D01*
X2Y2058D02*
X9Y2058D01*
X2588Y2058D02*
X2595Y2058D01*
X2Y2057D02*
X9Y2057D01*
X2588Y2057D02*
X2595Y2057D01*
X2Y2056D02*
X9Y2056D01*
X2588Y2056D02*
X2595Y2056D01*
X2Y2055D02*
X9Y2055D01*
X2588Y2055D02*
X2595Y2055D01*
X2Y2054D02*
X9Y2054D01*
X2588Y2054D02*
X2595Y2054D01*
X2Y2053D02*
X9Y2053D01*
X2588Y2053D02*
X2595Y2053D01*
X2Y2052D02*
X9Y2052D01*
X2588Y2052D02*
X2595Y2052D01*
X2Y2051D02*
X9Y2051D01*
X2588Y2051D02*
X2595Y2051D01*
X2Y2050D02*
X9Y2050D01*
X2588Y2050D02*
X2595Y2050D01*
X1Y2049D02*
X8Y2049D01*
X2589Y2049D02*
X2596Y2049D01*
X1Y2048D02*
X8Y2048D01*
X2589Y2048D02*
X2596Y2048D01*
X1Y2047D02*
X8Y2047D01*
X2589Y2047D02*
X2596Y2047D01*
X1Y2046D02*
X8Y2046D01*
X2589Y2046D02*
X2596Y2046D01*
X1Y2045D02*
X8Y2045D01*
X2589Y2045D02*
X2596Y2045D01*
X1Y2044D02*
X8Y2044D01*
X2589Y2044D02*
X2596Y2044D01*
X1Y2043D02*
X8Y2043D01*
X2589Y2043D02*
X2596Y2043D01*
X1Y2042D02*
X8Y2042D01*
X2589Y2042D02*
X2596Y2042D01*
X1Y2041D02*
X8Y2041D01*
X2589Y2041D02*
X2596Y2041D01*
X1Y2040D02*
X8Y2040D01*
X2589Y2040D02*
X2596Y2040D01*
X1Y2039D02*
X8Y2039D01*
X2589Y2039D02*
X2596Y2039D01*
X1Y2038D02*
X8Y2038D01*
X2589Y2038D02*
X2596Y2038D01*
X1Y2037D02*
X8Y2037D01*
X2589Y2037D02*
X2596Y2037D01*
X1Y2036D02*
X8Y2036D01*
X2589Y2036D02*
X2596Y2036D01*
X0Y2035D02*
X7Y2035D01*
X2589Y2035D02*
X2597Y2035D01*
X0Y2034D02*
X7Y2034D01*
X2590Y2034D02*
X2597Y2034D01*
X0Y2033D02*
X7Y2033D01*
X2590Y2033D02*
X2597Y2033D01*
X0Y2032D02*
X7Y2032D01*
X2590Y2032D02*
X2597Y2032D01*
X0Y2031D02*
X7Y2031D01*
X2590Y2031D02*
X2597Y2031D01*
X0Y2030D02*
X7Y2030D01*
X2590Y2030D02*
X2597Y2030D01*
X0Y2029D02*
X7Y2029D01*
X2590Y2029D02*
X2597Y2029D01*
X0Y2028D02*
X7Y2028D01*
X2590Y2028D02*
X2597Y2028D01*
X0Y2027D02*
X7Y2027D01*
X2590Y2027D02*
X2597Y2027D01*
X0Y2026D02*
X7Y2026D01*
X2590Y2026D02*
X2597Y2026D01*
X0Y2025D02*
X7Y2025D01*
X2590Y2025D02*
X2597Y2025D01*
X0Y2024D02*
X7Y2024D01*
X2590Y2024D02*
X2597Y2024D01*
X0Y2023D02*
X7Y2023D01*
X2590Y2023D02*
X2597Y2023D01*
X0Y2022D02*
X7Y2022D01*
X2590Y2022D02*
X2597Y2022D01*
X0Y2021D02*
X7Y2021D01*
X2590Y2021D02*
X2597Y2021D01*
X0Y2020D02*
X7Y2020D01*
X2590Y2020D02*
X2597Y2020D01*
X0Y2019D02*
X7Y2019D01*
X2590Y2019D02*
X2597Y2019D01*
X0Y2018D02*
X7Y2018D01*
X2590Y2018D02*
X2597Y2018D01*
X0Y2017D02*
X7Y2017D01*
X2590Y2017D02*
X2597Y2017D01*
X0Y2016D02*
X7Y2016D01*
X2590Y2016D02*
X2597Y2016D01*
X0Y2015D02*
X7Y2015D01*
X2590Y2015D02*
X2597Y2015D01*
X0Y2014D02*
X7Y2014D01*
X2590Y2014D02*
X2597Y2014D01*
X0Y2013D02*
X7Y2013D01*
X2590Y2013D02*
X2597Y2013D01*
X0Y2012D02*
X7Y2012D01*
X2590Y2012D02*
X2597Y2012D01*
X0Y2011D02*
X7Y2011D01*
X2590Y2011D02*
X2597Y2011D01*
X0Y2010D02*
X7Y2010D01*
X2590Y2010D02*
X2597Y2010D01*
X0Y2009D02*
X7Y2009D01*
X2590Y2009D02*
X2597Y2009D01*
X0Y2008D02*
X7Y2008D01*
X2590Y2008D02*
X2597Y2008D01*
X0Y2007D02*
X7Y2007D01*
X2590Y2007D02*
X2597Y2007D01*
X0Y2006D02*
X7Y2006D01*
X2590Y2006D02*
X2597Y2006D01*
X0Y2005D02*
X7Y2005D01*
X2590Y2005D02*
X2597Y2005D01*
X0Y2004D02*
X7Y2004D01*
X2590Y2004D02*
X2597Y2004D01*
X0Y2003D02*
X7Y2003D01*
X2590Y2003D02*
X2597Y2003D01*
X0Y2002D02*
X7Y2002D01*
X2590Y2002D02*
X2597Y2002D01*
X0Y2001D02*
X7Y2001D01*
X2590Y2001D02*
X2597Y2001D01*
X0Y2000D02*
X7Y2000D01*
X2590Y2000D02*
X2597Y2000D01*
X0Y1999D02*
X7Y1999D01*
X2590Y1999D02*
X2597Y1999D01*
X0Y1998D02*
X7Y1998D01*
X2590Y1998D02*
X2597Y1998D01*
X0Y1997D02*
X7Y1997D01*
X2590Y1997D02*
X2597Y1997D01*
X0Y1996D02*
X7Y1996D01*
X2590Y1996D02*
X2597Y1996D01*
X0Y1995D02*
X7Y1995D01*
X2590Y1995D02*
X2597Y1995D01*
X0Y1994D02*
X7Y1994D01*
X2590Y1994D02*
X2597Y1994D01*
X0Y1993D02*
X7Y1993D01*
X2590Y1993D02*
X2597Y1993D01*
X0Y1992D02*
X7Y1992D01*
X2590Y1992D02*
X2597Y1992D01*
X0Y1991D02*
X7Y1991D01*
X2590Y1991D02*
X2597Y1991D01*
X0Y1990D02*
X7Y1990D01*
X2590Y1990D02*
X2597Y1990D01*
X0Y1989D02*
X7Y1989D01*
X2590Y1989D02*
X2597Y1989D01*
X0Y1988D02*
X7Y1988D01*
X2590Y1988D02*
X2597Y1988D01*
X0Y1987D02*
X7Y1987D01*
X2590Y1987D02*
X2597Y1987D01*
X0Y1986D02*
X7Y1986D01*
X2590Y1986D02*
X2597Y1986D01*
X0Y1985D02*
X7Y1985D01*
X2590Y1985D02*
X2597Y1985D01*
X0Y1984D02*
X7Y1984D01*
X2590Y1984D02*
X2597Y1984D01*
X0Y1983D02*
X7Y1983D01*
X2590Y1983D02*
X2597Y1983D01*
X0Y1982D02*
X7Y1982D01*
X2590Y1982D02*
X2597Y1982D01*
X0Y1981D02*
X7Y1981D01*
X2590Y1981D02*
X2597Y1981D01*
X0Y1980D02*
X7Y1980D01*
X2590Y1980D02*
X2597Y1980D01*
X0Y1979D02*
X7Y1979D01*
X2590Y1979D02*
X2597Y1979D01*
X0Y1978D02*
X7Y1978D01*
X2590Y1978D02*
X2597Y1978D01*
X0Y1977D02*
X7Y1977D01*
X2590Y1977D02*
X2597Y1977D01*
X0Y1976D02*
X7Y1976D01*
X2590Y1976D02*
X2597Y1976D01*
X0Y1975D02*
X7Y1975D01*
X2590Y1975D02*
X2597Y1975D01*
X0Y1974D02*
X7Y1974D01*
X2590Y1974D02*
X2597Y1974D01*
X0Y1973D02*
X7Y1973D01*
X2590Y1973D02*
X2597Y1973D01*
X0Y1972D02*
X7Y1972D01*
X2590Y1972D02*
X2597Y1972D01*
X0Y1971D02*
X7Y1971D01*
X2590Y1971D02*
X2597Y1971D01*
X0Y1970D02*
X7Y1970D01*
X2590Y1970D02*
X2597Y1970D01*
X0Y1969D02*
X7Y1969D01*
X2590Y1969D02*
X2597Y1969D01*
X0Y1968D02*
X7Y1968D01*
X2590Y1968D02*
X2597Y1968D01*
X0Y1967D02*
X7Y1967D01*
X2590Y1967D02*
X2597Y1967D01*
X0Y1966D02*
X7Y1966D01*
X2590Y1966D02*
X2597Y1966D01*
X0Y1965D02*
X7Y1965D01*
X2590Y1965D02*
X2597Y1965D01*
X0Y1964D02*
X7Y1964D01*
X2590Y1964D02*
X2597Y1964D01*
X0Y1963D02*
X7Y1963D01*
X2590Y1963D02*
X2597Y1963D01*
X0Y1962D02*
X7Y1962D01*
X2590Y1962D02*
X2597Y1962D01*
X0Y1961D02*
X7Y1961D01*
X2590Y1961D02*
X2597Y1961D01*
X0Y1960D02*
X7Y1960D01*
X2590Y1960D02*
X2597Y1960D01*
X0Y1959D02*
X7Y1959D01*
X2590Y1959D02*
X2597Y1959D01*
X0Y1958D02*
X7Y1958D01*
X2590Y1958D02*
X2597Y1958D01*
X0Y1957D02*
X7Y1957D01*
X2590Y1957D02*
X2597Y1957D01*
X0Y1956D02*
X7Y1956D01*
X2590Y1956D02*
X2597Y1956D01*
X0Y1955D02*
X7Y1955D01*
X2590Y1955D02*
X2597Y1955D01*
X0Y1954D02*
X7Y1954D01*
X2590Y1954D02*
X2597Y1954D01*
X0Y1953D02*
X7Y1953D01*
X2590Y1953D02*
X2597Y1953D01*
X0Y1952D02*
X7Y1952D01*
X2590Y1952D02*
X2597Y1952D01*
X0Y1951D02*
X7Y1951D01*
X2590Y1951D02*
X2597Y1951D01*
X0Y1950D02*
X7Y1950D01*
X2590Y1950D02*
X2597Y1950D01*
X0Y1949D02*
X7Y1949D01*
X2590Y1949D02*
X2597Y1949D01*
X0Y1948D02*
X7Y1948D01*
X2590Y1948D02*
X2597Y1948D01*
X0Y1947D02*
X7Y1947D01*
X2590Y1947D02*
X2597Y1947D01*
X0Y1946D02*
X7Y1946D01*
X2590Y1946D02*
X2597Y1946D01*
X0Y1945D02*
X7Y1945D01*
X2590Y1945D02*
X2597Y1945D01*
X0Y1944D02*
X7Y1944D01*
X2590Y1944D02*
X2597Y1944D01*
X0Y1943D02*
X7Y1943D01*
X2590Y1943D02*
X2597Y1943D01*
X0Y1942D02*
X7Y1942D01*
X2590Y1942D02*
X2597Y1942D01*
X0Y1941D02*
X7Y1941D01*
X2590Y1941D02*
X2597Y1941D01*
X0Y1940D02*
X7Y1940D01*
X2590Y1940D02*
X2597Y1940D01*
X0Y1939D02*
X7Y1939D01*
X2590Y1939D02*
X2597Y1939D01*
X0Y1938D02*
X7Y1938D01*
X2590Y1938D02*
X2597Y1938D01*
X0Y1937D02*
X7Y1937D01*
X2590Y1937D02*
X2597Y1937D01*
X0Y1936D02*
X7Y1936D01*
X2590Y1936D02*
X2597Y1936D01*
X0Y1935D02*
X7Y1935D01*
X2590Y1935D02*
X2597Y1935D01*
X0Y1934D02*
X7Y1934D01*
X2590Y1934D02*
X2597Y1934D01*
X0Y1933D02*
X7Y1933D01*
X2590Y1933D02*
X2597Y1933D01*
X0Y1932D02*
X7Y1932D01*
X2590Y1932D02*
X2597Y1932D01*
X0Y1931D02*
X7Y1931D01*
X2590Y1931D02*
X2597Y1931D01*
X0Y1930D02*
X7Y1930D01*
X2590Y1930D02*
X2597Y1930D01*
X0Y1929D02*
X7Y1929D01*
X2590Y1929D02*
X2597Y1929D01*
X0Y1928D02*
X7Y1928D01*
X2590Y1928D02*
X2597Y1928D01*
X0Y1927D02*
X7Y1927D01*
X2590Y1927D02*
X2597Y1927D01*
X0Y1926D02*
X7Y1926D01*
X2590Y1926D02*
X2597Y1926D01*
X0Y1925D02*
X7Y1925D01*
X2590Y1925D02*
X2597Y1925D01*
X0Y1924D02*
X7Y1924D01*
X2590Y1924D02*
X2597Y1924D01*
X0Y1923D02*
X7Y1923D01*
X2590Y1923D02*
X2597Y1923D01*
X0Y1922D02*
X7Y1922D01*
X2590Y1922D02*
X2597Y1922D01*
X0Y1921D02*
X7Y1921D01*
X2590Y1921D02*
X2597Y1921D01*
X0Y1920D02*
X7Y1920D01*
X2590Y1920D02*
X2597Y1920D01*
X0Y1919D02*
X7Y1919D01*
X2590Y1919D02*
X2597Y1919D01*
X0Y1918D02*
X7Y1918D01*
X2590Y1918D02*
X2597Y1918D01*
X0Y1917D02*
X7Y1917D01*
X2590Y1917D02*
X2597Y1917D01*
X0Y1916D02*
X7Y1916D01*
X2590Y1916D02*
X2597Y1916D01*
X0Y1915D02*
X7Y1915D01*
X2590Y1915D02*
X2597Y1915D01*
X0Y1914D02*
X7Y1914D01*
X2590Y1914D02*
X2597Y1914D01*
X0Y1913D02*
X7Y1913D01*
X2590Y1913D02*
X2597Y1913D01*
X0Y1912D02*
X7Y1912D01*
X2590Y1912D02*
X2597Y1912D01*
X0Y1911D02*
X7Y1911D01*
X2590Y1911D02*
X2597Y1911D01*
X0Y1910D02*
X7Y1910D01*
X2590Y1910D02*
X2597Y1910D01*
X0Y1909D02*
X7Y1909D01*
X2590Y1909D02*
X2597Y1909D01*
X0Y1908D02*
X7Y1908D01*
X2590Y1908D02*
X2597Y1908D01*
X0Y1907D02*
X7Y1907D01*
X2590Y1907D02*
X2597Y1907D01*
X0Y1906D02*
X7Y1906D01*
X2590Y1906D02*
X2597Y1906D01*
X0Y1905D02*
X7Y1905D01*
X2590Y1905D02*
X2597Y1905D01*
X0Y1904D02*
X7Y1904D01*
X2590Y1904D02*
X2597Y1904D01*
X0Y1903D02*
X7Y1903D01*
X2590Y1903D02*
X2597Y1903D01*
X0Y1902D02*
X7Y1902D01*
X2590Y1902D02*
X2597Y1902D01*
X0Y1901D02*
X7Y1901D01*
X2590Y1901D02*
X2597Y1901D01*
X0Y1900D02*
X7Y1900D01*
X2590Y1900D02*
X2597Y1900D01*
X0Y1899D02*
X7Y1899D01*
X2590Y1899D02*
X2597Y1899D01*
X0Y1898D02*
X7Y1898D01*
X2590Y1898D02*
X2597Y1898D01*
X0Y1897D02*
X7Y1897D01*
X2590Y1897D02*
X2597Y1897D01*
X0Y1896D02*
X7Y1896D01*
X2590Y1896D02*
X2597Y1896D01*
X0Y1895D02*
X7Y1895D01*
X2590Y1895D02*
X2597Y1895D01*
X0Y1894D02*
X7Y1894D01*
X2590Y1894D02*
X2597Y1894D01*
X0Y1893D02*
X7Y1893D01*
X2590Y1893D02*
X2597Y1893D01*
X0Y1892D02*
X7Y1892D01*
X2590Y1892D02*
X2597Y1892D01*
X0Y1891D02*
X7Y1891D01*
X2590Y1891D02*
X2597Y1891D01*
X0Y1890D02*
X7Y1890D01*
X2590Y1890D02*
X2597Y1890D01*
X0Y1889D02*
X7Y1889D01*
X2590Y1889D02*
X2597Y1889D01*
X0Y1888D02*
X7Y1888D01*
X2590Y1888D02*
X2597Y1888D01*
X0Y1887D02*
X7Y1887D01*
X2590Y1887D02*
X2597Y1887D01*
X0Y1886D02*
X7Y1886D01*
X2590Y1886D02*
X2597Y1886D01*
X0Y1885D02*
X7Y1885D01*
X2590Y1885D02*
X2597Y1885D01*
X0Y1884D02*
X7Y1884D01*
X2590Y1884D02*
X2597Y1884D01*
X0Y1883D02*
X7Y1883D01*
X2590Y1883D02*
X2597Y1883D01*
X0Y1882D02*
X7Y1882D01*
X2590Y1882D02*
X2597Y1882D01*
X0Y1881D02*
X7Y1881D01*
X2590Y1881D02*
X2597Y1881D01*
X0Y1880D02*
X7Y1880D01*
X2590Y1880D02*
X2597Y1880D01*
X0Y1879D02*
X7Y1879D01*
X2590Y1879D02*
X2597Y1879D01*
X0Y1878D02*
X7Y1878D01*
X2590Y1878D02*
X2597Y1878D01*
X0Y1877D02*
X7Y1877D01*
X2590Y1877D02*
X2597Y1877D01*
X0Y1876D02*
X7Y1876D01*
X2590Y1876D02*
X2597Y1876D01*
X0Y1875D02*
X7Y1875D01*
X2590Y1875D02*
X2597Y1875D01*
X0Y1874D02*
X7Y1874D01*
X2590Y1874D02*
X2597Y1874D01*
X0Y1873D02*
X7Y1873D01*
X2590Y1873D02*
X2597Y1873D01*
X0Y1872D02*
X7Y1872D01*
X2590Y1872D02*
X2597Y1872D01*
X0Y1871D02*
X7Y1871D01*
X2590Y1871D02*
X2597Y1871D01*
X0Y1870D02*
X7Y1870D01*
X2590Y1870D02*
X2597Y1870D01*
X0Y1869D02*
X7Y1869D01*
X2590Y1869D02*
X2597Y1869D01*
X0Y1868D02*
X7Y1868D01*
X2590Y1868D02*
X2597Y1868D01*
X0Y1867D02*
X7Y1867D01*
X2590Y1867D02*
X2597Y1867D01*
X0Y1866D02*
X7Y1866D01*
X2590Y1866D02*
X2597Y1866D01*
X0Y1865D02*
X7Y1865D01*
X2590Y1865D02*
X2597Y1865D01*
X0Y1864D02*
X7Y1864D01*
X2590Y1864D02*
X2597Y1864D01*
X0Y1863D02*
X7Y1863D01*
X2590Y1863D02*
X2597Y1863D01*
X0Y1862D02*
X7Y1862D01*
X2590Y1862D02*
X2597Y1862D01*
X0Y1861D02*
X7Y1861D01*
X2590Y1861D02*
X2597Y1861D01*
X0Y1860D02*
X7Y1860D01*
X2590Y1860D02*
X2597Y1860D01*
X0Y1859D02*
X7Y1859D01*
X2590Y1859D02*
X2597Y1859D01*
X0Y1858D02*
X7Y1858D01*
X2590Y1858D02*
X2597Y1858D01*
X0Y1857D02*
X7Y1857D01*
X2590Y1857D02*
X2597Y1857D01*
X0Y1856D02*
X7Y1856D01*
X2590Y1856D02*
X2597Y1856D01*
X0Y1855D02*
X7Y1855D01*
X2590Y1855D02*
X2597Y1855D01*
X0Y1854D02*
X7Y1854D01*
X2590Y1854D02*
X2597Y1854D01*
X0Y1853D02*
X7Y1853D01*
X2590Y1853D02*
X2597Y1853D01*
X0Y1852D02*
X7Y1852D01*
X2590Y1852D02*
X2597Y1852D01*
X0Y1851D02*
X7Y1851D01*
X2590Y1851D02*
X2597Y1851D01*
X0Y1850D02*
X7Y1850D01*
X2590Y1850D02*
X2597Y1850D01*
X0Y1849D02*
X7Y1849D01*
X2590Y1849D02*
X2597Y1849D01*
X0Y1848D02*
X7Y1848D01*
X2590Y1848D02*
X2597Y1848D01*
X0Y1847D02*
X7Y1847D01*
X2590Y1847D02*
X2597Y1847D01*
X0Y1846D02*
X7Y1846D01*
X2590Y1846D02*
X2597Y1846D01*
X0Y1845D02*
X7Y1845D01*
X2590Y1845D02*
X2597Y1845D01*
X0Y1844D02*
X7Y1844D01*
X2590Y1844D02*
X2597Y1844D01*
X0Y1843D02*
X7Y1843D01*
X2590Y1843D02*
X2597Y1843D01*
X0Y1842D02*
X7Y1842D01*
X2590Y1842D02*
X2597Y1842D01*
X0Y1841D02*
X7Y1841D01*
X2590Y1841D02*
X2597Y1841D01*
X0Y1840D02*
X7Y1840D01*
X2590Y1840D02*
X2597Y1840D01*
X0Y1839D02*
X7Y1839D01*
X2590Y1839D02*
X2597Y1839D01*
X0Y1838D02*
X7Y1838D01*
X2590Y1838D02*
X2597Y1838D01*
X0Y1837D02*
X7Y1837D01*
X2590Y1837D02*
X2597Y1837D01*
X0Y1836D02*
X7Y1836D01*
X2590Y1836D02*
X2597Y1836D01*
X0Y1835D02*
X7Y1835D01*
X2590Y1835D02*
X2597Y1835D01*
X0Y1834D02*
X7Y1834D01*
X2590Y1834D02*
X2597Y1834D01*
X0Y1833D02*
X7Y1833D01*
X2590Y1833D02*
X2597Y1833D01*
X0Y1832D02*
X7Y1832D01*
X2590Y1832D02*
X2597Y1832D01*
X0Y1831D02*
X7Y1831D01*
X2590Y1831D02*
X2597Y1831D01*
X0Y1830D02*
X7Y1830D01*
X2590Y1830D02*
X2597Y1830D01*
X0Y1829D02*
X7Y1829D01*
X2590Y1829D02*
X2597Y1829D01*
X0Y1828D02*
X7Y1828D01*
X2590Y1828D02*
X2597Y1828D01*
X0Y1827D02*
X7Y1827D01*
X2590Y1827D02*
X2597Y1827D01*
X0Y1826D02*
X7Y1826D01*
X2590Y1826D02*
X2597Y1826D01*
X0Y1825D02*
X7Y1825D01*
X2590Y1825D02*
X2597Y1825D01*
X0Y1824D02*
X7Y1824D01*
X2590Y1824D02*
X2597Y1824D01*
X0Y1823D02*
X7Y1823D01*
X2590Y1823D02*
X2597Y1823D01*
X0Y1822D02*
X7Y1822D01*
X2590Y1822D02*
X2597Y1822D01*
X0Y1821D02*
X7Y1821D01*
X2590Y1821D02*
X2597Y1821D01*
X0Y1820D02*
X7Y1820D01*
X2590Y1820D02*
X2597Y1820D01*
X0Y1819D02*
X7Y1819D01*
X2590Y1819D02*
X2597Y1819D01*
X0Y1818D02*
X7Y1818D01*
X2590Y1818D02*
X2597Y1818D01*
X0Y1817D02*
X7Y1817D01*
X2590Y1817D02*
X2597Y1817D01*
X0Y1816D02*
X7Y1816D01*
X2590Y1816D02*
X2597Y1816D01*
X0Y1815D02*
X7Y1815D01*
X2590Y1815D02*
X2597Y1815D01*
X0Y1814D02*
X7Y1814D01*
X2590Y1814D02*
X2597Y1814D01*
X0Y1813D02*
X7Y1813D01*
X2590Y1813D02*
X2597Y1813D01*
X0Y1812D02*
X7Y1812D01*
X2590Y1812D02*
X2597Y1812D01*
X0Y1811D02*
X7Y1811D01*
X2590Y1811D02*
X2597Y1811D01*
X0Y1810D02*
X7Y1810D01*
X2590Y1810D02*
X2597Y1810D01*
X0Y1809D02*
X7Y1809D01*
X2590Y1809D02*
X2597Y1809D01*
X0Y1808D02*
X7Y1808D01*
X2590Y1808D02*
X2597Y1808D01*
X0Y1807D02*
X7Y1807D01*
X2590Y1807D02*
X2597Y1807D01*
X0Y1806D02*
X7Y1806D01*
X2590Y1806D02*
X2597Y1806D01*
X0Y1805D02*
X7Y1805D01*
X2590Y1805D02*
X2597Y1805D01*
X0Y1804D02*
X7Y1804D01*
X2590Y1804D02*
X2597Y1804D01*
X0Y1803D02*
X7Y1803D01*
X2590Y1803D02*
X2597Y1803D01*
X0Y1802D02*
X7Y1802D01*
X2590Y1802D02*
X2597Y1802D01*
X0Y1801D02*
X7Y1801D01*
X2590Y1801D02*
X2597Y1801D01*
X0Y1800D02*
X7Y1800D01*
X2590Y1800D02*
X2597Y1800D01*
X0Y1799D02*
X7Y1799D01*
X2590Y1799D02*
X2597Y1799D01*
X0Y1798D02*
X7Y1798D01*
X2590Y1798D02*
X2597Y1798D01*
X0Y1797D02*
X7Y1797D01*
X2590Y1797D02*
X2597Y1797D01*
X0Y1796D02*
X7Y1796D01*
X2590Y1796D02*
X2597Y1796D01*
X0Y1795D02*
X7Y1795D01*
X2590Y1795D02*
X2597Y1795D01*
X0Y1794D02*
X7Y1794D01*
X2590Y1794D02*
X2597Y1794D01*
X0Y1793D02*
X7Y1793D01*
X2590Y1793D02*
X2597Y1793D01*
X0Y1792D02*
X7Y1792D01*
X2590Y1792D02*
X2597Y1792D01*
X0Y1791D02*
X7Y1791D01*
X2590Y1791D02*
X2597Y1791D01*
X0Y1790D02*
X7Y1790D01*
X2590Y1790D02*
X2597Y1790D01*
X0Y1789D02*
X7Y1789D01*
X2590Y1789D02*
X2597Y1789D01*
X0Y1788D02*
X7Y1788D01*
X2590Y1788D02*
X2597Y1788D01*
X0Y1787D02*
X7Y1787D01*
X2590Y1787D02*
X2597Y1787D01*
X0Y1786D02*
X7Y1786D01*
X2590Y1786D02*
X2597Y1786D01*
X0Y1785D02*
X7Y1785D01*
X2590Y1785D02*
X2597Y1785D01*
X0Y1784D02*
X7Y1784D01*
X2590Y1784D02*
X2597Y1784D01*
X0Y1783D02*
X7Y1783D01*
X2590Y1783D02*
X2597Y1783D01*
X0Y1782D02*
X7Y1782D01*
X2590Y1782D02*
X2597Y1782D01*
X0Y1781D02*
X7Y1781D01*
X2590Y1781D02*
X2597Y1781D01*
X0Y1780D02*
X7Y1780D01*
X2590Y1780D02*
X2597Y1780D01*
X0Y1779D02*
X7Y1779D01*
X2590Y1779D02*
X2597Y1779D01*
X0Y1778D02*
X7Y1778D01*
X2590Y1778D02*
X2597Y1778D01*
X0Y1777D02*
X7Y1777D01*
X2590Y1777D02*
X2597Y1777D01*
X0Y1776D02*
X7Y1776D01*
X2590Y1776D02*
X2597Y1776D01*
X0Y1775D02*
X7Y1775D01*
X2590Y1775D02*
X2597Y1775D01*
X0Y1774D02*
X7Y1774D01*
X2590Y1774D02*
X2597Y1774D01*
X0Y1773D02*
X7Y1773D01*
X2590Y1773D02*
X2597Y1773D01*
X0Y1772D02*
X7Y1772D01*
X2590Y1772D02*
X2597Y1772D01*
X0Y1771D02*
X7Y1771D01*
X2590Y1771D02*
X2597Y1771D01*
X0Y1770D02*
X7Y1770D01*
X2590Y1770D02*
X2597Y1770D01*
X0Y1769D02*
X7Y1769D01*
X2590Y1769D02*
X2597Y1769D01*
X0Y1768D02*
X7Y1768D01*
X2590Y1768D02*
X2597Y1768D01*
X0Y1767D02*
X7Y1767D01*
X2590Y1767D02*
X2597Y1767D01*
X0Y1766D02*
X7Y1766D01*
X2590Y1766D02*
X2597Y1766D01*
X0Y1765D02*
X7Y1765D01*
X2590Y1765D02*
X2597Y1765D01*
X0Y1764D02*
X7Y1764D01*
X2590Y1764D02*
X2597Y1764D01*
X0Y1763D02*
X7Y1763D01*
X2590Y1763D02*
X2597Y1763D01*
X0Y1762D02*
X7Y1762D01*
X2590Y1762D02*
X2597Y1762D01*
X0Y1761D02*
X7Y1761D01*
X2590Y1761D02*
X2597Y1761D01*
X0Y1760D02*
X7Y1760D01*
X2590Y1760D02*
X2597Y1760D01*
X0Y1759D02*
X7Y1759D01*
X2590Y1759D02*
X2597Y1759D01*
X0Y1758D02*
X7Y1758D01*
X2590Y1758D02*
X2597Y1758D01*
X0Y1757D02*
X7Y1757D01*
X2590Y1757D02*
X2597Y1757D01*
X0Y1756D02*
X7Y1756D01*
X2590Y1756D02*
X2597Y1756D01*
X0Y1755D02*
X7Y1755D01*
X2590Y1755D02*
X2597Y1755D01*
X0Y1754D02*
X7Y1754D01*
X2590Y1754D02*
X2597Y1754D01*
X0Y1753D02*
X7Y1753D01*
X2590Y1753D02*
X2597Y1753D01*
X0Y1752D02*
X7Y1752D01*
X2590Y1752D02*
X2597Y1752D01*
X0Y1751D02*
X7Y1751D01*
X2590Y1751D02*
X2597Y1751D01*
X0Y1750D02*
X7Y1750D01*
X2590Y1750D02*
X2597Y1750D01*
X0Y1749D02*
X7Y1749D01*
X2590Y1749D02*
X2597Y1749D01*
X0Y1748D02*
X7Y1748D01*
X2590Y1748D02*
X2597Y1748D01*
X0Y1747D02*
X7Y1747D01*
X2590Y1747D02*
X2597Y1747D01*
X0Y1746D02*
X7Y1746D01*
X2590Y1746D02*
X2597Y1746D01*
X0Y1745D02*
X7Y1745D01*
X2590Y1745D02*
X2597Y1745D01*
X0Y1744D02*
X7Y1744D01*
X2590Y1744D02*
X2597Y1744D01*
X0Y1743D02*
X7Y1743D01*
X2590Y1743D02*
X2597Y1743D01*
X0Y1742D02*
X7Y1742D01*
X2590Y1742D02*
X2597Y1742D01*
X0Y1741D02*
X7Y1741D01*
X2590Y1741D02*
X2597Y1741D01*
X0Y1740D02*
X7Y1740D01*
X2590Y1740D02*
X2597Y1740D01*
X0Y1739D02*
X7Y1739D01*
X2590Y1739D02*
X2597Y1739D01*
X0Y1738D02*
X7Y1738D01*
X2590Y1738D02*
X2597Y1738D01*
X0Y1737D02*
X7Y1737D01*
X2590Y1737D02*
X2597Y1737D01*
X0Y1736D02*
X7Y1736D01*
X2590Y1736D02*
X2597Y1736D01*
X0Y1735D02*
X7Y1735D01*
X2590Y1735D02*
X2597Y1735D01*
X0Y1734D02*
X7Y1734D01*
X2590Y1734D02*
X2597Y1734D01*
X0Y1733D02*
X7Y1733D01*
X2590Y1733D02*
X2597Y1733D01*
X0Y1732D02*
X7Y1732D01*
X2590Y1732D02*
X2597Y1732D01*
X0Y1731D02*
X7Y1731D01*
X2590Y1731D02*
X2597Y1731D01*
X0Y1730D02*
X7Y1730D01*
X2590Y1730D02*
X2597Y1730D01*
X0Y1729D02*
X7Y1729D01*
X2590Y1729D02*
X2597Y1729D01*
X0Y1728D02*
X7Y1728D01*
X2590Y1728D02*
X2597Y1728D01*
X0Y1727D02*
X7Y1727D01*
X2590Y1727D02*
X2597Y1727D01*
X0Y1726D02*
X7Y1726D01*
X2590Y1726D02*
X2597Y1726D01*
X0Y1725D02*
X7Y1725D01*
X2590Y1725D02*
X2597Y1725D01*
X0Y1724D02*
X7Y1724D01*
X2590Y1724D02*
X2597Y1724D01*
X0Y1723D02*
X7Y1723D01*
X2590Y1723D02*
X2597Y1723D01*
X0Y1722D02*
X7Y1722D01*
X2590Y1722D02*
X2597Y1722D01*
X0Y1721D02*
X7Y1721D01*
X2590Y1721D02*
X2597Y1721D01*
X0Y1720D02*
X7Y1720D01*
X2590Y1720D02*
X2597Y1720D01*
X0Y1719D02*
X7Y1719D01*
X2590Y1719D02*
X2597Y1719D01*
X0Y1718D02*
X7Y1718D01*
X2590Y1718D02*
X2597Y1718D01*
X0Y1717D02*
X7Y1717D01*
X2590Y1717D02*
X2597Y1717D01*
X0Y1716D02*
X7Y1716D01*
X2590Y1716D02*
X2597Y1716D01*
X0Y1715D02*
X7Y1715D01*
X2590Y1715D02*
X2597Y1715D01*
X0Y1714D02*
X7Y1714D01*
X2590Y1714D02*
X2597Y1714D01*
X0Y1713D02*
X7Y1713D01*
X2590Y1713D02*
X2597Y1713D01*
X0Y1712D02*
X7Y1712D01*
X2590Y1712D02*
X2597Y1712D01*
X0Y1711D02*
X7Y1711D01*
X2590Y1711D02*
X2597Y1711D01*
X0Y1710D02*
X7Y1710D01*
X2590Y1710D02*
X2597Y1710D01*
X0Y1709D02*
X7Y1709D01*
X2590Y1709D02*
X2597Y1709D01*
X0Y1708D02*
X7Y1708D01*
X2590Y1708D02*
X2597Y1708D01*
X0Y1707D02*
X7Y1707D01*
X2590Y1707D02*
X2597Y1707D01*
X0Y1706D02*
X7Y1706D01*
X2590Y1706D02*
X2597Y1706D01*
X0Y1705D02*
X7Y1705D01*
X2590Y1705D02*
X2597Y1705D01*
X0Y1704D02*
X7Y1704D01*
X2590Y1704D02*
X2597Y1704D01*
X0Y1703D02*
X7Y1703D01*
X2590Y1703D02*
X2597Y1703D01*
X0Y1702D02*
X7Y1702D01*
X2590Y1702D02*
X2597Y1702D01*
X0Y1701D02*
X7Y1701D01*
X2590Y1701D02*
X2597Y1701D01*
X0Y1700D02*
X7Y1700D01*
X2590Y1700D02*
X2597Y1700D01*
X0Y1699D02*
X7Y1699D01*
X2590Y1699D02*
X2597Y1699D01*
X0Y1698D02*
X7Y1698D01*
X2590Y1698D02*
X2597Y1698D01*
X0Y1697D02*
X7Y1697D01*
X2590Y1697D02*
X2597Y1697D01*
X0Y1696D02*
X7Y1696D01*
X2590Y1696D02*
X2597Y1696D01*
X0Y1695D02*
X7Y1695D01*
X2590Y1695D02*
X2597Y1695D01*
X0Y1694D02*
X7Y1694D01*
X2590Y1694D02*
X2597Y1694D01*
X0Y1693D02*
X7Y1693D01*
X2590Y1693D02*
X2597Y1693D01*
X0Y1692D02*
X7Y1692D01*
X2590Y1692D02*
X2597Y1692D01*
X0Y1691D02*
X7Y1691D01*
X2590Y1691D02*
X2597Y1691D01*
X0Y1690D02*
X7Y1690D01*
X2590Y1690D02*
X2597Y1690D01*
X0Y1689D02*
X7Y1689D01*
X2590Y1689D02*
X2597Y1689D01*
X0Y1688D02*
X7Y1688D01*
X2590Y1688D02*
X2597Y1688D01*
X0Y1687D02*
X7Y1687D01*
X2338Y1687D02*
X2338Y1687D01*
X2590Y1687D02*
X2597Y1687D01*
X0Y1686D02*
X7Y1686D01*
X2337Y1686D02*
X2339Y1686D01*
X2590Y1686D02*
X2597Y1686D01*
X0Y1685D02*
X7Y1685D01*
X2336Y1685D02*
X2340Y1685D01*
X2590Y1685D02*
X2597Y1685D01*
X0Y1684D02*
X7Y1684D01*
X2335Y1684D02*
X2341Y1684D01*
X2590Y1684D02*
X2597Y1684D01*
X0Y1683D02*
X7Y1683D01*
X2336Y1683D02*
X2342Y1683D01*
X2590Y1683D02*
X2597Y1683D01*
X0Y1682D02*
X7Y1682D01*
X2337Y1682D02*
X2343Y1682D01*
X2590Y1682D02*
X2597Y1682D01*
X0Y1681D02*
X7Y1681D01*
X2338Y1681D02*
X2344Y1681D01*
X2590Y1681D02*
X2597Y1681D01*
X0Y1680D02*
X7Y1680D01*
X2339Y1680D02*
X2345Y1680D01*
X2590Y1680D02*
X2597Y1680D01*
X0Y1679D02*
X7Y1679D01*
X2340Y1679D02*
X2346Y1679D01*
X2590Y1679D02*
X2597Y1679D01*
X0Y1678D02*
X7Y1678D01*
X2341Y1678D02*
X2347Y1678D01*
X2590Y1678D02*
X2597Y1678D01*
X0Y1677D02*
X7Y1677D01*
X2342Y1677D02*
X2348Y1677D01*
X2590Y1677D02*
X2597Y1677D01*
X0Y1676D02*
X7Y1676D01*
X2343Y1676D02*
X2349Y1676D01*
X2590Y1676D02*
X2597Y1676D01*
X0Y1675D02*
X7Y1675D01*
X2344Y1675D02*
X2350Y1675D01*
X2590Y1675D02*
X2597Y1675D01*
X0Y1674D02*
X7Y1674D01*
X2345Y1674D02*
X2351Y1674D01*
X2590Y1674D02*
X2597Y1674D01*
X0Y1673D02*
X7Y1673D01*
X2346Y1673D02*
X2352Y1673D01*
X2590Y1673D02*
X2597Y1673D01*
X0Y1672D02*
X7Y1672D01*
X2347Y1672D02*
X2353Y1672D01*
X2590Y1672D02*
X2597Y1672D01*
X0Y1671D02*
X7Y1671D01*
X2348Y1671D02*
X2354Y1671D01*
X2590Y1671D02*
X2597Y1671D01*
X0Y1670D02*
X7Y1670D01*
X2349Y1670D02*
X2355Y1670D01*
X2590Y1670D02*
X2597Y1670D01*
X0Y1669D02*
X7Y1669D01*
X2350Y1669D02*
X2356Y1669D01*
X2590Y1669D02*
X2597Y1669D01*
X0Y1668D02*
X7Y1668D01*
X2351Y1668D02*
X2357Y1668D01*
X2590Y1668D02*
X2597Y1668D01*
X0Y1667D02*
X7Y1667D01*
X2353Y1667D02*
X2358Y1667D01*
X2590Y1667D02*
X2597Y1667D01*
X0Y1666D02*
X7Y1666D01*
X2353Y1666D02*
X2359Y1666D01*
X2590Y1666D02*
X2597Y1666D01*
X0Y1665D02*
X7Y1665D01*
X2354Y1665D02*
X2360Y1665D01*
X2590Y1665D02*
X2597Y1665D01*
X0Y1664D02*
X7Y1664D01*
X2355Y1664D02*
X2361Y1664D01*
X2590Y1664D02*
X2597Y1664D01*
X0Y1663D02*
X7Y1663D01*
X2356Y1663D02*
X2362Y1663D01*
X2590Y1663D02*
X2597Y1663D01*
X0Y1662D02*
X7Y1662D01*
X2357Y1662D02*
X2363Y1662D01*
X2590Y1662D02*
X2597Y1662D01*
X0Y1661D02*
X7Y1661D01*
X2358Y1661D02*
X2364Y1661D01*
X2590Y1661D02*
X2597Y1661D01*
X0Y1660D02*
X7Y1660D01*
X2359Y1660D02*
X2365Y1660D01*
X2590Y1660D02*
X2597Y1660D01*
X0Y1659D02*
X7Y1659D01*
X2360Y1659D02*
X2366Y1659D01*
X2590Y1659D02*
X2597Y1659D01*
X0Y1658D02*
X7Y1658D01*
X2361Y1658D02*
X2367Y1658D01*
X2590Y1658D02*
X2597Y1658D01*
X0Y1657D02*
X7Y1657D01*
X2362Y1657D02*
X2368Y1657D01*
X2590Y1657D02*
X2597Y1657D01*
X0Y1656D02*
X7Y1656D01*
X2363Y1656D02*
X2369Y1656D01*
X2590Y1656D02*
X2597Y1656D01*
X0Y1655D02*
X7Y1655D01*
X2364Y1655D02*
X2370Y1655D01*
X2590Y1655D02*
X2597Y1655D01*
X0Y1654D02*
X7Y1654D01*
X2365Y1654D02*
X2371Y1654D01*
X2590Y1654D02*
X2597Y1654D01*
X0Y1653D02*
X7Y1653D01*
X2366Y1653D02*
X2372Y1653D01*
X2590Y1653D02*
X2597Y1653D01*
X0Y1652D02*
X7Y1652D01*
X2367Y1652D02*
X2372Y1652D01*
X2590Y1652D02*
X2597Y1652D01*
X0Y1651D02*
X7Y1651D01*
X2368Y1651D02*
X2371Y1651D01*
X2590Y1651D02*
X2597Y1651D01*
X0Y1650D02*
X7Y1650D01*
X2369Y1650D02*
X2370Y1650D01*
X2590Y1650D02*
X2597Y1650D01*
X0Y1649D02*
X7Y1649D01*
X2590Y1649D02*
X2597Y1649D01*
X0Y1648D02*
X7Y1648D01*
X2590Y1648D02*
X2597Y1648D01*
X0Y1647D02*
X7Y1647D01*
X2590Y1647D02*
X2597Y1647D01*
X0Y1646D02*
X7Y1646D01*
X2590Y1646D02*
X2597Y1646D01*
X0Y1645D02*
X7Y1645D01*
X2590Y1645D02*
X2597Y1645D01*
X0Y1644D02*
X7Y1644D01*
X2590Y1644D02*
X2597Y1644D01*
X0Y1643D02*
X7Y1643D01*
X2590Y1643D02*
X2597Y1643D01*
X0Y1642D02*
X7Y1642D01*
X2590Y1642D02*
X2597Y1642D01*
X0Y1641D02*
X7Y1641D01*
X2590Y1641D02*
X2597Y1641D01*
X0Y1640D02*
X7Y1640D01*
X2590Y1640D02*
X2597Y1640D01*
X0Y1639D02*
X7Y1639D01*
X2590Y1639D02*
X2597Y1639D01*
X0Y1638D02*
X7Y1638D01*
X2590Y1638D02*
X2597Y1638D01*
X0Y1637D02*
X7Y1637D01*
X2590Y1637D02*
X2597Y1637D01*
X0Y1636D02*
X7Y1636D01*
X2590Y1636D02*
X2597Y1636D01*
X0Y1635D02*
X7Y1635D01*
X2590Y1635D02*
X2597Y1635D01*
X0Y1634D02*
X7Y1634D01*
X2590Y1634D02*
X2597Y1634D01*
X0Y1633D02*
X7Y1633D01*
X2590Y1633D02*
X2597Y1633D01*
X0Y1632D02*
X7Y1632D01*
X2590Y1632D02*
X2597Y1632D01*
X0Y1631D02*
X7Y1631D01*
X2590Y1631D02*
X2597Y1631D01*
X0Y1630D02*
X7Y1630D01*
X2590Y1630D02*
X2597Y1630D01*
X0Y1629D02*
X7Y1629D01*
X2590Y1629D02*
X2597Y1629D01*
X0Y1628D02*
X7Y1628D01*
X2590Y1628D02*
X2597Y1628D01*
X0Y1627D02*
X7Y1627D01*
X2590Y1627D02*
X2597Y1627D01*
X0Y1626D02*
X7Y1626D01*
X2590Y1626D02*
X2597Y1626D01*
X0Y1625D02*
X7Y1625D01*
X2590Y1625D02*
X2597Y1625D01*
X0Y1624D02*
X7Y1624D01*
X2590Y1624D02*
X2597Y1624D01*
X0Y1623D02*
X7Y1623D01*
X2590Y1623D02*
X2597Y1623D01*
X0Y1622D02*
X7Y1622D01*
X2590Y1622D02*
X2597Y1622D01*
X0Y1621D02*
X7Y1621D01*
X2590Y1621D02*
X2597Y1621D01*
X0Y1620D02*
X7Y1620D01*
X2590Y1620D02*
X2597Y1620D01*
X0Y1619D02*
X7Y1619D01*
X2590Y1619D02*
X2597Y1619D01*
X0Y1618D02*
X7Y1618D01*
X2590Y1618D02*
X2597Y1618D01*
X0Y1617D02*
X7Y1617D01*
X2590Y1617D02*
X2597Y1617D01*
X0Y1616D02*
X7Y1616D01*
X2590Y1616D02*
X2597Y1616D01*
X0Y1615D02*
X7Y1615D01*
X2590Y1615D02*
X2597Y1615D01*
X0Y1614D02*
X7Y1614D01*
X2590Y1614D02*
X2597Y1614D01*
X0Y1613D02*
X7Y1613D01*
X2590Y1613D02*
X2597Y1613D01*
X0Y1612D02*
X7Y1612D01*
X2590Y1612D02*
X2597Y1612D01*
X0Y1611D02*
X7Y1611D01*
X2590Y1611D02*
X2597Y1611D01*
X0Y1610D02*
X7Y1610D01*
X2590Y1610D02*
X2597Y1610D01*
X0Y1609D02*
X7Y1609D01*
X2590Y1609D02*
X2597Y1609D01*
X0Y1608D02*
X7Y1608D01*
X2590Y1608D02*
X2597Y1608D01*
X0Y1607D02*
X7Y1607D01*
X2590Y1607D02*
X2597Y1607D01*
X0Y1606D02*
X7Y1606D01*
X2590Y1606D02*
X2597Y1606D01*
X0Y1605D02*
X7Y1605D01*
X2590Y1605D02*
X2597Y1605D01*
X0Y1604D02*
X7Y1604D01*
X2590Y1604D02*
X2597Y1604D01*
X0Y1603D02*
X7Y1603D01*
X2590Y1603D02*
X2597Y1603D01*
X0Y1602D02*
X7Y1602D01*
X2590Y1602D02*
X2597Y1602D01*
X0Y1601D02*
X7Y1601D01*
X2590Y1601D02*
X2597Y1601D01*
X0Y1600D02*
X7Y1600D01*
X2590Y1600D02*
X2597Y1600D01*
X0Y1599D02*
X7Y1599D01*
X2590Y1599D02*
X2597Y1599D01*
X0Y1598D02*
X7Y1598D01*
X2590Y1598D02*
X2597Y1598D01*
X0Y1597D02*
X7Y1597D01*
X2590Y1597D02*
X2597Y1597D01*
X0Y1596D02*
X7Y1596D01*
X2590Y1596D02*
X2597Y1596D01*
X0Y1595D02*
X7Y1595D01*
X2590Y1595D02*
X2597Y1595D01*
X0Y1594D02*
X7Y1594D01*
X2590Y1594D02*
X2597Y1594D01*
X0Y1593D02*
X7Y1593D01*
X2590Y1593D02*
X2597Y1593D01*
X0Y1592D02*
X7Y1592D01*
X2590Y1592D02*
X2597Y1592D01*
X0Y1591D02*
X7Y1591D01*
X2590Y1591D02*
X2597Y1591D01*
X0Y1590D02*
X7Y1590D01*
X2590Y1590D02*
X2597Y1590D01*
X0Y1589D02*
X7Y1589D01*
X2590Y1589D02*
X2597Y1589D01*
X0Y1588D02*
X7Y1588D01*
X2590Y1588D02*
X2597Y1588D01*
X0Y1587D02*
X7Y1587D01*
X2590Y1587D02*
X2597Y1587D01*
X0Y1586D02*
X7Y1586D01*
X2590Y1586D02*
X2597Y1586D01*
X0Y1585D02*
X7Y1585D01*
X2590Y1585D02*
X2597Y1585D01*
X0Y1584D02*
X7Y1584D01*
X2590Y1584D02*
X2597Y1584D01*
X0Y1583D02*
X7Y1583D01*
X2590Y1583D02*
X2597Y1583D01*
X0Y1582D02*
X7Y1582D01*
X2590Y1582D02*
X2597Y1582D01*
X0Y1581D02*
X7Y1581D01*
X2590Y1581D02*
X2597Y1581D01*
X0Y1580D02*
X7Y1580D01*
X2590Y1580D02*
X2597Y1580D01*
X0Y1579D02*
X7Y1579D01*
X2590Y1579D02*
X2597Y1579D01*
X0Y1578D02*
X7Y1578D01*
X2590Y1578D02*
X2597Y1578D01*
X0Y1577D02*
X7Y1577D01*
X2590Y1577D02*
X2597Y1577D01*
X0Y1576D02*
X7Y1576D01*
X2590Y1576D02*
X2597Y1576D01*
X0Y1575D02*
X7Y1575D01*
X2590Y1575D02*
X2597Y1575D01*
X0Y1574D02*
X7Y1574D01*
X2590Y1574D02*
X2597Y1574D01*
X0Y1573D02*
X7Y1573D01*
X2590Y1573D02*
X2597Y1573D01*
X0Y1572D02*
X7Y1572D01*
X2590Y1572D02*
X2597Y1572D01*
X0Y1571D02*
X7Y1571D01*
X2590Y1571D02*
X2597Y1571D01*
X0Y1570D02*
X7Y1570D01*
X2590Y1570D02*
X2597Y1570D01*
X0Y1569D02*
X7Y1569D01*
X2590Y1569D02*
X2597Y1569D01*
X0Y1568D02*
X7Y1568D01*
X2590Y1568D02*
X2597Y1568D01*
X0Y1567D02*
X7Y1567D01*
X2590Y1567D02*
X2597Y1567D01*
X0Y1566D02*
X7Y1566D01*
X2590Y1566D02*
X2597Y1566D01*
X0Y1565D02*
X7Y1565D01*
X2590Y1565D02*
X2597Y1565D01*
X0Y1564D02*
X7Y1564D01*
X2590Y1564D02*
X2597Y1564D01*
X0Y1563D02*
X7Y1563D01*
X2590Y1563D02*
X2597Y1563D01*
X0Y1562D02*
X7Y1562D01*
X2590Y1562D02*
X2597Y1562D01*
X0Y1561D02*
X7Y1561D01*
X2590Y1561D02*
X2597Y1561D01*
X0Y1560D02*
X7Y1560D01*
X2590Y1560D02*
X2597Y1560D01*
X0Y1559D02*
X7Y1559D01*
X2590Y1559D02*
X2597Y1559D01*
X0Y1558D02*
X7Y1558D01*
X2590Y1558D02*
X2597Y1558D01*
X0Y1557D02*
X7Y1557D01*
X2590Y1557D02*
X2597Y1557D01*
X0Y1556D02*
X7Y1556D01*
X2590Y1556D02*
X2597Y1556D01*
X0Y1555D02*
X7Y1555D01*
X2590Y1555D02*
X2597Y1555D01*
X0Y1554D02*
X7Y1554D01*
X2590Y1554D02*
X2597Y1554D01*
X0Y1553D02*
X7Y1553D01*
X2590Y1553D02*
X2597Y1553D01*
X0Y1552D02*
X7Y1552D01*
X2590Y1552D02*
X2597Y1552D01*
X0Y1551D02*
X7Y1551D01*
X2590Y1551D02*
X2597Y1551D01*
X0Y1550D02*
X7Y1550D01*
X2590Y1550D02*
X2597Y1550D01*
X0Y1549D02*
X7Y1549D01*
X2590Y1549D02*
X2597Y1549D01*
X0Y1548D02*
X7Y1548D01*
X2590Y1548D02*
X2597Y1548D01*
X0Y1547D02*
X7Y1547D01*
X2590Y1547D02*
X2597Y1547D01*
X0Y1546D02*
X7Y1546D01*
X2590Y1546D02*
X2597Y1546D01*
X0Y1545D02*
X7Y1545D01*
X2590Y1545D02*
X2597Y1545D01*
X0Y1544D02*
X7Y1544D01*
X2590Y1544D02*
X2597Y1544D01*
X0Y1543D02*
X7Y1543D01*
X2590Y1543D02*
X2597Y1543D01*
X0Y1542D02*
X7Y1542D01*
X2590Y1542D02*
X2597Y1542D01*
X0Y1541D02*
X7Y1541D01*
X2590Y1541D02*
X2597Y1541D01*
X0Y1540D02*
X7Y1540D01*
X2590Y1540D02*
X2597Y1540D01*
X0Y1539D02*
X7Y1539D01*
X2590Y1539D02*
X2597Y1539D01*
X0Y1538D02*
X7Y1538D01*
X2590Y1538D02*
X2597Y1538D01*
X0Y1537D02*
X7Y1537D01*
X2590Y1537D02*
X2597Y1537D01*
X0Y1536D02*
X7Y1536D01*
X2590Y1536D02*
X2597Y1536D01*
X0Y1535D02*
X7Y1535D01*
X2590Y1535D02*
X2597Y1535D01*
X0Y1534D02*
X7Y1534D01*
X2590Y1534D02*
X2597Y1534D01*
X0Y1533D02*
X7Y1533D01*
X2590Y1533D02*
X2597Y1533D01*
X0Y1532D02*
X7Y1532D01*
X2590Y1532D02*
X2597Y1532D01*
X0Y1531D02*
X7Y1531D01*
X2590Y1531D02*
X2597Y1531D01*
X0Y1530D02*
X7Y1530D01*
X2590Y1530D02*
X2597Y1530D01*
X0Y1529D02*
X7Y1529D01*
X2590Y1529D02*
X2597Y1529D01*
X0Y1528D02*
X7Y1528D01*
X2590Y1528D02*
X2597Y1528D01*
X0Y1527D02*
X7Y1527D01*
X2590Y1527D02*
X2597Y1527D01*
X0Y1526D02*
X7Y1526D01*
X2590Y1526D02*
X2597Y1526D01*
X0Y1525D02*
X7Y1525D01*
X2590Y1525D02*
X2597Y1525D01*
X0Y1524D02*
X7Y1524D01*
X2590Y1524D02*
X2597Y1524D01*
X0Y1523D02*
X7Y1523D01*
X2590Y1523D02*
X2597Y1523D01*
X0Y1522D02*
X7Y1522D01*
X2590Y1522D02*
X2597Y1522D01*
X0Y1521D02*
X7Y1521D01*
X2413Y1521D02*
X2465Y1521D01*
X2590Y1521D02*
X2597Y1521D01*
X0Y1520D02*
X7Y1520D01*
X2413Y1520D02*
X2465Y1520D01*
X2590Y1520D02*
X2597Y1520D01*
X0Y1519D02*
X7Y1519D01*
X2412Y1519D02*
X2465Y1519D01*
X2590Y1519D02*
X2597Y1519D01*
X0Y1518D02*
X7Y1518D01*
X2412Y1518D02*
X2465Y1518D01*
X2590Y1518D02*
X2597Y1518D01*
X0Y1517D02*
X7Y1517D01*
X2413Y1517D02*
X2465Y1517D01*
X2590Y1517D02*
X2597Y1517D01*
X0Y1516D02*
X7Y1516D01*
X2413Y1516D02*
X2465Y1516D01*
X2590Y1516D02*
X2597Y1516D01*
X0Y1515D02*
X7Y1515D01*
X2416Y1515D02*
X2465Y1515D01*
X2590Y1515D02*
X2597Y1515D01*
X0Y1514D02*
X7Y1514D01*
X2442Y1514D02*
X2448Y1514D01*
X2459Y1514D02*
X2465Y1514D01*
X2590Y1514D02*
X2597Y1514D01*
X0Y1513D02*
X7Y1513D01*
X2442Y1513D02*
X2448Y1513D01*
X2459Y1513D02*
X2465Y1513D01*
X2590Y1513D02*
X2597Y1513D01*
X0Y1512D02*
X7Y1512D01*
X2442Y1512D02*
X2448Y1512D01*
X2459Y1512D02*
X2465Y1512D01*
X2590Y1512D02*
X2597Y1512D01*
X0Y1511D02*
X7Y1511D01*
X2442Y1511D02*
X2448Y1511D01*
X2459Y1511D02*
X2465Y1511D01*
X2590Y1511D02*
X2597Y1511D01*
X0Y1510D02*
X7Y1510D01*
X2441Y1510D02*
X2448Y1510D01*
X2459Y1510D02*
X2465Y1510D01*
X2590Y1510D02*
X2597Y1510D01*
X0Y1509D02*
X7Y1509D01*
X2440Y1509D02*
X2448Y1509D01*
X2459Y1509D02*
X2465Y1509D01*
X2590Y1509D02*
X2597Y1509D01*
X0Y1508D02*
X7Y1508D01*
X2438Y1508D02*
X2448Y1508D01*
X2459Y1508D02*
X2465Y1508D01*
X2590Y1508D02*
X2597Y1508D01*
X0Y1507D02*
X7Y1507D01*
X2436Y1507D02*
X2448Y1507D01*
X2459Y1507D02*
X2465Y1507D01*
X2590Y1507D02*
X2597Y1507D01*
X0Y1506D02*
X7Y1506D01*
X2435Y1506D02*
X2448Y1506D01*
X2459Y1506D02*
X2465Y1506D01*
X2590Y1506D02*
X2597Y1506D01*
X0Y1505D02*
X7Y1505D01*
X2433Y1505D02*
X2448Y1505D01*
X2459Y1505D02*
X2465Y1505D01*
X2590Y1505D02*
X2597Y1505D01*
X0Y1504D02*
X7Y1504D01*
X2431Y1504D02*
X2448Y1504D01*
X2459Y1504D02*
X2465Y1504D01*
X2590Y1504D02*
X2597Y1504D01*
X0Y1503D02*
X7Y1503D01*
X2429Y1503D02*
X2448Y1503D01*
X2459Y1503D02*
X2465Y1503D01*
X2590Y1503D02*
X2597Y1503D01*
X0Y1502D02*
X7Y1502D01*
X2428Y1502D02*
X2448Y1502D01*
X2459Y1502D02*
X2465Y1502D01*
X2590Y1502D02*
X2597Y1502D01*
X0Y1501D02*
X7Y1501D01*
X2426Y1501D02*
X2439Y1501D01*
X2442Y1501D02*
X2448Y1501D01*
X2459Y1501D02*
X2465Y1501D01*
X2590Y1501D02*
X2597Y1501D01*
X0Y1500D02*
X7Y1500D01*
X2424Y1500D02*
X2437Y1500D01*
X2442Y1500D02*
X2448Y1500D01*
X2459Y1500D02*
X2465Y1500D01*
X2590Y1500D02*
X2597Y1500D01*
X0Y1499D02*
X7Y1499D01*
X2423Y1499D02*
X2436Y1499D01*
X2442Y1499D02*
X2448Y1499D01*
X2459Y1499D02*
X2465Y1499D01*
X2590Y1499D02*
X2597Y1499D01*
X0Y1498D02*
X7Y1498D01*
X2421Y1498D02*
X2434Y1498D01*
X2442Y1498D02*
X2448Y1498D01*
X2459Y1498D02*
X2465Y1498D01*
X2590Y1498D02*
X2597Y1498D01*
X0Y1497D02*
X7Y1497D01*
X2419Y1497D02*
X2432Y1497D01*
X2442Y1497D02*
X2448Y1497D01*
X2459Y1497D02*
X2465Y1497D01*
X2590Y1497D02*
X2597Y1497D01*
X0Y1496D02*
X7Y1496D01*
X2417Y1496D02*
X2430Y1496D01*
X2442Y1496D02*
X2448Y1496D01*
X2459Y1496D02*
X2465Y1496D01*
X2590Y1496D02*
X2597Y1496D01*
X0Y1495D02*
X7Y1495D01*
X2416Y1495D02*
X2429Y1495D01*
X2442Y1495D02*
X2450Y1495D01*
X2458Y1495D02*
X2465Y1495D01*
X2590Y1495D02*
X2597Y1495D01*
X0Y1494D02*
X7Y1494D01*
X2414Y1494D02*
X2427Y1494D01*
X2443Y1494D02*
X2465Y1494D01*
X2590Y1494D02*
X2597Y1494D01*
X0Y1493D02*
X7Y1493D01*
X2413Y1493D02*
X2425Y1493D01*
X2443Y1493D02*
X2464Y1493D01*
X2590Y1493D02*
X2597Y1493D01*
X0Y1492D02*
X7Y1492D01*
X2412Y1492D02*
X2424Y1492D01*
X2444Y1492D02*
X2464Y1492D01*
X2590Y1492D02*
X2597Y1492D01*
X0Y1491D02*
X7Y1491D01*
X2412Y1491D02*
X2422Y1491D01*
X2444Y1491D02*
X2463Y1491D01*
X2590Y1491D02*
X2597Y1491D01*
X0Y1490D02*
X7Y1490D01*
X2412Y1490D02*
X2420Y1490D01*
X2445Y1490D02*
X2462Y1490D01*
X2590Y1490D02*
X2597Y1490D01*
X0Y1489D02*
X7Y1489D01*
X2413Y1489D02*
X2418Y1489D01*
X2447Y1489D02*
X2460Y1489D01*
X2590Y1489D02*
X2597Y1489D01*
X0Y1488D02*
X7Y1488D01*
X2414Y1488D02*
X2417Y1488D01*
X2449Y1488D02*
X2458Y1488D01*
X2590Y1488D02*
X2597Y1488D01*
X0Y1487D02*
X7Y1487D01*
X2590Y1487D02*
X2597Y1487D01*
X0Y1486D02*
X7Y1486D01*
X2590Y1486D02*
X2597Y1486D01*
X0Y1485D02*
X7Y1485D01*
X2590Y1485D02*
X2597Y1485D01*
X0Y1484D02*
X7Y1484D01*
X2590Y1484D02*
X2597Y1484D01*
X0Y1483D02*
X7Y1483D01*
X2590Y1483D02*
X2597Y1483D01*
X0Y1482D02*
X7Y1482D01*
X2590Y1482D02*
X2597Y1482D01*
X0Y1481D02*
X7Y1481D01*
X2590Y1481D02*
X2597Y1481D01*
X0Y1480D02*
X7Y1480D01*
X2590Y1480D02*
X2597Y1480D01*
X0Y1479D02*
X7Y1479D01*
X2590Y1479D02*
X2597Y1479D01*
X0Y1478D02*
X7Y1478D01*
X2590Y1478D02*
X2597Y1478D01*
X0Y1477D02*
X7Y1477D01*
X2590Y1477D02*
X2597Y1477D01*
X0Y1476D02*
X7Y1476D01*
X2590Y1476D02*
X2597Y1476D01*
X0Y1475D02*
X7Y1475D01*
X2590Y1475D02*
X2597Y1475D01*
X0Y1474D02*
X7Y1474D01*
X2590Y1474D02*
X2597Y1474D01*
X0Y1473D02*
X7Y1473D01*
X2590Y1473D02*
X2597Y1473D01*
X0Y1472D02*
X7Y1472D01*
X2590Y1472D02*
X2597Y1472D01*
X0Y1471D02*
X7Y1471D01*
X2420Y1471D02*
X2442Y1471D01*
X2590Y1471D02*
X2597Y1471D01*
X0Y1470D02*
X7Y1470D01*
X2419Y1470D02*
X2444Y1470D01*
X2590Y1470D02*
X2597Y1470D01*
X0Y1469D02*
X7Y1469D01*
X2418Y1469D02*
X2445Y1469D01*
X2590Y1469D02*
X2597Y1469D01*
X0Y1468D02*
X7Y1468D01*
X2417Y1468D02*
X2446Y1468D01*
X2590Y1468D02*
X2597Y1468D01*
X0Y1467D02*
X7Y1467D01*
X2416Y1467D02*
X2447Y1467D01*
X2590Y1467D02*
X2597Y1467D01*
X0Y1466D02*
X7Y1466D01*
X2415Y1466D02*
X2448Y1466D01*
X2590Y1466D02*
X2597Y1466D01*
X0Y1465D02*
X7Y1465D01*
X2414Y1465D02*
X2449Y1465D01*
X2590Y1465D02*
X2597Y1465D01*
X0Y1464D02*
X7Y1464D01*
X2414Y1464D02*
X2421Y1464D01*
X2427Y1464D02*
X2433Y1464D01*
X2441Y1464D02*
X2449Y1464D01*
X2590Y1464D02*
X2597Y1464D01*
X0Y1463D02*
X7Y1463D01*
X2413Y1463D02*
X2420Y1463D01*
X2427Y1463D02*
X2433Y1463D01*
X2442Y1463D02*
X2450Y1463D01*
X2590Y1463D02*
X2597Y1463D01*
X0Y1462D02*
X7Y1462D01*
X2413Y1462D02*
X2420Y1462D01*
X2427Y1462D02*
X2433Y1462D01*
X2443Y1462D02*
X2450Y1462D01*
X2590Y1462D02*
X2597Y1462D01*
X0Y1461D02*
X7Y1461D01*
X2412Y1461D02*
X2419Y1461D01*
X2427Y1461D02*
X2433Y1461D01*
X2444Y1461D02*
X2451Y1461D01*
X2590Y1461D02*
X2597Y1461D01*
X0Y1460D02*
X7Y1460D01*
X2412Y1460D02*
X2418Y1460D01*
X2427Y1460D02*
X2433Y1460D01*
X2445Y1460D02*
X2451Y1460D01*
X2590Y1460D02*
X2597Y1460D01*
X0Y1459D02*
X7Y1459D01*
X2412Y1459D02*
X2418Y1459D01*
X2427Y1459D02*
X2433Y1459D01*
X2445Y1459D02*
X2451Y1459D01*
X2590Y1459D02*
X2597Y1459D01*
X0Y1458D02*
X7Y1458D01*
X2412Y1458D02*
X2418Y1458D01*
X2427Y1458D02*
X2433Y1458D01*
X2445Y1458D02*
X2451Y1458D01*
X2590Y1458D02*
X2597Y1458D01*
X0Y1457D02*
X7Y1457D01*
X2412Y1457D02*
X2418Y1457D01*
X2427Y1457D02*
X2433Y1457D01*
X2445Y1457D02*
X2451Y1457D01*
X2590Y1457D02*
X2597Y1457D01*
X0Y1456D02*
X7Y1456D01*
X2412Y1456D02*
X2418Y1456D01*
X2427Y1456D02*
X2433Y1456D01*
X2445Y1456D02*
X2451Y1456D01*
X2590Y1456D02*
X2597Y1456D01*
X0Y1455D02*
X7Y1455D01*
X2412Y1455D02*
X2418Y1455D01*
X2427Y1455D02*
X2433Y1455D01*
X2445Y1455D02*
X2451Y1455D01*
X2590Y1455D02*
X2597Y1455D01*
X0Y1454D02*
X7Y1454D01*
X2412Y1454D02*
X2418Y1454D01*
X2427Y1454D02*
X2433Y1454D01*
X2445Y1454D02*
X2451Y1454D01*
X2590Y1454D02*
X2597Y1454D01*
X0Y1453D02*
X7Y1453D01*
X2412Y1453D02*
X2418Y1453D01*
X2427Y1453D02*
X2433Y1453D01*
X2445Y1453D02*
X2451Y1453D01*
X2590Y1453D02*
X2597Y1453D01*
X0Y1452D02*
X7Y1452D01*
X2412Y1452D02*
X2418Y1452D01*
X2427Y1452D02*
X2433Y1452D01*
X2445Y1452D02*
X2451Y1452D01*
X2590Y1452D02*
X2597Y1452D01*
X0Y1451D02*
X7Y1451D01*
X2412Y1451D02*
X2418Y1451D01*
X2427Y1451D02*
X2433Y1451D01*
X2445Y1451D02*
X2451Y1451D01*
X2590Y1451D02*
X2597Y1451D01*
X0Y1450D02*
X7Y1450D01*
X2412Y1450D02*
X2418Y1450D01*
X2427Y1450D02*
X2433Y1450D01*
X2445Y1450D02*
X2451Y1450D01*
X2590Y1450D02*
X2597Y1450D01*
X0Y1449D02*
X7Y1449D01*
X2412Y1449D02*
X2418Y1449D01*
X2427Y1449D02*
X2433Y1449D01*
X2444Y1449D02*
X2451Y1449D01*
X2590Y1449D02*
X2597Y1449D01*
X0Y1448D02*
X7Y1448D01*
X2412Y1448D02*
X2418Y1448D01*
X2427Y1448D02*
X2433Y1448D01*
X2444Y1448D02*
X2450Y1448D01*
X2590Y1448D02*
X2597Y1448D01*
X0Y1447D02*
X7Y1447D01*
X2412Y1447D02*
X2418Y1447D01*
X2427Y1447D02*
X2433Y1447D01*
X2443Y1447D02*
X2450Y1447D01*
X2590Y1447D02*
X2597Y1447D01*
X0Y1446D02*
X7Y1446D01*
X2412Y1446D02*
X2418Y1446D01*
X2427Y1446D02*
X2433Y1446D01*
X2442Y1446D02*
X2450Y1446D01*
X2590Y1446D02*
X2597Y1446D01*
X0Y1445D02*
X7Y1445D01*
X2412Y1445D02*
X2418Y1445D01*
X2427Y1445D02*
X2433Y1445D01*
X2441Y1445D02*
X2449Y1445D01*
X2590Y1445D02*
X2597Y1445D01*
X0Y1444D02*
X7Y1444D01*
X2412Y1444D02*
X2418Y1444D01*
X2427Y1444D02*
X2448Y1444D01*
X2590Y1444D02*
X2597Y1444D01*
X0Y1443D02*
X7Y1443D01*
X2412Y1443D02*
X2418Y1443D01*
X2427Y1443D02*
X2448Y1443D01*
X2590Y1443D02*
X2597Y1443D01*
X0Y1442D02*
X7Y1442D01*
X2412Y1442D02*
X2418Y1442D01*
X2427Y1442D02*
X2447Y1442D01*
X2590Y1442D02*
X2597Y1442D01*
X0Y1441D02*
X7Y1441D01*
X2412Y1441D02*
X2418Y1441D01*
X2427Y1441D02*
X2446Y1441D01*
X2590Y1441D02*
X2597Y1441D01*
X0Y1440D02*
X7Y1440D01*
X2412Y1440D02*
X2418Y1440D01*
X2427Y1440D02*
X2445Y1440D01*
X2590Y1440D02*
X2597Y1440D01*
X0Y1439D02*
X7Y1439D01*
X2413Y1439D02*
X2418Y1439D01*
X2428Y1439D02*
X2444Y1439D01*
X2590Y1439D02*
X2597Y1439D01*
X0Y1438D02*
X7Y1438D01*
X2414Y1438D02*
X2417Y1438D01*
X2429Y1438D02*
X2441Y1438D01*
X2590Y1438D02*
X2597Y1438D01*
X0Y1437D02*
X7Y1437D01*
X2590Y1437D02*
X2597Y1437D01*
X0Y1436D02*
X7Y1436D01*
X2590Y1436D02*
X2597Y1436D01*
X0Y1435D02*
X7Y1435D01*
X2590Y1435D02*
X2597Y1435D01*
X0Y1434D02*
X7Y1434D01*
X2590Y1434D02*
X2597Y1434D01*
X0Y1433D02*
X7Y1433D01*
X2590Y1433D02*
X2597Y1433D01*
X0Y1432D02*
X7Y1432D01*
X2590Y1432D02*
X2597Y1432D01*
X0Y1431D02*
X7Y1431D01*
X2590Y1431D02*
X2597Y1431D01*
X0Y1430D02*
X7Y1430D01*
X2590Y1430D02*
X2597Y1430D01*
X0Y1429D02*
X7Y1429D01*
X2590Y1429D02*
X2597Y1429D01*
X0Y1428D02*
X7Y1428D01*
X2590Y1428D02*
X2597Y1428D01*
X0Y1427D02*
X7Y1427D01*
X2590Y1427D02*
X2597Y1427D01*
X0Y1426D02*
X7Y1426D01*
X2590Y1426D02*
X2597Y1426D01*
X0Y1425D02*
X7Y1425D01*
X2590Y1425D02*
X2597Y1425D01*
X0Y1424D02*
X7Y1424D01*
X2590Y1424D02*
X2597Y1424D01*
X0Y1423D02*
X7Y1423D01*
X2590Y1423D02*
X2597Y1423D01*
X0Y1422D02*
X7Y1422D01*
X2590Y1422D02*
X2597Y1422D01*
X0Y1421D02*
X7Y1421D01*
X2590Y1421D02*
X2597Y1421D01*
X0Y1420D02*
X7Y1420D01*
X2590Y1420D02*
X2597Y1420D01*
X0Y1419D02*
X7Y1419D01*
X2590Y1419D02*
X2597Y1419D01*
X0Y1418D02*
X7Y1418D01*
X2414Y1418D02*
X2417Y1418D01*
X2461Y1418D02*
X2464Y1418D01*
X2590Y1418D02*
X2597Y1418D01*
X0Y1417D02*
X7Y1417D01*
X2413Y1417D02*
X2418Y1417D01*
X2460Y1417D02*
X2465Y1417D01*
X2590Y1417D02*
X2597Y1417D01*
X0Y1416D02*
X7Y1416D01*
X2412Y1416D02*
X2418Y1416D01*
X2460Y1416D02*
X2465Y1416D01*
X2590Y1416D02*
X2597Y1416D01*
X0Y1415D02*
X7Y1415D01*
X2412Y1415D02*
X2418Y1415D01*
X2459Y1415D02*
X2465Y1415D01*
X2590Y1415D02*
X2597Y1415D01*
X0Y1414D02*
X7Y1414D01*
X2412Y1414D02*
X2418Y1414D01*
X2459Y1414D02*
X2465Y1414D01*
X2590Y1414D02*
X2597Y1414D01*
X0Y1413D02*
X7Y1413D01*
X2412Y1413D02*
X2418Y1413D01*
X2459Y1413D02*
X2465Y1413D01*
X2590Y1413D02*
X2597Y1413D01*
X0Y1412D02*
X7Y1412D01*
X2412Y1412D02*
X2418Y1412D01*
X2459Y1412D02*
X2465Y1412D01*
X2590Y1412D02*
X2597Y1412D01*
X0Y1411D02*
X7Y1411D01*
X2412Y1411D02*
X2418Y1411D01*
X2459Y1411D02*
X2465Y1411D01*
X2590Y1411D02*
X2597Y1411D01*
X0Y1410D02*
X7Y1410D01*
X2412Y1410D02*
X2418Y1410D01*
X2459Y1410D02*
X2465Y1410D01*
X2590Y1410D02*
X2597Y1410D01*
X0Y1409D02*
X7Y1409D01*
X2412Y1409D02*
X2418Y1409D01*
X2459Y1409D02*
X2465Y1409D01*
X2590Y1409D02*
X2597Y1409D01*
X0Y1408D02*
X7Y1408D01*
X2412Y1408D02*
X2465Y1408D01*
X2590Y1408D02*
X2597Y1408D01*
X0Y1407D02*
X7Y1407D01*
X2412Y1407D02*
X2465Y1407D01*
X2590Y1407D02*
X2597Y1407D01*
X0Y1406D02*
X7Y1406D01*
X2412Y1406D02*
X2465Y1406D01*
X2590Y1406D02*
X2597Y1406D01*
X0Y1405D02*
X7Y1405D01*
X2412Y1405D02*
X2465Y1405D01*
X2590Y1405D02*
X2597Y1405D01*
X0Y1404D02*
X7Y1404D01*
X2412Y1404D02*
X2465Y1404D01*
X2590Y1404D02*
X2597Y1404D01*
X0Y1403D02*
X7Y1403D01*
X2412Y1403D02*
X2465Y1403D01*
X2590Y1403D02*
X2597Y1403D01*
X0Y1402D02*
X7Y1402D01*
X2412Y1402D02*
X2464Y1402D01*
X2590Y1402D02*
X2597Y1402D01*
X0Y1401D02*
X7Y1401D01*
X2412Y1401D02*
X2418Y1401D01*
X2590Y1401D02*
X2597Y1401D01*
X0Y1400D02*
X7Y1400D01*
X2412Y1400D02*
X2418Y1400D01*
X2590Y1400D02*
X2597Y1400D01*
X0Y1399D02*
X7Y1399D01*
X2412Y1399D02*
X2418Y1399D01*
X2590Y1399D02*
X2597Y1399D01*
X0Y1398D02*
X7Y1398D01*
X2412Y1398D02*
X2418Y1398D01*
X2590Y1398D02*
X2597Y1398D01*
X0Y1397D02*
X7Y1397D01*
X2412Y1397D02*
X2418Y1397D01*
X2590Y1397D02*
X2597Y1397D01*
X0Y1396D02*
X7Y1396D01*
X2412Y1396D02*
X2418Y1396D01*
X2590Y1396D02*
X2597Y1396D01*
X0Y1395D02*
X7Y1395D01*
X2412Y1395D02*
X2418Y1395D01*
X2590Y1395D02*
X2597Y1395D01*
X0Y1394D02*
X7Y1394D01*
X2412Y1394D02*
X2418Y1394D01*
X2590Y1394D02*
X2597Y1394D01*
X0Y1393D02*
X7Y1393D01*
X2413Y1393D02*
X2418Y1393D01*
X2590Y1393D02*
X2597Y1393D01*
X0Y1392D02*
X7Y1392D01*
X2413Y1392D02*
X2417Y1392D01*
X2590Y1392D02*
X2597Y1392D01*
X0Y1391D02*
X7Y1391D01*
X2415Y1391D02*
X2415Y1391D01*
X2590Y1391D02*
X2597Y1391D01*
X0Y1390D02*
X7Y1390D01*
X2590Y1390D02*
X2597Y1390D01*
X0Y1389D02*
X7Y1389D01*
X2590Y1389D02*
X2597Y1389D01*
X0Y1388D02*
X7Y1388D01*
X2590Y1388D02*
X2597Y1388D01*
X0Y1387D02*
X7Y1387D01*
X2590Y1387D02*
X2597Y1387D01*
X0Y1386D02*
X7Y1386D01*
X2590Y1386D02*
X2597Y1386D01*
X0Y1385D02*
X7Y1385D01*
X2590Y1385D02*
X2597Y1385D01*
X0Y1384D02*
X7Y1384D01*
X2590Y1384D02*
X2597Y1384D01*
X0Y1383D02*
X7Y1383D01*
X2590Y1383D02*
X2597Y1383D01*
X0Y1382D02*
X7Y1382D01*
X2590Y1382D02*
X2597Y1382D01*
X0Y1381D02*
X7Y1381D01*
X2590Y1381D02*
X2597Y1381D01*
X0Y1380D02*
X7Y1380D01*
X2590Y1380D02*
X2597Y1380D01*
X0Y1379D02*
X7Y1379D01*
X2590Y1379D02*
X2597Y1379D01*
X0Y1378D02*
X7Y1378D01*
X2590Y1378D02*
X2597Y1378D01*
X0Y1377D02*
X7Y1377D01*
X2590Y1377D02*
X2597Y1377D01*
X0Y1376D02*
X7Y1376D01*
X2590Y1376D02*
X2597Y1376D01*
X0Y1375D02*
X7Y1375D01*
X2590Y1375D02*
X2597Y1375D01*
X0Y1374D02*
X7Y1374D01*
X2590Y1374D02*
X2597Y1374D01*
X0Y1373D02*
X7Y1373D01*
X2590Y1373D02*
X2597Y1373D01*
X0Y1372D02*
X7Y1372D01*
X2423Y1372D02*
X2426Y1372D01*
X2590Y1372D02*
X2597Y1372D01*
X0Y1371D02*
X7Y1371D01*
X2418Y1371D02*
X2430Y1371D01*
X2590Y1371D02*
X2597Y1371D01*
X0Y1370D02*
X7Y1370D01*
X2417Y1370D02*
X2432Y1370D01*
X2590Y1370D02*
X2597Y1370D01*
X0Y1369D02*
X7Y1369D01*
X2415Y1369D02*
X2433Y1369D01*
X2590Y1369D02*
X2597Y1369D01*
X0Y1368D02*
X7Y1368D01*
X2415Y1368D02*
X2434Y1368D01*
X2590Y1368D02*
X2597Y1368D01*
X0Y1367D02*
X7Y1367D01*
X2414Y1367D02*
X2434Y1367D01*
X2590Y1367D02*
X2597Y1367D01*
X0Y1366D02*
X7Y1366D01*
X2413Y1366D02*
X2435Y1366D01*
X2590Y1366D02*
X2597Y1366D01*
X0Y1365D02*
X7Y1365D01*
X2413Y1365D02*
X2435Y1365D01*
X2447Y1365D02*
X2448Y1365D01*
X2590Y1365D02*
X2597Y1365D01*
X0Y1364D02*
X7Y1364D01*
X2413Y1364D02*
X2419Y1364D01*
X2429Y1364D02*
X2436Y1364D01*
X2446Y1364D02*
X2450Y1364D01*
X2590Y1364D02*
X2597Y1364D01*
X0Y1363D02*
X7Y1363D01*
X2412Y1363D02*
X2419Y1363D01*
X2430Y1363D02*
X2436Y1363D01*
X2445Y1363D02*
X2450Y1363D01*
X2590Y1363D02*
X2597Y1363D01*
X0Y1362D02*
X7Y1362D01*
X2412Y1362D02*
X2418Y1362D01*
X2430Y1362D02*
X2436Y1362D01*
X2445Y1362D02*
X2451Y1362D01*
X2590Y1362D02*
X2597Y1362D01*
X0Y1361D02*
X7Y1361D01*
X2412Y1361D02*
X2418Y1361D01*
X2430Y1361D02*
X2436Y1361D01*
X2445Y1361D02*
X2451Y1361D01*
X2590Y1361D02*
X2597Y1361D01*
X0Y1360D02*
X7Y1360D01*
X2412Y1360D02*
X2418Y1360D01*
X2430Y1360D02*
X2436Y1360D01*
X2445Y1360D02*
X2451Y1360D01*
X2590Y1360D02*
X2597Y1360D01*
X0Y1359D02*
X7Y1359D01*
X2412Y1359D02*
X2418Y1359D01*
X2430Y1359D02*
X2436Y1359D01*
X2445Y1359D02*
X2451Y1359D01*
X2590Y1359D02*
X2597Y1359D01*
X0Y1358D02*
X7Y1358D01*
X2412Y1358D02*
X2418Y1358D01*
X2430Y1358D02*
X2436Y1358D01*
X2445Y1358D02*
X2451Y1358D01*
X2590Y1358D02*
X2597Y1358D01*
X0Y1357D02*
X7Y1357D01*
X2412Y1357D02*
X2418Y1357D01*
X2430Y1357D02*
X2436Y1357D01*
X2445Y1357D02*
X2451Y1357D01*
X2590Y1357D02*
X2597Y1357D01*
X0Y1356D02*
X7Y1356D01*
X2412Y1356D02*
X2418Y1356D01*
X2430Y1356D02*
X2436Y1356D01*
X2445Y1356D02*
X2451Y1356D01*
X2590Y1356D02*
X2597Y1356D01*
X0Y1355D02*
X7Y1355D01*
X2412Y1355D02*
X2418Y1355D01*
X2430Y1355D02*
X2436Y1355D01*
X2445Y1355D02*
X2451Y1355D01*
X2590Y1355D02*
X2597Y1355D01*
X0Y1354D02*
X7Y1354D01*
X2412Y1354D02*
X2418Y1354D01*
X2430Y1354D02*
X2436Y1354D01*
X2445Y1354D02*
X2451Y1354D01*
X2590Y1354D02*
X2597Y1354D01*
X0Y1353D02*
X7Y1353D01*
X2412Y1353D02*
X2418Y1353D01*
X2430Y1353D02*
X2436Y1353D01*
X2445Y1353D02*
X2451Y1353D01*
X2590Y1353D02*
X2597Y1353D01*
X0Y1352D02*
X7Y1352D01*
X2412Y1352D02*
X2418Y1352D01*
X2430Y1352D02*
X2436Y1352D01*
X2445Y1352D02*
X2451Y1352D01*
X2590Y1352D02*
X2597Y1352D01*
X0Y1351D02*
X7Y1351D01*
X2412Y1351D02*
X2419Y1351D01*
X2430Y1351D02*
X2436Y1351D01*
X2445Y1351D02*
X2451Y1351D01*
X2590Y1351D02*
X2597Y1351D01*
X0Y1350D02*
X7Y1350D01*
X2413Y1350D02*
X2420Y1350D01*
X2430Y1350D02*
X2436Y1350D01*
X2445Y1350D02*
X2451Y1350D01*
X2590Y1350D02*
X2597Y1350D01*
X0Y1349D02*
X7Y1349D01*
X2413Y1349D02*
X2420Y1349D01*
X2430Y1349D02*
X2436Y1349D01*
X2445Y1349D02*
X2451Y1349D01*
X2590Y1349D02*
X2597Y1349D01*
X0Y1348D02*
X7Y1348D01*
X2414Y1348D02*
X2421Y1348D01*
X2430Y1348D02*
X2436Y1348D01*
X2445Y1348D02*
X2451Y1348D01*
X2590Y1348D02*
X2597Y1348D01*
X0Y1347D02*
X7Y1347D01*
X2414Y1347D02*
X2421Y1347D01*
X2430Y1347D02*
X2436Y1347D01*
X2444Y1347D02*
X2451Y1347D01*
X2590Y1347D02*
X2597Y1347D01*
X0Y1346D02*
X7Y1346D01*
X2415Y1346D02*
X2422Y1346D01*
X2429Y1346D02*
X2436Y1346D01*
X2443Y1346D02*
X2450Y1346D01*
X2590Y1346D02*
X2597Y1346D01*
X0Y1345D02*
X7Y1345D01*
X2415Y1345D02*
X2423Y1345D01*
X2427Y1345D02*
X2450Y1345D01*
X2590Y1345D02*
X2597Y1345D01*
X0Y1344D02*
X7Y1344D01*
X2414Y1344D02*
X2450Y1344D01*
X2590Y1344D02*
X2597Y1344D01*
X0Y1343D02*
X7Y1343D01*
X2413Y1343D02*
X2449Y1343D01*
X2590Y1343D02*
X2597Y1343D01*
X0Y1342D02*
X7Y1342D01*
X2412Y1342D02*
X2448Y1342D01*
X2590Y1342D02*
X2597Y1342D01*
X0Y1341D02*
X7Y1341D01*
X2412Y1341D02*
X2447Y1341D01*
X2590Y1341D02*
X2597Y1341D01*
X0Y1340D02*
X7Y1340D01*
X2412Y1340D02*
X2446Y1340D01*
X2590Y1340D02*
X2597Y1340D01*
X0Y1339D02*
X7Y1339D01*
X2413Y1339D02*
X2444Y1339D01*
X2590Y1339D02*
X2597Y1339D01*
X0Y1338D02*
X7Y1338D01*
X2414Y1338D02*
X2431Y1338D01*
X2590Y1338D02*
X2597Y1338D01*
X0Y1337D02*
X7Y1337D01*
X2590Y1337D02*
X2597Y1337D01*
X0Y1336D02*
X7Y1336D01*
X2590Y1336D02*
X2597Y1336D01*
X0Y1335D02*
X7Y1335D01*
X2590Y1335D02*
X2597Y1335D01*
X0Y1334D02*
X7Y1334D01*
X2590Y1334D02*
X2597Y1334D01*
X0Y1333D02*
X7Y1333D01*
X2590Y1333D02*
X2597Y1333D01*
X0Y1332D02*
X7Y1332D01*
X2590Y1332D02*
X2597Y1332D01*
X0Y1331D02*
X7Y1331D01*
X2590Y1331D02*
X2597Y1331D01*
X0Y1330D02*
X7Y1330D01*
X2590Y1330D02*
X2597Y1330D01*
X0Y1329D02*
X7Y1329D01*
X2590Y1329D02*
X2597Y1329D01*
X0Y1328D02*
X7Y1328D01*
X2590Y1328D02*
X2597Y1328D01*
X0Y1327D02*
X7Y1327D01*
X2590Y1327D02*
X2597Y1327D01*
X0Y1326D02*
X7Y1326D01*
X2590Y1326D02*
X2597Y1326D01*
X0Y1325D02*
X7Y1325D01*
X2590Y1325D02*
X2597Y1325D01*
X0Y1324D02*
X7Y1324D01*
X2590Y1324D02*
X2597Y1324D01*
X0Y1323D02*
X7Y1323D01*
X2590Y1323D02*
X2597Y1323D01*
X0Y1322D02*
X7Y1322D01*
X2442Y1322D02*
X2447Y1322D01*
X2590Y1322D02*
X2597Y1322D01*
X0Y1321D02*
X7Y1321D01*
X2399Y1321D02*
X2402Y1321D01*
X2439Y1321D02*
X2450Y1321D01*
X2590Y1321D02*
X2597Y1321D01*
X0Y1320D02*
X7Y1320D01*
X2398Y1320D02*
X2403Y1320D01*
X2437Y1320D02*
X2450Y1320D01*
X2590Y1320D02*
X2597Y1320D01*
X0Y1319D02*
X7Y1319D01*
X2398Y1319D02*
X2403Y1319D01*
X2435Y1319D02*
X2451Y1319D01*
X2590Y1319D02*
X2597Y1319D01*
X0Y1318D02*
X7Y1318D01*
X2398Y1318D02*
X2404Y1318D01*
X2432Y1318D02*
X2451Y1318D01*
X2590Y1318D02*
X2597Y1318D01*
X0Y1317D02*
X7Y1317D01*
X2398Y1317D02*
X2404Y1317D01*
X2430Y1317D02*
X2450Y1317D01*
X2590Y1317D02*
X2597Y1317D01*
X0Y1316D02*
X7Y1316D01*
X2398Y1316D02*
X2404Y1316D01*
X2428Y1316D02*
X2450Y1316D01*
X2590Y1316D02*
X2597Y1316D01*
X0Y1315D02*
X7Y1315D01*
X2398Y1315D02*
X2404Y1315D01*
X2426Y1315D02*
X2442Y1315D01*
X2590Y1315D02*
X2597Y1315D01*
X0Y1314D02*
X7Y1314D01*
X2398Y1314D02*
X2404Y1314D01*
X2423Y1314D02*
X2440Y1314D01*
X2590Y1314D02*
X2597Y1314D01*
X0Y1313D02*
X7Y1313D01*
X2398Y1313D02*
X2404Y1313D01*
X2421Y1313D02*
X2437Y1313D01*
X2590Y1313D02*
X2597Y1313D01*
X0Y1312D02*
X7Y1312D01*
X2398Y1312D02*
X2404Y1312D01*
X2419Y1312D02*
X2435Y1312D01*
X2590Y1312D02*
X2597Y1312D01*
X0Y1311D02*
X7Y1311D01*
X2398Y1311D02*
X2404Y1311D01*
X2417Y1311D02*
X2433Y1311D01*
X2590Y1311D02*
X2597Y1311D01*
X0Y1310D02*
X7Y1310D01*
X2398Y1310D02*
X2407Y1310D01*
X2416Y1310D02*
X2431Y1310D01*
X2590Y1310D02*
X2597Y1310D01*
X0Y1309D02*
X7Y1309D01*
X2398Y1309D02*
X2409Y1309D01*
X2415Y1309D02*
X2428Y1309D01*
X2590Y1309D02*
X2597Y1309D01*
X0Y1308D02*
X7Y1308D01*
X2398Y1308D02*
X2411Y1308D01*
X2415Y1308D02*
X2426Y1308D01*
X2590Y1308D02*
X2597Y1308D01*
X0Y1307D02*
X7Y1307D01*
X2398Y1307D02*
X2424Y1307D01*
X2590Y1307D02*
X2597Y1307D01*
X0Y1306D02*
X7Y1306D01*
X2399Y1306D02*
X2422Y1306D01*
X2590Y1306D02*
X2597Y1306D01*
X0Y1305D02*
X7Y1305D01*
X2402Y1305D02*
X2421Y1305D01*
X2590Y1305D02*
X2597Y1305D01*
X0Y1304D02*
X7Y1304D01*
X2404Y1304D02*
X2421Y1304D01*
X2590Y1304D02*
X2597Y1304D01*
X0Y1303D02*
X7Y1303D01*
X2406Y1303D02*
X2423Y1303D01*
X2590Y1303D02*
X2597Y1303D01*
X0Y1302D02*
X7Y1302D01*
X2408Y1302D02*
X2425Y1302D01*
X2590Y1302D02*
X2597Y1302D01*
X0Y1301D02*
X7Y1301D01*
X2411Y1301D02*
X2427Y1301D01*
X2590Y1301D02*
X2597Y1301D01*
X0Y1300D02*
X7Y1300D01*
X2413Y1300D02*
X2430Y1300D01*
X2590Y1300D02*
X2597Y1300D01*
X0Y1299D02*
X7Y1299D01*
X2415Y1299D02*
X2432Y1299D01*
X2590Y1299D02*
X2597Y1299D01*
X0Y1298D02*
X7Y1298D01*
X2418Y1298D02*
X2434Y1298D01*
X2590Y1298D02*
X2597Y1298D01*
X0Y1297D02*
X7Y1297D01*
X2420Y1297D02*
X2436Y1297D01*
X2590Y1297D02*
X2597Y1297D01*
X0Y1296D02*
X7Y1296D01*
X2422Y1296D02*
X2439Y1296D01*
X2590Y1296D02*
X2597Y1296D01*
X0Y1295D02*
X7Y1295D01*
X2424Y1295D02*
X2441Y1295D01*
X2590Y1295D02*
X2597Y1295D01*
X0Y1294D02*
X7Y1294D01*
X2427Y1294D02*
X2449Y1294D01*
X2590Y1294D02*
X2597Y1294D01*
X0Y1293D02*
X7Y1293D01*
X2429Y1293D02*
X2450Y1293D01*
X2590Y1293D02*
X2597Y1293D01*
X0Y1292D02*
X7Y1292D01*
X2431Y1292D02*
X2451Y1292D01*
X2590Y1292D02*
X2597Y1292D01*
X0Y1291D02*
X7Y1291D01*
X2434Y1291D02*
X2451Y1291D01*
X2590Y1291D02*
X2597Y1291D01*
X0Y1290D02*
X7Y1290D01*
X2436Y1290D02*
X2451Y1290D01*
X2590Y1290D02*
X2597Y1290D01*
X0Y1289D02*
X7Y1289D01*
X2438Y1289D02*
X2450Y1289D01*
X2590Y1289D02*
X2597Y1289D01*
X0Y1288D02*
X7Y1288D01*
X2440Y1288D02*
X2449Y1288D01*
X2590Y1288D02*
X2597Y1288D01*
X0Y1287D02*
X7Y1287D01*
X2590Y1287D02*
X2597Y1287D01*
X0Y1286D02*
X7Y1286D01*
X2590Y1286D02*
X2597Y1286D01*
X0Y1285D02*
X7Y1285D01*
X2590Y1285D02*
X2597Y1285D01*
X0Y1284D02*
X7Y1284D01*
X2590Y1284D02*
X2597Y1284D01*
X0Y1283D02*
X7Y1283D01*
X2590Y1283D02*
X2597Y1283D01*
X0Y1282D02*
X7Y1282D01*
X2590Y1282D02*
X2597Y1282D01*
X0Y1281D02*
X7Y1281D01*
X2590Y1281D02*
X2597Y1281D01*
X0Y1280D02*
X7Y1280D01*
X2590Y1280D02*
X2597Y1280D01*
X0Y1279D02*
X7Y1279D01*
X2590Y1279D02*
X2597Y1279D01*
X0Y1278D02*
X7Y1278D01*
X2590Y1278D02*
X2597Y1278D01*
X0Y1277D02*
X7Y1277D01*
X2590Y1277D02*
X2597Y1277D01*
X0Y1276D02*
X7Y1276D01*
X2590Y1276D02*
X2597Y1276D01*
X0Y1275D02*
X7Y1275D01*
X2590Y1275D02*
X2597Y1275D01*
X0Y1274D02*
X7Y1274D01*
X2590Y1274D02*
X2597Y1274D01*
X0Y1273D02*
X7Y1273D01*
X2590Y1273D02*
X2597Y1273D01*
X0Y1272D02*
X7Y1272D01*
X2590Y1272D02*
X2597Y1272D01*
X0Y1271D02*
X7Y1271D01*
X2416Y1271D02*
X2420Y1271D01*
X2442Y1271D02*
X2444Y1271D01*
X2590Y1271D02*
X2597Y1271D01*
X0Y1270D02*
X7Y1270D01*
X2415Y1270D02*
X2421Y1270D01*
X2439Y1270D02*
X2446Y1270D01*
X2590Y1270D02*
X2597Y1270D01*
X0Y1269D02*
X7Y1269D01*
X2415Y1269D02*
X2421Y1269D01*
X2437Y1269D02*
X2448Y1269D01*
X2590Y1269D02*
X2597Y1269D01*
X0Y1268D02*
X7Y1268D01*
X2414Y1268D02*
X2421Y1268D01*
X2436Y1268D02*
X2449Y1268D01*
X2590Y1268D02*
X2597Y1268D01*
X0Y1267D02*
X7Y1267D01*
X2414Y1267D02*
X2421Y1267D01*
X2435Y1267D02*
X2449Y1267D01*
X2590Y1267D02*
X2597Y1267D01*
X0Y1266D02*
X7Y1266D01*
X2413Y1266D02*
X2420Y1266D01*
X2435Y1266D02*
X2450Y1266D01*
X2590Y1266D02*
X2597Y1266D01*
X0Y1265D02*
X7Y1265D01*
X2413Y1265D02*
X2420Y1265D01*
X2434Y1265D02*
X2450Y1265D01*
X2590Y1265D02*
X2597Y1265D01*
X0Y1264D02*
X7Y1264D01*
X2413Y1264D02*
X2419Y1264D01*
X2434Y1264D02*
X2441Y1264D01*
X2444Y1264D02*
X2451Y1264D01*
X2590Y1264D02*
X2597Y1264D01*
X0Y1263D02*
X7Y1263D01*
X2412Y1263D02*
X2419Y1263D01*
X2433Y1263D02*
X2440Y1263D01*
X2445Y1263D02*
X2451Y1263D01*
X2590Y1263D02*
X2597Y1263D01*
X0Y1262D02*
X7Y1262D01*
X2412Y1262D02*
X2418Y1262D01*
X2433Y1262D02*
X2440Y1262D01*
X2445Y1262D02*
X2451Y1262D01*
X2590Y1262D02*
X2597Y1262D01*
X0Y1261D02*
X7Y1261D01*
X2412Y1261D02*
X2418Y1261D01*
X2432Y1261D02*
X2439Y1261D01*
X2445Y1261D02*
X2451Y1261D01*
X2590Y1261D02*
X2597Y1261D01*
X0Y1260D02*
X7Y1260D01*
X2412Y1260D02*
X2418Y1260D01*
X2432Y1260D02*
X2439Y1260D01*
X2445Y1260D02*
X2451Y1260D01*
X2590Y1260D02*
X2597Y1260D01*
X0Y1259D02*
X7Y1259D01*
X2412Y1259D02*
X2418Y1259D01*
X2432Y1259D02*
X2438Y1259D01*
X2445Y1259D02*
X2451Y1259D01*
X2590Y1259D02*
X2597Y1259D01*
X0Y1258D02*
X7Y1258D01*
X2412Y1258D02*
X2418Y1258D01*
X2431Y1258D02*
X2438Y1258D01*
X2445Y1258D02*
X2451Y1258D01*
X2590Y1258D02*
X2597Y1258D01*
X0Y1257D02*
X7Y1257D01*
X2412Y1257D02*
X2418Y1257D01*
X2431Y1257D02*
X2437Y1257D01*
X2445Y1257D02*
X2451Y1257D01*
X2590Y1257D02*
X2597Y1257D01*
X0Y1256D02*
X7Y1256D01*
X2412Y1256D02*
X2418Y1256D01*
X2430Y1256D02*
X2437Y1256D01*
X2445Y1256D02*
X2451Y1256D01*
X2590Y1256D02*
X2597Y1256D01*
X0Y1255D02*
X7Y1255D01*
X2412Y1255D02*
X2418Y1255D01*
X2430Y1255D02*
X2437Y1255D01*
X2445Y1255D02*
X2451Y1255D01*
X2590Y1255D02*
X2597Y1255D01*
X0Y1254D02*
X7Y1254D01*
X2412Y1254D02*
X2418Y1254D01*
X2429Y1254D02*
X2436Y1254D01*
X2445Y1254D02*
X2451Y1254D01*
X2590Y1254D02*
X2597Y1254D01*
X0Y1253D02*
X7Y1253D01*
X2412Y1253D02*
X2418Y1253D01*
X2429Y1253D02*
X2436Y1253D01*
X2445Y1253D02*
X2451Y1253D01*
X2590Y1253D02*
X2597Y1253D01*
X0Y1252D02*
X7Y1252D01*
X2412Y1252D02*
X2418Y1252D01*
X2429Y1252D02*
X2435Y1252D01*
X2445Y1252D02*
X2451Y1252D01*
X2590Y1252D02*
X2597Y1252D01*
X0Y1251D02*
X7Y1251D01*
X2412Y1251D02*
X2418Y1251D01*
X2428Y1251D02*
X2435Y1251D01*
X2445Y1251D02*
X2451Y1251D01*
X2590Y1251D02*
X2597Y1251D01*
X0Y1250D02*
X7Y1250D01*
X2412Y1250D02*
X2418Y1250D01*
X2428Y1250D02*
X2434Y1250D01*
X2445Y1250D02*
X2451Y1250D01*
X2590Y1250D02*
X2597Y1250D01*
X0Y1249D02*
X7Y1249D01*
X2412Y1249D02*
X2418Y1249D01*
X2427Y1249D02*
X2434Y1249D01*
X2445Y1249D02*
X2451Y1249D01*
X2590Y1249D02*
X2597Y1249D01*
X0Y1248D02*
X7Y1248D01*
X2412Y1248D02*
X2418Y1248D01*
X2427Y1248D02*
X2433Y1248D01*
X2445Y1248D02*
X2451Y1248D01*
X2590Y1248D02*
X2597Y1248D01*
X0Y1247D02*
X7Y1247D01*
X2412Y1247D02*
X2419Y1247D01*
X2426Y1247D02*
X2433Y1247D01*
X2445Y1247D02*
X2451Y1247D01*
X2590Y1247D02*
X2597Y1247D01*
X0Y1246D02*
X7Y1246D01*
X2412Y1246D02*
X2419Y1246D01*
X2426Y1246D02*
X2433Y1246D01*
X2444Y1246D02*
X2451Y1246D01*
X2590Y1246D02*
X2597Y1246D01*
X0Y1245D02*
X7Y1245D01*
X2413Y1245D02*
X2421Y1245D01*
X2425Y1245D02*
X2432Y1245D01*
X2444Y1245D02*
X2450Y1245D01*
X2590Y1245D02*
X2597Y1245D01*
X0Y1244D02*
X7Y1244D01*
X2413Y1244D02*
X2432Y1244D01*
X2443Y1244D02*
X2450Y1244D01*
X2590Y1244D02*
X2597Y1244D01*
X0Y1243D02*
X7Y1243D01*
X2414Y1243D02*
X2431Y1243D01*
X2442Y1243D02*
X2450Y1243D01*
X2590Y1243D02*
X2597Y1243D01*
X0Y1242D02*
X7Y1242D01*
X2414Y1242D02*
X2431Y1242D01*
X2442Y1242D02*
X2449Y1242D01*
X2590Y1242D02*
X2597Y1242D01*
X0Y1241D02*
X7Y1241D01*
X2415Y1241D02*
X2430Y1241D01*
X2442Y1241D02*
X2448Y1241D01*
X2590Y1241D02*
X2597Y1241D01*
X0Y1240D02*
X7Y1240D01*
X2416Y1240D02*
X2429Y1240D01*
X2442Y1240D02*
X2447Y1240D01*
X2590Y1240D02*
X2597Y1240D01*
X0Y1239D02*
X7Y1239D01*
X2418Y1239D02*
X2427Y1239D01*
X2443Y1239D02*
X2446Y1239D01*
X2590Y1239D02*
X2597Y1239D01*
X0Y1238D02*
X7Y1238D01*
X2420Y1238D02*
X2425Y1238D01*
X2590Y1238D02*
X2597Y1238D01*
X0Y1237D02*
X7Y1237D01*
X2590Y1237D02*
X2597Y1237D01*
X0Y1236D02*
X7Y1236D01*
X2590Y1236D02*
X2597Y1236D01*
X0Y1235D02*
X7Y1235D01*
X2590Y1235D02*
X2597Y1235D01*
X0Y1234D02*
X7Y1234D01*
X2590Y1234D02*
X2597Y1234D01*
X0Y1233D02*
X7Y1233D01*
X2590Y1233D02*
X2597Y1233D01*
X0Y1232D02*
X7Y1232D01*
X2590Y1232D02*
X2597Y1232D01*
X0Y1231D02*
X7Y1231D01*
X2590Y1231D02*
X2597Y1231D01*
X0Y1230D02*
X7Y1230D01*
X2590Y1230D02*
X2597Y1230D01*
X0Y1229D02*
X7Y1229D01*
X2590Y1229D02*
X2597Y1229D01*
X0Y1228D02*
X7Y1228D01*
X2590Y1228D02*
X2597Y1228D01*
X0Y1227D02*
X7Y1227D01*
X2590Y1227D02*
X2597Y1227D01*
X0Y1226D02*
X7Y1226D01*
X2590Y1226D02*
X2597Y1226D01*
X0Y1225D02*
X7Y1225D01*
X2590Y1225D02*
X2597Y1225D01*
X0Y1224D02*
X7Y1224D01*
X2590Y1224D02*
X2597Y1224D01*
X0Y1223D02*
X7Y1223D01*
X2590Y1223D02*
X2597Y1223D01*
X0Y1222D02*
X7Y1222D01*
X2590Y1222D02*
X2597Y1222D01*
X0Y1221D02*
X7Y1221D01*
X2590Y1221D02*
X2597Y1221D01*
X0Y1220D02*
X7Y1220D01*
X2590Y1220D02*
X2597Y1220D01*
X0Y1219D02*
X7Y1219D01*
X2590Y1219D02*
X2597Y1219D01*
X0Y1218D02*
X7Y1218D01*
X2590Y1218D02*
X2597Y1218D01*
X0Y1217D02*
X7Y1217D01*
X2590Y1217D02*
X2597Y1217D01*
X0Y1216D02*
X7Y1216D01*
X2590Y1216D02*
X2597Y1216D01*
X0Y1215D02*
X7Y1215D01*
X2590Y1215D02*
X2597Y1215D01*
X0Y1214D02*
X7Y1214D01*
X2590Y1214D02*
X2597Y1214D01*
X0Y1213D02*
X7Y1213D01*
X2590Y1213D02*
X2597Y1213D01*
X0Y1212D02*
X7Y1212D01*
X2590Y1212D02*
X2597Y1212D01*
X0Y1211D02*
X7Y1211D01*
X2590Y1211D02*
X2597Y1211D01*
X0Y1210D02*
X7Y1210D01*
X2590Y1210D02*
X2597Y1210D01*
X0Y1209D02*
X7Y1209D01*
X2590Y1209D02*
X2597Y1209D01*
X0Y1208D02*
X7Y1208D01*
X2590Y1208D02*
X2597Y1208D01*
X0Y1207D02*
X7Y1207D01*
X2590Y1207D02*
X2597Y1207D01*
X0Y1206D02*
X7Y1206D01*
X2590Y1206D02*
X2597Y1206D01*
X0Y1205D02*
X7Y1205D01*
X2590Y1205D02*
X2597Y1205D01*
X0Y1204D02*
X7Y1204D01*
X2590Y1204D02*
X2597Y1204D01*
X0Y1203D02*
X7Y1203D01*
X2590Y1203D02*
X2597Y1203D01*
X0Y1202D02*
X7Y1202D01*
X2590Y1202D02*
X2597Y1202D01*
X0Y1201D02*
X7Y1201D01*
X2590Y1201D02*
X2597Y1201D01*
X0Y1200D02*
X7Y1200D01*
X2590Y1200D02*
X2597Y1200D01*
X0Y1199D02*
X7Y1199D01*
X2590Y1199D02*
X2597Y1199D01*
X0Y1198D02*
X7Y1198D01*
X2590Y1198D02*
X2597Y1198D01*
X0Y1197D02*
X7Y1197D01*
X2590Y1197D02*
X2597Y1197D01*
X0Y1196D02*
X7Y1196D01*
X2590Y1196D02*
X2597Y1196D01*
X0Y1195D02*
X7Y1195D01*
X2590Y1195D02*
X2597Y1195D01*
X0Y1194D02*
X7Y1194D01*
X2590Y1194D02*
X2597Y1194D01*
X0Y1193D02*
X7Y1193D01*
X2590Y1193D02*
X2597Y1193D01*
X0Y1192D02*
X7Y1192D01*
X2590Y1192D02*
X2597Y1192D01*
X0Y1191D02*
X7Y1191D01*
X2590Y1191D02*
X2597Y1191D01*
X0Y1190D02*
X7Y1190D01*
X2590Y1190D02*
X2597Y1190D01*
X0Y1189D02*
X7Y1189D01*
X2590Y1189D02*
X2597Y1189D01*
X0Y1188D02*
X7Y1188D01*
X2590Y1188D02*
X2597Y1188D01*
X0Y1187D02*
X7Y1187D01*
X2590Y1187D02*
X2597Y1187D01*
X0Y1186D02*
X7Y1186D01*
X2590Y1186D02*
X2597Y1186D01*
X0Y1185D02*
X7Y1185D01*
X2590Y1185D02*
X2597Y1185D01*
X0Y1184D02*
X7Y1184D01*
X2590Y1184D02*
X2597Y1184D01*
X0Y1183D02*
X7Y1183D01*
X2590Y1183D02*
X2597Y1183D01*
X0Y1182D02*
X7Y1182D01*
X2590Y1182D02*
X2597Y1182D01*
X0Y1181D02*
X7Y1181D01*
X2590Y1181D02*
X2597Y1181D01*
X0Y1180D02*
X7Y1180D01*
X2590Y1180D02*
X2597Y1180D01*
X0Y1179D02*
X7Y1179D01*
X2590Y1179D02*
X2597Y1179D01*
X0Y1178D02*
X7Y1178D01*
X2590Y1178D02*
X2597Y1178D01*
X0Y1177D02*
X7Y1177D01*
X2590Y1177D02*
X2597Y1177D01*
X0Y1176D02*
X7Y1176D01*
X2590Y1176D02*
X2597Y1176D01*
X0Y1175D02*
X7Y1175D01*
X2590Y1175D02*
X2597Y1175D01*
X0Y1174D02*
X7Y1174D01*
X2590Y1174D02*
X2597Y1174D01*
X0Y1173D02*
X7Y1173D01*
X2590Y1173D02*
X2597Y1173D01*
X0Y1172D02*
X7Y1172D01*
X2590Y1172D02*
X2597Y1172D01*
X0Y1171D02*
X7Y1171D01*
X2590Y1171D02*
X2597Y1171D01*
X0Y1170D02*
X7Y1170D01*
X2590Y1170D02*
X2597Y1170D01*
X0Y1169D02*
X7Y1169D01*
X2590Y1169D02*
X2597Y1169D01*
X0Y1168D02*
X7Y1168D01*
X2590Y1168D02*
X2597Y1168D01*
X0Y1167D02*
X7Y1167D01*
X2590Y1167D02*
X2597Y1167D01*
X0Y1166D02*
X7Y1166D01*
X2590Y1166D02*
X2597Y1166D01*
X0Y1165D02*
X7Y1165D01*
X2590Y1165D02*
X2597Y1165D01*
X0Y1164D02*
X7Y1164D01*
X2590Y1164D02*
X2597Y1164D01*
X0Y1163D02*
X7Y1163D01*
X2590Y1163D02*
X2597Y1163D01*
X0Y1162D02*
X7Y1162D01*
X2590Y1162D02*
X2597Y1162D01*
X0Y1161D02*
X7Y1161D01*
X2590Y1161D02*
X2597Y1161D01*
X0Y1160D02*
X7Y1160D01*
X2590Y1160D02*
X2597Y1160D01*
X0Y1159D02*
X7Y1159D01*
X2590Y1159D02*
X2597Y1159D01*
X0Y1158D02*
X7Y1158D01*
X2590Y1158D02*
X2597Y1158D01*
X0Y1157D02*
X7Y1157D01*
X2590Y1157D02*
X2597Y1157D01*
X0Y1156D02*
X7Y1156D01*
X2590Y1156D02*
X2597Y1156D01*
X0Y1155D02*
X7Y1155D01*
X2590Y1155D02*
X2597Y1155D01*
X0Y1154D02*
X7Y1154D01*
X2590Y1154D02*
X2597Y1154D01*
X0Y1153D02*
X7Y1153D01*
X2590Y1153D02*
X2597Y1153D01*
X0Y1152D02*
X7Y1152D01*
X2590Y1152D02*
X2597Y1152D01*
X0Y1151D02*
X7Y1151D01*
X2590Y1151D02*
X2597Y1151D01*
X0Y1150D02*
X7Y1150D01*
X2590Y1150D02*
X2597Y1150D01*
X0Y1149D02*
X7Y1149D01*
X2590Y1149D02*
X2597Y1149D01*
X0Y1148D02*
X7Y1148D01*
X2590Y1148D02*
X2597Y1148D01*
X0Y1147D02*
X7Y1147D01*
X2590Y1147D02*
X2597Y1147D01*
X0Y1146D02*
X7Y1146D01*
X2590Y1146D02*
X2597Y1146D01*
X0Y1145D02*
X7Y1145D01*
X2590Y1145D02*
X2597Y1145D01*
X0Y1144D02*
X7Y1144D01*
X2590Y1144D02*
X2597Y1144D01*
X0Y1143D02*
X7Y1143D01*
X2590Y1143D02*
X2597Y1143D01*
X0Y1142D02*
X7Y1142D01*
X2590Y1142D02*
X2597Y1142D01*
X0Y1141D02*
X7Y1141D01*
X2590Y1141D02*
X2597Y1141D01*
X0Y1140D02*
X7Y1140D01*
X2590Y1140D02*
X2597Y1140D01*
X0Y1139D02*
X7Y1139D01*
X2590Y1139D02*
X2597Y1139D01*
X0Y1138D02*
X7Y1138D01*
X2590Y1138D02*
X2597Y1138D01*
X0Y1137D02*
X7Y1137D01*
X2590Y1137D02*
X2597Y1137D01*
X0Y1136D02*
X7Y1136D01*
X2590Y1136D02*
X2597Y1136D01*
X0Y1135D02*
X7Y1135D01*
X2590Y1135D02*
X2597Y1135D01*
X0Y1134D02*
X7Y1134D01*
X2590Y1134D02*
X2597Y1134D01*
X0Y1133D02*
X7Y1133D01*
X2590Y1133D02*
X2597Y1133D01*
X0Y1132D02*
X7Y1132D01*
X2590Y1132D02*
X2597Y1132D01*
X0Y1131D02*
X7Y1131D01*
X2590Y1131D02*
X2597Y1131D01*
X0Y1130D02*
X7Y1130D01*
X2590Y1130D02*
X2597Y1130D01*
X0Y1129D02*
X7Y1129D01*
X2590Y1129D02*
X2597Y1129D01*
X0Y1128D02*
X7Y1128D01*
X2590Y1128D02*
X2597Y1128D01*
X0Y1127D02*
X7Y1127D01*
X2590Y1127D02*
X2597Y1127D01*
X0Y1126D02*
X7Y1126D01*
X2590Y1126D02*
X2597Y1126D01*
X0Y1125D02*
X7Y1125D01*
X2590Y1125D02*
X2597Y1125D01*
X0Y1124D02*
X7Y1124D01*
X2590Y1124D02*
X2597Y1124D01*
X0Y1123D02*
X7Y1123D01*
X2590Y1123D02*
X2597Y1123D01*
X0Y1122D02*
X7Y1122D01*
X2590Y1122D02*
X2597Y1122D01*
X0Y1121D02*
X7Y1121D01*
X2590Y1121D02*
X2597Y1121D01*
X0Y1120D02*
X7Y1120D01*
X2590Y1120D02*
X2597Y1120D01*
X0Y1119D02*
X7Y1119D01*
X2590Y1119D02*
X2597Y1119D01*
X0Y1118D02*
X7Y1118D01*
X2590Y1118D02*
X2597Y1118D01*
X0Y1117D02*
X7Y1117D01*
X2590Y1117D02*
X2597Y1117D01*
X0Y1116D02*
X7Y1116D01*
X2590Y1116D02*
X2597Y1116D01*
X0Y1115D02*
X7Y1115D01*
X2590Y1115D02*
X2597Y1115D01*
X0Y1114D02*
X7Y1114D01*
X2590Y1114D02*
X2597Y1114D01*
X0Y1113D02*
X7Y1113D01*
X2590Y1113D02*
X2597Y1113D01*
X0Y1112D02*
X7Y1112D01*
X2590Y1112D02*
X2597Y1112D01*
X0Y1111D02*
X7Y1111D01*
X2590Y1111D02*
X2597Y1111D01*
X0Y1110D02*
X7Y1110D01*
X2590Y1110D02*
X2597Y1110D01*
X0Y1109D02*
X7Y1109D01*
X2590Y1109D02*
X2597Y1109D01*
X0Y1108D02*
X7Y1108D01*
X2590Y1108D02*
X2597Y1108D01*
X0Y1107D02*
X7Y1107D01*
X2590Y1107D02*
X2597Y1107D01*
X0Y1106D02*
X7Y1106D01*
X2590Y1106D02*
X2597Y1106D01*
X0Y1105D02*
X7Y1105D01*
X2590Y1105D02*
X2597Y1105D01*
X0Y1104D02*
X7Y1104D01*
X2590Y1104D02*
X2597Y1104D01*
X0Y1103D02*
X7Y1103D01*
X2590Y1103D02*
X2597Y1103D01*
X0Y1102D02*
X7Y1102D01*
X2590Y1102D02*
X2597Y1102D01*
X0Y1101D02*
X7Y1101D01*
X2590Y1101D02*
X2597Y1101D01*
X0Y1100D02*
X7Y1100D01*
X2590Y1100D02*
X2597Y1100D01*
X0Y1099D02*
X7Y1099D01*
X2590Y1099D02*
X2597Y1099D01*
X0Y1098D02*
X7Y1098D01*
X2590Y1098D02*
X2597Y1098D01*
X0Y1097D02*
X7Y1097D01*
X2590Y1097D02*
X2597Y1097D01*
X0Y1096D02*
X7Y1096D01*
X2590Y1096D02*
X2597Y1096D01*
X0Y1095D02*
X7Y1095D01*
X2590Y1095D02*
X2597Y1095D01*
X0Y1094D02*
X7Y1094D01*
X2590Y1094D02*
X2597Y1094D01*
X0Y1093D02*
X7Y1093D01*
X2590Y1093D02*
X2597Y1093D01*
X0Y1092D02*
X7Y1092D01*
X2590Y1092D02*
X2597Y1092D01*
X0Y1091D02*
X7Y1091D01*
X2590Y1091D02*
X2597Y1091D01*
X0Y1090D02*
X7Y1090D01*
X2590Y1090D02*
X2597Y1090D01*
X0Y1089D02*
X7Y1089D01*
X2590Y1089D02*
X2597Y1089D01*
X0Y1088D02*
X7Y1088D01*
X2590Y1088D02*
X2597Y1088D01*
X0Y1087D02*
X7Y1087D01*
X2590Y1087D02*
X2597Y1087D01*
X0Y1086D02*
X7Y1086D01*
X2590Y1086D02*
X2597Y1086D01*
X0Y1085D02*
X7Y1085D01*
X2590Y1085D02*
X2597Y1085D01*
X0Y1084D02*
X7Y1084D01*
X2590Y1084D02*
X2597Y1084D01*
X0Y1083D02*
X7Y1083D01*
X2590Y1083D02*
X2597Y1083D01*
X0Y1082D02*
X7Y1082D01*
X2590Y1082D02*
X2597Y1082D01*
X0Y1081D02*
X7Y1081D01*
X2590Y1081D02*
X2597Y1081D01*
X0Y1080D02*
X7Y1080D01*
X2590Y1080D02*
X2597Y1080D01*
X0Y1079D02*
X7Y1079D01*
X2590Y1079D02*
X2597Y1079D01*
X0Y1078D02*
X7Y1078D01*
X2590Y1078D02*
X2597Y1078D01*
X0Y1077D02*
X7Y1077D01*
X2590Y1077D02*
X2597Y1077D01*
X0Y1076D02*
X7Y1076D01*
X2590Y1076D02*
X2597Y1076D01*
X0Y1075D02*
X7Y1075D01*
X2590Y1075D02*
X2597Y1075D01*
X0Y1074D02*
X7Y1074D01*
X2590Y1074D02*
X2597Y1074D01*
X0Y1073D02*
X7Y1073D01*
X2590Y1073D02*
X2597Y1073D01*
X0Y1072D02*
X7Y1072D01*
X2590Y1072D02*
X2597Y1072D01*
X0Y1071D02*
X7Y1071D01*
X2590Y1071D02*
X2597Y1071D01*
X0Y1070D02*
X7Y1070D01*
X2590Y1070D02*
X2597Y1070D01*
X0Y1069D02*
X7Y1069D01*
X2590Y1069D02*
X2597Y1069D01*
X0Y1068D02*
X7Y1068D01*
X2590Y1068D02*
X2597Y1068D01*
X0Y1067D02*
X7Y1067D01*
X2590Y1067D02*
X2597Y1067D01*
X0Y1066D02*
X7Y1066D01*
X2590Y1066D02*
X2597Y1066D01*
X0Y1065D02*
X7Y1065D01*
X2590Y1065D02*
X2597Y1065D01*
X0Y1064D02*
X7Y1064D01*
X2590Y1064D02*
X2597Y1064D01*
X0Y1063D02*
X7Y1063D01*
X2590Y1063D02*
X2597Y1063D01*
X0Y1062D02*
X7Y1062D01*
X2590Y1062D02*
X2597Y1062D01*
X0Y1061D02*
X7Y1061D01*
X2590Y1061D02*
X2597Y1061D01*
X0Y1060D02*
X7Y1060D01*
X2590Y1060D02*
X2597Y1060D01*
X0Y1059D02*
X7Y1059D01*
X2590Y1059D02*
X2597Y1059D01*
X0Y1058D02*
X7Y1058D01*
X2590Y1058D02*
X2597Y1058D01*
X0Y1057D02*
X7Y1057D01*
X2590Y1057D02*
X2597Y1057D01*
X0Y1056D02*
X7Y1056D01*
X2590Y1056D02*
X2597Y1056D01*
X0Y1055D02*
X7Y1055D01*
X2590Y1055D02*
X2597Y1055D01*
X0Y1054D02*
X7Y1054D01*
X2590Y1054D02*
X2597Y1054D01*
X0Y1053D02*
X7Y1053D01*
X2590Y1053D02*
X2597Y1053D01*
X0Y1052D02*
X7Y1052D01*
X2590Y1052D02*
X2597Y1052D01*
X0Y1051D02*
X7Y1051D01*
X2590Y1051D02*
X2597Y1051D01*
X0Y1050D02*
X7Y1050D01*
X2590Y1050D02*
X2597Y1050D01*
X0Y1049D02*
X7Y1049D01*
X2590Y1049D02*
X2597Y1049D01*
X0Y1048D02*
X7Y1048D01*
X2590Y1048D02*
X2597Y1048D01*
X0Y1047D02*
X7Y1047D01*
X2590Y1047D02*
X2597Y1047D01*
X0Y1046D02*
X7Y1046D01*
X2590Y1046D02*
X2597Y1046D01*
X0Y1045D02*
X7Y1045D01*
X2590Y1045D02*
X2597Y1045D01*
X0Y1044D02*
X7Y1044D01*
X2590Y1044D02*
X2597Y1044D01*
X0Y1043D02*
X7Y1043D01*
X2590Y1043D02*
X2597Y1043D01*
X0Y1042D02*
X7Y1042D01*
X2590Y1042D02*
X2597Y1042D01*
X0Y1041D02*
X7Y1041D01*
X2590Y1041D02*
X2597Y1041D01*
X0Y1040D02*
X7Y1040D01*
X2590Y1040D02*
X2597Y1040D01*
X0Y1039D02*
X7Y1039D01*
X2590Y1039D02*
X2597Y1039D01*
X0Y1038D02*
X7Y1038D01*
X2590Y1038D02*
X2597Y1038D01*
X0Y1037D02*
X7Y1037D01*
X2590Y1037D02*
X2597Y1037D01*
X0Y1036D02*
X7Y1036D01*
X2590Y1036D02*
X2597Y1036D01*
X0Y1035D02*
X7Y1035D01*
X2590Y1035D02*
X2597Y1035D01*
X0Y1034D02*
X7Y1034D01*
X2590Y1034D02*
X2597Y1034D01*
X0Y1033D02*
X7Y1033D01*
X2590Y1033D02*
X2597Y1033D01*
X0Y1032D02*
X7Y1032D01*
X2590Y1032D02*
X2597Y1032D01*
X0Y1031D02*
X7Y1031D01*
X2590Y1031D02*
X2597Y1031D01*
X0Y1030D02*
X7Y1030D01*
X2590Y1030D02*
X2597Y1030D01*
X0Y1029D02*
X7Y1029D01*
X2590Y1029D02*
X2597Y1029D01*
X0Y1028D02*
X7Y1028D01*
X2590Y1028D02*
X2597Y1028D01*
X0Y1027D02*
X7Y1027D01*
X2590Y1027D02*
X2597Y1027D01*
X0Y1026D02*
X7Y1026D01*
X2590Y1026D02*
X2597Y1026D01*
X0Y1025D02*
X7Y1025D01*
X2590Y1025D02*
X2597Y1025D01*
X0Y1024D02*
X7Y1024D01*
X2590Y1024D02*
X2597Y1024D01*
X0Y1023D02*
X7Y1023D01*
X2590Y1023D02*
X2597Y1023D01*
X0Y1022D02*
X7Y1022D01*
X2590Y1022D02*
X2597Y1022D01*
X0Y1021D02*
X7Y1021D01*
X2590Y1021D02*
X2597Y1021D01*
X0Y1020D02*
X7Y1020D01*
X2590Y1020D02*
X2597Y1020D01*
X0Y1019D02*
X7Y1019D01*
X2590Y1019D02*
X2597Y1019D01*
X0Y1018D02*
X7Y1018D01*
X2590Y1018D02*
X2597Y1018D01*
X0Y1017D02*
X7Y1017D01*
X2590Y1017D02*
X2597Y1017D01*
X0Y1016D02*
X7Y1016D01*
X2590Y1016D02*
X2597Y1016D01*
X0Y1015D02*
X7Y1015D01*
X2590Y1015D02*
X2597Y1015D01*
X0Y1014D02*
X7Y1014D01*
X2590Y1014D02*
X2597Y1014D01*
X0Y1013D02*
X7Y1013D01*
X2590Y1013D02*
X2597Y1013D01*
X0Y1012D02*
X7Y1012D01*
X2590Y1012D02*
X2597Y1012D01*
X0Y1011D02*
X7Y1011D01*
X2590Y1011D02*
X2597Y1011D01*
X0Y1010D02*
X7Y1010D01*
X2590Y1010D02*
X2597Y1010D01*
X0Y1009D02*
X7Y1009D01*
X2590Y1009D02*
X2597Y1009D01*
X0Y1008D02*
X7Y1008D01*
X2590Y1008D02*
X2597Y1008D01*
X0Y1007D02*
X7Y1007D01*
X2590Y1007D02*
X2597Y1007D01*
X0Y1006D02*
X7Y1006D01*
X2590Y1006D02*
X2597Y1006D01*
X0Y1005D02*
X7Y1005D01*
X2590Y1005D02*
X2597Y1005D01*
X0Y1004D02*
X7Y1004D01*
X2590Y1004D02*
X2597Y1004D01*
X0Y1003D02*
X7Y1003D01*
X2590Y1003D02*
X2597Y1003D01*
X0Y1002D02*
X7Y1002D01*
X2590Y1002D02*
X2597Y1002D01*
X0Y1001D02*
X7Y1001D01*
X2590Y1001D02*
X2597Y1001D01*
X0Y1000D02*
X7Y1000D01*
X2590Y1000D02*
X2597Y1000D01*
X0Y999D02*
X7Y999D01*
X2590Y999D02*
X2597Y999D01*
X0Y998D02*
X7Y998D01*
X2590Y998D02*
X2597Y998D01*
X0Y997D02*
X7Y997D01*
X2590Y997D02*
X2597Y997D01*
X0Y996D02*
X7Y996D01*
X2590Y996D02*
X2597Y996D01*
X0Y995D02*
X7Y995D01*
X2590Y995D02*
X2597Y995D01*
X0Y994D02*
X7Y994D01*
X2590Y994D02*
X2597Y994D01*
X0Y993D02*
X7Y993D01*
X2590Y993D02*
X2597Y993D01*
X0Y992D02*
X7Y992D01*
X2590Y992D02*
X2597Y992D01*
X0Y991D02*
X7Y991D01*
X2590Y991D02*
X2597Y991D01*
X0Y990D02*
X7Y990D01*
X2590Y990D02*
X2597Y990D01*
X0Y989D02*
X7Y989D01*
X2590Y989D02*
X2597Y989D01*
X0Y988D02*
X7Y988D01*
X2590Y988D02*
X2597Y988D01*
X0Y987D02*
X7Y987D01*
X2590Y987D02*
X2597Y987D01*
X0Y986D02*
X7Y986D01*
X2590Y986D02*
X2597Y986D01*
X0Y985D02*
X7Y985D01*
X2590Y985D02*
X2597Y985D01*
X0Y984D02*
X7Y984D01*
X2590Y984D02*
X2597Y984D01*
X0Y983D02*
X7Y983D01*
X2590Y983D02*
X2597Y983D01*
X0Y982D02*
X7Y982D01*
X2590Y982D02*
X2597Y982D01*
X0Y981D02*
X7Y981D01*
X2590Y981D02*
X2597Y981D01*
X0Y980D02*
X7Y980D01*
X2590Y980D02*
X2597Y980D01*
X0Y979D02*
X7Y979D01*
X2590Y979D02*
X2597Y979D01*
X0Y978D02*
X7Y978D01*
X2590Y978D02*
X2597Y978D01*
X0Y977D02*
X7Y977D01*
X2590Y977D02*
X2597Y977D01*
X0Y976D02*
X7Y976D01*
X2590Y976D02*
X2597Y976D01*
X0Y975D02*
X7Y975D01*
X2590Y975D02*
X2597Y975D01*
X0Y974D02*
X7Y974D01*
X2590Y974D02*
X2597Y974D01*
X0Y973D02*
X7Y973D01*
X2590Y973D02*
X2597Y973D01*
X0Y972D02*
X7Y972D01*
X2590Y972D02*
X2597Y972D01*
X0Y971D02*
X7Y971D01*
X2590Y971D02*
X2597Y971D01*
X0Y970D02*
X7Y970D01*
X2590Y970D02*
X2597Y970D01*
X0Y969D02*
X7Y969D01*
X2590Y969D02*
X2597Y969D01*
X0Y968D02*
X7Y968D01*
X2590Y968D02*
X2597Y968D01*
X0Y967D02*
X7Y967D01*
X2590Y967D02*
X2597Y967D01*
X0Y966D02*
X7Y966D01*
X2590Y966D02*
X2597Y966D01*
X0Y965D02*
X7Y965D01*
X2590Y965D02*
X2597Y965D01*
X0Y964D02*
X7Y964D01*
X2590Y964D02*
X2597Y964D01*
X0Y963D02*
X7Y963D01*
X2590Y963D02*
X2597Y963D01*
X0Y962D02*
X7Y962D01*
X2590Y962D02*
X2597Y962D01*
X0Y961D02*
X7Y961D01*
X2590Y961D02*
X2597Y961D01*
X0Y960D02*
X7Y960D01*
X2590Y960D02*
X2597Y960D01*
X0Y959D02*
X7Y959D01*
X2590Y959D02*
X2597Y959D01*
X0Y958D02*
X7Y958D01*
X2590Y958D02*
X2597Y958D01*
X0Y957D02*
X7Y957D01*
X2590Y957D02*
X2597Y957D01*
X0Y956D02*
X7Y956D01*
X2590Y956D02*
X2597Y956D01*
X0Y955D02*
X7Y955D01*
X2590Y955D02*
X2597Y955D01*
X0Y954D02*
X7Y954D01*
X2590Y954D02*
X2597Y954D01*
X0Y953D02*
X7Y953D01*
X2590Y953D02*
X2597Y953D01*
X0Y952D02*
X7Y952D01*
X2590Y952D02*
X2597Y952D01*
X0Y951D02*
X7Y951D01*
X2590Y951D02*
X2597Y951D01*
X0Y950D02*
X7Y950D01*
X2590Y950D02*
X2597Y950D01*
X0Y949D02*
X7Y949D01*
X2590Y949D02*
X2597Y949D01*
X0Y948D02*
X7Y948D01*
X2590Y948D02*
X2597Y948D01*
X0Y947D02*
X7Y947D01*
X2590Y947D02*
X2597Y947D01*
X0Y946D02*
X7Y946D01*
X2590Y946D02*
X2597Y946D01*
X0Y945D02*
X7Y945D01*
X2590Y945D02*
X2597Y945D01*
X0Y944D02*
X7Y944D01*
X2590Y944D02*
X2597Y944D01*
X0Y943D02*
X7Y943D01*
X2590Y943D02*
X2597Y943D01*
X0Y942D02*
X7Y942D01*
X2590Y942D02*
X2597Y942D01*
X0Y941D02*
X7Y941D01*
X2590Y941D02*
X2597Y941D01*
X0Y940D02*
X7Y940D01*
X2590Y940D02*
X2597Y940D01*
X0Y939D02*
X7Y939D01*
X2590Y939D02*
X2597Y939D01*
X0Y938D02*
X7Y938D01*
X2590Y938D02*
X2597Y938D01*
X0Y937D02*
X7Y937D01*
X2590Y937D02*
X2597Y937D01*
X0Y936D02*
X7Y936D01*
X2590Y936D02*
X2597Y936D01*
X0Y935D02*
X7Y935D01*
X2590Y935D02*
X2597Y935D01*
X0Y934D02*
X7Y934D01*
X2590Y934D02*
X2597Y934D01*
X0Y933D02*
X7Y933D01*
X2590Y933D02*
X2597Y933D01*
X0Y932D02*
X7Y932D01*
X2590Y932D02*
X2597Y932D01*
X0Y931D02*
X7Y931D01*
X2590Y931D02*
X2597Y931D01*
X0Y930D02*
X7Y930D01*
X2590Y930D02*
X2597Y930D01*
X0Y929D02*
X7Y929D01*
X2590Y929D02*
X2597Y929D01*
X0Y928D02*
X7Y928D01*
X2590Y928D02*
X2597Y928D01*
X0Y927D02*
X7Y927D01*
X2590Y927D02*
X2597Y927D01*
X0Y926D02*
X7Y926D01*
X2590Y926D02*
X2597Y926D01*
X0Y925D02*
X7Y925D01*
X2590Y925D02*
X2597Y925D01*
X0Y924D02*
X7Y924D01*
X2590Y924D02*
X2597Y924D01*
X0Y923D02*
X7Y923D01*
X2590Y923D02*
X2597Y923D01*
X0Y922D02*
X7Y922D01*
X2590Y922D02*
X2597Y922D01*
X0Y921D02*
X7Y921D01*
X2590Y921D02*
X2597Y921D01*
X0Y920D02*
X7Y920D01*
X2590Y920D02*
X2597Y920D01*
X0Y919D02*
X7Y919D01*
X2590Y919D02*
X2597Y919D01*
X0Y918D02*
X7Y918D01*
X2590Y918D02*
X2597Y918D01*
X0Y917D02*
X7Y917D01*
X2590Y917D02*
X2597Y917D01*
X0Y916D02*
X7Y916D01*
X2590Y916D02*
X2597Y916D01*
X0Y915D02*
X7Y915D01*
X2590Y915D02*
X2597Y915D01*
X0Y914D02*
X7Y914D01*
X2590Y914D02*
X2597Y914D01*
X0Y913D02*
X7Y913D01*
X2590Y913D02*
X2597Y913D01*
X0Y912D02*
X7Y912D01*
X2590Y912D02*
X2597Y912D01*
X0Y911D02*
X7Y911D01*
X2590Y911D02*
X2597Y911D01*
X0Y910D02*
X7Y910D01*
X2590Y910D02*
X2597Y910D01*
X0Y909D02*
X7Y909D01*
X2590Y909D02*
X2597Y909D01*
X0Y908D02*
X7Y908D01*
X2590Y908D02*
X2597Y908D01*
X0Y907D02*
X7Y907D01*
X2590Y907D02*
X2597Y907D01*
X0Y906D02*
X7Y906D01*
X2590Y906D02*
X2597Y906D01*
X0Y905D02*
X7Y905D01*
X2590Y905D02*
X2597Y905D01*
X0Y904D02*
X7Y904D01*
X2590Y904D02*
X2597Y904D01*
X0Y903D02*
X7Y903D01*
X2590Y903D02*
X2597Y903D01*
X0Y902D02*
X7Y902D01*
X2590Y902D02*
X2597Y902D01*
X0Y901D02*
X7Y901D01*
X2590Y901D02*
X2597Y901D01*
X0Y900D02*
X7Y900D01*
X2590Y900D02*
X2597Y900D01*
X0Y899D02*
X7Y899D01*
X2590Y899D02*
X2597Y899D01*
X0Y898D02*
X7Y898D01*
X2590Y898D02*
X2597Y898D01*
X0Y897D02*
X7Y897D01*
X2590Y897D02*
X2597Y897D01*
X0Y896D02*
X7Y896D01*
X2590Y896D02*
X2597Y896D01*
X0Y895D02*
X7Y895D01*
X2590Y895D02*
X2597Y895D01*
X0Y894D02*
X7Y894D01*
X2590Y894D02*
X2597Y894D01*
X0Y893D02*
X7Y893D01*
X2590Y893D02*
X2597Y893D01*
X0Y892D02*
X7Y892D01*
X2590Y892D02*
X2597Y892D01*
X0Y891D02*
X7Y891D01*
X2590Y891D02*
X2597Y891D01*
X0Y890D02*
X7Y890D01*
X2590Y890D02*
X2597Y890D01*
X0Y889D02*
X7Y889D01*
X2590Y889D02*
X2597Y889D01*
X0Y888D02*
X7Y888D01*
X2590Y888D02*
X2597Y888D01*
X0Y887D02*
X7Y887D01*
X2590Y887D02*
X2597Y887D01*
X0Y886D02*
X7Y886D01*
X2590Y886D02*
X2597Y886D01*
X0Y885D02*
X7Y885D01*
X2590Y885D02*
X2597Y885D01*
X0Y884D02*
X7Y884D01*
X2590Y884D02*
X2597Y884D01*
X0Y883D02*
X7Y883D01*
X2590Y883D02*
X2597Y883D01*
X0Y882D02*
X7Y882D01*
X2590Y882D02*
X2597Y882D01*
X0Y881D02*
X7Y881D01*
X2590Y881D02*
X2597Y881D01*
X0Y880D02*
X7Y880D01*
X2590Y880D02*
X2597Y880D01*
X0Y879D02*
X7Y879D01*
X2590Y879D02*
X2597Y879D01*
X0Y878D02*
X7Y878D01*
X2590Y878D02*
X2597Y878D01*
X0Y877D02*
X7Y877D01*
X2590Y877D02*
X2597Y877D01*
X0Y876D02*
X7Y876D01*
X2590Y876D02*
X2597Y876D01*
X0Y875D02*
X7Y875D01*
X2590Y875D02*
X2597Y875D01*
X0Y874D02*
X7Y874D01*
X2590Y874D02*
X2597Y874D01*
X0Y873D02*
X7Y873D01*
X2590Y873D02*
X2597Y873D01*
X0Y872D02*
X7Y872D01*
X2590Y872D02*
X2597Y872D01*
X0Y871D02*
X7Y871D01*
X2590Y871D02*
X2597Y871D01*
X0Y870D02*
X7Y870D01*
X2590Y870D02*
X2597Y870D01*
X0Y869D02*
X7Y869D01*
X2590Y869D02*
X2597Y869D01*
X0Y868D02*
X7Y868D01*
X2590Y868D02*
X2597Y868D01*
X0Y867D02*
X7Y867D01*
X2590Y867D02*
X2597Y867D01*
X0Y866D02*
X7Y866D01*
X2590Y866D02*
X2597Y866D01*
X0Y865D02*
X7Y865D01*
X2590Y865D02*
X2597Y865D01*
X0Y864D02*
X7Y864D01*
X2590Y864D02*
X2597Y864D01*
X0Y863D02*
X7Y863D01*
X2590Y863D02*
X2597Y863D01*
X0Y862D02*
X7Y862D01*
X2590Y862D02*
X2597Y862D01*
X0Y861D02*
X7Y861D01*
X2590Y861D02*
X2597Y861D01*
X0Y860D02*
X7Y860D01*
X2590Y860D02*
X2597Y860D01*
X0Y859D02*
X7Y859D01*
X2590Y859D02*
X2597Y859D01*
X0Y858D02*
X7Y858D01*
X2590Y858D02*
X2597Y858D01*
X0Y857D02*
X7Y857D01*
X2590Y857D02*
X2597Y857D01*
X0Y856D02*
X7Y856D01*
X2590Y856D02*
X2597Y856D01*
X0Y855D02*
X7Y855D01*
X2590Y855D02*
X2597Y855D01*
X0Y854D02*
X7Y854D01*
X2590Y854D02*
X2597Y854D01*
X0Y853D02*
X7Y853D01*
X2590Y853D02*
X2597Y853D01*
X0Y852D02*
X7Y852D01*
X2590Y852D02*
X2597Y852D01*
X0Y851D02*
X7Y851D01*
X2590Y851D02*
X2597Y851D01*
X0Y850D02*
X7Y850D01*
X2590Y850D02*
X2597Y850D01*
X0Y849D02*
X7Y849D01*
X2590Y849D02*
X2597Y849D01*
X0Y848D02*
X7Y848D01*
X2590Y848D02*
X2597Y848D01*
X0Y847D02*
X7Y847D01*
X2590Y847D02*
X2597Y847D01*
X0Y846D02*
X7Y846D01*
X2590Y846D02*
X2597Y846D01*
X0Y845D02*
X7Y845D01*
X2590Y845D02*
X2597Y845D01*
X0Y844D02*
X7Y844D01*
X2590Y844D02*
X2597Y844D01*
X0Y843D02*
X7Y843D01*
X2590Y843D02*
X2597Y843D01*
X0Y842D02*
X7Y842D01*
X2590Y842D02*
X2597Y842D01*
X0Y841D02*
X7Y841D01*
X2590Y841D02*
X2597Y841D01*
X0Y840D02*
X7Y840D01*
X2590Y840D02*
X2597Y840D01*
X0Y839D02*
X7Y839D01*
X2590Y839D02*
X2597Y839D01*
X0Y838D02*
X7Y838D01*
X2590Y838D02*
X2597Y838D01*
X0Y837D02*
X7Y837D01*
X2590Y837D02*
X2597Y837D01*
X0Y836D02*
X7Y836D01*
X2590Y836D02*
X2597Y836D01*
X0Y835D02*
X7Y835D01*
X2590Y835D02*
X2597Y835D01*
X0Y834D02*
X7Y834D01*
X2590Y834D02*
X2597Y834D01*
X0Y833D02*
X7Y833D01*
X2590Y833D02*
X2597Y833D01*
X0Y832D02*
X7Y832D01*
X2590Y832D02*
X2597Y832D01*
X0Y831D02*
X7Y831D01*
X2590Y831D02*
X2597Y831D01*
X0Y830D02*
X7Y830D01*
X2590Y830D02*
X2597Y830D01*
X0Y829D02*
X7Y829D01*
X2590Y829D02*
X2597Y829D01*
X0Y828D02*
X7Y828D01*
X2590Y828D02*
X2597Y828D01*
X0Y827D02*
X7Y827D01*
X2590Y827D02*
X2597Y827D01*
X0Y826D02*
X7Y826D01*
X2590Y826D02*
X2597Y826D01*
X0Y825D02*
X7Y825D01*
X2590Y825D02*
X2597Y825D01*
X0Y824D02*
X7Y824D01*
X2590Y824D02*
X2597Y824D01*
X0Y823D02*
X7Y823D01*
X2590Y823D02*
X2597Y823D01*
X0Y822D02*
X7Y822D01*
X2590Y822D02*
X2597Y822D01*
X0Y821D02*
X7Y821D01*
X2590Y821D02*
X2597Y821D01*
X0Y820D02*
X7Y820D01*
X2590Y820D02*
X2597Y820D01*
X0Y819D02*
X7Y819D01*
X2590Y819D02*
X2597Y819D01*
X0Y818D02*
X7Y818D01*
X2590Y818D02*
X2597Y818D01*
X0Y817D02*
X7Y817D01*
X2590Y817D02*
X2597Y817D01*
X0Y816D02*
X7Y816D01*
X2590Y816D02*
X2597Y816D01*
X0Y815D02*
X7Y815D01*
X2590Y815D02*
X2597Y815D01*
X0Y814D02*
X7Y814D01*
X2590Y814D02*
X2597Y814D01*
X0Y813D02*
X7Y813D01*
X2590Y813D02*
X2597Y813D01*
X0Y812D02*
X7Y812D01*
X2590Y812D02*
X2597Y812D01*
X0Y811D02*
X7Y811D01*
X2590Y811D02*
X2597Y811D01*
X0Y810D02*
X7Y810D01*
X2590Y810D02*
X2597Y810D01*
X0Y809D02*
X7Y809D01*
X2590Y809D02*
X2597Y809D01*
X0Y808D02*
X7Y808D01*
X2590Y808D02*
X2597Y808D01*
X0Y807D02*
X7Y807D01*
X2590Y807D02*
X2597Y807D01*
X0Y806D02*
X7Y806D01*
X2590Y806D02*
X2597Y806D01*
X0Y805D02*
X7Y805D01*
X2590Y805D02*
X2597Y805D01*
X0Y804D02*
X7Y804D01*
X2590Y804D02*
X2597Y804D01*
X0Y803D02*
X7Y803D01*
X2590Y803D02*
X2597Y803D01*
X0Y802D02*
X7Y802D01*
X2590Y802D02*
X2597Y802D01*
X0Y801D02*
X7Y801D01*
X2590Y801D02*
X2597Y801D01*
X0Y800D02*
X7Y800D01*
X2590Y800D02*
X2597Y800D01*
X0Y799D02*
X7Y799D01*
X2590Y799D02*
X2597Y799D01*
X0Y798D02*
X7Y798D01*
X2590Y798D02*
X2597Y798D01*
X0Y797D02*
X7Y797D01*
X2590Y797D02*
X2597Y797D01*
X0Y796D02*
X7Y796D01*
X2590Y796D02*
X2597Y796D01*
X0Y795D02*
X7Y795D01*
X2590Y795D02*
X2597Y795D01*
X0Y794D02*
X7Y794D01*
X2590Y794D02*
X2597Y794D01*
X0Y793D02*
X7Y793D01*
X2590Y793D02*
X2597Y793D01*
X0Y792D02*
X7Y792D01*
X2590Y792D02*
X2597Y792D01*
X0Y791D02*
X7Y791D01*
X2590Y791D02*
X2597Y791D01*
X0Y790D02*
X7Y790D01*
X2590Y790D02*
X2597Y790D01*
X0Y789D02*
X7Y789D01*
X2590Y789D02*
X2597Y789D01*
X0Y788D02*
X7Y788D01*
X2590Y788D02*
X2597Y788D01*
X0Y787D02*
X7Y787D01*
X2590Y787D02*
X2597Y787D01*
X0Y786D02*
X7Y786D01*
X2590Y786D02*
X2597Y786D01*
X0Y785D02*
X7Y785D01*
X2590Y785D02*
X2597Y785D01*
X0Y784D02*
X7Y784D01*
X2590Y784D02*
X2597Y784D01*
X0Y783D02*
X7Y783D01*
X2590Y783D02*
X2597Y783D01*
X0Y782D02*
X7Y782D01*
X2590Y782D02*
X2597Y782D01*
X0Y781D02*
X7Y781D01*
X2590Y781D02*
X2597Y781D01*
X0Y780D02*
X7Y780D01*
X2590Y780D02*
X2597Y780D01*
X0Y779D02*
X7Y779D01*
X2590Y779D02*
X2597Y779D01*
X0Y778D02*
X7Y778D01*
X2590Y778D02*
X2597Y778D01*
X0Y777D02*
X7Y777D01*
X2590Y777D02*
X2597Y777D01*
X0Y776D02*
X7Y776D01*
X2590Y776D02*
X2597Y776D01*
X0Y775D02*
X7Y775D01*
X2590Y775D02*
X2597Y775D01*
X0Y774D02*
X7Y774D01*
X2590Y774D02*
X2597Y774D01*
X0Y773D02*
X7Y773D01*
X2590Y773D02*
X2597Y773D01*
X0Y772D02*
X7Y772D01*
X2590Y772D02*
X2597Y772D01*
X0Y771D02*
X7Y771D01*
X2590Y771D02*
X2597Y771D01*
X0Y770D02*
X7Y770D01*
X2590Y770D02*
X2597Y770D01*
X0Y769D02*
X7Y769D01*
X2590Y769D02*
X2597Y769D01*
X0Y768D02*
X7Y768D01*
X2590Y768D02*
X2597Y768D01*
X0Y767D02*
X7Y767D01*
X2590Y767D02*
X2597Y767D01*
X0Y766D02*
X7Y766D01*
X2590Y766D02*
X2597Y766D01*
X0Y765D02*
X7Y765D01*
X2590Y765D02*
X2597Y765D01*
X0Y764D02*
X7Y764D01*
X2590Y764D02*
X2597Y764D01*
X0Y763D02*
X7Y763D01*
X2590Y763D02*
X2597Y763D01*
X0Y762D02*
X7Y762D01*
X2590Y762D02*
X2597Y762D01*
X0Y761D02*
X7Y761D01*
X2590Y761D02*
X2597Y761D01*
X0Y760D02*
X7Y760D01*
X2590Y760D02*
X2597Y760D01*
X0Y759D02*
X7Y759D01*
X2590Y759D02*
X2597Y759D01*
X0Y758D02*
X7Y758D01*
X2590Y758D02*
X2597Y758D01*
X0Y757D02*
X7Y757D01*
X2590Y757D02*
X2597Y757D01*
X0Y756D02*
X7Y756D01*
X2590Y756D02*
X2597Y756D01*
X0Y755D02*
X7Y755D01*
X2590Y755D02*
X2597Y755D01*
X0Y754D02*
X7Y754D01*
X2590Y754D02*
X2597Y754D01*
X0Y753D02*
X7Y753D01*
X2590Y753D02*
X2597Y753D01*
X0Y752D02*
X7Y752D01*
X2590Y752D02*
X2597Y752D01*
X0Y751D02*
X7Y751D01*
X2590Y751D02*
X2597Y751D01*
X0Y750D02*
X7Y750D01*
X2590Y750D02*
X2597Y750D01*
X0Y749D02*
X7Y749D01*
X2590Y749D02*
X2597Y749D01*
X0Y748D02*
X7Y748D01*
X2590Y748D02*
X2597Y748D01*
X0Y747D02*
X7Y747D01*
X2590Y747D02*
X2597Y747D01*
X0Y746D02*
X7Y746D01*
X2590Y746D02*
X2597Y746D01*
X0Y745D02*
X7Y745D01*
X2590Y745D02*
X2597Y745D01*
X0Y744D02*
X7Y744D01*
X2590Y744D02*
X2597Y744D01*
X0Y743D02*
X7Y743D01*
X2590Y743D02*
X2597Y743D01*
X0Y742D02*
X7Y742D01*
X2590Y742D02*
X2597Y742D01*
X0Y741D02*
X7Y741D01*
X2590Y741D02*
X2597Y741D01*
X0Y740D02*
X7Y740D01*
X2590Y740D02*
X2597Y740D01*
X0Y739D02*
X7Y739D01*
X2590Y739D02*
X2597Y739D01*
X0Y738D02*
X7Y738D01*
X2590Y738D02*
X2597Y738D01*
X0Y737D02*
X7Y737D01*
X2590Y737D02*
X2597Y737D01*
X0Y736D02*
X7Y736D01*
X2590Y736D02*
X2597Y736D01*
X0Y735D02*
X7Y735D01*
X2590Y735D02*
X2597Y735D01*
X0Y734D02*
X7Y734D01*
X2590Y734D02*
X2597Y734D01*
X0Y733D02*
X7Y733D01*
X2590Y733D02*
X2597Y733D01*
X0Y732D02*
X7Y732D01*
X2590Y732D02*
X2597Y732D01*
X0Y731D02*
X7Y731D01*
X2590Y731D02*
X2597Y731D01*
X0Y730D02*
X7Y730D01*
X2590Y730D02*
X2597Y730D01*
X0Y729D02*
X7Y729D01*
X2590Y729D02*
X2597Y729D01*
X0Y728D02*
X7Y728D01*
X2590Y728D02*
X2597Y728D01*
X0Y727D02*
X7Y727D01*
X2590Y727D02*
X2597Y727D01*
X0Y726D02*
X7Y726D01*
X2590Y726D02*
X2597Y726D01*
X0Y725D02*
X7Y725D01*
X2590Y725D02*
X2597Y725D01*
X0Y724D02*
X7Y724D01*
X2590Y724D02*
X2597Y724D01*
X0Y723D02*
X7Y723D01*
X2590Y723D02*
X2597Y723D01*
X0Y722D02*
X7Y722D01*
X2590Y722D02*
X2597Y722D01*
X0Y721D02*
X7Y721D01*
X2590Y721D02*
X2597Y721D01*
X0Y720D02*
X7Y720D01*
X2590Y720D02*
X2597Y720D01*
X0Y719D02*
X7Y719D01*
X2590Y719D02*
X2597Y719D01*
X0Y718D02*
X7Y718D01*
X2590Y718D02*
X2597Y718D01*
X0Y717D02*
X7Y717D01*
X2590Y717D02*
X2597Y717D01*
X0Y716D02*
X7Y716D01*
X2590Y716D02*
X2597Y716D01*
X0Y715D02*
X7Y715D01*
X2590Y715D02*
X2597Y715D01*
X0Y714D02*
X7Y714D01*
X2590Y714D02*
X2597Y714D01*
X0Y713D02*
X7Y713D01*
X2590Y713D02*
X2597Y713D01*
X0Y712D02*
X7Y712D01*
X2590Y712D02*
X2597Y712D01*
X0Y711D02*
X7Y711D01*
X2590Y711D02*
X2597Y711D01*
X0Y710D02*
X7Y710D01*
X2590Y710D02*
X2597Y710D01*
X0Y709D02*
X7Y709D01*
X2590Y709D02*
X2597Y709D01*
X0Y708D02*
X7Y708D01*
X2590Y708D02*
X2597Y708D01*
X0Y707D02*
X7Y707D01*
X2590Y707D02*
X2597Y707D01*
X0Y706D02*
X7Y706D01*
X2590Y706D02*
X2597Y706D01*
X0Y705D02*
X7Y705D01*
X2590Y705D02*
X2597Y705D01*
X0Y704D02*
X7Y704D01*
X2590Y704D02*
X2597Y704D01*
X0Y703D02*
X7Y703D01*
X2590Y703D02*
X2597Y703D01*
X0Y702D02*
X7Y702D01*
X2590Y702D02*
X2597Y702D01*
X0Y701D02*
X7Y701D01*
X2590Y701D02*
X2597Y701D01*
X0Y700D02*
X7Y700D01*
X2590Y700D02*
X2597Y700D01*
X0Y699D02*
X7Y699D01*
X2590Y699D02*
X2597Y699D01*
X0Y698D02*
X7Y698D01*
X2590Y698D02*
X2597Y698D01*
X0Y697D02*
X7Y697D01*
X2590Y697D02*
X2597Y697D01*
X0Y696D02*
X7Y696D01*
X2590Y696D02*
X2597Y696D01*
X0Y695D02*
X7Y695D01*
X2590Y695D02*
X2597Y695D01*
X0Y694D02*
X7Y694D01*
X2590Y694D02*
X2597Y694D01*
X0Y693D02*
X7Y693D01*
X2590Y693D02*
X2597Y693D01*
X0Y692D02*
X7Y692D01*
X2590Y692D02*
X2597Y692D01*
X0Y691D02*
X7Y691D01*
X2590Y691D02*
X2597Y691D01*
X0Y690D02*
X7Y690D01*
X2590Y690D02*
X2597Y690D01*
X0Y689D02*
X7Y689D01*
X2590Y689D02*
X2597Y689D01*
X0Y688D02*
X7Y688D01*
X2590Y688D02*
X2597Y688D01*
X0Y687D02*
X7Y687D01*
X2590Y687D02*
X2597Y687D01*
X0Y686D02*
X7Y686D01*
X2590Y686D02*
X2597Y686D01*
X0Y685D02*
X7Y685D01*
X2590Y685D02*
X2597Y685D01*
X0Y684D02*
X7Y684D01*
X2590Y684D02*
X2597Y684D01*
X0Y683D02*
X7Y683D01*
X2590Y683D02*
X2597Y683D01*
X0Y682D02*
X7Y682D01*
X2590Y682D02*
X2597Y682D01*
X0Y681D02*
X7Y681D01*
X2590Y681D02*
X2597Y681D01*
X0Y680D02*
X7Y680D01*
X2590Y680D02*
X2597Y680D01*
X0Y679D02*
X7Y679D01*
X2590Y679D02*
X2597Y679D01*
X0Y678D02*
X7Y678D01*
X2590Y678D02*
X2597Y678D01*
X0Y677D02*
X7Y677D01*
X2590Y677D02*
X2597Y677D01*
X0Y676D02*
X7Y676D01*
X2590Y676D02*
X2597Y676D01*
X0Y675D02*
X7Y675D01*
X2590Y675D02*
X2597Y675D01*
X0Y674D02*
X7Y674D01*
X2590Y674D02*
X2597Y674D01*
X0Y673D02*
X7Y673D01*
X2590Y673D02*
X2597Y673D01*
X0Y672D02*
X7Y672D01*
X2590Y672D02*
X2597Y672D01*
X0Y671D02*
X7Y671D01*
X2590Y671D02*
X2597Y671D01*
X0Y670D02*
X7Y670D01*
X2590Y670D02*
X2597Y670D01*
X0Y669D02*
X7Y669D01*
X2590Y669D02*
X2597Y669D01*
X0Y668D02*
X7Y668D01*
X2590Y668D02*
X2597Y668D01*
X0Y667D02*
X7Y667D01*
X2590Y667D02*
X2597Y667D01*
X0Y666D02*
X7Y666D01*
X2590Y666D02*
X2597Y666D01*
X0Y665D02*
X7Y665D01*
X2590Y665D02*
X2597Y665D01*
X0Y664D02*
X7Y664D01*
X2590Y664D02*
X2597Y664D01*
X0Y663D02*
X7Y663D01*
X2590Y663D02*
X2597Y663D01*
X0Y662D02*
X7Y662D01*
X2590Y662D02*
X2597Y662D01*
X0Y661D02*
X7Y661D01*
X2590Y661D02*
X2597Y661D01*
X0Y660D02*
X7Y660D01*
X2590Y660D02*
X2597Y660D01*
X0Y659D02*
X7Y659D01*
X2590Y659D02*
X2597Y659D01*
X0Y658D02*
X7Y658D01*
X2590Y658D02*
X2597Y658D01*
X0Y657D02*
X7Y657D01*
X2590Y657D02*
X2597Y657D01*
X0Y656D02*
X7Y656D01*
X2590Y656D02*
X2597Y656D01*
X0Y655D02*
X7Y655D01*
X2590Y655D02*
X2597Y655D01*
X0Y654D02*
X7Y654D01*
X2590Y654D02*
X2597Y654D01*
X0Y653D02*
X7Y653D01*
X2590Y653D02*
X2597Y653D01*
X0Y652D02*
X7Y652D01*
X2590Y652D02*
X2597Y652D01*
X0Y651D02*
X7Y651D01*
X2590Y651D02*
X2597Y651D01*
X0Y650D02*
X7Y650D01*
X2590Y650D02*
X2597Y650D01*
X0Y649D02*
X7Y649D01*
X2590Y649D02*
X2597Y649D01*
X0Y648D02*
X7Y648D01*
X2590Y648D02*
X2597Y648D01*
X0Y647D02*
X7Y647D01*
X2590Y647D02*
X2597Y647D01*
X0Y646D02*
X7Y646D01*
X2590Y646D02*
X2597Y646D01*
X0Y645D02*
X7Y645D01*
X2590Y645D02*
X2597Y645D01*
X0Y644D02*
X7Y644D01*
X2590Y644D02*
X2597Y644D01*
X0Y643D02*
X7Y643D01*
X2590Y643D02*
X2597Y643D01*
X0Y642D02*
X7Y642D01*
X2590Y642D02*
X2597Y642D01*
X0Y641D02*
X7Y641D01*
X2590Y641D02*
X2597Y641D01*
X0Y640D02*
X7Y640D01*
X2590Y640D02*
X2597Y640D01*
X0Y639D02*
X7Y639D01*
X2590Y639D02*
X2597Y639D01*
X0Y638D02*
X7Y638D01*
X2590Y638D02*
X2597Y638D01*
X0Y637D02*
X7Y637D01*
X2590Y637D02*
X2597Y637D01*
X0Y636D02*
X7Y636D01*
X2590Y636D02*
X2597Y636D01*
X0Y635D02*
X7Y635D01*
X2590Y635D02*
X2597Y635D01*
X0Y634D02*
X7Y634D01*
X2590Y634D02*
X2597Y634D01*
X0Y633D02*
X7Y633D01*
X2590Y633D02*
X2597Y633D01*
X0Y632D02*
X7Y632D01*
X2590Y632D02*
X2597Y632D01*
X0Y631D02*
X7Y631D01*
X2590Y631D02*
X2597Y631D01*
X0Y630D02*
X7Y630D01*
X2590Y630D02*
X2597Y630D01*
X0Y629D02*
X7Y629D01*
X2590Y629D02*
X2597Y629D01*
X0Y628D02*
X7Y628D01*
X2590Y628D02*
X2597Y628D01*
X0Y627D02*
X7Y627D01*
X2590Y627D02*
X2597Y627D01*
X0Y626D02*
X7Y626D01*
X2590Y626D02*
X2597Y626D01*
X0Y625D02*
X7Y625D01*
X2590Y625D02*
X2597Y625D01*
X0Y624D02*
X7Y624D01*
X2590Y624D02*
X2597Y624D01*
X0Y623D02*
X7Y623D01*
X2590Y623D02*
X2597Y623D01*
X0Y622D02*
X7Y622D01*
X2590Y622D02*
X2597Y622D01*
X0Y621D02*
X7Y621D01*
X2590Y621D02*
X2597Y621D01*
X0Y620D02*
X7Y620D01*
X2590Y620D02*
X2597Y620D01*
X0Y619D02*
X7Y619D01*
X2590Y619D02*
X2597Y619D01*
X0Y618D02*
X7Y618D01*
X2590Y618D02*
X2597Y618D01*
X0Y617D02*
X7Y617D01*
X2590Y617D02*
X2597Y617D01*
X0Y616D02*
X7Y616D01*
X2590Y616D02*
X2597Y616D01*
X0Y615D02*
X7Y615D01*
X2590Y615D02*
X2597Y615D01*
X0Y614D02*
X7Y614D01*
X2590Y614D02*
X2597Y614D01*
X0Y613D02*
X7Y613D01*
X2590Y613D02*
X2597Y613D01*
X0Y612D02*
X7Y612D01*
X2590Y612D02*
X2597Y612D01*
X0Y611D02*
X7Y611D01*
X2590Y611D02*
X2597Y611D01*
X0Y610D02*
X7Y610D01*
X2590Y610D02*
X2597Y610D01*
X0Y609D02*
X7Y609D01*
X2590Y609D02*
X2597Y609D01*
X0Y608D02*
X7Y608D01*
X2590Y608D02*
X2597Y608D01*
X0Y607D02*
X7Y607D01*
X2590Y607D02*
X2597Y607D01*
X0Y606D02*
X7Y606D01*
X2590Y606D02*
X2597Y606D01*
X0Y605D02*
X7Y605D01*
X2590Y605D02*
X2597Y605D01*
X0Y604D02*
X7Y604D01*
X2590Y604D02*
X2597Y604D01*
X0Y603D02*
X7Y603D01*
X2590Y603D02*
X2597Y603D01*
X0Y602D02*
X7Y602D01*
X2590Y602D02*
X2597Y602D01*
X0Y601D02*
X7Y601D01*
X2590Y601D02*
X2597Y601D01*
X0Y600D02*
X7Y600D01*
X2590Y600D02*
X2597Y600D01*
X0Y599D02*
X7Y599D01*
X2590Y599D02*
X2597Y599D01*
X0Y598D02*
X7Y598D01*
X2590Y598D02*
X2597Y598D01*
X0Y597D02*
X7Y597D01*
X2590Y597D02*
X2597Y597D01*
X0Y596D02*
X7Y596D01*
X2590Y596D02*
X2597Y596D01*
X0Y595D02*
X7Y595D01*
X2590Y595D02*
X2597Y595D01*
X0Y594D02*
X7Y594D01*
X2590Y594D02*
X2597Y594D01*
X0Y593D02*
X7Y593D01*
X2590Y593D02*
X2597Y593D01*
X0Y592D02*
X7Y592D01*
X2590Y592D02*
X2597Y592D01*
X0Y591D02*
X7Y591D01*
X2590Y591D02*
X2597Y591D01*
X0Y590D02*
X7Y590D01*
X2590Y590D02*
X2597Y590D01*
X0Y589D02*
X7Y589D01*
X2590Y589D02*
X2597Y589D01*
X0Y588D02*
X7Y588D01*
X2590Y588D02*
X2597Y588D01*
X0Y587D02*
X7Y587D01*
X2590Y587D02*
X2597Y587D01*
X0Y586D02*
X7Y586D01*
X2590Y586D02*
X2597Y586D01*
X0Y585D02*
X7Y585D01*
X2590Y585D02*
X2597Y585D01*
X0Y584D02*
X7Y584D01*
X2590Y584D02*
X2597Y584D01*
X0Y583D02*
X7Y583D01*
X2590Y583D02*
X2597Y583D01*
X0Y582D02*
X7Y582D01*
X2590Y582D02*
X2597Y582D01*
X0Y581D02*
X7Y581D01*
X2590Y581D02*
X2597Y581D01*
X0Y580D02*
X7Y580D01*
X2590Y580D02*
X2597Y580D01*
X0Y579D02*
X7Y579D01*
X2590Y579D02*
X2597Y579D01*
X0Y578D02*
X7Y578D01*
X2590Y578D02*
X2597Y578D01*
X0Y577D02*
X7Y577D01*
X2590Y577D02*
X2597Y577D01*
X0Y576D02*
X7Y576D01*
X2590Y576D02*
X2597Y576D01*
X0Y575D02*
X7Y575D01*
X2590Y575D02*
X2597Y575D01*
X0Y574D02*
X7Y574D01*
X2590Y574D02*
X2597Y574D01*
X0Y573D02*
X7Y573D01*
X2590Y573D02*
X2597Y573D01*
X0Y572D02*
X7Y572D01*
X2590Y572D02*
X2597Y572D01*
X0Y571D02*
X7Y571D01*
X2590Y571D02*
X2597Y571D01*
X0Y570D02*
X7Y570D01*
X2590Y570D02*
X2597Y570D01*
X0Y569D02*
X7Y569D01*
X2590Y569D02*
X2597Y569D01*
X0Y568D02*
X7Y568D01*
X2590Y568D02*
X2597Y568D01*
X0Y567D02*
X7Y567D01*
X2590Y567D02*
X2597Y567D01*
X0Y566D02*
X7Y566D01*
X2590Y566D02*
X2597Y566D01*
X0Y565D02*
X7Y565D01*
X2590Y565D02*
X2597Y565D01*
X0Y564D02*
X7Y564D01*
X2590Y564D02*
X2597Y564D01*
X0Y563D02*
X7Y563D01*
X2590Y563D02*
X2597Y563D01*
X0Y562D02*
X7Y562D01*
X2590Y562D02*
X2597Y562D01*
X0Y561D02*
X7Y561D01*
X2590Y561D02*
X2597Y561D01*
X0Y560D02*
X7Y560D01*
X2590Y560D02*
X2597Y560D01*
X0Y559D02*
X7Y559D01*
X2590Y559D02*
X2597Y559D01*
X0Y558D02*
X7Y558D01*
X2590Y558D02*
X2597Y558D01*
X0Y557D02*
X7Y557D01*
X2590Y557D02*
X2597Y557D01*
X0Y556D02*
X7Y556D01*
X2590Y556D02*
X2597Y556D01*
X0Y555D02*
X7Y555D01*
X2590Y555D02*
X2597Y555D01*
X0Y554D02*
X7Y554D01*
X2590Y554D02*
X2597Y554D01*
X0Y553D02*
X7Y553D01*
X2590Y553D02*
X2597Y553D01*
X0Y552D02*
X7Y552D01*
X2590Y552D02*
X2597Y552D01*
X0Y551D02*
X7Y551D01*
X2590Y551D02*
X2597Y551D01*
X0Y550D02*
X7Y550D01*
X2590Y550D02*
X2597Y550D01*
X0Y549D02*
X7Y549D01*
X2590Y549D02*
X2597Y549D01*
X0Y548D02*
X7Y548D01*
X2590Y548D02*
X2597Y548D01*
X0Y547D02*
X7Y547D01*
X2590Y547D02*
X2597Y547D01*
X0Y546D02*
X7Y546D01*
X2590Y546D02*
X2597Y546D01*
X0Y545D02*
X7Y545D01*
X2590Y545D02*
X2597Y545D01*
X0Y544D02*
X7Y544D01*
X2590Y544D02*
X2597Y544D01*
X0Y543D02*
X7Y543D01*
X2590Y543D02*
X2597Y543D01*
X0Y542D02*
X7Y542D01*
X2590Y542D02*
X2597Y542D01*
X0Y541D02*
X7Y541D01*
X2590Y541D02*
X2597Y541D01*
X0Y540D02*
X7Y540D01*
X2590Y540D02*
X2597Y540D01*
X0Y539D02*
X7Y539D01*
X2590Y539D02*
X2597Y539D01*
X0Y538D02*
X7Y538D01*
X2590Y538D02*
X2597Y538D01*
X0Y537D02*
X7Y537D01*
X2590Y537D02*
X2597Y537D01*
X0Y536D02*
X7Y536D01*
X2590Y536D02*
X2597Y536D01*
X0Y535D02*
X7Y535D01*
X2590Y535D02*
X2597Y535D01*
X0Y534D02*
X7Y534D01*
X2590Y534D02*
X2597Y534D01*
X0Y533D02*
X7Y533D01*
X2590Y533D02*
X2597Y533D01*
X0Y532D02*
X7Y532D01*
X2590Y532D02*
X2597Y532D01*
X0Y531D02*
X7Y531D01*
X2590Y531D02*
X2597Y531D01*
X0Y530D02*
X7Y530D01*
X2590Y530D02*
X2597Y530D01*
X0Y529D02*
X7Y529D01*
X2590Y529D02*
X2597Y529D01*
X0Y528D02*
X7Y528D01*
X2590Y528D02*
X2597Y528D01*
X0Y527D02*
X7Y527D01*
X2590Y527D02*
X2597Y527D01*
X0Y526D02*
X7Y526D01*
X2590Y526D02*
X2597Y526D01*
X0Y525D02*
X7Y525D01*
X2590Y525D02*
X2597Y525D01*
X0Y524D02*
X7Y524D01*
X2590Y524D02*
X2597Y524D01*
X0Y523D02*
X7Y523D01*
X2590Y523D02*
X2597Y523D01*
X0Y522D02*
X7Y522D01*
X2590Y522D02*
X2597Y522D01*
X0Y521D02*
X7Y521D01*
X2590Y521D02*
X2597Y521D01*
X0Y520D02*
X7Y520D01*
X2590Y520D02*
X2597Y520D01*
X0Y519D02*
X7Y519D01*
X2590Y519D02*
X2597Y519D01*
X0Y518D02*
X7Y518D01*
X2590Y518D02*
X2597Y518D01*
X0Y517D02*
X7Y517D01*
X2590Y517D02*
X2597Y517D01*
X0Y516D02*
X7Y516D01*
X2590Y516D02*
X2597Y516D01*
X0Y515D02*
X7Y515D01*
X2590Y515D02*
X2597Y515D01*
X0Y514D02*
X7Y514D01*
X2590Y514D02*
X2597Y514D01*
X0Y513D02*
X7Y513D01*
X2590Y513D02*
X2597Y513D01*
X0Y512D02*
X7Y512D01*
X2590Y512D02*
X2597Y512D01*
X0Y511D02*
X7Y511D01*
X2590Y511D02*
X2597Y511D01*
X0Y510D02*
X7Y510D01*
X2590Y510D02*
X2597Y510D01*
X0Y509D02*
X7Y509D01*
X2590Y509D02*
X2597Y509D01*
X0Y508D02*
X7Y508D01*
X2590Y508D02*
X2597Y508D01*
X0Y507D02*
X7Y507D01*
X2590Y507D02*
X2597Y507D01*
X0Y506D02*
X7Y506D01*
X2590Y506D02*
X2597Y506D01*
X0Y505D02*
X7Y505D01*
X2590Y505D02*
X2597Y505D01*
X0Y504D02*
X7Y504D01*
X2590Y504D02*
X2597Y504D01*
X0Y503D02*
X7Y503D01*
X2590Y503D02*
X2597Y503D01*
X0Y502D02*
X7Y502D01*
X2590Y502D02*
X2597Y502D01*
X0Y501D02*
X7Y501D01*
X2590Y501D02*
X2597Y501D01*
X0Y500D02*
X7Y500D01*
X2590Y500D02*
X2597Y500D01*
X0Y499D02*
X7Y499D01*
X2590Y499D02*
X2597Y499D01*
X0Y498D02*
X7Y498D01*
X2590Y498D02*
X2597Y498D01*
X0Y497D02*
X7Y497D01*
X2590Y497D02*
X2597Y497D01*
X0Y496D02*
X7Y496D01*
X2590Y496D02*
X2597Y496D01*
X0Y495D02*
X7Y495D01*
X2590Y495D02*
X2597Y495D01*
X0Y494D02*
X7Y494D01*
X2590Y494D02*
X2597Y494D01*
X0Y493D02*
X7Y493D01*
X2590Y493D02*
X2597Y493D01*
X0Y492D02*
X7Y492D01*
X2590Y492D02*
X2597Y492D01*
X0Y491D02*
X7Y491D01*
X2590Y491D02*
X2597Y491D01*
X0Y490D02*
X7Y490D01*
X2590Y490D02*
X2597Y490D01*
X0Y489D02*
X7Y489D01*
X2590Y489D02*
X2597Y489D01*
X0Y488D02*
X7Y488D01*
X2590Y488D02*
X2597Y488D01*
X0Y487D02*
X7Y487D01*
X2590Y487D02*
X2597Y487D01*
X0Y486D02*
X7Y486D01*
X2590Y486D02*
X2597Y486D01*
X0Y485D02*
X7Y485D01*
X2590Y485D02*
X2597Y485D01*
X0Y484D02*
X7Y484D01*
X2590Y484D02*
X2597Y484D01*
X0Y483D02*
X7Y483D01*
X2590Y483D02*
X2597Y483D01*
X0Y482D02*
X7Y482D01*
X2590Y482D02*
X2597Y482D01*
X0Y481D02*
X7Y481D01*
X2590Y481D02*
X2597Y481D01*
X0Y480D02*
X7Y480D01*
X2590Y480D02*
X2597Y480D01*
X0Y479D02*
X7Y479D01*
X2590Y479D02*
X2597Y479D01*
X0Y478D02*
X7Y478D01*
X2590Y478D02*
X2597Y478D01*
X0Y477D02*
X7Y477D01*
X2590Y477D02*
X2597Y477D01*
X0Y476D02*
X7Y476D01*
X2590Y476D02*
X2597Y476D01*
X0Y475D02*
X7Y475D01*
X2590Y475D02*
X2597Y475D01*
X0Y474D02*
X7Y474D01*
X2590Y474D02*
X2597Y474D01*
X0Y473D02*
X7Y473D01*
X2590Y473D02*
X2597Y473D01*
X0Y472D02*
X7Y472D01*
X2590Y472D02*
X2597Y472D01*
X0Y471D02*
X7Y471D01*
X2590Y471D02*
X2597Y471D01*
X0Y470D02*
X7Y470D01*
X2590Y470D02*
X2597Y470D01*
X0Y469D02*
X7Y469D01*
X2590Y469D02*
X2597Y469D01*
X0Y468D02*
X7Y468D01*
X2590Y468D02*
X2597Y468D01*
X0Y467D02*
X7Y467D01*
X2590Y467D02*
X2597Y467D01*
X0Y466D02*
X7Y466D01*
X2590Y466D02*
X2597Y466D01*
X0Y465D02*
X7Y465D01*
X2590Y465D02*
X2597Y465D01*
X0Y464D02*
X7Y464D01*
X2590Y464D02*
X2597Y464D01*
X0Y463D02*
X7Y463D01*
X2590Y463D02*
X2597Y463D01*
X0Y462D02*
X7Y462D01*
X2590Y462D02*
X2597Y462D01*
X0Y461D02*
X7Y461D01*
X2590Y461D02*
X2597Y461D01*
X0Y460D02*
X7Y460D01*
X2590Y460D02*
X2597Y460D01*
X0Y459D02*
X7Y459D01*
X2590Y459D02*
X2597Y459D01*
X0Y458D02*
X7Y458D01*
X2590Y458D02*
X2597Y458D01*
X0Y457D02*
X7Y457D01*
X2590Y457D02*
X2597Y457D01*
X0Y456D02*
X7Y456D01*
X2590Y456D02*
X2597Y456D01*
X0Y455D02*
X7Y455D01*
X2590Y455D02*
X2597Y455D01*
X0Y454D02*
X7Y454D01*
X2590Y454D02*
X2597Y454D01*
X0Y453D02*
X7Y453D01*
X2590Y453D02*
X2597Y453D01*
X0Y452D02*
X7Y452D01*
X2590Y452D02*
X2597Y452D01*
X0Y451D02*
X7Y451D01*
X2590Y451D02*
X2597Y451D01*
X0Y450D02*
X7Y450D01*
X2590Y450D02*
X2597Y450D01*
X0Y449D02*
X7Y449D01*
X2590Y449D02*
X2597Y449D01*
X0Y448D02*
X7Y448D01*
X2590Y448D02*
X2597Y448D01*
X0Y447D02*
X7Y447D01*
X2590Y447D02*
X2597Y447D01*
X0Y446D02*
X7Y446D01*
X2590Y446D02*
X2597Y446D01*
X0Y445D02*
X7Y445D01*
X2590Y445D02*
X2597Y445D01*
X0Y444D02*
X7Y444D01*
X2590Y444D02*
X2597Y444D01*
X0Y443D02*
X7Y443D01*
X2590Y443D02*
X2597Y443D01*
X0Y442D02*
X7Y442D01*
X2590Y442D02*
X2597Y442D01*
X0Y441D02*
X7Y441D01*
X2590Y441D02*
X2597Y441D01*
X0Y440D02*
X7Y440D01*
X2590Y440D02*
X2597Y440D01*
X0Y439D02*
X7Y439D01*
X2590Y439D02*
X2597Y439D01*
X0Y438D02*
X7Y438D01*
X2590Y438D02*
X2597Y438D01*
X0Y437D02*
X7Y437D01*
X2590Y437D02*
X2597Y437D01*
X0Y436D02*
X7Y436D01*
X2590Y436D02*
X2597Y436D01*
X0Y435D02*
X7Y435D01*
X2590Y435D02*
X2597Y435D01*
X0Y434D02*
X7Y434D01*
X2590Y434D02*
X2597Y434D01*
X0Y433D02*
X7Y433D01*
X2590Y433D02*
X2597Y433D01*
X0Y432D02*
X7Y432D01*
X2590Y432D02*
X2597Y432D01*
X0Y431D02*
X7Y431D01*
X2590Y431D02*
X2597Y431D01*
X0Y430D02*
X7Y430D01*
X2590Y430D02*
X2597Y430D01*
X0Y429D02*
X7Y429D01*
X2590Y429D02*
X2597Y429D01*
X0Y428D02*
X7Y428D01*
X2590Y428D02*
X2597Y428D01*
X0Y427D02*
X7Y427D01*
X2590Y427D02*
X2597Y427D01*
X0Y426D02*
X7Y426D01*
X2590Y426D02*
X2597Y426D01*
X0Y425D02*
X7Y425D01*
X2590Y425D02*
X2597Y425D01*
X0Y424D02*
X7Y424D01*
X2590Y424D02*
X2597Y424D01*
X0Y423D02*
X7Y423D01*
X2590Y423D02*
X2597Y423D01*
X0Y422D02*
X7Y422D01*
X2590Y422D02*
X2597Y422D01*
X0Y421D02*
X7Y421D01*
X2590Y421D02*
X2597Y421D01*
X0Y420D02*
X7Y420D01*
X2590Y420D02*
X2597Y420D01*
X0Y419D02*
X7Y419D01*
X2590Y419D02*
X2597Y419D01*
X0Y418D02*
X7Y418D01*
X2590Y418D02*
X2597Y418D01*
X0Y417D02*
X7Y417D01*
X2590Y417D02*
X2597Y417D01*
X0Y416D02*
X7Y416D01*
X2590Y416D02*
X2597Y416D01*
X0Y415D02*
X7Y415D01*
X2590Y415D02*
X2597Y415D01*
X0Y414D02*
X7Y414D01*
X2590Y414D02*
X2597Y414D01*
X0Y413D02*
X7Y413D01*
X2590Y413D02*
X2597Y413D01*
X0Y412D02*
X7Y412D01*
X2590Y412D02*
X2597Y412D01*
X0Y411D02*
X7Y411D01*
X2590Y411D02*
X2597Y411D01*
X0Y410D02*
X7Y410D01*
X2590Y410D02*
X2597Y410D01*
X0Y409D02*
X7Y409D01*
X2590Y409D02*
X2597Y409D01*
X0Y408D02*
X7Y408D01*
X2590Y408D02*
X2597Y408D01*
X0Y407D02*
X7Y407D01*
X2590Y407D02*
X2597Y407D01*
X0Y406D02*
X7Y406D01*
X2590Y406D02*
X2597Y406D01*
X0Y405D02*
X7Y405D01*
X2590Y405D02*
X2597Y405D01*
X0Y404D02*
X7Y404D01*
X2590Y404D02*
X2597Y404D01*
X0Y403D02*
X7Y403D01*
X2590Y403D02*
X2597Y403D01*
X0Y402D02*
X7Y402D01*
X2590Y402D02*
X2597Y402D01*
X0Y401D02*
X7Y401D01*
X2590Y401D02*
X2597Y401D01*
X0Y400D02*
X7Y400D01*
X2590Y400D02*
X2597Y400D01*
X0Y399D02*
X7Y399D01*
X2590Y399D02*
X2597Y399D01*
X0Y398D02*
X7Y398D01*
X2590Y398D02*
X2597Y398D01*
X0Y397D02*
X7Y397D01*
X2590Y397D02*
X2597Y397D01*
X0Y396D02*
X7Y396D01*
X2590Y396D02*
X2597Y396D01*
X0Y395D02*
X7Y395D01*
X2590Y395D02*
X2597Y395D01*
X0Y394D02*
X7Y394D01*
X2590Y394D02*
X2597Y394D01*
X0Y393D02*
X7Y393D01*
X2590Y393D02*
X2597Y393D01*
X0Y392D02*
X7Y392D01*
X2590Y392D02*
X2597Y392D01*
X0Y391D02*
X7Y391D01*
X2590Y391D02*
X2597Y391D01*
X0Y390D02*
X7Y390D01*
X2590Y390D02*
X2597Y390D01*
X0Y389D02*
X7Y389D01*
X2590Y389D02*
X2597Y389D01*
X0Y388D02*
X7Y388D01*
X2590Y388D02*
X2597Y388D01*
X0Y387D02*
X7Y387D01*
X2590Y387D02*
X2597Y387D01*
X0Y386D02*
X7Y386D01*
X2590Y386D02*
X2597Y386D01*
X0Y385D02*
X7Y385D01*
X2590Y385D02*
X2597Y385D01*
X0Y384D02*
X7Y384D01*
X2590Y384D02*
X2597Y384D01*
X0Y383D02*
X7Y383D01*
X2590Y383D02*
X2597Y383D01*
X0Y382D02*
X7Y382D01*
X2590Y382D02*
X2597Y382D01*
X0Y381D02*
X7Y381D01*
X2590Y381D02*
X2597Y381D01*
X0Y380D02*
X7Y380D01*
X2590Y380D02*
X2597Y380D01*
X0Y379D02*
X7Y379D01*
X2590Y379D02*
X2597Y379D01*
X0Y378D02*
X7Y378D01*
X2590Y378D02*
X2597Y378D01*
X0Y377D02*
X7Y377D01*
X2590Y377D02*
X2597Y377D01*
X0Y376D02*
X7Y376D01*
X2590Y376D02*
X2597Y376D01*
X0Y375D02*
X7Y375D01*
X2590Y375D02*
X2597Y375D01*
X0Y374D02*
X7Y374D01*
X2590Y374D02*
X2597Y374D01*
X0Y373D02*
X7Y373D01*
X2590Y373D02*
X2597Y373D01*
X0Y372D02*
X7Y372D01*
X2590Y372D02*
X2597Y372D01*
X0Y371D02*
X7Y371D01*
X2590Y371D02*
X2597Y371D01*
X0Y370D02*
X7Y370D01*
X2590Y370D02*
X2597Y370D01*
X0Y369D02*
X7Y369D01*
X2589Y369D02*
X2597Y369D01*
X1Y368D02*
X8Y368D01*
X2589Y368D02*
X2596Y368D01*
X1Y367D02*
X8Y367D01*
X2589Y367D02*
X2596Y367D01*
X1Y366D02*
X8Y366D01*
X2589Y366D02*
X2596Y366D01*
X1Y365D02*
X8Y365D01*
X2589Y365D02*
X2596Y365D01*
X1Y364D02*
X8Y364D01*
X2589Y364D02*
X2596Y364D01*
X1Y363D02*
X8Y363D01*
X2589Y363D02*
X2596Y363D01*
X1Y362D02*
X8Y362D01*
X2589Y362D02*
X2596Y362D01*
X1Y361D02*
X8Y361D01*
X2589Y361D02*
X2596Y361D01*
X1Y360D02*
X8Y360D01*
X2589Y360D02*
X2596Y360D01*
X1Y359D02*
X8Y359D01*
X2589Y359D02*
X2596Y359D01*
X1Y358D02*
X8Y358D01*
X2589Y358D02*
X2596Y358D01*
X1Y357D02*
X8Y357D01*
X2589Y357D02*
X2596Y357D01*
X1Y356D02*
X8Y356D01*
X2589Y356D02*
X2596Y356D01*
X1Y355D02*
X8Y355D01*
X2589Y355D02*
X2596Y355D01*
X2Y354D02*
X9Y354D01*
X2588Y354D02*
X2595Y354D01*
X2Y353D02*
X9Y353D01*
X2588Y353D02*
X2595Y353D01*
X2Y352D02*
X9Y352D01*
X2588Y352D02*
X2595Y352D01*
X2Y351D02*
X9Y351D01*
X2588Y351D02*
X2595Y351D01*
X2Y350D02*
X9Y350D01*
X2588Y350D02*
X2595Y350D01*
X2Y349D02*
X9Y349D01*
X2588Y349D02*
X2595Y349D01*
X2Y348D02*
X9Y348D01*
X2588Y348D02*
X2595Y348D01*
X2Y347D02*
X9Y347D01*
X2588Y347D02*
X2595Y347D01*
X2Y346D02*
X9Y346D01*
X2588Y346D02*
X2595Y346D01*
X2Y345D02*
X10Y345D01*
X2587Y345D02*
X2595Y345D01*
X3Y344D02*
X10Y344D01*
X2587Y344D02*
X2594Y344D01*
X3Y343D02*
X10Y343D01*
X2587Y343D02*
X2594Y343D01*
X3Y342D02*
X10Y342D01*
X2587Y342D02*
X2594Y342D01*
X3Y341D02*
X10Y341D01*
X2587Y341D02*
X2594Y341D01*
X3Y340D02*
X10Y340D01*
X2587Y340D02*
X2594Y340D01*
X3Y339D02*
X10Y339D01*
X2587Y339D02*
X2594Y339D01*
X3Y338D02*
X10Y338D01*
X2587Y338D02*
X2594Y338D01*
X3Y337D02*
X11Y337D01*
X2586Y337D02*
X2594Y337D01*
X4Y336D02*
X11Y336D01*
X2586Y336D02*
X2593Y336D01*
X4Y335D02*
X11Y335D01*
X2586Y335D02*
X2593Y335D01*
X4Y334D02*
X11Y334D01*
X2586Y334D02*
X2593Y334D01*
X4Y333D02*
X11Y333D01*
X2586Y333D02*
X2593Y333D01*
X4Y332D02*
X11Y332D01*
X2586Y332D02*
X2593Y332D01*
X4Y331D02*
X11Y331D01*
X2586Y331D02*
X2593Y331D01*
X4Y330D02*
X12Y330D01*
X2585Y330D02*
X2593Y330D01*
X5Y329D02*
X12Y329D01*
X2585Y329D02*
X2592Y329D01*
X5Y328D02*
X12Y328D01*
X2585Y328D02*
X2592Y328D01*
X5Y327D02*
X12Y327D01*
X2585Y327D02*
X2592Y327D01*
X5Y326D02*
X12Y326D01*
X2585Y326D02*
X2592Y326D01*
X5Y325D02*
X12Y325D01*
X2585Y325D02*
X2592Y325D01*
X5Y324D02*
X13Y324D01*
X2584Y324D02*
X2592Y324D01*
X6Y323D02*
X13Y323D01*
X2584Y323D02*
X2591Y323D01*
X6Y322D02*
X13Y322D01*
X2584Y322D02*
X2591Y322D01*
X6Y321D02*
X13Y321D01*
X2584Y321D02*
X2591Y321D01*
X6Y320D02*
X13Y320D01*
X2584Y320D02*
X2591Y320D01*
X6Y319D02*
X13Y319D01*
X2584Y319D02*
X2591Y319D01*
X7Y318D02*
X14Y318D01*
X2583Y318D02*
X2590Y318D01*
X7Y317D02*
X14Y317D01*
X2583Y317D02*
X2590Y317D01*
X7Y316D02*
X14Y316D01*
X2583Y316D02*
X2590Y316D01*
X7Y315D02*
X14Y315D01*
X2583Y315D02*
X2590Y315D01*
X7Y314D02*
X14Y314D01*
X2583Y314D02*
X2590Y314D01*
X8Y313D02*
X15Y313D01*
X2582Y313D02*
X2589Y313D01*
X8Y312D02*
X15Y312D01*
X2582Y312D02*
X2589Y312D01*
X8Y311D02*
X15Y311D01*
X2582Y311D02*
X2589Y311D01*
X8Y310D02*
X15Y310D01*
X2582Y310D02*
X2589Y310D01*
X8Y309D02*
X15Y309D01*
X2582Y309D02*
X2589Y309D01*
X9Y308D02*
X16Y308D01*
X2581Y308D02*
X2588Y308D01*
X9Y307D02*
X16Y307D01*
X2581Y307D02*
X2588Y307D01*
X9Y306D02*
X16Y306D01*
X2581Y306D02*
X2588Y306D01*
X9Y305D02*
X16Y305D01*
X2581Y305D02*
X2588Y305D01*
X9Y304D02*
X17Y304D01*
X2580Y304D02*
X2588Y304D01*
X10Y303D02*
X17Y303D01*
X2580Y303D02*
X2587Y303D01*
X10Y302D02*
X17Y302D01*
X2580Y302D02*
X2587Y302D01*
X10Y301D02*
X17Y301D01*
X2580Y301D02*
X2587Y301D01*
X10Y300D02*
X17Y300D01*
X2580Y300D02*
X2587Y300D01*
X11Y299D02*
X18Y299D01*
X2579Y299D02*
X2586Y299D01*
X11Y298D02*
X18Y298D01*
X2579Y298D02*
X2586Y298D01*
X11Y297D02*
X18Y297D01*
X2579Y297D02*
X2586Y297D01*
X11Y296D02*
X18Y296D01*
X2579Y296D02*
X2586Y296D01*
X12Y295D02*
X19Y295D01*
X2578Y295D02*
X2585Y295D01*
X12Y294D02*
X19Y294D01*
X2578Y294D02*
X2585Y294D01*
X12Y293D02*
X19Y293D01*
X2578Y293D02*
X2585Y293D01*
X12Y292D02*
X20Y292D01*
X2577Y292D02*
X2585Y292D01*
X13Y291D02*
X20Y291D01*
X2577Y291D02*
X2584Y291D01*
X13Y290D02*
X20Y290D01*
X2577Y290D02*
X2584Y290D01*
X13Y289D02*
X20Y289D01*
X2577Y289D02*
X2584Y289D01*
X13Y288D02*
X21Y288D01*
X2576Y288D02*
X2584Y288D01*
X14Y287D02*
X21Y287D01*
X2576Y287D02*
X2583Y287D01*
X14Y286D02*
X21Y286D01*
X2576Y286D02*
X2583Y286D01*
X14Y285D02*
X21Y285D01*
X2576Y285D02*
X2583Y285D01*
X15Y284D02*
X22Y284D01*
X2575Y284D02*
X2582Y284D01*
X15Y283D02*
X22Y283D01*
X2575Y283D02*
X2582Y283D01*
X15Y282D02*
X22Y282D01*
X2575Y282D02*
X2582Y282D01*
X15Y281D02*
X23Y281D01*
X2574Y281D02*
X2582Y281D01*
X16Y280D02*
X23Y280D01*
X2574Y280D02*
X2581Y280D01*
X16Y279D02*
X23Y279D01*
X2574Y279D02*
X2581Y279D01*
X16Y278D02*
X24Y278D01*
X2573Y278D02*
X2581Y278D01*
X17Y277D02*
X24Y277D01*
X2573Y277D02*
X2580Y277D01*
X17Y276D02*
X24Y276D01*
X2573Y276D02*
X2580Y276D01*
X17Y275D02*
X24Y275D01*
X2573Y275D02*
X2580Y275D01*
X18Y274D02*
X25Y274D01*
X2572Y274D02*
X2579Y274D01*
X18Y273D02*
X25Y273D01*
X2572Y273D02*
X2579Y273D01*
X18Y272D02*
X25Y272D01*
X2572Y272D02*
X2579Y272D01*
X19Y271D02*
X26Y271D01*
X2571Y271D02*
X2578Y271D01*
X19Y270D02*
X26Y270D01*
X2571Y270D02*
X2578Y270D01*
X19Y269D02*
X27Y269D01*
X2570Y269D02*
X2578Y269D01*
X20Y268D02*
X27Y268D01*
X2570Y268D02*
X2577Y268D01*
X20Y267D02*
X27Y267D01*
X2570Y267D02*
X2577Y267D01*
X20Y266D02*
X28Y266D01*
X2569Y266D02*
X2577Y266D01*
X21Y265D02*
X28Y265D01*
X2569Y265D02*
X2576Y265D01*
X21Y264D02*
X28Y264D01*
X2569Y264D02*
X2576Y264D01*
X21Y263D02*
X29Y263D01*
X2568Y263D02*
X2576Y263D01*
X22Y262D02*
X29Y262D01*
X2568Y262D02*
X2575Y262D01*
X22Y261D02*
X29Y261D01*
X2568Y261D02*
X2575Y261D01*
X22Y260D02*
X30Y260D01*
X2567Y260D02*
X2575Y260D01*
X23Y259D02*
X30Y259D01*
X2567Y259D02*
X2574Y259D01*
X23Y258D02*
X30Y258D01*
X2567Y258D02*
X2574Y258D01*
X23Y257D02*
X31Y257D01*
X2566Y257D02*
X2574Y257D01*
X24Y256D02*
X31Y256D01*
X2566Y256D02*
X2573Y256D01*
X24Y255D02*
X31Y255D01*
X2566Y255D02*
X2573Y255D01*
X24Y254D02*
X32Y254D01*
X2565Y254D02*
X2573Y254D01*
X25Y253D02*
X32Y253D01*
X2565Y253D02*
X2572Y253D01*
X25Y252D02*
X33Y252D01*
X2564Y252D02*
X2572Y252D01*
X26Y251D02*
X33Y251D01*
X2564Y251D02*
X2571Y251D01*
X26Y250D02*
X33Y250D01*
X2564Y250D02*
X2571Y250D01*
X26Y249D02*
X34Y249D01*
X2563Y249D02*
X2571Y249D01*
X27Y248D02*
X34Y248D01*
X2563Y248D02*
X2570Y248D01*
X27Y247D02*
X35Y247D01*
X2562Y247D02*
X2570Y247D01*
X28Y246D02*
X35Y246D01*
X2562Y246D02*
X2569Y246D01*
X28Y245D02*
X35Y245D01*
X2562Y245D02*
X2569Y245D01*
X28Y244D02*
X36Y244D01*
X2561Y244D02*
X2569Y244D01*
X29Y243D02*
X36Y243D01*
X2561Y243D02*
X2568Y243D01*
X29Y242D02*
X37Y242D01*
X2560Y242D02*
X2568Y242D01*
X30Y241D02*
X37Y241D01*
X2560Y241D02*
X2567Y241D01*
X30Y240D02*
X38Y240D01*
X2559Y240D02*
X2567Y240D01*
X30Y239D02*
X38Y239D01*
X2559Y239D02*
X2567Y239D01*
X31Y238D02*
X38Y238D01*
X2559Y238D02*
X2566Y238D01*
X31Y237D02*
X39Y237D01*
X2558Y237D02*
X2566Y237D01*
X32Y236D02*
X39Y236D01*
X2558Y236D02*
X2565Y236D01*
X32Y235D02*
X40Y235D01*
X2557Y235D02*
X2565Y235D01*
X33Y234D02*
X40Y234D01*
X2557Y234D02*
X2564Y234D01*
X33Y233D02*
X41Y233D01*
X2556Y233D02*
X2564Y233D01*
X34Y232D02*
X41Y232D01*
X2556Y232D02*
X2563Y232D01*
X34Y231D02*
X42Y231D01*
X2555Y231D02*
X2563Y231D01*
X34Y230D02*
X42Y230D01*
X2555Y230D02*
X2563Y230D01*
X35Y229D02*
X43Y229D01*
X2554Y229D02*
X2562Y229D01*
X35Y228D02*
X43Y228D01*
X2554Y228D02*
X2562Y228D01*
X36Y227D02*
X44Y227D01*
X2553Y227D02*
X2561Y227D01*
X36Y226D02*
X44Y226D01*
X2553Y226D02*
X2561Y226D01*
X37Y225D02*
X44Y225D01*
X2553Y225D02*
X2560Y225D01*
X37Y224D02*
X45Y224D01*
X2552Y224D02*
X2560Y224D01*
X38Y223D02*
X45Y223D01*
X2552Y223D02*
X2559Y223D01*
X38Y222D02*
X46Y222D01*
X2551Y222D02*
X2559Y222D01*
X39Y221D02*
X46Y221D01*
X2551Y221D02*
X2558Y221D01*
X39Y220D02*
X47Y220D01*
X2550Y220D02*
X2558Y220D01*
X40Y219D02*
X48Y219D01*
X2549Y219D02*
X2557Y219D01*
X40Y218D02*
X48Y218D01*
X2549Y218D02*
X2557Y218D01*
X41Y217D02*
X49Y217D01*
X2548Y217D02*
X2556Y217D01*
X41Y216D02*
X49Y216D01*
X2548Y216D02*
X2556Y216D01*
X42Y215D02*
X50Y215D01*
X2547Y215D02*
X2555Y215D01*
X42Y214D02*
X50Y214D01*
X2547Y214D02*
X2555Y214D01*
X43Y213D02*
X51Y213D01*
X2546Y213D02*
X2554Y213D01*
X43Y212D02*
X51Y212D01*
X2546Y212D02*
X2554Y212D01*
X44Y211D02*
X52Y211D01*
X2545Y211D02*
X2553Y211D01*
X44Y210D02*
X52Y210D01*
X2545Y210D02*
X2553Y210D01*
X45Y209D02*
X53Y209D01*
X2544Y209D02*
X2552Y209D01*
X45Y208D02*
X53Y208D01*
X2544Y208D02*
X2552Y208D01*
X46Y207D02*
X54Y207D01*
X2543Y207D02*
X2551Y207D01*
X46Y206D02*
X54Y206D01*
X2543Y206D02*
X2551Y206D01*
X47Y205D02*
X55Y205D01*
X2542Y205D02*
X2550Y205D01*
X47Y204D02*
X56Y204D01*
X2541Y204D02*
X2550Y204D01*
X48Y203D02*
X56Y203D01*
X2541Y203D02*
X2549Y203D01*
X49Y202D02*
X57Y202D01*
X2540Y202D02*
X2548Y202D01*
X49Y201D02*
X57Y201D01*
X2540Y201D02*
X2548Y201D01*
X50Y200D02*
X58Y200D01*
X2539Y200D02*
X2547Y200D01*
X50Y199D02*
X58Y199D01*
X2539Y199D02*
X2547Y199D01*
X51Y198D02*
X59Y198D01*
X2538Y198D02*
X2546Y198D01*
X51Y197D02*
X60Y197D01*
X2537Y197D02*
X2545Y197D01*
X52Y196D02*
X60Y196D01*
X2537Y196D02*
X2545Y196D01*
X53Y195D02*
X61Y195D01*
X2536Y195D02*
X2544Y195D01*
X53Y194D02*
X61Y194D01*
X2536Y194D02*
X2544Y194D01*
X54Y193D02*
X62Y193D01*
X2535Y193D02*
X2543Y193D01*
X54Y192D02*
X63Y192D01*
X2534Y192D02*
X2543Y192D01*
X55Y191D02*
X63Y191D01*
X2534Y191D02*
X2542Y191D01*
X56Y190D02*
X64Y190D01*
X2533Y190D02*
X2541Y190D01*
X56Y189D02*
X64Y189D01*
X2532Y189D02*
X2541Y189D01*
X57Y188D02*
X65Y188D01*
X2532Y188D02*
X2540Y188D01*
X57Y187D02*
X66Y187D01*
X2531Y187D02*
X2540Y187D01*
X58Y186D02*
X66Y186D01*
X2531Y186D02*
X2539Y186D01*
X59Y185D02*
X67Y185D01*
X2530Y185D02*
X2538Y185D01*
X59Y184D02*
X68Y184D01*
X2529Y184D02*
X2538Y184D01*
X60Y183D02*
X68Y183D01*
X2529Y183D02*
X2537Y183D01*
X61Y182D02*
X69Y182D01*
X2528Y182D02*
X2536Y182D01*
X61Y181D02*
X70Y181D01*
X2527Y181D02*
X2536Y181D01*
X62Y180D02*
X70Y180D01*
X2527Y180D02*
X2535Y180D01*
X63Y179D02*
X71Y179D01*
X2526Y179D02*
X2534Y179D01*
X63Y178D02*
X72Y178D01*
X2525Y178D02*
X2534Y178D01*
X64Y177D02*
X72Y177D01*
X2525Y177D02*
X2533Y177D01*
X65Y176D02*
X73Y176D01*
X2524Y176D02*
X2532Y176D01*
X65Y175D02*
X74Y175D01*
X2523Y175D02*
X2532Y175D01*
X66Y174D02*
X74Y174D01*
X2523Y174D02*
X2531Y174D01*
X66Y173D02*
X75Y173D01*
X2522Y173D02*
X2531Y173D01*
X67Y172D02*
X76Y172D01*
X2521Y172D02*
X2530Y172D01*
X68Y171D02*
X77Y171D01*
X2520Y171D02*
X2529Y171D01*
X69Y170D02*
X77Y170D01*
X2520Y170D02*
X2528Y170D01*
X69Y169D02*
X78Y169D01*
X2519Y169D02*
X2528Y169D01*
X70Y168D02*
X79Y168D01*
X2518Y168D02*
X2527Y168D01*
X71Y167D02*
X80Y167D01*
X2517Y167D02*
X2526Y167D01*
X71Y166D02*
X80Y166D01*
X2517Y166D02*
X2526Y166D01*
X72Y165D02*
X81Y165D01*
X2516Y165D02*
X2525Y165D01*
X73Y164D02*
X82Y164D01*
X2515Y164D02*
X2524Y164D01*
X74Y163D02*
X82Y163D01*
X2515Y163D02*
X2523Y163D01*
X74Y162D02*
X83Y162D01*
X2514Y162D02*
X2523Y162D01*
X75Y161D02*
X84Y161D01*
X2513Y161D02*
X2522Y161D01*
X76Y160D02*
X85Y160D01*
X2512Y160D02*
X2521Y160D01*
X76Y159D02*
X86Y159D01*
X2511Y159D02*
X2521Y159D01*
X77Y158D02*
X86Y158D01*
X2511Y158D02*
X2520Y158D01*
X78Y157D02*
X87Y157D01*
X2510Y157D02*
X2519Y157D01*
X79Y156D02*
X88Y156D01*
X2509Y156D02*
X2518Y156D01*
X80Y155D02*
X89Y155D01*
X2508Y155D02*
X2517Y155D01*
X80Y154D02*
X89Y154D01*
X2508Y154D02*
X2517Y154D01*
X81Y153D02*
X90Y153D01*
X2507Y153D02*
X2516Y153D01*
X82Y152D02*
X91Y152D01*
X2506Y152D02*
X2515Y152D01*
X83Y151D02*
X92Y151D01*
X2505Y151D02*
X2514Y151D01*
X83Y150D02*
X93Y150D01*
X2504Y150D02*
X2513Y150D01*
X84Y149D02*
X93Y149D01*
X2504Y149D02*
X2513Y149D01*
X85Y148D02*
X94Y148D01*
X2503Y148D02*
X2512Y148D01*
X86Y147D02*
X95Y147D01*
X2502Y147D02*
X2511Y147D01*
X87Y146D02*
X96Y146D01*
X2501Y146D02*
X2510Y146D01*
X87Y145D02*
X97Y145D01*
X2500Y145D02*
X2510Y145D01*
X88Y144D02*
X98Y144D01*
X2499Y144D02*
X2509Y144D01*
X89Y143D02*
X99Y143D01*
X2498Y143D02*
X2508Y143D01*
X90Y142D02*
X100Y142D01*
X2497Y142D02*
X2507Y142D01*
X91Y141D02*
X100Y141D01*
X2497Y141D02*
X2506Y141D01*
X92Y140D02*
X101Y140D01*
X2496Y140D02*
X2505Y140D01*
X93Y139D02*
X102Y139D01*
X2495Y139D02*
X2504Y139D01*
X93Y138D02*
X103Y138D01*
X2494Y138D02*
X2504Y138D01*
X94Y137D02*
X104Y137D01*
X2493Y137D02*
X2503Y137D01*
X95Y136D02*
X105Y136D01*
X2492Y136D02*
X2502Y136D01*
X96Y135D02*
X106Y135D01*
X2491Y135D02*
X2501Y135D01*
X97Y134D02*
X107Y134D01*
X2490Y134D02*
X2500Y134D01*
X98Y133D02*
X107Y133D01*
X2490Y133D02*
X2499Y133D01*
X99Y132D02*
X108Y132D01*
X2489Y132D02*
X2498Y132D01*
X100Y131D02*
X109Y131D01*
X2488Y131D02*
X2497Y131D01*
X100Y130D02*
X110Y130D01*
X2487Y130D02*
X2497Y130D01*
X101Y129D02*
X111Y129D01*
X2486Y129D02*
X2496Y129D01*
X102Y128D02*
X112Y128D01*
X2485Y128D02*
X2495Y128D01*
X103Y127D02*
X113Y127D01*
X2484Y127D02*
X2494Y127D01*
X104Y126D02*
X114Y126D01*
X2483Y126D02*
X2493Y126D01*
X105Y125D02*
X115Y125D01*
X2482Y125D02*
X2492Y125D01*
X106Y124D02*
X116Y124D01*
X2481Y124D02*
X2491Y124D01*
X107Y123D02*
X117Y123D01*
X2480Y123D02*
X2490Y123D01*
X108Y122D02*
X118Y122D01*
X2479Y122D02*
X2489Y122D01*
X109Y121D02*
X119Y121D01*
X2478Y121D02*
X2488Y121D01*
X110Y120D02*
X120Y120D01*
X2477Y120D02*
X2487Y120D01*
X111Y119D02*
X121Y119D01*
X2476Y119D02*
X2486Y119D01*
X112Y118D02*
X122Y118D01*
X2475Y118D02*
X2485Y118D01*
X113Y117D02*
X123Y117D01*
X2474Y117D02*
X2484Y117D01*
X114Y116D02*
X124Y116D01*
X2473Y116D02*
X2483Y116D01*
X115Y115D02*
X125Y115D01*
X2472Y115D02*
X2482Y115D01*
X116Y114D02*
X126Y114D01*
X2470Y114D02*
X2481Y114D01*
X117Y113D02*
X128Y113D01*
X2469Y113D02*
X2480Y113D01*
X118Y112D02*
X129Y112D01*
X2468Y112D02*
X2479Y112D01*
X119Y111D02*
X130Y111D01*
X2467Y111D02*
X2478Y111D01*
X120Y110D02*
X131Y110D01*
X2466Y110D02*
X2477Y110D01*
X121Y109D02*
X132Y109D01*
X2465Y109D02*
X2476Y109D01*
X122Y108D02*
X133Y108D01*
X2464Y108D02*
X2475Y108D01*
X123Y107D02*
X134Y107D01*
X2463Y107D02*
X2474Y107D01*
X124Y106D02*
X135Y106D01*
X2462Y106D02*
X2473Y106D01*
X125Y105D02*
X136Y105D01*
X2461Y105D02*
X2472Y105D01*
X126Y104D02*
X138Y104D01*
X2459Y104D02*
X2471Y104D01*
X128Y103D02*
X139Y103D01*
X2458Y103D02*
X2469Y103D01*
X129Y102D02*
X140Y102D01*
X2457Y102D02*
X2468Y102D01*
X130Y101D02*
X141Y101D01*
X2456Y101D02*
X2467Y101D01*
X131Y100D02*
X142Y100D01*
X2455Y100D02*
X2466Y100D01*
X132Y99D02*
X143Y99D01*
X2454Y99D02*
X2465Y99D01*
X133Y98D02*
X145Y98D01*
X2452Y98D02*
X2464Y98D01*
X134Y97D02*
X146Y97D01*
X2451Y97D02*
X2463Y97D01*
X136Y96D02*
X147Y96D01*
X2450Y96D02*
X2461Y96D01*
X137Y95D02*
X148Y95D01*
X2449Y95D02*
X2460Y95D01*
X138Y94D02*
X149Y94D01*
X2448Y94D02*
X2459Y94D01*
X139Y93D02*
X151Y93D01*
X2446Y93D02*
X2458Y93D01*
X140Y92D02*
X152Y92D01*
X2445Y92D02*
X2457Y92D01*
X142Y91D02*
X153Y91D01*
X2444Y91D02*
X2455Y91D01*
X143Y90D02*
X155Y90D01*
X2442Y90D02*
X2454Y90D01*
X144Y89D02*
X156Y89D01*
X2441Y89D02*
X2453Y89D01*
X145Y88D02*
X157Y88D01*
X2440Y88D02*
X2452Y88D01*
X147Y87D02*
X159Y87D01*
X2438Y87D02*
X2450Y87D01*
X148Y86D02*
X160Y86D01*
X2437Y86D02*
X2449Y86D01*
X149Y85D02*
X161Y85D01*
X2436Y85D02*
X2448Y85D01*
X150Y84D02*
X162Y84D01*
X2435Y84D02*
X2447Y84D01*
X152Y83D02*
X164Y83D01*
X2433Y83D02*
X2445Y83D01*
X153Y82D02*
X165Y82D01*
X2432Y82D02*
X2444Y82D01*
X154Y81D02*
X167Y81D01*
X2430Y81D02*
X2443Y81D01*
X156Y80D02*
X168Y80D01*
X2429Y80D02*
X2441Y80D01*
X157Y79D02*
X170Y79D01*
X2427Y79D02*
X2440Y79D01*
X158Y78D02*
X171Y78D01*
X2426Y78D02*
X2439Y78D01*
X160Y77D02*
X172Y77D01*
X2425Y77D02*
X2437Y77D01*
X161Y76D02*
X174Y76D01*
X2423Y76D02*
X2436Y76D01*
X163Y75D02*
X175Y75D01*
X2422Y75D02*
X2434Y75D01*
X164Y74D02*
X177Y74D01*
X2420Y74D02*
X2433Y74D01*
X165Y73D02*
X178Y73D01*
X2419Y73D02*
X2432Y73D01*
X167Y72D02*
X180Y72D01*
X2417Y72D02*
X2430Y72D01*
X168Y71D02*
X182Y71D01*
X2415Y71D02*
X2429Y71D01*
X170Y70D02*
X183Y70D01*
X2414Y70D02*
X2427Y70D01*
X171Y69D02*
X185Y69D01*
X2412Y69D02*
X2426Y69D01*
X172Y68D02*
X186Y68D01*
X2411Y68D02*
X2424Y68D01*
X174Y67D02*
X188Y67D01*
X2409Y67D02*
X2423Y67D01*
X176Y66D02*
X189Y66D01*
X2408Y66D02*
X2421Y66D01*
X177Y65D02*
X191Y65D01*
X2406Y65D02*
X2420Y65D01*
X179Y64D02*
X193Y64D01*
X2404Y64D02*
X2418Y64D01*
X180Y63D02*
X194Y63D01*
X2403Y63D02*
X2417Y63D01*
X182Y62D02*
X196Y62D01*
X2401Y62D02*
X2415Y62D01*
X184Y61D02*
X198Y61D01*
X2399Y61D02*
X2413Y61D01*
X185Y60D02*
X200Y60D01*
X2397Y60D02*
X2412Y60D01*
X187Y59D02*
X201Y59D01*
X2396Y59D02*
X2410Y59D01*
X188Y58D02*
X203Y58D01*
X2394Y58D02*
X2409Y58D01*
X190Y57D02*
X205Y57D01*
X2392Y57D02*
X2407Y57D01*
X192Y56D02*
X207Y56D01*
X2390Y56D02*
X2405Y56D01*
X194Y55D02*
X209Y55D01*
X2388Y55D02*
X2403Y55D01*
X195Y54D02*
X211Y54D01*
X2386Y54D02*
X2402Y54D01*
X197Y53D02*
X213Y53D01*
X2384Y53D02*
X2400Y53D01*
X199Y52D02*
X214Y52D01*
X2383Y52D02*
X2398Y52D01*
X201Y51D02*
X216Y51D01*
X2381Y51D02*
X2396Y51D01*
X202Y50D02*
X218Y50D01*
X2379Y50D02*
X2395Y50D01*
X204Y49D02*
X220Y49D01*
X2377Y49D02*
X2393Y49D01*
X206Y48D02*
X222Y48D01*
X2375Y48D02*
X2391Y48D01*
X208Y47D02*
X224Y47D01*
X2373Y47D02*
X2389Y47D01*
X210Y46D02*
X227Y46D01*
X2370Y46D02*
X2387Y46D01*
X212Y45D02*
X229Y45D01*
X2368Y45D02*
X2385Y45D01*
X214Y44D02*
X231Y44D01*
X2366Y44D02*
X2383Y44D01*
X216Y43D02*
X233Y43D01*
X2364Y43D02*
X2381Y43D01*
X218Y42D02*
X236Y42D01*
X2361Y42D02*
X2379Y42D01*
X220Y41D02*
X238Y41D01*
X2359Y41D02*
X2377Y41D01*
X222Y40D02*
X240Y40D01*
X2357Y40D02*
X2375Y40D01*
X224Y39D02*
X242Y39D01*
X2355Y39D02*
X2373Y39D01*
X226Y38D02*
X245Y38D01*
X2352Y38D02*
X2371Y38D01*
X228Y37D02*
X247Y37D01*
X2350Y37D02*
X2369Y37D01*
X231Y36D02*
X250Y36D01*
X2347Y36D02*
X2366Y36D01*
X233Y35D02*
X253Y35D01*
X2344Y35D02*
X2364Y35D01*
X235Y34D02*
X255Y34D01*
X2342Y34D02*
X2362Y34D01*
X237Y33D02*
X258Y33D01*
X2339Y33D02*
X2360Y33D01*
X240Y32D02*
X261Y32D01*
X2336Y32D02*
X2357Y32D01*
X242Y31D02*
X264Y31D01*
X2333Y31D02*
X2355Y31D01*
X245Y30D02*
X267Y30D01*
X2330Y30D02*
X2352Y30D01*
X247Y29D02*
X270Y29D01*
X2327Y29D02*
X2350Y29D01*
X250Y28D02*
X273Y28D01*
X2324Y28D02*
X2347Y28D01*
X253Y27D02*
X276Y27D01*
X2321Y27D02*
X2344Y27D01*
X255Y26D02*
X279Y26D01*
X2318Y26D02*
X2342Y26D01*
X258Y25D02*
X282Y25D01*
X2315Y25D02*
X2339Y25D01*
X261Y24D02*
X286Y24D01*
X2311Y24D02*
X2336Y24D01*
X264Y23D02*
X289Y23D01*
X2308Y23D02*
X2333Y23D01*
X267Y22D02*
X293Y22D01*
X2304Y22D02*
X2330Y22D01*
X270Y21D02*
X297Y21D01*
X2300Y21D02*
X2327Y21D01*
X273Y20D02*
X301Y20D01*
X2296Y20D02*
X2324Y20D01*
X276Y19D02*
X305Y19D01*
X2292Y19D02*
X2321Y19D01*
X279Y18D02*
X310Y18D01*
X2287Y18D02*
X2318Y18D01*
X282Y17D02*
X315Y17D01*
X2282Y17D02*
X2315Y17D01*
X286Y16D02*
X320Y16D01*
X2277Y16D02*
X2311Y16D01*
X290Y15D02*
X326Y15D01*
X2271Y15D02*
X2307Y15D01*
X293Y14D02*
X332Y14D01*
X2265Y14D02*
X2304Y14D01*
X297Y13D02*
X339Y13D01*
X2258Y13D02*
X2300Y13D01*
X302Y12D02*
X347Y12D01*
X2250Y12D02*
X2295Y12D01*
X306Y11D02*
X357Y11D01*
X2240Y11D02*
X2291Y11D01*
X311Y10D02*
X372Y10D01*
X2225Y10D02*
X2286Y10D01*
X316Y9D02*
X2281Y9D01*
X321Y8D02*
X2276Y8D01*
X327Y7D02*
X2270Y7D01*
X333Y6D02*
X2264Y6D01*
X340Y5D02*
X2257Y5D01*
X348Y4D02*
X2249Y4D01*
X358Y3D02*
X2239Y3D01*
X372Y2D02*
X2225Y2D01*
D02*
G04 End of Silk0*
M02*