G04 MADE WITH FRITZING*
G04 WWW.FRITZING.ORG*
G04 DOUBLE SIDED*
G04 HOLES PLATED*
G04 CONTOUR ON CENTER OF CONTOUR VECTOR*
%ASAXBY*%
%FSLAX23Y23*%
%MOIN*%
%OFA0B0*%
%SFA1.0B1.0*%
%ADD10C,0.008*%
%LNCONTOUR*%
G90*
G70*
G54D10*
X372Y2087D02*
X373Y2087D01*
X374Y2087D01*
X375Y2087D01*
X376Y2087D01*
X377Y2087D01*
X378Y2087D01*
X379Y2087D01*
X380Y2087D01*
X381Y2087D01*
X382Y2087D01*
X383Y2087D01*
X384Y2087D01*
X385Y2087D01*
X386Y2087D01*
X387Y2087D01*
X388Y2087D01*
X389Y2087D01*
X390Y2087D01*
X391Y2087D01*
X392Y2087D01*
X393Y2087D01*
X394Y2087D01*
X395Y2087D01*
X396Y2087D01*
X397Y2087D01*
X398Y2087D01*
X399Y2087D01*
X400Y2087D01*
X401Y2087D01*
X402Y2087D01*
X403Y2087D01*
X404Y2087D01*
X405Y2087D01*
X406Y2087D01*
X407Y2087D01*
X408Y2087D01*
X409Y2087D01*
X410Y2087D01*
X411Y2087D01*
X412Y2087D01*
X413Y2087D01*
X414Y2087D01*
X415Y2087D01*
X416Y2087D01*
X417Y2087D01*
X418Y2087D01*
X419Y2087D01*
X420Y2087D01*
X421Y2087D01*
X422Y2087D01*
X423Y2087D01*
X424Y2087D01*
X425Y2087D01*
X426Y2087D01*
X427Y2087D01*
X428Y2087D01*
X429Y2087D01*
X430Y2087D01*
X431Y2087D01*
X432Y2087D01*
X433Y2087D01*
X434Y2087D01*
X435Y2087D01*
X436Y2087D01*
X437Y2087D01*
X438Y2087D01*
X439Y2087D01*
X440Y2087D01*
X441Y2087D01*
X442Y2087D01*
X443Y2087D01*
X444Y2087D01*
X445Y2087D01*
X446Y2087D01*
X447Y2087D01*
X448Y2087D01*
X449Y2087D01*
X450Y2087D01*
X451Y2087D01*
X452Y2087D01*
X453Y2087D01*
X454Y2087D01*
X455Y2087D01*
X456Y2087D01*
X457Y2087D01*
X458Y2087D01*
X459Y2087D01*
X460Y2087D01*
X461Y2087D01*
X462Y2087D01*
X463Y2087D01*
X464Y2087D01*
X465Y2087D01*
X466Y2087D01*
X467Y2087D01*
X468Y2087D01*
X469Y2087D01*
X470Y2087D01*
X471Y2087D01*
X472Y2087D01*
X473Y2087D01*
X474Y2087D01*
X475Y2087D01*
X476Y2087D01*
X477Y2087D01*
X478Y2087D01*
X479Y2087D01*
X480Y2087D01*
X481Y2087D01*
X482Y2087D01*
X483Y2087D01*
X484Y2087D01*
X485Y2087D01*
X486Y2087D01*
X487Y2087D01*
X488Y2087D01*
X489Y2087D01*
X490Y2087D01*
X491Y2087D01*
X492Y2087D01*
X493Y2087D01*
X494Y2087D01*
X495Y2087D01*
X496Y2087D01*
X497Y2087D01*
X498Y2087D01*
X499Y2087D01*
X500Y2087D01*
X501Y2087D01*
X502Y2087D01*
X503Y2087D01*
X504Y2087D01*
X505Y2087D01*
X506Y2087D01*
X507Y2087D01*
X508Y2087D01*
X509Y2087D01*
X510Y2087D01*
X511Y2087D01*
X512Y2087D01*
X513Y2087D01*
X514Y2087D01*
X515Y2087D01*
X516Y2087D01*
X517Y2087D01*
X518Y2087D01*
X519Y2087D01*
X520Y2087D01*
X521Y2087D01*
X522Y2087D01*
X523Y2087D01*
X524Y2087D01*
X525Y2087D01*
X526Y2087D01*
X527Y2087D01*
X528Y2087D01*
X529Y2087D01*
X530Y2087D01*
X531Y2087D01*
X532Y2087D01*
X533Y2087D01*
X534Y2087D01*
X535Y2087D01*
X536Y2087D01*
X537Y2087D01*
X538Y2087D01*
X539Y2087D01*
X540Y2087D01*
X541Y2087D01*
X542Y2087D01*
X543Y2087D01*
X544Y2087D01*
X545Y2087D01*
X546Y2087D01*
X547Y2087D01*
X548Y2087D01*
X549Y2087D01*
X550Y2087D01*
X551Y2087D01*
X552Y2087D01*
X553Y2087D01*
X554Y2087D01*
X555Y2087D01*
X556Y2087D01*
X557Y2087D01*
X558Y2087D01*
X559Y2087D01*
X560Y2087D01*
X561Y2087D01*
X562Y2087D01*
X563Y2087D01*
X564Y2087D01*
X565Y2087D01*
X566Y2087D01*
X567Y2087D01*
X568Y2087D01*
X569Y2087D01*
X570Y2087D01*
X571Y2087D01*
X572Y2087D01*
X573Y2087D01*
X574Y2087D01*
X575Y2087D01*
X576Y2087D01*
X577Y2087D01*
X578Y2087D01*
X579Y2087D01*
X580Y2087D01*
X581Y2087D01*
X582Y2087D01*
X583Y2087D01*
X584Y2087D01*
X585Y2087D01*
X586Y2087D01*
X587Y2087D01*
X588Y2087D01*
X589Y2087D01*
X590Y2087D01*
X591Y2087D01*
X592Y2087D01*
X593Y2087D01*
X594Y2087D01*
X595Y2087D01*
X596Y2087D01*
X597Y2087D01*
X598Y2087D01*
X599Y2087D01*
X600Y2087D01*
X601Y2087D01*
X602Y2087D01*
X603Y2087D01*
X604Y2087D01*
X605Y2087D01*
X606Y2087D01*
X607Y2087D01*
X608Y2087D01*
X609Y2087D01*
X610Y2087D01*
X611Y2087D01*
X612Y2087D01*
X613Y2087D01*
X614Y2087D01*
X615Y2087D01*
X616Y2087D01*
X617Y2087D01*
X618Y2087D01*
X619Y2087D01*
X620Y2087D01*
X621Y2087D01*
X622Y2087D01*
X623Y2087D01*
X624Y2087D01*
X625Y2087D01*
X626Y2087D01*
X627Y2087D01*
X628Y2087D01*
X629Y2087D01*
X630Y2087D01*
X631Y2087D01*
X632Y2087D01*
X633Y2087D01*
X634Y2087D01*
X635Y2087D01*
X636Y2087D01*
X637Y2087D01*
X638Y2087D01*
X639Y2087D01*
X640Y2087D01*
X641Y2087D01*
X642Y2087D01*
X643Y2087D01*
X644Y2087D01*
X645Y2087D01*
X646Y2087D01*
X647Y2087D01*
X648Y2087D01*
X649Y2087D01*
X650Y2087D01*
X651Y2087D01*
X652Y2087D01*
X653Y2087D01*
X654Y2087D01*
X655Y2087D01*
X656Y2087D01*
X657Y2087D01*
X658Y2087D01*
X659Y2087D01*
X660Y2087D01*
X661Y2087D01*
X662Y2087D01*
X663Y2087D01*
X664Y2087D01*
X665Y2087D01*
X666Y2087D01*
X667Y2087D01*
X668Y2087D01*
X669Y2087D01*
X670Y2087D01*
X671Y2087D01*
X672Y2087D01*
X673Y2087D01*
X674Y2087D01*
X675Y2087D01*
X676Y2087D01*
X677Y2087D01*
X678Y2087D01*
X679Y2087D01*
X680Y2087D01*
X681Y2087D01*
X682Y2087D01*
X683Y2087D01*
X684Y2087D01*
X685Y2087D01*
X686Y2087D01*
X687Y2087D01*
X688Y2087D01*
X689Y2087D01*
X690Y2087D01*
X691Y2087D01*
X692Y2087D01*
X693Y2087D01*
X694Y2087D01*
X695Y2087D01*
X696Y2087D01*
X697Y2087D01*
X698Y2087D01*
X699Y2087D01*
X700Y2087D01*
X701Y2087D01*
X702Y2087D01*
X703Y2087D01*
X704Y2087D01*
X705Y2087D01*
X706Y2087D01*
X707Y2087D01*
X708Y2087D01*
X709Y2087D01*
X710Y2087D01*
X711Y2087D01*
X712Y2087D01*
X713Y2087D01*
X714Y2087D01*
X715Y2087D01*
X716Y2087D01*
X717Y2087D01*
X718Y2087D01*
X719Y2087D01*
X720Y2087D01*
X721Y2087D01*
X722Y2087D01*
X723Y2087D01*
X724Y2087D01*
X725Y2087D01*
X726Y2087D01*
X727Y2087D01*
X728Y2087D01*
X729Y2087D01*
X730Y2087D01*
X731Y2087D01*
X732Y2087D01*
X733Y2087D01*
X734Y2087D01*
X735Y2087D01*
X736Y2087D01*
X737Y2087D01*
X738Y2087D01*
X739Y2087D01*
X740Y2087D01*
X741Y2087D01*
X742Y2087D01*
X743Y2087D01*
X744Y2087D01*
X745Y2087D01*
X746Y2087D01*
X747Y2087D01*
X748Y2087D01*
X749Y2087D01*
X750Y2087D01*
X751Y2087D01*
X752Y2087D01*
X753Y2087D01*
X754Y2087D01*
X755Y2087D01*
X756Y2087D01*
X757Y2087D01*
X758Y2087D01*
X759Y2087D01*
X760Y2087D01*
X761Y2087D01*
X762Y2087D01*
X763Y2087D01*
X764Y2087D01*
X765Y2087D01*
X766Y2087D01*
X767Y2087D01*
X768Y2087D01*
X769Y2087D01*
X770Y2087D01*
X771Y2087D01*
X772Y2087D01*
X773Y2087D01*
X774Y2087D01*
X775Y2087D01*
X776Y2087D01*
X777Y2087D01*
X778Y2087D01*
X779Y2087D01*
X780Y2087D01*
X781Y2087D01*
X782Y2087D01*
X783Y2087D01*
X784Y2087D01*
X785Y2087D01*
X786Y2087D01*
X787Y2087D01*
X788Y2087D01*
X789Y2087D01*
X790Y2087D01*
X791Y2087D01*
X792Y2087D01*
X793Y2087D01*
X794Y2087D01*
X795Y2087D01*
X796Y2087D01*
X797Y2087D01*
X798Y2087D01*
X799Y2087D01*
X800Y2087D01*
X801Y2087D01*
X802Y2087D01*
X803Y2087D01*
X804Y2087D01*
X805Y2087D01*
X806Y2087D01*
X807Y2087D01*
X808Y2087D01*
X809Y2087D01*
X810Y2087D01*
X811Y2087D01*
X812Y2087D01*
X813Y2087D01*
X814Y2087D01*
X815Y2087D01*
X816Y2087D01*
X817Y2087D01*
X818Y2087D01*
X819Y2087D01*
X820Y2087D01*
X821Y2087D01*
X822Y2087D01*
X823Y2087D01*
X824Y2087D01*
X825Y2087D01*
X826Y2087D01*
X827Y2087D01*
X828Y2087D01*
X829Y2087D01*
X830Y2087D01*
X831Y2087D01*
X832Y2087D01*
X833Y2087D01*
X834Y2087D01*
X835Y2087D01*
X836Y2087D01*
X837Y2087D01*
X838Y2087D01*
X839Y2087D01*
X840Y2087D01*
X841Y2087D01*
X842Y2087D01*
X843Y2087D01*
X844Y2087D01*
X845Y2087D01*
X846Y2087D01*
X847Y2087D01*
X848Y2087D01*
X849Y2087D01*
X850Y2087D01*
X851Y2087D01*
X852Y2087D01*
X853Y2087D01*
X854Y2087D01*
X855Y2087D01*
X856Y2087D01*
X857Y2087D01*
X858Y2087D01*
X859Y2087D01*
X860Y2087D01*
X861Y2087D01*
X862Y2087D01*
X863Y2087D01*
X864Y2087D01*
X865Y2087D01*
X866Y2087D01*
X867Y2087D01*
X868Y2087D01*
X869Y2087D01*
X870Y2087D01*
X871Y2087D01*
X872Y2087D01*
X873Y2087D01*
X874Y2087D01*
X875Y2087D01*
X876Y2087D01*
X877Y2087D01*
X878Y2087D01*
X879Y2087D01*
X880Y2087D01*
X881Y2087D01*
X882Y2087D01*
X883Y2087D01*
X884Y2087D01*
X885Y2087D01*
X886Y2087D01*
X887Y2087D01*
X888Y2087D01*
X889Y2087D01*
X890Y2087D01*
X891Y2087D01*
X892Y2087D01*
X893Y2087D01*
X894Y2087D01*
X895Y2087D01*
X896Y2087D01*
X897Y2087D01*
X898Y2087D01*
X899Y2087D01*
X900Y2087D01*
X901Y2087D01*
X902Y2087D01*
X903Y2087D01*
X904Y2087D01*
X905Y2087D01*
X906Y2087D01*
X907Y2087D01*
X908Y2087D01*
X909Y2087D01*
X910Y2087D01*
X911Y2087D01*
X912Y2087D01*
X913Y2087D01*
X914Y2087D01*
X915Y2087D01*
X916Y2087D01*
X917Y2087D01*
X918Y2087D01*
X919Y2087D01*
X920Y2087D01*
X921Y2087D01*
X922Y2087D01*
X923Y2087D01*
X924Y2087D01*
X925Y2087D01*
X926Y2087D01*
X927Y2087D01*
X928Y2087D01*
X929Y2087D01*
X930Y2087D01*
X931Y2087D01*
X932Y2087D01*
X933Y2087D01*
X934Y2087D01*
X935Y2087D01*
X936Y2087D01*
X937Y2087D01*
X938Y2087D01*
X939Y2087D01*
X940Y2087D01*
X941Y2087D01*
X942Y2087D01*
X943Y2087D01*
X944Y2087D01*
X945Y2087D01*
X946Y2087D01*
X947Y2087D01*
X948Y2087D01*
X949Y2087D01*
X950Y2087D01*
X951Y2087D01*
X952Y2087D01*
X953Y2087D01*
X954Y2087D01*
X955Y2087D01*
X956Y2087D01*
X957Y2087D01*
X958Y2087D01*
X959Y2087D01*
X960Y2087D01*
X961Y2087D01*
X962Y2087D01*
X963Y2087D01*
X964Y2087D01*
X965Y2087D01*
X966Y2087D01*
X967Y2087D01*
X968Y2087D01*
X969Y2087D01*
X970Y2087D01*
X971Y2087D01*
X972Y2087D01*
X973Y2087D01*
X974Y2087D01*
X975Y2087D01*
X976Y2087D01*
X977Y2087D01*
X978Y2087D01*
X979Y2087D01*
X980Y2087D01*
X981Y2087D01*
X982Y2087D01*
X983Y2087D01*
X984Y2087D01*
X985Y2087D01*
X986Y2087D01*
X987Y2087D01*
X988Y2087D01*
X989Y2087D01*
X990Y2087D01*
X991Y2087D01*
X992Y2087D01*
X993Y2087D01*
X994Y2087D01*
X995Y2087D01*
X996Y2087D01*
X997Y2087D01*
X998Y2087D01*
X999Y2087D01*
X1000Y2087D01*
X1001Y2087D01*
X1002Y2087D01*
X1003Y2087D01*
X1004Y2087D01*
X1005Y2087D01*
X1006Y2087D01*
X1007Y2087D01*
X1008Y2087D01*
X1009Y2087D01*
X1010Y2087D01*
X1011Y2087D01*
X1012Y2087D01*
X1013Y2087D01*
X1014Y2087D01*
X1015Y2087D01*
X1016Y2087D01*
X1017Y2087D01*
X1018Y2087D01*
X1019Y2087D01*
X1020Y2087D01*
X1021Y2087D01*
X1022Y2087D01*
X1023Y2087D01*
X1024Y2087D01*
X1025Y2087D01*
X1026Y2087D01*
X1027Y2087D01*
X1028Y2087D01*
X1029Y2087D01*
X1030Y2087D01*
X1031Y2087D01*
X1032Y2087D01*
X1033Y2087D01*
X1034Y2087D01*
X1035Y2087D01*
X1036Y2087D01*
X1037Y2087D01*
X1038Y2087D01*
X1039Y2087D01*
X1040Y2087D01*
X1041Y2087D01*
X1042Y2087D01*
X1043Y2087D01*
X1044Y2087D01*
X1045Y2087D01*
X1046Y2087D01*
X1047Y2087D01*
X1048Y2087D01*
X1049Y2087D01*
X1050Y2087D01*
X1051Y2087D01*
X1052Y2087D01*
X1053Y2087D01*
X1054Y2087D01*
X1055Y2087D01*
X1056Y2087D01*
X1057Y2087D01*
X1058Y2087D01*
X1059Y2087D01*
X1060Y2087D01*
X1061Y2087D01*
X1062Y2087D01*
X1063Y2087D01*
X1064Y2087D01*
X1065Y2087D01*
X1066Y2087D01*
X1067Y2087D01*
X1068Y2087D01*
X1069Y2087D01*
X1070Y2087D01*
X1071Y2087D01*
X1072Y2087D01*
X1073Y2087D01*
X1074Y2087D01*
X1075Y2087D01*
X1076Y2087D01*
X1077Y2087D01*
X1078Y2087D01*
X1079Y2087D01*
X1080Y2087D01*
X1081Y2087D01*
X1082Y2087D01*
X1083Y2087D01*
X1084Y2087D01*
X1085Y2087D01*
X1086Y2087D01*
X1087Y2087D01*
X1088Y2087D01*
X1089Y2087D01*
X1090Y2087D01*
X1091Y2087D01*
X1092Y2087D01*
X1093Y2087D01*
X1094Y2087D01*
X1095Y2087D01*
X1096Y2087D01*
X1097Y2087D01*
X1098Y2087D01*
X1099Y2087D01*
X1100Y2087D01*
X1101Y2087D01*
X1102Y2087D01*
X1103Y2087D01*
X1104Y2087D01*
X1105Y2087D01*
X1106Y2087D01*
X1107Y2087D01*
X1108Y2087D01*
X1109Y2087D01*
X1110Y2087D01*
X1111Y2087D01*
X1112Y2087D01*
X1113Y2087D01*
X1114Y2087D01*
X1115Y2087D01*
X1116Y2087D01*
X1117Y2087D01*
X1118Y2087D01*
X1119Y2087D01*
X1120Y2087D01*
X1121Y2087D01*
X1122Y2087D01*
X1123Y2087D01*
X1124Y2087D01*
X1125Y2087D01*
X1126Y2087D01*
X1127Y2087D01*
X1128Y2087D01*
X1129Y2087D01*
X1130Y2087D01*
X1131Y2087D01*
X1132Y2087D01*
X1133Y2087D01*
X1134Y2087D01*
X1135Y2087D01*
X1136Y2087D01*
X1137Y2087D01*
X1138Y2087D01*
X1139Y2087D01*
X1140Y2087D01*
X1141Y2087D01*
X1142Y2087D01*
X1143Y2087D01*
X1144Y2087D01*
X1145Y2087D01*
X1146Y2087D01*
X1147Y2087D01*
X1148Y2087D01*
X1149Y2087D01*
X1150Y2087D01*
X1151Y2087D01*
X1152Y2087D01*
X1153Y2087D01*
X1154Y2087D01*
X1155Y2087D01*
X1156Y2087D01*
X1157Y2087D01*
X1158Y2087D01*
X1159Y2087D01*
X1160Y2087D01*
X1161Y2087D01*
X1162Y2087D01*
X1163Y2087D01*
X1164Y2087D01*
X1165Y2087D01*
X1166Y2087D01*
X1167Y2087D01*
X1168Y2087D01*
X1169Y2087D01*
X1170Y2087D01*
X1171Y2087D01*
X1172Y2087D01*
X1173Y2087D01*
X1174Y2087D01*
X1175Y2087D01*
X1176Y2087D01*
X1177Y2087D01*
X1178Y2087D01*
X1179Y2087D01*
X1180Y2087D01*
X1181Y2087D01*
X1182Y2087D01*
X1183Y2087D01*
X1184Y2087D01*
X1185Y2087D01*
X1186Y2087D01*
X1187Y2087D01*
X1188Y2087D01*
X1189Y2087D01*
X1190Y2087D01*
X1191Y2087D01*
X1192Y2087D01*
X1193Y2087D01*
X1194Y2087D01*
X1195Y2087D01*
X1196Y2087D01*
X1197Y2087D01*
X1198Y2087D01*
X1199Y2087D01*
X1200Y2087D01*
X1201Y2087D01*
X1202Y2087D01*
X1203Y2087D01*
X1204Y2087D01*
X1205Y2087D01*
X1206Y2087D01*
X1207Y2087D01*
X1208Y2087D01*
X1209Y2087D01*
X1210Y2087D01*
X1211Y2087D01*
X1212Y2087D01*
X1213Y2087D01*
X1214Y2087D01*
X1215Y2087D01*
X1216Y2087D01*
X1217Y2087D01*
X1218Y2087D01*
X1219Y2087D01*
X1220Y2087D01*
X1221Y2087D01*
X1222Y2087D01*
X1223Y2087D01*
X1224Y2087D01*
X1225Y2087D01*
X1226Y2087D01*
X1227Y2087D01*
X1228Y2087D01*
X1229Y2087D01*
X1230Y2087D01*
X1231Y2087D01*
X1232Y2087D01*
X1233Y2087D01*
X1234Y2087D01*
X1235Y2087D01*
X1236Y2087D01*
X1237Y2087D01*
X1238Y2087D01*
X1239Y2087D01*
X1240Y2087D01*
X1241Y2087D01*
X1242Y2087D01*
X1243Y2087D01*
X1244Y2087D01*
X1245Y2087D01*
X1246Y2087D01*
X1247Y2087D01*
X1248Y2087D01*
X1249Y2087D01*
X1250Y2087D01*
X1251Y2087D01*
X1252Y2087D01*
X1253Y2087D01*
X1254Y2087D01*
X1255Y2087D01*
X1256Y2087D01*
X1257Y2087D01*
X1258Y2087D01*
X1259Y2087D01*
X1260Y2087D01*
X1261Y2087D01*
X1262Y2087D01*
X1263Y2087D01*
X1264Y2087D01*
X1265Y2087D01*
X1266Y2087D01*
X1267Y2087D01*
X1268Y2087D01*
X1269Y2087D01*
X1270Y2087D01*
X1271Y2087D01*
X1272Y2087D01*
X1273Y2087D01*
X1274Y2087D01*
X1275Y2087D01*
X1276Y2087D01*
X1277Y2087D01*
X1278Y2087D01*
X1279Y2087D01*
X1280Y2087D01*
X1281Y2087D01*
X1282Y2087D01*
X1283Y2087D01*
X1284Y2087D01*
X1285Y2087D01*
X1286Y2087D01*
X1287Y2087D01*
X1288Y2087D01*
X1289Y2087D01*
X1290Y2087D01*
X1291Y2087D01*
X1292Y2087D01*
X1293Y2087D01*
X1294Y2087D01*
X1295Y2087D01*
X1296Y2087D01*
X1297Y2087D01*
X1298Y2087D01*
X1299Y2087D01*
X1300Y2087D01*
X1301Y2087D01*
X1302Y2087D01*
X1303Y2087D01*
X1304Y2087D01*
X1305Y2087D01*
X1306Y2087D01*
X1307Y2087D01*
X1308Y2087D01*
X1309Y2087D01*
X1310Y2087D01*
X1311Y2087D01*
X1312Y2087D01*
X1313Y2087D01*
X1314Y2087D01*
X1315Y2087D01*
X1316Y2087D01*
X1317Y2087D01*
X1318Y2087D01*
X1319Y2087D01*
X1320Y2087D01*
X1321Y2087D01*
X1322Y2087D01*
X1323Y2087D01*
X1324Y2087D01*
X1325Y2087D01*
X1326Y2087D01*
X1327Y2087D01*
X1328Y2087D01*
X1329Y2087D01*
X1330Y2087D01*
X1331Y2087D01*
X1332Y2087D01*
X1333Y2087D01*
X1334Y2087D01*
X1335Y2087D01*
X1336Y2087D01*
X1337Y2087D01*
X1338Y2087D01*
X1339Y2087D01*
X1340Y2087D01*
X1341Y2087D01*
X1342Y2087D01*
X1343Y2087D01*
X1344Y2087D01*
X1345Y2087D01*
X1346Y2087D01*
X1347Y2087D01*
X1348Y2087D01*
X1349Y2087D01*
X1350Y2087D01*
X1351Y2087D01*
X1352Y2087D01*
X1353Y2087D01*
X1354Y2087D01*
X1355Y2087D01*
X1356Y2087D01*
X1357Y2087D01*
X1358Y2087D01*
X1359Y2087D01*
X1360Y2087D01*
X1361Y2087D01*
X1362Y2087D01*
X1363Y2087D01*
X1364Y2087D01*
X1365Y2087D01*
X1366Y2087D01*
X1367Y2087D01*
X1368Y2087D01*
X1369Y2087D01*
X1370Y2087D01*
X1371Y2087D01*
X1372Y2087D01*
X1373Y2087D01*
X1374Y2087D01*
X1375Y2087D01*
X1376Y2087D01*
X1377Y2087D01*
X1378Y2087D01*
X1379Y2087D01*
X1380Y2087D01*
X1381Y2087D01*
X1382Y2087D01*
X1383Y2087D01*
X1384Y2087D01*
X1385Y2087D01*
X1386Y2087D01*
X1387Y2087D01*
X1388Y2087D01*
X1389Y2087D01*
X1390Y2087D01*
X1391Y2087D01*
X1392Y2087D01*
X1393Y2087D01*
X1394Y2087D01*
X1395Y2087D01*
X1396Y2087D01*
X1397Y2087D01*
X1398Y2087D01*
X1399Y2087D01*
X1400Y2087D01*
X1401Y2087D01*
X1402Y2087D01*
X1403Y2087D01*
X1404Y2087D01*
X1405Y2087D01*
X1406Y2087D01*
X1407Y2087D01*
X1408Y2087D01*
X1409Y2087D01*
X1410Y2087D01*
X1411Y2087D01*
X1412Y2087D01*
X1413Y2087D01*
X1414Y2087D01*
X1415Y2087D01*
X1416Y2087D01*
X1417Y2087D01*
X1418Y2087D01*
X1419Y2087D01*
X1420Y2087D01*
X1421Y2087D01*
X1422Y2087D01*
X1423Y2087D01*
X1424Y2087D01*
X1425Y2087D01*
X1426Y2087D01*
X1427Y2087D01*
X1428Y2087D01*
X1429Y2087D01*
X1430Y2087D01*
X1431Y2087D01*
X1432Y2087D01*
X1433Y2087D01*
X1434Y2087D01*
X1435Y2087D01*
X1436Y2087D01*
X1437Y2087D01*
X1438Y2087D01*
X1439Y2087D01*
X1440Y2087D01*
X1441Y2087D01*
X1442Y2087D01*
X1443Y2087D01*
X1444Y2087D01*
X1445Y2087D01*
X1446Y2087D01*
X1447Y2087D01*
X1448Y2087D01*
X1449Y2087D01*
X1450Y2087D01*
X1451Y2087D01*
X1452Y2087D01*
X1453Y2087D01*
X1454Y2087D01*
X1455Y2087D01*
X1456Y2087D01*
X1457Y2087D01*
X1458Y2087D01*
X1459Y2087D01*
X1460Y2087D01*
X1461Y2087D01*
X1462Y2087D01*
X1463Y2087D01*
X1464Y2087D01*
X1465Y2087D01*
X1466Y2087D01*
X1467Y2087D01*
X1468Y2087D01*
X1469Y2087D01*
X1470Y2087D01*
X1471Y2087D01*
X1472Y2087D01*
X1473Y2087D01*
X1474Y2087D01*
X1475Y2087D01*
X1476Y2087D01*
X1477Y2087D01*
X1478Y2087D01*
X1479Y2087D01*
X1480Y2087D01*
X1481Y2087D01*
X1482Y2087D01*
X1483Y2087D01*
X1484Y2087D01*
X1485Y2087D01*
X1486Y2087D01*
X1487Y2087D01*
X1488Y2087D01*
X1489Y2087D01*
X1490Y2087D01*
X1491Y2087D01*
X1492Y2087D01*
X1493Y2087D01*
X1494Y2087D01*
X1495Y2087D01*
X1496Y2087D01*
X1497Y2087D01*
X1498Y2087D01*
X1499Y2087D01*
X1500Y2087D01*
X1501Y2087D01*
X1502Y2087D01*
X1503Y2087D01*
X1504Y2087D01*
X1505Y2087D01*
X1506Y2087D01*
X1507Y2087D01*
X1508Y2087D01*
X1509Y2087D01*
X1510Y2087D01*
X1511Y2087D01*
X1512Y2087D01*
X1513Y2087D01*
X1514Y2087D01*
X1515Y2087D01*
X1516Y2087D01*
X1517Y2087D01*
X1518Y2087D01*
X1519Y2087D01*
X1520Y2087D01*
X1521Y2087D01*
X1522Y2087D01*
X1523Y2087D01*
X1524Y2087D01*
X1525Y2087D01*
X1526Y2087D01*
X1527Y2087D01*
X1528Y2087D01*
X1529Y2087D01*
X1530Y2087D01*
X1531Y2087D01*
X1532Y2087D01*
X1533Y2087D01*
X1534Y2087D01*
X1535Y2087D01*
X1536Y2087D01*
X1537Y2087D01*
X1538Y2087D01*
X1539Y2087D01*
X1540Y2087D01*
X1541Y2087D01*
X1542Y2087D01*
X1543Y2087D01*
X1544Y2087D01*
X1545Y2087D01*
X1546Y2087D01*
X1547Y2087D01*
X1548Y2087D01*
X1549Y2087D01*
X1550Y2087D01*
X1551Y2087D01*
X1552Y2087D01*
X1553Y2087D01*
X1554Y2087D01*
X1555Y2087D01*
X1556Y2087D01*
X1557Y2087D01*
X1558Y2087D01*
X1559Y2087D01*
X1560Y2087D01*
X1561Y2087D01*
X1562Y2087D01*
X1563Y2087D01*
X1564Y2087D01*
X1565Y2087D01*
X1566Y2087D01*
X1567Y2087D01*
X1568Y2087D01*
X1569Y2087D01*
X1570Y2087D01*
X1571Y2087D01*
X1572Y2087D01*
X1573Y2087D01*
X1574Y2087D01*
X1575Y2087D01*
X1576Y2087D01*
X1577Y2087D01*
X1578Y2087D01*
X1579Y2087D01*
X1580Y2087D01*
X1581Y2087D01*
X1582Y2087D01*
X1583Y2087D01*
X1584Y2087D01*
X1585Y2087D01*
X1586Y2087D01*
X1587Y2087D01*
X1588Y2087D01*
X1589Y2087D01*
X1590Y2087D01*
X1591Y2087D01*
X1592Y2087D01*
X1593Y2087D01*
X1594Y2087D01*
X1595Y2087D01*
X1596Y2087D01*
X1597Y2087D01*
X1598Y2087D01*
X1599Y2087D01*
X1600Y2087D01*
X1601Y2087D01*
X1602Y2087D01*
X1603Y2087D01*
X1604Y2087D01*
X1605Y2087D01*
X1606Y2087D01*
X1607Y2087D01*
X1608Y2087D01*
X1609Y2087D01*
X1610Y2087D01*
X1611Y2087D01*
X1612Y2087D01*
X1613Y2087D01*
X1614Y2087D01*
X1615Y2087D01*
X1616Y2087D01*
X1617Y2087D01*
X1618Y2087D01*
X1619Y2087D01*
X1620Y2087D01*
X1621Y2087D01*
X1622Y2087D01*
X1623Y2087D01*
X1624Y2087D01*
X1625Y2087D01*
X1626Y2087D01*
X1627Y2087D01*
X1628Y2087D01*
X1629Y2087D01*
X1630Y2087D01*
X1631Y2087D01*
X1632Y2087D01*
X1633Y2087D01*
X1634Y2087D01*
X1635Y2087D01*
X1636Y2087D01*
X1637Y2087D01*
X1638Y2087D01*
X1639Y2087D01*
X1640Y2087D01*
X1641Y2087D01*
X1642Y2087D01*
X1643Y2087D01*
X1644Y2087D01*
X1645Y2087D01*
X1646Y2087D01*
X1647Y2087D01*
X1648Y2087D01*
X1649Y2087D01*
X1650Y2087D01*
X1651Y2087D01*
X1652Y2087D01*
X1653Y2087D01*
X1654Y2087D01*
X1655Y2087D01*
X1656Y2087D01*
X1657Y2087D01*
X1658Y2087D01*
X1659Y2087D01*
X1660Y2087D01*
X1661Y2087D01*
X1662Y2087D01*
X1663Y2087D01*
X1664Y2087D01*
X1665Y2087D01*
X1666Y2087D01*
X1667Y2087D01*
X1668Y2087D01*
X1669Y2087D01*
X1670Y2087D01*
X1671Y2087D01*
X1672Y2087D01*
X1673Y2087D01*
X1674Y2087D01*
X1675Y2087D01*
X1676Y2087D01*
X1677Y2087D01*
X1678Y2087D01*
X1679Y2087D01*
X1680Y2087D01*
X1681Y2087D01*
X1682Y2087D01*
X1683Y2087D01*
X1684Y2087D01*
X1685Y2087D01*
X1686Y2087D01*
X1687Y2087D01*
X1688Y2087D01*
X1689Y2087D01*
X1690Y2087D01*
X1691Y2087D01*
X1692Y2087D01*
X1693Y2087D01*
X1694Y2087D01*
X1695Y2087D01*
X1696Y2087D01*
X1697Y2087D01*
X1698Y2087D01*
X1699Y2087D01*
X1700Y2087D01*
X1701Y2087D01*
X1702Y2087D01*
X1703Y2087D01*
X1704Y2087D01*
X1705Y2087D01*
X1706Y2087D01*
X1707Y2087D01*
X1708Y2087D01*
X1709Y2087D01*
X1710Y2087D01*
X1711Y2087D01*
X1712Y2087D01*
X1713Y2087D01*
X1714Y2087D01*
X1715Y2087D01*
X1716Y2087D01*
X1717Y2087D01*
X1718Y2087D01*
X1719Y2087D01*
X1720Y2087D01*
X1721Y2087D01*
X1722Y2087D01*
X1723Y2087D01*
X1724Y2087D01*
X1725Y2087D01*
X1726Y2087D01*
X1727Y2087D01*
X1728Y2087D01*
X1729Y2087D01*
X1730Y2087D01*
X1731Y2087D01*
X1732Y2087D01*
X1733Y2087D01*
X1734Y2087D01*
X1735Y2087D01*
X1736Y2087D01*
X1737Y2087D01*
X1738Y2087D01*
X1739Y2087D01*
X1740Y2087D01*
X1741Y2087D01*
X1742Y2087D01*
X1743Y2087D01*
X1744Y2087D01*
X1745Y2087D01*
X1746Y2087D01*
X1747Y2087D01*
X1748Y2087D01*
X1749Y2087D01*
X1750Y2087D01*
X1751Y2087D01*
X1752Y2087D01*
X1753Y2087D01*
X1754Y2087D01*
X1755Y2087D01*
X1756Y2087D01*
X1757Y2087D01*
X1758Y2087D01*
X1759Y2087D01*
X1760Y2087D01*
X1761Y2087D01*
X1762Y2087D01*
X1763Y2087D01*
X1764Y2087D01*
X1765Y2087D01*
X1766Y2087D01*
X1767Y2087D01*
X1768Y2087D01*
X1769Y2087D01*
X1770Y2087D01*
X1771Y2087D01*
X1772Y2087D01*
X1773Y2087D01*
X1774Y2087D01*
X1775Y2087D01*
X1776Y2087D01*
X1777Y2087D01*
X1778Y2087D01*
X1779Y2087D01*
X1780Y2087D01*
X1781Y2087D01*
X1782Y2087D01*
X1783Y2087D01*
X1784Y2087D01*
X1785Y2087D01*
X1786Y2087D01*
X1787Y2087D01*
X1788Y2087D01*
X1789Y2087D01*
X1790Y2087D01*
X1791Y2087D01*
X1792Y2087D01*
X1793Y2087D01*
X1794Y2087D01*
X1795Y2087D01*
X1796Y2087D01*
X1797Y2087D01*
X1798Y2087D01*
X1799Y2087D01*
X1800Y2087D01*
X1801Y2087D01*
X1802Y2087D01*
X1803Y2087D01*
X1804Y2087D01*
X1805Y2087D01*
X1806Y2087D01*
X1807Y2087D01*
X1808Y2087D01*
X1809Y2087D01*
X1810Y2087D01*
X1811Y2087D01*
X1812Y2087D01*
X1813Y2087D01*
X1814Y2087D01*
X1815Y2087D01*
X1816Y2087D01*
X1817Y2087D01*
X1818Y2087D01*
X1819Y2087D01*
X1820Y2087D01*
X1821Y2087D01*
X1822Y2087D01*
X1823Y2087D01*
X1824Y2087D01*
X1825Y2087D01*
X1826Y2087D01*
X1827Y2087D01*
X1828Y2087D01*
X1829Y2087D01*
X1830Y2087D01*
X1831Y2087D01*
X1832Y2087D01*
X1833Y2087D01*
X1834Y2087D01*
X1835Y2087D01*
X1836Y2087D01*
X1837Y2087D01*
X1838Y2087D01*
X1839Y2087D01*
X1840Y2087D01*
X1841Y2087D01*
X1842Y2087D01*
X1843Y2087D01*
X1844Y2087D01*
X1845Y2087D01*
X1846Y2087D01*
X1847Y2087D01*
X1848Y2087D01*
X1849Y2087D01*
X1850Y2087D01*
X1851Y2087D01*
X1852Y2087D01*
X1853Y2087D01*
X1854Y2087D01*
X1855Y2087D01*
X1856Y2087D01*
X1857Y2087D01*
X1858Y2087D01*
X1859Y2087D01*
X1860Y2087D01*
X1861Y2087D01*
X1862Y2087D01*
X1863Y2087D01*
X1864Y2087D01*
X1865Y2087D01*
X1866Y2087D01*
X1867Y2087D01*
X1868Y2087D01*
X1869Y2087D01*
X1870Y2087D01*
X1871Y2087D01*
X1872Y2087D01*
X1873Y2087D01*
X1874Y2087D01*
X1875Y2087D01*
X1876Y2087D01*
X1877Y2087D01*
X1878Y2087D01*
X1879Y2087D01*
X1880Y2087D01*
X1881Y2087D01*
X1882Y2087D01*
X1883Y2087D01*
X1884Y2087D01*
X1885Y2087D01*
X1886Y2087D01*
X1887Y2087D01*
X1888Y2087D01*
X1889Y2087D01*
X1890Y2087D01*
X1891Y2087D01*
X1892Y2087D01*
X1893Y2087D01*
X1894Y2087D01*
X1895Y2087D01*
X1896Y2087D01*
X1897Y2087D01*
X1898Y2087D01*
X1899Y2087D01*
X1900Y2087D01*
X1901Y2087D01*
X1902Y2087D01*
X1903Y2087D01*
X1904Y2087D01*
X1905Y2087D01*
X1906Y2087D01*
X1907Y2087D01*
X1908Y2087D01*
X1909Y2087D01*
X1910Y2087D01*
X1911Y2087D01*
X1912Y2087D01*
X1913Y2087D01*
X1914Y2087D01*
X1915Y2087D01*
X1916Y2087D01*
X1917Y2087D01*
X1918Y2087D01*
X1919Y2087D01*
X1920Y2087D01*
X1921Y2087D01*
X1922Y2087D01*
X1923Y2087D01*
X1924Y2087D01*
X1925Y2087D01*
X1926Y2087D01*
X1927Y2087D01*
X1928Y2087D01*
X1929Y2087D01*
X1930Y2087D01*
X1931Y2087D01*
X1932Y2087D01*
X1933Y2087D01*
X1934Y2087D01*
X1935Y2087D01*
X1936Y2087D01*
X1937Y2087D01*
X1938Y2087D01*
X1939Y2087D01*
X1940Y2087D01*
X1941Y2087D01*
X1942Y2087D01*
X1943Y2087D01*
X1944Y2087D01*
X1945Y2087D01*
X1946Y2087D01*
X1947Y2087D01*
X1948Y2087D01*
X1949Y2087D01*
X1950Y2087D01*
X1951Y2087D01*
X1952Y2087D01*
X1953Y2087D01*
X1954Y2087D01*
X1955Y2087D01*
X1956Y2087D01*
X1957Y2087D01*
X1958Y2087D01*
X1959Y2087D01*
X1960Y2087D01*
X1961Y2087D01*
X1962Y2087D01*
X1963Y2087D01*
X1964Y2087D01*
X1965Y2087D01*
X1966Y2087D01*
X1967Y2087D01*
X1968Y2087D01*
X1969Y2087D01*
X1970Y2087D01*
X1971Y2087D01*
X1972Y2087D01*
X1973Y2087D01*
X1974Y2087D01*
X1975Y2087D01*
X1976Y2087D01*
X1977Y2087D01*
X1978Y2087D01*
X1979Y2087D01*
X1980Y2087D01*
X1981Y2087D01*
X1982Y2087D01*
X1983Y2087D01*
X1984Y2087D01*
X1985Y2087D01*
X1986Y2087D01*
X1987Y2087D01*
X1988Y2087D01*
X1989Y2087D01*
X1990Y2087D01*
X1991Y2087D01*
X1992Y2087D01*
X1993Y2087D01*
X1994Y2087D01*
X1995Y2087D01*
X1996Y2087D01*
X1997Y2087D01*
X1998Y2087D01*
X1999Y2087D01*
X2000Y2087D01*
X2001Y2087D01*
X2002Y2087D01*
X2003Y2087D01*
X2004Y2087D01*
X2005Y2087D01*
X2006Y2087D01*
X2007Y2087D01*
X2008Y2087D01*
X2009Y2087D01*
X2010Y2087D01*
X2011Y2087D01*
X2012Y2087D01*
X2013Y2087D01*
X2014Y2087D01*
X2015Y2087D01*
X2016Y2087D01*
X2017Y2087D01*
X2018Y2087D01*
X2019Y2087D01*
X2020Y2087D01*
X2021Y2087D01*
X2022Y2087D01*
X2023Y2087D01*
X2024Y2087D01*
X2025Y2087D01*
X2026Y2087D01*
X2027Y2087D01*
X2028Y2087D01*
X2029Y2087D01*
X2030Y2087D01*
X2031Y2087D01*
X2032Y2087D01*
X2033Y2087D01*
X2034Y2087D01*
X2035Y2087D01*
X2036Y2087D01*
X2037Y2087D01*
X2038Y2087D01*
X2039Y2087D01*
X2040Y2087D01*
X2041Y2087D01*
X2042Y2087D01*
X2043Y2087D01*
X2044Y2087D01*
X2045Y2087D01*
X2046Y2087D01*
X2047Y2087D01*
X2048Y2087D01*
X2049Y2087D01*
X2050Y2087D01*
X2051Y2087D01*
X2052Y2087D01*
X2053Y2087D01*
X2054Y2087D01*
X2055Y2087D01*
X2056Y2087D01*
X2057Y2087D01*
X2058Y2087D01*
X2059Y2087D01*
X2060Y2087D01*
X2061Y2087D01*
X2062Y2087D01*
X2063Y2087D01*
X2064Y2087D01*
X2065Y2087D01*
X2066Y2087D01*
X2067Y2087D01*
X2068Y2087D01*
X2069Y2087D01*
X2070Y2087D01*
X2071Y2087D01*
X2072Y2087D01*
X2073Y2087D01*
X2074Y2087D01*
X2075Y2087D01*
X2076Y2087D01*
X2077Y2087D01*
X2078Y2087D01*
X2079Y2087D01*
X2080Y2087D01*
X2081Y2087D01*
X2082Y2087D01*
X2083Y2087D01*
X2084Y2087D01*
X2085Y2087D01*
X2086Y2087D01*
X2087Y2087D01*
X2088Y2087D01*
X2089Y2087D01*
X2090Y2087D01*
X2091Y2087D01*
X2092Y2087D01*
X2093Y2087D01*
X2094Y2087D01*
X2095Y2087D01*
X2096Y2087D01*
X2097Y2087D01*
X2098Y2087D01*
X2099Y2087D01*
X2100Y2087D01*
X2101Y2087D01*
X2102Y2087D01*
X2103Y2087D01*
X2104Y2087D01*
X2105Y2087D01*
X2106Y2087D01*
X2107Y2087D01*
X2108Y2087D01*
X2109Y2087D01*
X2110Y2087D01*
X2111Y2087D01*
X2112Y2087D01*
X2113Y2087D01*
X2114Y2087D01*
X2115Y2087D01*
X2116Y2087D01*
X2117Y2087D01*
X2118Y2087D01*
X2119Y2087D01*
X2120Y2087D01*
X2121Y2087D01*
X2122Y2087D01*
X2123Y2087D01*
X2124Y2087D01*
X2125Y2087D01*
X2126Y2087D01*
X2127Y2087D01*
X2128Y2087D01*
X2129Y2087D01*
X2130Y2087D01*
X2131Y2087D01*
X2132Y2087D01*
X2133Y2087D01*
X2134Y2087D01*
X2135Y2087D01*
X2136Y2087D01*
X2137Y2087D01*
X2138Y2087D01*
X2139Y2087D01*
X2140Y2087D01*
X2141Y2087D01*
X2142Y2087D01*
X2143Y2087D01*
X2144Y2087D01*
X2145Y2087D01*
X2146Y2087D01*
X2147Y2087D01*
X2148Y2087D01*
X2149Y2087D01*
X2150Y2087D01*
X2151Y2087D01*
X2152Y2087D01*
X2153Y2087D01*
X2154Y2087D01*
X2155Y2087D01*
X2156Y2087D01*
X2157Y2087D01*
X2158Y2087D01*
X2159Y2087D01*
X2160Y2087D01*
X2161Y2087D01*
X2162Y2087D01*
X2163Y2087D01*
X2164Y2087D01*
X2165Y2087D01*
X2166Y2087D01*
X2167Y2087D01*
X2168Y2087D01*
X2169Y2087D01*
X2170Y2087D01*
X2171Y2087D01*
X2172Y2087D01*
X2173Y2087D01*
X2174Y2087D01*
X2175Y2087D01*
X2176Y2087D01*
X2177Y2087D01*
X2178Y2087D01*
X2179Y2087D01*
X2180Y2087D01*
X2181Y2087D01*
X2182Y2087D01*
X2183Y2087D01*
X2184Y2087D01*
X2185Y2087D01*
X2186Y2087D01*
X2187Y2087D01*
X2188Y2087D01*
X2189Y2087D01*
X2190Y2087D01*
X2191Y2087D01*
X2192Y2087D01*
X2193Y2087D01*
X2194Y2087D01*
X2195Y2087D01*
X2196Y2087D01*
X2197Y2087D01*
X2198Y2087D01*
X2199Y2087D01*
X2200Y2087D01*
X2201Y2087D01*
X2202Y2087D01*
X2203Y2087D01*
X2204Y2087D01*
X2205Y2087D01*
X2206Y2087D01*
X2207Y2087D01*
X2208Y2087D01*
X2209Y2087D01*
X2210Y2087D01*
X2211Y2087D01*
X2212Y2087D01*
X2213Y2087D01*
X2214Y2087D01*
X2215Y2087D01*
X2216Y2087D01*
X2217Y2087D01*
X2218Y2087D01*
X2219Y2087D01*
X2220Y2087D01*
X2221Y2087D01*
X2222Y2087D01*
X2223Y2087D01*
X2224Y2087D01*
X2225Y2087D01*
X2226Y2086D01*
X2227Y2086D01*
X2228Y2086D01*
X2229Y2086D01*
X2230Y2086D01*
X2231Y2086D01*
X2232Y2086D01*
X2233Y2086D01*
X2234Y2086D01*
X2235Y2086D01*
X2236Y2086D01*
X2237Y2086D01*
X2238Y2086D01*
X2239Y2086D01*
X2240Y2085D01*
X2241Y2085D01*
X2242Y2085D01*
X2243Y2085D01*
X2244Y2085D01*
X2245Y2085D01*
X2246Y2085D01*
X2247Y2085D01*
X2248Y2085D01*
X2249Y2085D01*
X2250Y2084D01*
X2251Y2084D01*
X2252Y2084D01*
X2253Y2084D01*
X2254Y2084D01*
X2255Y2084D01*
X2256Y2084D01*
X2257Y2084D01*
X2258Y2083D01*
X2259Y2083D01*
X2260Y2083D01*
X2261Y2083D01*
X2262Y2083D01*
X2263Y2083D01*
X2264Y2083D01*
X2265Y2082D01*
X2266Y2082D01*
X2267Y2082D01*
X2268Y2082D01*
X2269Y2082D01*
X2270Y2082D01*
X2271Y2081D01*
X2272Y2081D01*
X2273Y2081D01*
X2274Y2081D01*
X2275Y2081D01*
X2276Y2081D01*
X2277Y2080D01*
X2278Y2080D01*
X2279Y2080D01*
X2280Y2080D01*
X2281Y2080D01*
X2282Y2079D01*
X2283Y2079D01*
X2284Y2079D01*
X2285Y2079D01*
X2286Y2079D01*
X2287Y2078D01*
X2288Y2078D01*
X2289Y2078D01*
X2290Y2078D01*
X2291Y2078D01*
X2292Y2077D01*
X2293Y2077D01*
X2294Y2077D01*
X2295Y2077D01*
X2296Y2076D01*
X2297Y2076D01*
X2298Y2076D01*
X2299Y2076D01*
X2300Y2075D01*
X2301Y2075D01*
X2302Y2075D01*
X2303Y2075D01*
X2304Y2074D01*
X2305Y2074D01*
X2306Y2074D01*
X2307Y2074D01*
X2308Y2073D01*
X2309Y2073D01*
X2310Y2073D01*
X2311Y2073D01*
X2312Y2072D01*
X2313Y2072D01*
X2314Y2072D01*
X2315Y2071D01*
X2316Y2071D01*
X2317Y2071D01*
X2318Y2071D01*
X2319Y2070D01*
X2320Y2070D01*
X2321Y2070D01*
X2322Y2069D01*
X2323Y2069D01*
X2324Y2069D01*
X2325Y2068D01*
X2326Y2068D01*
X2327Y2068D01*
X2328Y2067D01*
X2329Y2067D01*
X2330Y2067D01*
X2331Y2066D01*
X2332Y2066D01*
X2333Y2066D01*
X2334Y2065D01*
X2335Y2065D01*
X2336Y2065D01*
X2337Y2064D01*
X2338Y2064D01*
X2339Y2064D01*
X2340Y2063D01*
X2341Y2063D01*
X2342Y2063D01*
X2343Y2062D01*
X2344Y2062D01*
X2345Y2061D01*
X2346Y2061D01*
X2347Y2061D01*
X2348Y2060D01*
X2349Y2060D01*
X2350Y2059D01*
X2351Y2059D01*
X2352Y2059D01*
X2353Y2058D01*
X2354Y2058D01*
X2355Y2057D01*
X2356Y2057D01*
X2357Y2057D01*
X2358Y2056D01*
X2359Y2056D01*
X2360Y2055D01*
X2361Y2055D01*
X2362Y2055D01*
X2363Y2054D01*
X2364Y2054D01*
X2365Y2053D01*
X2366Y2053D01*
X2367Y2052D01*
X2368Y2052D01*
X2369Y2051D01*
X2370Y2051D01*
X2371Y2050D01*
X2372Y2050D01*
X2373Y2050D01*
X2374Y2049D01*
X2375Y2049D01*
X2376Y2048D01*
X2377Y2048D01*
X2378Y2047D01*
X2379Y2047D01*
X2380Y2046D01*
X2381Y2046D01*
X2382Y2045D01*
X2383Y2045D01*
X2384Y2044D01*
X2385Y2044D01*
X2386Y2043D01*
X2387Y2043D01*
X2388Y2042D01*
X2389Y2042D01*
X2390Y2041D01*
X2391Y2041D01*
X2392Y2040D01*
X2393Y2040D01*
X2394Y2039D01*
X2395Y2038D01*
X2396Y2038D01*
X2397Y2037D01*
X2398Y2037D01*
X2399Y2036D01*
X2400Y2036D01*
X2401Y2035D01*
X2402Y2034D01*
X2403Y2034D01*
X2404Y2033D01*
X2405Y2033D01*
X2406Y2032D01*
X2407Y2032D01*
X2408Y2031D01*
X2409Y2030D01*
X2410Y2030D01*
X2411Y2029D01*
X2412Y2029D01*
X2413Y2028D01*
X2414Y2027D01*
X2415Y2027D01*
X2416Y2026D01*
X2417Y2025D01*
X2418Y2025D01*
X2419Y2024D01*
X2420Y2023D01*
X2421Y2023D01*
X2422Y2022D01*
X2423Y2022D01*
X2424Y2021D01*
X2425Y2020D01*
X2426Y2020D01*
X2427Y2019D01*
X2428Y2018D01*
X2429Y2017D01*
X2430Y2017D01*
X2431Y2016D01*
X2432Y2015D01*
X2433Y2015D01*
X2434Y2014D01*
X2435Y2013D01*
X2436Y2012D01*
X2437Y2012D01*
X2438Y2011D01*
X2439Y2010D01*
X2440Y2010D01*
X2441Y2009D01*
X2442Y2008D01*
X2443Y2007D01*
X2444Y2007D01*
X2445Y2006D01*
X2446Y2005D01*
X2447Y2004D01*
X2448Y2003D01*
X2449Y2003D01*
X2450Y2002D01*
X2451Y2001D01*
X2452Y2000D01*
X2453Y2000D01*
X2454Y1999D01*
X2455Y1998D01*
X2456Y1997D01*
X2457Y1996D01*
X2458Y1995D01*
X2459Y1995D01*
X2460Y1994D01*
X2461Y1993D01*
X2462Y1992D01*
X2463Y1991D01*
X2464Y1990D01*
X2465Y1989D01*
X2466Y1989D01*
X2467Y1988D01*
X2468Y1987D01*
X2469Y1986D01*
X2470Y1985D01*
X2471Y1984D01*
X2472Y1983D01*
X2473Y1982D01*
X2474Y1981D01*
X2475Y1980D01*
X2476Y1979D01*
X2477Y1978D01*
X2478Y1978D01*
X2479Y1977D01*
X2480Y1976D01*
X2481Y1975D01*
X2482Y1974D01*
X2483Y1973D01*
X2484Y1972D01*
X2485Y1971D01*
X2486Y1970D01*
X2487Y1969D01*
X2488Y1968D01*
X2489Y1967D01*
X2489Y1966D01*
X2490Y1965D01*
X2491Y1964D01*
X2492Y1963D01*
X2493Y1962D01*
X2494Y1961D01*
X2495Y1960D01*
X2496Y1959D01*
X2497Y1958D01*
X2498Y1957D01*
X2499Y1956D01*
X2500Y1955D01*
X2500Y1954D01*
X2501Y1953D01*
X2502Y1952D01*
X2503Y1951D01*
X2504Y1950D01*
X2505Y1949D01*
X2506Y1948D01*
X2507Y1947D01*
X2507Y1946D01*
X2508Y1945D01*
X2509Y1944D01*
X2510Y1943D01*
X2511Y1942D01*
X2511Y1941D01*
X2512Y1940D01*
X2513Y1939D01*
X2514Y1938D01*
X2515Y1937D01*
X2515Y1936D01*
X2516Y1935D01*
X2517Y1934D01*
X2518Y1933D01*
X2519Y1932D01*
X2519Y1931D01*
X2520Y1930D01*
X2521Y1929D01*
X2521Y1928D01*
X2522Y1927D01*
X2523Y1926D01*
X2524Y1925D01*
X2524Y1924D01*
X2525Y1923D01*
X2526Y1922D01*
X2527Y1921D01*
X2527Y1920D01*
X2528Y1919D01*
X2529Y1918D01*
X2529Y1917D01*
X2530Y1916D01*
X2531Y1915D01*
X2531Y1914D01*
X2532Y1913D01*
X2533Y1912D01*
X2533Y1911D01*
X2534Y1910D01*
X2535Y1909D01*
X2535Y1908D01*
X2536Y1907D01*
X2537Y1906D01*
X2537Y1905D01*
X2538Y1904D01*
X2538Y1903D01*
X2539Y1902D01*
X2540Y1901D01*
X2540Y1900D01*
X2541Y1899D01*
X2542Y1898D01*
X2542Y1897D01*
X2543Y1896D01*
X2543Y1895D01*
X2544Y1894D01*
X2544Y1893D01*
X2545Y1892D01*
X2546Y1891D01*
X2546Y1890D01*
X2547Y1889D01*
X2547Y1888D01*
X2548Y1887D01*
X2549Y1886D01*
X2549Y1885D01*
X2550Y1884D01*
X2550Y1883D01*
X2551Y1882D01*
X2551Y1881D01*
X2552Y1880D01*
X2552Y1879D01*
X2553Y1878D01*
X2553Y1877D01*
X2554Y1876D01*
X2554Y1875D01*
X2555Y1874D01*
X2555Y1873D01*
X2556Y1872D01*
X2556Y1871D01*
X2557Y1870D01*
X2557Y1869D01*
X2558Y1868D01*
X2558Y1867D01*
X2559Y1866D01*
X2559Y1865D01*
X2560Y1864D01*
X2560Y1863D01*
X2561Y1862D01*
X2561Y1861D01*
X2562Y1860D01*
X2562Y1859D01*
X2563Y1858D01*
X2563Y1856D01*
X2564Y1855D01*
X2564Y1854D01*
X2565Y1853D01*
X2565Y1852D01*
X2566Y1851D01*
X2566Y1850D01*
X2567Y1849D01*
X2567Y1847D01*
X2568Y1846D01*
X2568Y1845D01*
X2569Y1844D01*
X2569Y1842D01*
X2570Y1841D01*
X2570Y1840D01*
X2571Y1839D01*
X2571Y1837D01*
X2572Y1836D01*
X2572Y1835D01*
X2573Y1834D01*
X2573Y1832D01*
X2574Y1831D01*
X2574Y1829D01*
X2575Y1828D01*
X2575Y1826D01*
X2576Y1825D01*
X2576Y1823D01*
X2577Y1822D01*
X2577Y1820D01*
X2578Y1819D01*
X2578Y1817D01*
X2579Y1816D01*
X2579Y1814D01*
X2580Y1813D01*
X2580Y1811D01*
X2581Y1810D01*
X2581Y1808D01*
X2582Y1807D01*
X2582Y1804D01*
X2583Y1803D01*
X2583Y1801D01*
X2584Y1800D01*
X2584Y1797D01*
X2585Y1796D01*
X2585Y1793D01*
X2586Y1792D01*
X2586Y1789D01*
X2587Y1788D01*
X2587Y1785D01*
X2588Y1784D01*
X2588Y1780D01*
X2589Y1779D01*
X2589Y1775D01*
X2590Y1774D01*
X2590Y1770D01*
X2591Y1769D01*
X2591Y1764D01*
X2592Y1763D01*
X2592Y1758D01*
X2593Y1757D01*
X2593Y1751D01*
X2594Y1750D01*
X2594Y1743D01*
X2595Y1742D01*
X2595Y1733D01*
X2596Y1732D01*
X2596Y1719D01*
X2597Y1718D01*
X2597Y371D01*
X2596Y370D01*
X2596Y357D01*
X2595Y356D01*
X2595Y347D01*
X2594Y346D01*
X2594Y339D01*
X2593Y338D01*
X2593Y332D01*
X2592Y331D01*
X2592Y326D01*
X2591Y325D01*
X2591Y320D01*
X2590Y319D01*
X2590Y315D01*
X2589Y314D01*
X2589Y310D01*
X2588Y309D01*
X2588Y305D01*
X2587Y304D01*
X2587Y301D01*
X2586Y300D01*
X2586Y297D01*
X2585Y296D01*
X2585Y293D01*
X2584Y292D01*
X2584Y289D01*
X2583Y288D01*
X2583Y286D01*
X2582Y285D01*
X2582Y282D01*
X2581Y281D01*
X2581Y279D01*
X2580Y278D01*
X2580Y276D01*
X2579Y275D01*
X2579Y273D01*
X2578Y272D01*
X2578Y270D01*
X2577Y269D01*
X2577Y267D01*
X2576Y266D01*
X2576Y264D01*
X2575Y263D01*
X2575Y261D01*
X2574Y260D01*
X2574Y258D01*
X2573Y257D01*
X2573Y255D01*
X2572Y254D01*
X2572Y253D01*
X2571Y252D01*
X2571Y250D01*
X2570Y249D01*
X2570Y248D01*
X2569Y247D01*
X2569Y245D01*
X2568Y244D01*
X2568Y243D01*
X2567Y242D01*
X2567Y240D01*
X2566Y239D01*
X2566Y238D01*
X2565Y237D01*
X2565Y236D01*
X2564Y235D01*
X2564Y234D01*
X2563Y233D01*
X2563Y231D01*
X2562Y230D01*
X2562Y229D01*
X2561Y228D01*
X2561Y227D01*
X2560Y226D01*
X2560Y225D01*
X2559Y224D01*
X2559Y223D01*
X2558Y222D01*
X2558Y221D01*
X2557Y220D01*
X2557Y219D01*
X2556Y218D01*
X2556Y217D01*
X2555Y216D01*
X2555Y215D01*
X2554Y214D01*
X2554Y213D01*
X2553Y212D01*
X2553Y211D01*
X2552Y210D01*
X2552Y209D01*
X2551Y208D01*
X2551Y207D01*
X2550Y206D01*
X2550Y205D01*
X2549Y204D01*
X2549Y203D01*
X2548Y202D01*
X2547Y201D01*
X2547Y200D01*
X2546Y199D01*
X2546Y198D01*
X2545Y197D01*
X2544Y196D01*
X2544Y195D01*
X2543Y194D01*
X2543Y193D01*
X2542Y192D01*
X2542Y191D01*
X2541Y190D01*
X2540Y189D01*
X2540Y188D01*
X2539Y187D01*
X2538Y186D01*
X2538Y185D01*
X2537Y184D01*
X2537Y183D01*
X2536Y182D01*
X2535Y181D01*
X2535Y180D01*
X2534Y179D01*
X2533Y178D01*
X2533Y177D01*
X2532Y176D01*
X2531Y175D01*
X2531Y174D01*
X2530Y173D01*
X2529Y172D01*
X2529Y171D01*
X2528Y170D01*
X2527Y169D01*
X2527Y168D01*
X2526Y167D01*
X2525Y166D01*
X2524Y165D01*
X2524Y164D01*
X2523Y163D01*
X2522Y162D01*
X2521Y161D01*
X2521Y160D01*
X2520Y159D01*
X2519Y158D01*
X2519Y157D01*
X2518Y156D01*
X2517Y155D01*
X2516Y154D01*
X2515Y153D01*
X2515Y152D01*
X2514Y151D01*
X2513Y150D01*
X2512Y149D01*
X2511Y148D01*
X2511Y147D01*
X2510Y146D01*
X2509Y145D01*
X2508Y144D01*
X2507Y143D01*
X2507Y142D01*
X2506Y141D01*
X2505Y140D01*
X2504Y139D01*
X2503Y138D01*
X2502Y137D01*
X2501Y136D01*
X2500Y135D01*
X2500Y134D01*
X2499Y133D01*
X2498Y132D01*
X2497Y131D01*
X2496Y130D01*
X2495Y129D01*
X2494Y128D01*
X2493Y127D01*
X2492Y126D01*
X2491Y125D01*
X2490Y124D01*
X2489Y123D01*
X2489Y122D01*
X2488Y121D01*
X2487Y120D01*
X2486Y119D01*
X2485Y118D01*
X2484Y117D01*
X2483Y116D01*
X2482Y115D01*
X2481Y114D01*
X2480Y113D01*
X2479Y112D01*
X2478Y111D01*
X2477Y111D01*
X2476Y110D01*
X2475Y109D01*
X2474Y108D01*
X2473Y107D01*
X2472Y106D01*
X2471Y105D01*
X2470Y104D01*
X2469Y103D01*
X2468Y102D01*
X2467Y101D01*
X2466Y100D01*
X2465Y100D01*
X2464Y99D01*
X2463Y98D01*
X2462Y97D01*
X2461Y96D01*
X2460Y95D01*
X2459Y94D01*
X2458Y94D01*
X2457Y93D01*
X2456Y92D01*
X2455Y91D01*
X2454Y90D01*
X2453Y89D01*
X2452Y89D01*
X2451Y88D01*
X2450Y87D01*
X2449Y86D01*
X2448Y86D01*
X2447Y85D01*
X2446Y84D01*
X2445Y83D01*
X2444Y82D01*
X2443Y82D01*
X2442Y81D01*
X2441Y80D01*
X2440Y79D01*
X2439Y79D01*
X2438Y78D01*
X2437Y77D01*
X2436Y77D01*
X2435Y76D01*
X2434Y75D01*
X2433Y74D01*
X2432Y74D01*
X2431Y73D01*
X2430Y72D01*
X2429Y72D01*
X2428Y71D01*
X2427Y70D01*
X2426Y69D01*
X2425Y69D01*
X2424Y68D01*
X2423Y67D01*
X2422Y67D01*
X2421Y66D01*
X2420Y66D01*
X2419Y65D01*
X2418Y64D01*
X2417Y64D01*
X2416Y63D01*
X2415Y62D01*
X2414Y62D01*
X2413Y61D01*
X2412Y60D01*
X2411Y60D01*
X2410Y59D01*
X2409Y59D01*
X2408Y58D01*
X2407Y57D01*
X2406Y57D01*
X2405Y56D01*
X2404Y56D01*
X2403Y55D01*
X2402Y55D01*
X2401Y54D01*
X2400Y53D01*
X2399Y53D01*
X2398Y52D01*
X2397Y52D01*
X2396Y51D01*
X2395Y51D01*
X2394Y50D01*
X2393Y49D01*
X2392Y49D01*
X2391Y48D01*
X2390Y48D01*
X2389Y47D01*
X2388Y47D01*
X2387Y46D01*
X2386Y46D01*
X2385Y45D01*
X2384Y45D01*
X2383Y44D01*
X2382Y44D01*
X2381Y43D01*
X2380Y43D01*
X2379Y42D01*
X2378Y42D01*
X2377Y41D01*
X2376Y41D01*
X2375Y40D01*
X2374Y40D01*
X2373Y39D01*
X2372Y39D01*
X2371Y39D01*
X2370Y38D01*
X2369Y38D01*
X2368Y37D01*
X2367Y37D01*
X2366Y36D01*
X2365Y36D01*
X2364Y35D01*
X2363Y35D01*
X2362Y34D01*
X2361Y34D01*
X2360Y34D01*
X2359Y33D01*
X2358Y33D01*
X2357Y32D01*
X2356Y32D01*
X2355Y32D01*
X2354Y31D01*
X2353Y31D01*
X2352Y30D01*
X2351Y30D01*
X2350Y30D01*
X2349Y29D01*
X2348Y29D01*
X2347Y28D01*
X2346Y28D01*
X2345Y28D01*
X2344Y27D01*
X2343Y27D01*
X2342Y26D01*
X2341Y26D01*
X2340Y26D01*
X2339Y25D01*
X2338Y25D01*
X2337Y25D01*
X2336Y24D01*
X2335Y24D01*
X2334Y24D01*
X2333Y23D01*
X2332Y23D01*
X2331Y23D01*
X2330Y22D01*
X2329Y22D01*
X2328Y22D01*
X2327Y21D01*
X2326Y21D01*
X2325Y21D01*
X2324Y20D01*
X2323Y20D01*
X2322Y20D01*
X2321Y19D01*
X2320Y19D01*
X2319Y19D01*
X2318Y18D01*
X2317Y18D01*
X2316Y18D01*
X2315Y18D01*
X2314Y17D01*
X2313Y17D01*
X2312Y17D01*
X2311Y16D01*
X2310Y16D01*
X2309Y16D01*
X2308Y16D01*
X2307Y15D01*
X2306Y15D01*
X2305Y15D01*
X2304Y15D01*
X2303Y14D01*
X2302Y14D01*
X2301Y14D01*
X2300Y14D01*
X2299Y13D01*
X2298Y13D01*
X2297Y13D01*
X2296Y13D01*
X2295Y12D01*
X2294Y12D01*
X2293Y12D01*
X2292Y12D01*
X2291Y11D01*
X2290Y11D01*
X2289Y11D01*
X2288Y11D01*
X2287Y11D01*
X2286Y10D01*
X2285Y10D01*
X2284Y10D01*
X2283Y10D01*
X2282Y10D01*
X2281Y9D01*
X2280Y9D01*
X2279Y9D01*
X2278Y9D01*
X2277Y9D01*
X2276Y8D01*
X2275Y8D01*
X2274Y8D01*
X2273Y8D01*
X2272Y8D01*
X2271Y8D01*
X2270Y7D01*
X2269Y7D01*
X2268Y7D01*
X2267Y7D01*
X2266Y7D01*
X2265Y7D01*
X2264Y6D01*
X2263Y6D01*
X2262Y6D01*
X2261Y6D01*
X2260Y6D01*
X2259Y6D01*
X2258Y6D01*
X2257Y5D01*
X2256Y5D01*
X2255Y5D01*
X2254Y5D01*
X2253Y5D01*
X2252Y5D01*
X2251Y5D01*
X2250Y5D01*
X2249Y4D01*
X2248Y4D01*
X2247Y4D01*
X2246Y4D01*
X2245Y4D01*
X2244Y4D01*
X2243Y4D01*
X2242Y4D01*
X2241Y4D01*
X2240Y4D01*
X2239Y3D01*
X2238Y3D01*
X2237Y3D01*
X2236Y3D01*
X2235Y3D01*
X2234Y3D01*
X2233Y3D01*
X2232Y3D01*
X2231Y3D01*
X2230Y3D01*
X2229Y3D01*
X2228Y3D01*
X2227Y3D01*
X2226Y3D01*
X2225Y2D01*
X2224Y2D01*
X2223Y2D01*
X2222Y2D01*
X2221Y2D01*
X2220Y2D01*
X2219Y2D01*
X2218Y2D01*
X2217Y2D01*
X2216Y2D01*
X2215Y2D01*
X2214Y2D01*
X2213Y2D01*
X2212Y2D01*
X2211Y2D01*
X2210Y2D01*
X2209Y2D01*
X2208Y2D01*
X2207Y2D01*
X2206Y2D01*
X2205Y2D01*
X2204Y2D01*
X2203Y2D01*
X2202Y2D01*
X2201Y2D01*
X2200Y2D01*
X2199Y2D01*
X2198Y2D01*
X2197Y2D01*
X2196Y2D01*
X2195Y2D01*
X2194Y2D01*
X2193Y2D01*
X2192Y2D01*
X2191Y2D01*
X2190Y2D01*
X2189Y2D01*
X2188Y2D01*
X2187Y2D01*
X2186Y2D01*
X2185Y2D01*
X2184Y2D01*
X2183Y2D01*
X2182Y2D01*
X2181Y2D01*
X2180Y2D01*
X2179Y2D01*
X2178Y2D01*
X2177Y2D01*
X2176Y2D01*
X2175Y2D01*
X2174Y2D01*
X2173Y2D01*
X2172Y2D01*
X2171Y2D01*
X2170Y2D01*
X2169Y2D01*
X2168Y2D01*
X2167Y2D01*
X2166Y2D01*
X2165Y2D01*
X2164Y2D01*
X2163Y2D01*
X2162Y2D01*
X2161Y2D01*
X2160Y2D01*
X2159Y2D01*
X2158Y2D01*
X2157Y2D01*
X2156Y2D01*
X2155Y2D01*
X2154Y2D01*
X2153Y2D01*
X2152Y2D01*
X2151Y2D01*
X2150Y2D01*
X2149Y2D01*
X2148Y2D01*
X2147Y2D01*
X2146Y2D01*
X2145Y2D01*
X2144Y2D01*
X2143Y2D01*
X2142Y2D01*
X2141Y2D01*
X2140Y2D01*
X2139Y2D01*
X2138Y2D01*
X2137Y2D01*
X2136Y2D01*
X2135Y2D01*
X2134Y2D01*
X2133Y2D01*
X2132Y2D01*
X2131Y2D01*
X2130Y2D01*
X2129Y2D01*
X2128Y2D01*
X2127Y2D01*
X2126Y2D01*
X2125Y2D01*
X2124Y2D01*
X2123Y2D01*
X2122Y2D01*
X2121Y2D01*
X2120Y2D01*
X2119Y2D01*
X2118Y2D01*
X2117Y2D01*
X2116Y2D01*
X2115Y2D01*
X2114Y2D01*
X2113Y2D01*
X2112Y2D01*
X2111Y2D01*
X2110Y2D01*
X2109Y2D01*
X2108Y2D01*
X2107Y2D01*
X2106Y2D01*
X2105Y2D01*
X2104Y2D01*
X2103Y2D01*
X2102Y2D01*
X2101Y2D01*
X2100Y2D01*
X2099Y2D01*
X2098Y2D01*
X2097Y2D01*
X2096Y2D01*
X2095Y2D01*
X2094Y2D01*
X2093Y2D01*
X2092Y2D01*
X2091Y2D01*
X2090Y2D01*
X2089Y2D01*
X2088Y2D01*
X2087Y2D01*
X2086Y2D01*
X2085Y2D01*
X2084Y2D01*
X2083Y2D01*
X2082Y2D01*
X2081Y2D01*
X2080Y2D01*
X2079Y2D01*
X2078Y2D01*
X2077Y2D01*
X2076Y2D01*
X2075Y2D01*
X2074Y2D01*
X2073Y2D01*
X2072Y2D01*
X2071Y2D01*
X2070Y2D01*
X2069Y2D01*
X2068Y2D01*
X2067Y2D01*
X2066Y2D01*
X2065Y2D01*
X2064Y2D01*
X2063Y2D01*
X2062Y2D01*
X2061Y2D01*
X2060Y2D01*
X2059Y2D01*
X2058Y2D01*
X2057Y2D01*
X2056Y2D01*
X2055Y2D01*
X2054Y2D01*
X2053Y2D01*
X2052Y2D01*
X2051Y2D01*
X2050Y2D01*
X2049Y2D01*
X2048Y2D01*
X2047Y2D01*
X2046Y2D01*
X2045Y2D01*
X2044Y2D01*
X2043Y2D01*
X2042Y2D01*
X2041Y2D01*
X2040Y2D01*
X2039Y2D01*
X2038Y2D01*
X2037Y2D01*
X2036Y2D01*
X2035Y2D01*
X2034Y2D01*
X2033Y2D01*
X2032Y2D01*
X2031Y2D01*
X2030Y2D01*
X2029Y2D01*
X2028Y2D01*
X2027Y2D01*
X2026Y2D01*
X2025Y2D01*
X2024Y2D01*
X2023Y2D01*
X2022Y2D01*
X2021Y2D01*
X2020Y2D01*
X2019Y2D01*
X2018Y2D01*
X2017Y2D01*
X2016Y2D01*
X2015Y2D01*
X2014Y2D01*
X2013Y2D01*
X2012Y2D01*
X2011Y2D01*
X2010Y2D01*
X2009Y2D01*
X2008Y2D01*
X2007Y2D01*
X2006Y2D01*
X2005Y2D01*
X2004Y2D01*
X2003Y2D01*
X2002Y2D01*
X2001Y2D01*
X2000Y2D01*
X1999Y2D01*
X1998Y2D01*
X1997Y2D01*
X1996Y2D01*
X1995Y2D01*
X1994Y2D01*
X1993Y2D01*
X1992Y2D01*
X1991Y2D01*
X1990Y2D01*
X1989Y2D01*
X1988Y2D01*
X1987Y2D01*
X1986Y2D01*
X1985Y2D01*
X1984Y2D01*
X1983Y2D01*
X1982Y2D01*
X1981Y2D01*
X1980Y2D01*
X1979Y2D01*
X1978Y2D01*
X1977Y2D01*
X1976Y2D01*
X1975Y2D01*
X1974Y2D01*
X1973Y2D01*
X1972Y2D01*
X1971Y2D01*
X1970Y2D01*
X1969Y2D01*
X1968Y2D01*
X1967Y2D01*
X1966Y2D01*
X1965Y2D01*
X1964Y2D01*
X1963Y2D01*
X1962Y2D01*
X1961Y2D01*
X1960Y2D01*
X1959Y2D01*
X1958Y2D01*
X1957Y2D01*
X1956Y2D01*
X1955Y2D01*
X1954Y2D01*
X1953Y2D01*
X1952Y2D01*
X1951Y2D01*
X1950Y2D01*
X1949Y2D01*
X1948Y2D01*
X1947Y2D01*
X1946Y2D01*
X1945Y2D01*
X1944Y2D01*
X1943Y2D01*
X1942Y2D01*
X1941Y2D01*
X1940Y2D01*
X1939Y2D01*
X1938Y2D01*
X1937Y2D01*
X1936Y2D01*
X1935Y2D01*
X1934Y2D01*
X1933Y2D01*
X1932Y2D01*
X1931Y2D01*
X1930Y2D01*
X1929Y2D01*
X1928Y2D01*
X1927Y2D01*
X1926Y2D01*
X1925Y2D01*
X1924Y2D01*
X1923Y2D01*
X1922Y2D01*
X1921Y2D01*
X1920Y2D01*
X1919Y2D01*
X1918Y2D01*
X1917Y2D01*
X1916Y2D01*
X1915Y2D01*
X1914Y2D01*
X1913Y2D01*
X1912Y2D01*
X1911Y2D01*
X1910Y2D01*
X1909Y2D01*
X1908Y2D01*
X1907Y2D01*
X1906Y2D01*
X1905Y2D01*
X1904Y2D01*
X1903Y2D01*
X1902Y2D01*
X1901Y2D01*
X1900Y2D01*
X1899Y2D01*
X1898Y2D01*
X1897Y2D01*
X1896Y2D01*
X1895Y2D01*
X1894Y2D01*
X1893Y2D01*
X1892Y2D01*
X1891Y2D01*
X1890Y2D01*
X1889Y2D01*
X1888Y2D01*
X1887Y2D01*
X1886Y2D01*
X1885Y2D01*
X1884Y2D01*
X1883Y2D01*
X1882Y2D01*
X1881Y2D01*
X1880Y2D01*
X1879Y2D01*
X1878Y2D01*
X1877Y2D01*
X1876Y2D01*
X1875Y2D01*
X1874Y2D01*
X1873Y2D01*
X1872Y2D01*
X1871Y2D01*
X1870Y2D01*
X1869Y2D01*
X1868Y2D01*
X1867Y2D01*
X1866Y2D01*
X1865Y2D01*
X1864Y2D01*
X1863Y2D01*
X1862Y2D01*
X1861Y2D01*
X1860Y2D01*
X1859Y2D01*
X1858Y2D01*
X1857Y2D01*
X1856Y2D01*
X1855Y2D01*
X1854Y2D01*
X1853Y2D01*
X1852Y2D01*
X1851Y2D01*
X1850Y2D01*
X1849Y2D01*
X1848Y2D01*
X1847Y2D01*
X1846Y2D01*
X1845Y2D01*
X1844Y2D01*
X1843Y2D01*
X1842Y2D01*
X1841Y2D01*
X1840Y2D01*
X1839Y2D01*
X1838Y2D01*
X1837Y2D01*
X1836Y2D01*
X1835Y2D01*
X1834Y2D01*
X1833Y2D01*
X1832Y2D01*
X1831Y2D01*
X1830Y2D01*
X1829Y2D01*
X1828Y2D01*
X1827Y2D01*
X1826Y2D01*
X1825Y2D01*
X1824Y2D01*
X1823Y2D01*
X1822Y2D01*
X1821Y2D01*
X1820Y2D01*
X1819Y2D01*
X1818Y2D01*
X1817Y2D01*
X1816Y2D01*
X1815Y2D01*
X1814Y2D01*
X1813Y2D01*
X1812Y2D01*
X1811Y2D01*
X1810Y2D01*
X1809Y2D01*
X1808Y2D01*
X1807Y2D01*
X1806Y2D01*
X1805Y2D01*
X1804Y2D01*
X1803Y2D01*
X1802Y2D01*
X1801Y2D01*
X1800Y2D01*
X1799Y2D01*
X1798Y2D01*
X1797Y2D01*
X1796Y2D01*
X1795Y2D01*
X1794Y2D01*
X1793Y2D01*
X1792Y2D01*
X1791Y2D01*
X1790Y2D01*
X1789Y2D01*
X1788Y2D01*
X1787Y2D01*
X1786Y2D01*
X1785Y2D01*
X1784Y2D01*
X1783Y2D01*
X1782Y2D01*
X1781Y2D01*
X1780Y2D01*
X1779Y2D01*
X1778Y2D01*
X1777Y2D01*
X1776Y2D01*
X1775Y2D01*
X1774Y2D01*
X1773Y2D01*
X1772Y2D01*
X1771Y2D01*
X1770Y2D01*
X1769Y2D01*
X1768Y2D01*
X1767Y2D01*
X1766Y2D01*
X1765Y2D01*
X1764Y2D01*
X1763Y2D01*
X1762Y2D01*
X1761Y2D01*
X1760Y2D01*
X1759Y2D01*
X1758Y2D01*
X1757Y2D01*
X1756Y2D01*
X1755Y2D01*
X1754Y2D01*
X1753Y2D01*
X1752Y2D01*
X1751Y2D01*
X1750Y2D01*
X1749Y2D01*
X1748Y2D01*
X1747Y2D01*
X1746Y2D01*
X1745Y2D01*
X1744Y2D01*
X1743Y2D01*
X1742Y2D01*
X1741Y2D01*
X1740Y2D01*
X1739Y2D01*
X1738Y2D01*
X1737Y2D01*
X1736Y2D01*
X1735Y2D01*
X1734Y2D01*
X1733Y2D01*
X1732Y2D01*
X1731Y2D01*
X1730Y2D01*
X1729Y2D01*
X1728Y2D01*
X1727Y2D01*
X1726Y2D01*
X1725Y2D01*
X1724Y2D01*
X1723Y2D01*
X1722Y2D01*
X1721Y2D01*
X1720Y2D01*
X1719Y2D01*
X1718Y2D01*
X1717Y2D01*
X1716Y2D01*
X1715Y2D01*
X1714Y2D01*
X1713Y2D01*
X1712Y2D01*
X1711Y2D01*
X1710Y2D01*
X1709Y2D01*
X1708Y2D01*
X1707Y2D01*
X1706Y2D01*
X1705Y2D01*
X1704Y2D01*
X1703Y2D01*
X1702Y2D01*
X1701Y2D01*
X1700Y2D01*
X1699Y2D01*
X1698Y2D01*
X1697Y2D01*
X1696Y2D01*
X1695Y2D01*
X1694Y2D01*
X1693Y2D01*
X1692Y2D01*
X1691Y2D01*
X1690Y2D01*
X1689Y2D01*
X1688Y2D01*
X1687Y2D01*
X1686Y2D01*
X1685Y2D01*
X1684Y2D01*
X1683Y2D01*
X1682Y2D01*
X1681Y2D01*
X1680Y2D01*
X1679Y2D01*
X1678Y2D01*
X1677Y2D01*
X1676Y2D01*
X1675Y2D01*
X1674Y2D01*
X1673Y2D01*
X1672Y2D01*
X1671Y2D01*
X1670Y2D01*
X1669Y2D01*
X1668Y2D01*
X1667Y2D01*
X1666Y2D01*
X1665Y2D01*
X1664Y2D01*
X1663Y2D01*
X1662Y2D01*
X1661Y2D01*
X1660Y2D01*
X1659Y2D01*
X1658Y2D01*
X1657Y2D01*
X1656Y2D01*
X1655Y2D01*
X1654Y2D01*
X1653Y2D01*
X1652Y2D01*
X1651Y2D01*
X1650Y2D01*
X1649Y2D01*
X1648Y2D01*
X1647Y2D01*
X1646Y2D01*
X1645Y2D01*
X1644Y2D01*
X1643Y2D01*
X1642Y2D01*
X1641Y2D01*
X1640Y2D01*
X1639Y2D01*
X1638Y2D01*
X1637Y2D01*
X1636Y2D01*
X1635Y2D01*
X1634Y2D01*
X1633Y2D01*
X1632Y2D01*
X1631Y2D01*
X1630Y2D01*
X1629Y2D01*
X1628Y2D01*
X1627Y2D01*
X1626Y2D01*
X1625Y2D01*
X1624Y2D01*
X1623Y2D01*
X1622Y2D01*
X1621Y2D01*
X1620Y2D01*
X1619Y2D01*
X1618Y2D01*
X1617Y2D01*
X1616Y2D01*
X1615Y2D01*
X1614Y2D01*
X1613Y2D01*
X1612Y2D01*
X1611Y2D01*
X1610Y2D01*
X1609Y2D01*
X1608Y2D01*
X1607Y2D01*
X1606Y2D01*
X1605Y2D01*
X1604Y2D01*
X1603Y2D01*
X1602Y2D01*
X1601Y2D01*
X1600Y2D01*
X1599Y2D01*
X1598Y2D01*
X1597Y2D01*
X1596Y2D01*
X1595Y2D01*
X1594Y2D01*
X1593Y2D01*
X1592Y2D01*
X1591Y2D01*
X1590Y2D01*
X1589Y2D01*
X1588Y2D01*
X1587Y2D01*
X1586Y2D01*
X1585Y2D01*
X1584Y2D01*
X1583Y2D01*
X1582Y2D01*
X1581Y2D01*
X1580Y2D01*
X1579Y2D01*
X1578Y2D01*
X1577Y2D01*
X1576Y2D01*
X1575Y2D01*
X1574Y2D01*
X1573Y2D01*
X1572Y2D01*
X1571Y2D01*
X1570Y2D01*
X1569Y2D01*
X1568Y2D01*
X1567Y2D01*
X1566Y2D01*
X1565Y2D01*
X1564Y2D01*
X1563Y2D01*
X1562Y2D01*
X1561Y2D01*
X1560Y2D01*
X1559Y2D01*
X1558Y2D01*
X1557Y2D01*
X1556Y2D01*
X1555Y2D01*
X1554Y2D01*
X1553Y2D01*
X1552Y2D01*
X1551Y2D01*
X1550Y2D01*
X1549Y2D01*
X1548Y2D01*
X1547Y2D01*
X1546Y2D01*
X1545Y2D01*
X1544Y2D01*
X1543Y2D01*
X1542Y2D01*
X1541Y2D01*
X1540Y2D01*
X1539Y2D01*
X1538Y2D01*
X1537Y2D01*
X1536Y2D01*
X1535Y2D01*
X1534Y2D01*
X1533Y2D01*
X1532Y2D01*
X1531Y2D01*
X1530Y2D01*
X1529Y2D01*
X1528Y2D01*
X1527Y2D01*
X1526Y2D01*
X1525Y2D01*
X1524Y2D01*
X1523Y2D01*
X1522Y2D01*
X1521Y2D01*
X1520Y2D01*
X1519Y2D01*
X1518Y2D01*
X1517Y2D01*
X1516Y2D01*
X1515Y2D01*
X1514Y2D01*
X1513Y2D01*
X1512Y2D01*
X1511Y2D01*
X1510Y2D01*
X1509Y2D01*
X1508Y2D01*
X1507Y2D01*
X1506Y2D01*
X1505Y2D01*
X1504Y2D01*
X1503Y2D01*
X1502Y2D01*
X1501Y2D01*
X1500Y2D01*
X1499Y2D01*
X1498Y2D01*
X1497Y2D01*
X1496Y2D01*
X1495Y2D01*
X1494Y2D01*
X1493Y2D01*
X1492Y2D01*
X1491Y2D01*
X1490Y2D01*
X1489Y2D01*
X1488Y2D01*
X1487Y2D01*
X1486Y2D01*
X1485Y2D01*
X1484Y2D01*
X1483Y2D01*
X1482Y2D01*
X1481Y2D01*
X1480Y2D01*
X1479Y2D01*
X1478Y2D01*
X1477Y2D01*
X1476Y2D01*
X1475Y2D01*
X1474Y2D01*
X1473Y2D01*
X1472Y2D01*
X1471Y2D01*
X1470Y2D01*
X1469Y2D01*
X1468Y2D01*
X1467Y2D01*
X1466Y2D01*
X1465Y2D01*
X1464Y2D01*
X1463Y2D01*
X1462Y2D01*
X1461Y2D01*
X1460Y2D01*
X1459Y2D01*
X1458Y2D01*
X1457Y2D01*
X1456Y2D01*
X1455Y2D01*
X1454Y2D01*
X1453Y2D01*
X1452Y2D01*
X1451Y2D01*
X1450Y2D01*
X1449Y2D01*
X1448Y2D01*
X1447Y2D01*
X1446Y2D01*
X1445Y2D01*
X1444Y2D01*
X1443Y2D01*
X1442Y2D01*
X1441Y2D01*
X1440Y2D01*
X1439Y2D01*
X1438Y2D01*
X1437Y2D01*
X1436Y2D01*
X1435Y2D01*
X1434Y2D01*
X1433Y2D01*
X1432Y2D01*
X1431Y2D01*
X1430Y2D01*
X1429Y2D01*
X1428Y2D01*
X1427Y2D01*
X1426Y2D01*
X1425Y2D01*
X1424Y2D01*
X1423Y2D01*
X1422Y2D01*
X1421Y2D01*
X1420Y2D01*
X1419Y2D01*
X1418Y2D01*
X1417Y2D01*
X1416Y2D01*
X1415Y2D01*
X1414Y2D01*
X1413Y2D01*
X1412Y2D01*
X1411Y2D01*
X1410Y2D01*
X1409Y2D01*
X1408Y2D01*
X1407Y2D01*
X1406Y2D01*
X1405Y2D01*
X1404Y2D01*
X1403Y2D01*
X1402Y2D01*
X1401Y2D01*
X1400Y2D01*
X1399Y2D01*
X1398Y2D01*
X1397Y2D01*
X1396Y2D01*
X1395Y2D01*
X1394Y2D01*
X1393Y2D01*
X1392Y2D01*
X1391Y2D01*
X1390Y2D01*
X1389Y2D01*
X1388Y2D01*
X1387Y2D01*
X1386Y2D01*
X1385Y2D01*
X1384Y2D01*
X1383Y2D01*
X1382Y2D01*
X1381Y2D01*
X1380Y2D01*
X1379Y2D01*
X1378Y2D01*
X1377Y2D01*
X1376Y2D01*
X1375Y2D01*
X1374Y2D01*
X1373Y2D01*
X1372Y2D01*
X1371Y2D01*
X1370Y2D01*
X1369Y2D01*
X1368Y2D01*
X1367Y2D01*
X1366Y2D01*
X1365Y2D01*
X1364Y2D01*
X1363Y2D01*
X1362Y2D01*
X1361Y2D01*
X1360Y2D01*
X1359Y2D01*
X1358Y2D01*
X1357Y2D01*
X1356Y2D01*
X1355Y2D01*
X1354Y2D01*
X1353Y2D01*
X1352Y2D01*
X1351Y2D01*
X1350Y2D01*
X1349Y2D01*
X1348Y2D01*
X1347Y2D01*
X1346Y2D01*
X1345Y2D01*
X1344Y2D01*
X1343Y2D01*
X1342Y2D01*
X1341Y2D01*
X1340Y2D01*
X1339Y2D01*
X1338Y2D01*
X1337Y2D01*
X1336Y2D01*
X1335Y2D01*
X1334Y2D01*
X1333Y2D01*
X1332Y2D01*
X1331Y2D01*
X1330Y2D01*
X1329Y2D01*
X1328Y2D01*
X1327Y2D01*
X1326Y2D01*
X1325Y2D01*
X1324Y2D01*
X1323Y2D01*
X1322Y2D01*
X1321Y2D01*
X1320Y2D01*
X1319Y2D01*
X1318Y2D01*
X1317Y2D01*
X1316Y2D01*
X1315Y2D01*
X1314Y2D01*
X1313Y2D01*
X1312Y2D01*
X1311Y2D01*
X1310Y2D01*
X1309Y2D01*
X1308Y2D01*
X1307Y2D01*
X1306Y2D01*
X1305Y2D01*
X1304Y2D01*
X1303Y2D01*
X1302Y2D01*
X1301Y2D01*
X1300Y2D01*
X1299Y2D01*
X1298Y2D01*
X1297Y2D01*
X1296Y2D01*
X1295Y2D01*
X1294Y2D01*
X1293Y2D01*
X1292Y2D01*
X1291Y2D01*
X1290Y2D01*
X1289Y2D01*
X1288Y2D01*
X1287Y2D01*
X1286Y2D01*
X1285Y2D01*
X1284Y2D01*
X1283Y2D01*
X1282Y2D01*
X1281Y2D01*
X1280Y2D01*
X1279Y2D01*
X1278Y2D01*
X1277Y2D01*
X1276Y2D01*
X1275Y2D01*
X1274Y2D01*
X1273Y2D01*
X1272Y2D01*
X1271Y2D01*
X1270Y2D01*
X1269Y2D01*
X1268Y2D01*
X1267Y2D01*
X1266Y2D01*
X1265Y2D01*
X1264Y2D01*
X1263Y2D01*
X1262Y2D01*
X1261Y2D01*
X1260Y2D01*
X1259Y2D01*
X1258Y2D01*
X1257Y2D01*
X1256Y2D01*
X1255Y2D01*
X1254Y2D01*
X1253Y2D01*
X1252Y2D01*
X1251Y2D01*
X1250Y2D01*
X1249Y2D01*
X1248Y2D01*
X1247Y2D01*
X1246Y2D01*
X1245Y2D01*
X1244Y2D01*
X1243Y2D01*
X1242Y2D01*
X1241Y2D01*
X1240Y2D01*
X1239Y2D01*
X1238Y2D01*
X1237Y2D01*
X1236Y2D01*
X1235Y2D01*
X1234Y2D01*
X1233Y2D01*
X1232Y2D01*
X1231Y2D01*
X1230Y2D01*
X1229Y2D01*
X1228Y2D01*
X1227Y2D01*
X1226Y2D01*
X1225Y2D01*
X1224Y2D01*
X1223Y2D01*
X1222Y2D01*
X1221Y2D01*
X1220Y2D01*
X1219Y2D01*
X1218Y2D01*
X1217Y2D01*
X1216Y2D01*
X1215Y2D01*
X1214Y2D01*
X1213Y2D01*
X1212Y2D01*
X1211Y2D01*
X1210Y2D01*
X1209Y2D01*
X1208Y2D01*
X1207Y2D01*
X1206Y2D01*
X1205Y2D01*
X1204Y2D01*
X1203Y2D01*
X1202Y2D01*
X1201Y2D01*
X1200Y2D01*
X1199Y2D01*
X1198Y2D01*
X1197Y2D01*
X1196Y2D01*
X1195Y2D01*
X1194Y2D01*
X1193Y2D01*
X1192Y2D01*
X1191Y2D01*
X1190Y2D01*
X1189Y2D01*
X1188Y2D01*
X1187Y2D01*
X1186Y2D01*
X1185Y2D01*
X1184Y2D01*
X1183Y2D01*
X1182Y2D01*
X1181Y2D01*
X1180Y2D01*
X1179Y2D01*
X1178Y2D01*
X1177Y2D01*
X1176Y2D01*
X1175Y2D01*
X1174Y2D01*
X1173Y2D01*
X1172Y2D01*
X1171Y2D01*
X1170Y2D01*
X1169Y2D01*
X1168Y2D01*
X1167Y2D01*
X1166Y2D01*
X1165Y2D01*
X1164Y2D01*
X1163Y2D01*
X1162Y2D01*
X1161Y2D01*
X1160Y2D01*
X1159Y2D01*
X1158Y2D01*
X1157Y2D01*
X1156Y2D01*
X1155Y2D01*
X1154Y2D01*
X1153Y2D01*
X1152Y2D01*
X1151Y2D01*
X1150Y2D01*
X1149Y2D01*
X1148Y2D01*
X1147Y2D01*
X1146Y2D01*
X1145Y2D01*
X1144Y2D01*
X1143Y2D01*
X1142Y2D01*
X1141Y2D01*
X1140Y2D01*
X1139Y2D01*
X1138Y2D01*
X1137Y2D01*
X1136Y2D01*
X1135Y2D01*
X1134Y2D01*
X1133Y2D01*
X1132Y2D01*
X1131Y2D01*
X1130Y2D01*
X1129Y2D01*
X1128Y2D01*
X1127Y2D01*
X1126Y2D01*
X1125Y2D01*
X1124Y2D01*
X1123Y2D01*
X1122Y2D01*
X1121Y2D01*
X1120Y2D01*
X1119Y2D01*
X1118Y2D01*
X1117Y2D01*
X1116Y2D01*
X1115Y2D01*
X1114Y2D01*
X1113Y2D01*
X1112Y2D01*
X1111Y2D01*
X1110Y2D01*
X1109Y2D01*
X1108Y2D01*
X1107Y2D01*
X1106Y2D01*
X1105Y2D01*
X1104Y2D01*
X1103Y2D01*
X1102Y2D01*
X1101Y2D01*
X1100Y2D01*
X1099Y2D01*
X1098Y2D01*
X1097Y2D01*
X1096Y2D01*
X1095Y2D01*
X1094Y2D01*
X1093Y2D01*
X1092Y2D01*
X1091Y2D01*
X1090Y2D01*
X1089Y2D01*
X1088Y2D01*
X1087Y2D01*
X1086Y2D01*
X1085Y2D01*
X1084Y2D01*
X1083Y2D01*
X1082Y2D01*
X1081Y2D01*
X1080Y2D01*
X1079Y2D01*
X1078Y2D01*
X1077Y2D01*
X1076Y2D01*
X1075Y2D01*
X1074Y2D01*
X1073Y2D01*
X1072Y2D01*
X1071Y2D01*
X1070Y2D01*
X1069Y2D01*
X1068Y2D01*
X1067Y2D01*
X1066Y2D01*
X1065Y2D01*
X1064Y2D01*
X1063Y2D01*
X1062Y2D01*
X1061Y2D01*
X1060Y2D01*
X1059Y2D01*
X1058Y2D01*
X1057Y2D01*
X1056Y2D01*
X1055Y2D01*
X1054Y2D01*
X1053Y2D01*
X1052Y2D01*
X1051Y2D01*
X1050Y2D01*
X1049Y2D01*
X1048Y2D01*
X1047Y2D01*
X1046Y2D01*
X1045Y2D01*
X1044Y2D01*
X1043Y2D01*
X1042Y2D01*
X1041Y2D01*
X1040Y2D01*
X1039Y2D01*
X1038Y2D01*
X1037Y2D01*
X1036Y2D01*
X1035Y2D01*
X1034Y2D01*
X1033Y2D01*
X1032Y2D01*
X1031Y2D01*
X1030Y2D01*
X1029Y2D01*
X1028Y2D01*
X1027Y2D01*
X1026Y2D01*
X1025Y2D01*
X1024Y2D01*
X1023Y2D01*
X1022Y2D01*
X1021Y2D01*
X1020Y2D01*
X1019Y2D01*
X1018Y2D01*
X1017Y2D01*
X1016Y2D01*
X1015Y2D01*
X1014Y2D01*
X1013Y2D01*
X1012Y2D01*
X1011Y2D01*
X1010Y2D01*
X1009Y2D01*
X1008Y2D01*
X1007Y2D01*
X1006Y2D01*
X1005Y2D01*
X1004Y2D01*
X1003Y2D01*
X1002Y2D01*
X1001Y2D01*
X1000Y2D01*
X999Y2D01*
X998Y2D01*
X997Y2D01*
X996Y2D01*
X995Y2D01*
X994Y2D01*
X993Y2D01*
X992Y2D01*
X991Y2D01*
X990Y2D01*
X989Y2D01*
X988Y2D01*
X987Y2D01*
X986Y2D01*
X985Y2D01*
X984Y2D01*
X983Y2D01*
X982Y2D01*
X981Y2D01*
X980Y2D01*
X979Y2D01*
X978Y2D01*
X977Y2D01*
X976Y2D01*
X975Y2D01*
X974Y2D01*
X973Y2D01*
X972Y2D01*
X971Y2D01*
X970Y2D01*
X969Y2D01*
X968Y2D01*
X967Y2D01*
X966Y2D01*
X965Y2D01*
X964Y2D01*
X963Y2D01*
X962Y2D01*
X961Y2D01*
X960Y2D01*
X959Y2D01*
X958Y2D01*
X957Y2D01*
X956Y2D01*
X955Y2D01*
X954Y2D01*
X953Y2D01*
X952Y2D01*
X951Y2D01*
X950Y2D01*
X949Y2D01*
X948Y2D01*
X947Y2D01*
X946Y2D01*
X945Y2D01*
X944Y2D01*
X943Y2D01*
X942Y2D01*
X941Y2D01*
X940Y2D01*
X939Y2D01*
X938Y2D01*
X937Y2D01*
X936Y2D01*
X935Y2D01*
X934Y2D01*
X933Y2D01*
X932Y2D01*
X931Y2D01*
X930Y2D01*
X929Y2D01*
X928Y2D01*
X927Y2D01*
X926Y2D01*
X925Y2D01*
X924Y2D01*
X923Y2D01*
X922Y2D01*
X921Y2D01*
X920Y2D01*
X919Y2D01*
X918Y2D01*
X917Y2D01*
X916Y2D01*
X915Y2D01*
X914Y2D01*
X913Y2D01*
X912Y2D01*
X911Y2D01*
X910Y2D01*
X909Y2D01*
X908Y2D01*
X907Y2D01*
X906Y2D01*
X905Y2D01*
X904Y2D01*
X903Y2D01*
X902Y2D01*
X901Y2D01*
X900Y2D01*
X899Y2D01*
X898Y2D01*
X897Y2D01*
X896Y2D01*
X895Y2D01*
X894Y2D01*
X893Y2D01*
X892Y2D01*
X891Y2D01*
X890Y2D01*
X889Y2D01*
X888Y2D01*
X887Y2D01*
X886Y2D01*
X885Y2D01*
X884Y2D01*
X883Y2D01*
X882Y2D01*
X881Y2D01*
X880Y2D01*
X879Y2D01*
X878Y2D01*
X877Y2D01*
X876Y2D01*
X875Y2D01*
X874Y2D01*
X873Y2D01*
X872Y2D01*
X871Y2D01*
X870Y2D01*
X869Y2D01*
X868Y2D01*
X867Y2D01*
X866Y2D01*
X865Y2D01*
X864Y2D01*
X863Y2D01*
X862Y2D01*
X861Y2D01*
X860Y2D01*
X859Y2D01*
X858Y2D01*
X857Y2D01*
X856Y2D01*
X855Y2D01*
X854Y2D01*
X853Y2D01*
X852Y2D01*
X851Y2D01*
X850Y2D01*
X849Y2D01*
X848Y2D01*
X847Y2D01*
X846Y2D01*
X845Y2D01*
X844Y2D01*
X843Y2D01*
X842Y2D01*
X841Y2D01*
X840Y2D01*
X839Y2D01*
X838Y2D01*
X837Y2D01*
X836Y2D01*
X835Y2D01*
X834Y2D01*
X833Y2D01*
X832Y2D01*
X831Y2D01*
X830Y2D01*
X829Y2D01*
X828Y2D01*
X827Y2D01*
X826Y2D01*
X825Y2D01*
X824Y2D01*
X823Y2D01*
X822Y2D01*
X821Y2D01*
X820Y2D01*
X819Y2D01*
X818Y2D01*
X817Y2D01*
X816Y2D01*
X815Y2D01*
X814Y2D01*
X813Y2D01*
X812Y2D01*
X811Y2D01*
X810Y2D01*
X809Y2D01*
X808Y2D01*
X807Y2D01*
X806Y2D01*
X805Y2D01*
X804Y2D01*
X803Y2D01*
X802Y2D01*
X801Y2D01*
X800Y2D01*
X799Y2D01*
X798Y2D01*
X797Y2D01*
X796Y2D01*
X795Y2D01*
X794Y2D01*
X793Y2D01*
X792Y2D01*
X791Y2D01*
X790Y2D01*
X789Y2D01*
X788Y2D01*
X787Y2D01*
X786Y2D01*
X785Y2D01*
X784Y2D01*
X783Y2D01*
X782Y2D01*
X781Y2D01*
X780Y2D01*
X779Y2D01*
X778Y2D01*
X777Y2D01*
X776Y2D01*
X775Y2D01*
X774Y2D01*
X773Y2D01*
X772Y2D01*
X771Y2D01*
X770Y2D01*
X769Y2D01*
X768Y2D01*
X767Y2D01*
X766Y2D01*
X765Y2D01*
X764Y2D01*
X763Y2D01*
X762Y2D01*
X761Y2D01*
X760Y2D01*
X759Y2D01*
X758Y2D01*
X757Y2D01*
X756Y2D01*
X755Y2D01*
X754Y2D01*
X753Y2D01*
X752Y2D01*
X751Y2D01*
X750Y2D01*
X749Y2D01*
X748Y2D01*
X747Y2D01*
X746Y2D01*
X745Y2D01*
X744Y2D01*
X743Y2D01*
X742Y2D01*
X741Y2D01*
X740Y2D01*
X739Y2D01*
X738Y2D01*
X737Y2D01*
X736Y2D01*
X735Y2D01*
X734Y2D01*
X733Y2D01*
X732Y2D01*
X731Y2D01*
X730Y2D01*
X729Y2D01*
X728Y2D01*
X727Y2D01*
X726Y2D01*
X725Y2D01*
X724Y2D01*
X723Y2D01*
X722Y2D01*
X721Y2D01*
X720Y2D01*
X719Y2D01*
X718Y2D01*
X717Y2D01*
X716Y2D01*
X715Y2D01*
X714Y2D01*
X713Y2D01*
X712Y2D01*
X711Y2D01*
X710Y2D01*
X709Y2D01*
X708Y2D01*
X707Y2D01*
X706Y2D01*
X705Y2D01*
X704Y2D01*
X703Y2D01*
X702Y2D01*
X701Y2D01*
X700Y2D01*
X699Y2D01*
X698Y2D01*
X697Y2D01*
X696Y2D01*
X695Y2D01*
X694Y2D01*
X693Y2D01*
X692Y2D01*
X691Y2D01*
X690Y2D01*
X689Y2D01*
X688Y2D01*
X687Y2D01*
X686Y2D01*
X685Y2D01*
X684Y2D01*
X683Y2D01*
X682Y2D01*
X681Y2D01*
X680Y2D01*
X679Y2D01*
X678Y2D01*
X677Y2D01*
X676Y2D01*
X675Y2D01*
X674Y2D01*
X673Y2D01*
X672Y2D01*
X671Y2D01*
X670Y2D01*
X669Y2D01*
X668Y2D01*
X667Y2D01*
X666Y2D01*
X665Y2D01*
X664Y2D01*
X663Y2D01*
X662Y2D01*
X661Y2D01*
X660Y2D01*
X659Y2D01*
X658Y2D01*
X657Y2D01*
X656Y2D01*
X655Y2D01*
X654Y2D01*
X653Y2D01*
X652Y2D01*
X651Y2D01*
X650Y2D01*
X649Y2D01*
X648Y2D01*
X647Y2D01*
X646Y2D01*
X645Y2D01*
X644Y2D01*
X643Y2D01*
X642Y2D01*
X641Y2D01*
X640Y2D01*
X639Y2D01*
X638Y2D01*
X637Y2D01*
X636Y2D01*
X635Y2D01*
X634Y2D01*
X633Y2D01*
X632Y2D01*
X631Y2D01*
X630Y2D01*
X629Y2D01*
X628Y2D01*
X627Y2D01*
X626Y2D01*
X625Y2D01*
X624Y2D01*
X623Y2D01*
X622Y2D01*
X621Y2D01*
X620Y2D01*
X619Y2D01*
X618Y2D01*
X617Y2D01*
X616Y2D01*
X615Y2D01*
X614Y2D01*
X613Y2D01*
X612Y2D01*
X611Y2D01*
X610Y2D01*
X609Y2D01*
X608Y2D01*
X607Y2D01*
X606Y2D01*
X605Y2D01*
X604Y2D01*
X603Y2D01*
X602Y2D01*
X601Y2D01*
X600Y2D01*
X599Y2D01*
X598Y2D01*
X597Y2D01*
X596Y2D01*
X595Y2D01*
X594Y2D01*
X593Y2D01*
X592Y2D01*
X591Y2D01*
X590Y2D01*
X589Y2D01*
X588Y2D01*
X587Y2D01*
X586Y2D01*
X585Y2D01*
X584Y2D01*
X583Y2D01*
X582Y2D01*
X581Y2D01*
X580Y2D01*
X579Y2D01*
X578Y2D01*
X577Y2D01*
X576Y2D01*
X575Y2D01*
X574Y2D01*
X573Y2D01*
X572Y2D01*
X571Y2D01*
X570Y2D01*
X569Y2D01*
X568Y2D01*
X567Y2D01*
X566Y2D01*
X565Y2D01*
X564Y2D01*
X563Y2D01*
X562Y2D01*
X561Y2D01*
X560Y2D01*
X559Y2D01*
X558Y2D01*
X557Y2D01*
X556Y2D01*
X555Y2D01*
X554Y2D01*
X553Y2D01*
X552Y2D01*
X551Y2D01*
X550Y2D01*
X549Y2D01*
X548Y2D01*
X547Y2D01*
X546Y2D01*
X545Y2D01*
X544Y2D01*
X543Y2D01*
X542Y2D01*
X541Y2D01*
X540Y2D01*
X539Y2D01*
X538Y2D01*
X537Y2D01*
X536Y2D01*
X535Y2D01*
X534Y2D01*
X533Y2D01*
X532Y2D01*
X531Y2D01*
X530Y2D01*
X529Y2D01*
X528Y2D01*
X527Y2D01*
X526Y2D01*
X525Y2D01*
X524Y2D01*
X523Y2D01*
X522Y2D01*
X521Y2D01*
X520Y2D01*
X519Y2D01*
X518Y2D01*
X517Y2D01*
X516Y2D01*
X515Y2D01*
X514Y2D01*
X513Y2D01*
X512Y2D01*
X511Y2D01*
X510Y2D01*
X509Y2D01*
X508Y2D01*
X507Y2D01*
X506Y2D01*
X505Y2D01*
X504Y2D01*
X503Y2D01*
X502Y2D01*
X501Y2D01*
X500Y2D01*
X499Y2D01*
X498Y2D01*
X497Y2D01*
X496Y2D01*
X495Y2D01*
X494Y2D01*
X493Y2D01*
X492Y2D01*
X491Y2D01*
X490Y2D01*
X489Y2D01*
X488Y2D01*
X487Y2D01*
X486Y2D01*
X485Y2D01*
X484Y2D01*
X483Y2D01*
X482Y2D01*
X481Y2D01*
X480Y2D01*
X479Y2D01*
X478Y2D01*
X477Y2D01*
X476Y2D01*
X475Y2D01*
X474Y2D01*
X473Y2D01*
X472Y2D01*
X471Y2D01*
X470Y2D01*
X469Y2D01*
X468Y2D01*
X467Y2D01*
X466Y2D01*
X465Y2D01*
X464Y2D01*
X463Y2D01*
X462Y2D01*
X461Y2D01*
X460Y2D01*
X459Y2D01*
X458Y2D01*
X457Y2D01*
X456Y2D01*
X455Y2D01*
X454Y2D01*
X453Y2D01*
X452Y2D01*
X451Y2D01*
X450Y2D01*
X449Y2D01*
X448Y2D01*
X447Y2D01*
X446Y2D01*
X445Y2D01*
X444Y2D01*
X443Y2D01*
X442Y2D01*
X441Y2D01*
X440Y2D01*
X439Y2D01*
X438Y2D01*
X437Y2D01*
X436Y2D01*
X435Y2D01*
X434Y2D01*
X433Y2D01*
X432Y2D01*
X431Y2D01*
X430Y2D01*
X429Y2D01*
X428Y2D01*
X427Y2D01*
X426Y2D01*
X425Y2D01*
X424Y2D01*
X423Y2D01*
X422Y2D01*
X421Y2D01*
X420Y2D01*
X419Y2D01*
X418Y2D01*
X417Y2D01*
X416Y2D01*
X415Y2D01*
X414Y2D01*
X413Y2D01*
X412Y2D01*
X411Y2D01*
X410Y2D01*
X409Y2D01*
X408Y2D01*
X407Y2D01*
X406Y2D01*
X405Y2D01*
X404Y2D01*
X403Y2D01*
X402Y2D01*
X401Y2D01*
X400Y2D01*
X399Y2D01*
X398Y2D01*
X397Y2D01*
X396Y2D01*
X395Y2D01*
X394Y2D01*
X393Y2D01*
X392Y2D01*
X391Y2D01*
X390Y2D01*
X389Y2D01*
X388Y2D01*
X387Y2D01*
X386Y2D01*
X385Y2D01*
X384Y2D01*
X383Y2D01*
X382Y2D01*
X381Y2D01*
X380Y2D01*
X379Y2D01*
X378Y2D01*
X377Y2D01*
X376Y2D01*
X375Y2D01*
X374Y2D01*
X373Y2D01*
X372Y2D01*
X371Y3D01*
X370Y3D01*
X369Y3D01*
X368Y3D01*
X367Y3D01*
X366Y3D01*
X365Y3D01*
X364Y3D01*
X363Y3D01*
X362Y3D01*
X361Y3D01*
X360Y3D01*
X359Y3D01*
X358Y3D01*
X357Y4D01*
X356Y4D01*
X355Y4D01*
X354Y4D01*
X353Y4D01*
X352Y4D01*
X351Y4D01*
X350Y4D01*
X349Y4D01*
X348Y4D01*
X347Y5D01*
X346Y5D01*
X345Y5D01*
X344Y5D01*
X343Y5D01*
X342Y5D01*
X341Y5D01*
X340Y5D01*
X339Y6D01*
X338Y6D01*
X337Y6D01*
X336Y6D01*
X335Y6D01*
X334Y6D01*
X333Y6D01*
X332Y7D01*
X331Y7D01*
X330Y7D01*
X329Y7D01*
X328Y7D01*
X327Y7D01*
X326Y8D01*
X325Y8D01*
X324Y8D01*
X323Y8D01*
X322Y8D01*
X321Y8D01*
X320Y9D01*
X319Y9D01*
X318Y9D01*
X317Y9D01*
X316Y9D01*
X315Y10D01*
X314Y10D01*
X313Y10D01*
X312Y10D01*
X311Y10D01*
X310Y11D01*
X309Y11D01*
X308Y11D01*
X307Y11D01*
X306Y11D01*
X305Y12D01*
X304Y12D01*
X303Y12D01*
X302Y12D01*
X301Y13D01*
X300Y13D01*
X299Y13D01*
X298Y13D01*
X297Y14D01*
X296Y14D01*
X295Y14D01*
X294Y14D01*
X293Y15D01*
X292Y15D01*
X291Y15D01*
X290Y15D01*
X289Y16D01*
X288Y16D01*
X287Y16D01*
X286Y16D01*
X285Y17D01*
X284Y17D01*
X283Y17D01*
X282Y18D01*
X281Y18D01*
X280Y18D01*
X279Y18D01*
X278Y19D01*
X277Y19D01*
X276Y19D01*
X275Y20D01*
X274Y20D01*
X273Y20D01*
X272Y21D01*
X271Y21D01*
X270Y21D01*
X269Y22D01*
X268Y22D01*
X267Y22D01*
X266Y23D01*
X265Y23D01*
X264Y23D01*
X263Y24D01*
X262Y24D01*
X261Y24D01*
X260Y25D01*
X259Y25D01*
X258Y25D01*
X257Y26D01*
X256Y26D01*
X255Y26D01*
X254Y27D01*
X253Y27D01*
X252Y28D01*
X251Y28D01*
X250Y28D01*
X249Y29D01*
X248Y29D01*
X247Y30D01*
X246Y30D01*
X245Y30D01*
X244Y31D01*
X243Y31D01*
X242Y32D01*
X241Y32D01*
X240Y32D01*
X239Y33D01*
X238Y33D01*
X237Y34D01*
X236Y34D01*
X235Y34D01*
X234Y35D01*
X233Y35D01*
X232Y36D01*
X231Y36D01*
X230Y37D01*
X229Y37D01*
X228Y38D01*
X227Y38D01*
X226Y39D01*
X225Y39D01*
X224Y39D01*
X223Y40D01*
X222Y40D01*
X221Y41D01*
X220Y41D01*
X219Y42D01*
X218Y42D01*
X217Y43D01*
X216Y43D01*
X215Y44D01*
X214Y44D01*
X213Y45D01*
X212Y45D01*
X211Y46D01*
X210Y46D01*
X209Y47D01*
X208Y47D01*
X207Y48D01*
X206Y48D01*
X205Y49D01*
X204Y49D01*
X203Y50D01*
X202Y51D01*
X201Y51D01*
X200Y52D01*
X199Y52D01*
X198Y53D01*
X197Y53D01*
X196Y54D01*
X195Y55D01*
X194Y55D01*
X193Y56D01*
X192Y56D01*
X191Y57D01*
X190Y57D01*
X189Y58D01*
X188Y59D01*
X187Y59D01*
X186Y60D01*
X185Y60D01*
X184Y61D01*
X183Y62D01*
X182Y62D01*
X181Y63D01*
X180Y64D01*
X179Y64D01*
X178Y65D01*
X177Y66D01*
X176Y66D01*
X175Y67D01*
X174Y67D01*
X173Y68D01*
X172Y69D01*
X171Y69D01*
X170Y70D01*
X169Y71D01*
X168Y72D01*
X167Y72D01*
X166Y73D01*
X165Y74D01*
X164Y74D01*
X163Y75D01*
X162Y76D01*
X161Y77D01*
X160Y77D01*
X159Y78D01*
X158Y79D01*
X157Y79D01*
X156Y80D01*
X155Y81D01*
X154Y82D01*
X153Y82D01*
X152Y83D01*
X151Y84D01*
X150Y85D01*
X149Y86D01*
X148Y86D01*
X147Y87D01*
X146Y88D01*
X145Y89D01*
X144Y89D01*
X143Y90D01*
X142Y91D01*
X141Y92D01*
X140Y93D01*
X139Y94D01*
X138Y94D01*
X137Y95D01*
X136Y96D01*
X135Y97D01*
X134Y98D01*
X133Y99D01*
X132Y100D01*
X131Y100D01*
X130Y101D01*
X129Y102D01*
X128Y103D01*
X127Y104D01*
X126Y105D01*
X125Y106D01*
X124Y107D01*
X123Y108D01*
X122Y109D01*
X121Y110D01*
X120Y111D01*
X119Y111D01*
X118Y112D01*
X117Y113D01*
X116Y114D01*
X115Y115D01*
X114Y116D01*
X113Y117D01*
X112Y118D01*
X111Y119D01*
X110Y120D01*
X109Y121D01*
X108Y122D01*
X108Y123D01*
X107Y124D01*
X106Y125D01*
X105Y126D01*
X104Y127D01*
X103Y128D01*
X102Y129D01*
X101Y130D01*
X100Y131D01*
X99Y132D01*
X98Y133D01*
X97Y134D01*
X97Y135D01*
X96Y136D01*
X95Y137D01*
X94Y138D01*
X93Y139D01*
X92Y140D01*
X91Y141D01*
X90Y142D01*
X90Y143D01*
X89Y144D01*
X88Y145D01*
X87Y146D01*
X86Y147D01*
X86Y148D01*
X85Y149D01*
X84Y150D01*
X83Y151D01*
X82Y152D01*
X82Y153D01*
X81Y154D01*
X80Y155D01*
X79Y156D01*
X78Y157D01*
X78Y158D01*
X77Y159D01*
X76Y160D01*
X76Y161D01*
X75Y162D01*
X74Y163D01*
X73Y164D01*
X73Y165D01*
X72Y166D01*
X71Y167D01*
X70Y168D01*
X70Y169D01*
X69Y170D01*
X68Y171D01*
X68Y172D01*
X67Y173D01*
X66Y174D01*
X66Y175D01*
X65Y176D01*
X64Y177D01*
X64Y178D01*
X63Y179D01*
X62Y180D01*
X62Y181D01*
X61Y182D01*
X60Y183D01*
X60Y184D01*
X59Y185D01*
X59Y186D01*
X58Y187D01*
X57Y188D01*
X57Y189D01*
X56Y190D01*
X55Y191D01*
X55Y192D01*
X54Y193D01*
X54Y194D01*
X53Y195D01*
X53Y196D01*
X52Y197D01*
X51Y198D01*
X51Y199D01*
X50Y200D01*
X50Y201D01*
X49Y202D01*
X48Y203D01*
X48Y204D01*
X47Y205D01*
X47Y206D01*
X46Y207D01*
X46Y208D01*
X45Y209D01*
X45Y210D01*
X44Y211D01*
X44Y212D01*
X43Y213D01*
X43Y214D01*
X42Y215D01*
X42Y216D01*
X41Y217D01*
X41Y218D01*
X40Y219D01*
X40Y220D01*
X39Y221D01*
X39Y222D01*
X38Y223D01*
X38Y224D01*
X37Y225D01*
X37Y226D01*
X36Y227D01*
X36Y228D01*
X35Y229D01*
X35Y230D01*
X34Y231D01*
X34Y233D01*
X33Y234D01*
X33Y235D01*
X32Y236D01*
X32Y237D01*
X31Y238D01*
X31Y239D01*
X30Y240D01*
X30Y242D01*
X29Y243D01*
X29Y244D01*
X28Y245D01*
X28Y247D01*
X27Y248D01*
X27Y249D01*
X26Y250D01*
X26Y252D01*
X25Y253D01*
X25Y254D01*
X24Y255D01*
X24Y257D01*
X23Y258D01*
X23Y260D01*
X22Y261D01*
X22Y263D01*
X21Y264D01*
X21Y266D01*
X20Y267D01*
X20Y269D01*
X19Y270D01*
X19Y272D01*
X18Y273D01*
X18Y275D01*
X17Y276D01*
X17Y278D01*
X16Y279D01*
X16Y281D01*
X15Y282D01*
X15Y285D01*
X14Y286D01*
X14Y288D01*
X13Y289D01*
X13Y292D01*
X12Y293D01*
X12Y296D01*
X11Y297D01*
X11Y300D01*
X10Y301D01*
X10Y304D01*
X9Y305D01*
X9Y309D01*
X8Y310D01*
X8Y314D01*
X7Y315D01*
X7Y319D01*
X6Y320D01*
X6Y325D01*
X5Y326D01*
X5Y331D01*
X4Y332D01*
X4Y338D01*
X3Y339D01*
X3Y346D01*
X2Y347D01*
X2Y356D01*
X1Y357D01*
X1Y370D01*
X0Y371D01*
X0Y1718D01*
X1Y1719D01*
X1Y1732D01*
X2Y1733D01*
X2Y1742D01*
X3Y1743D01*
X3Y1750D01*
X4Y1751D01*
X4Y1757D01*
X5Y1758D01*
X5Y1763D01*
X6Y1764D01*
X6Y1769D01*
X7Y1770D01*
X7Y1774D01*
X8Y1775D01*
X8Y1779D01*
X9Y1780D01*
X9Y1784D01*
X10Y1785D01*
X10Y1788D01*
X11Y1789D01*
X11Y1792D01*
X12Y1793D01*
X12Y1796D01*
X13Y1797D01*
X13Y1800D01*
X14Y1801D01*
X14Y1803D01*
X15Y1804D01*
X15Y1807D01*
X16Y1808D01*
X16Y1810D01*
X17Y1811D01*
X17Y1813D01*
X18Y1814D01*
X18Y1816D01*
X19Y1817D01*
X19Y1819D01*
X20Y1820D01*
X20Y1822D01*
X21Y1823D01*
X21Y1825D01*
X22Y1826D01*
X22Y1828D01*
X23Y1829D01*
X23Y1831D01*
X24Y1832D01*
X24Y1834D01*
X25Y1835D01*
X25Y1836D01*
X26Y1837D01*
X26Y1839D01*
X27Y1840D01*
X27Y1841D01*
X28Y1842D01*
X28Y1844D01*
X29Y1845D01*
X29Y1846D01*
X30Y1847D01*
X30Y1849D01*
X31Y1850D01*
X31Y1851D01*
X32Y1852D01*
X32Y1853D01*
X33Y1854D01*
X33Y1855D01*
X34Y1856D01*
X34Y1858D01*
X35Y1859D01*
X35Y1860D01*
X36Y1861D01*
X36Y1862D01*
X37Y1863D01*
X37Y1864D01*
X38Y1865D01*
X38Y1866D01*
X39Y1867D01*
X39Y1868D01*
X40Y1869D01*
X40Y1870D01*
X41Y1871D01*
X41Y1872D01*
X42Y1873D01*
X42Y1874D01*
X43Y1875D01*
X43Y1876D01*
X44Y1877D01*
X44Y1878D01*
X45Y1879D01*
X45Y1880D01*
X46Y1881D01*
X46Y1882D01*
X47Y1883D01*
X47Y1884D01*
X48Y1885D01*
X48Y1886D01*
X49Y1887D01*
X50Y1888D01*
X50Y1889D01*
X51Y1890D01*
X51Y1891D01*
X52Y1892D01*
X53Y1893D01*
X53Y1894D01*
X54Y1895D01*
X54Y1896D01*
X55Y1897D01*
X55Y1898D01*
X56Y1899D01*
X57Y1900D01*
X57Y1901D01*
X58Y1902D01*
X59Y1903D01*
X59Y1904D01*
X60Y1905D01*
X60Y1906D01*
X61Y1907D01*
X62Y1908D01*
X62Y1909D01*
X63Y1910D01*
X64Y1911D01*
X64Y1912D01*
X65Y1913D01*
X66Y1914D01*
X66Y1915D01*
X67Y1916D01*
X68Y1917D01*
X68Y1918D01*
X69Y1919D01*
X70Y1920D01*
X70Y1921D01*
X71Y1922D01*
X72Y1923D01*
X73Y1924D01*
X73Y1925D01*
X74Y1926D01*
X75Y1927D01*
X76Y1928D01*
X76Y1929D01*
X77Y1930D01*
X78Y1931D01*
X78Y1932D01*
X79Y1933D01*
X80Y1934D01*
X81Y1935D01*
X82Y1936D01*
X82Y1937D01*
X83Y1938D01*
X84Y1939D01*
X85Y1940D01*
X86Y1941D01*
X86Y1942D01*
X87Y1943D01*
X88Y1944D01*
X89Y1945D01*
X90Y1946D01*
X90Y1947D01*
X91Y1948D01*
X92Y1949D01*
X93Y1950D01*
X94Y1951D01*
X95Y1952D01*
X96Y1953D01*
X97Y1954D01*
X97Y1955D01*
X98Y1956D01*
X99Y1957D01*
X100Y1958D01*
X101Y1959D01*
X102Y1960D01*
X103Y1961D01*
X104Y1962D01*
X105Y1963D01*
X106Y1964D01*
X107Y1965D01*
X108Y1966D01*
X108Y1967D01*
X109Y1968D01*
X110Y1969D01*
X111Y1970D01*
X112Y1971D01*
X113Y1972D01*
X114Y1973D01*
X115Y1974D01*
X116Y1975D01*
X117Y1976D01*
X118Y1977D01*
X119Y1978D01*
X120Y1978D01*
X121Y1979D01*
X122Y1980D01*
X123Y1981D01*
X124Y1982D01*
X125Y1983D01*
X126Y1984D01*
X127Y1985D01*
X128Y1986D01*
X129Y1987D01*
X130Y1988D01*
X131Y1989D01*
X132Y1989D01*
X133Y1990D01*
X134Y1991D01*
X135Y1992D01*
X136Y1993D01*
X137Y1994D01*
X138Y1995D01*
X139Y1995D01*
X140Y1996D01*
X141Y1997D01*
X142Y1998D01*
X143Y1999D01*
X144Y2000D01*
X145Y2000D01*
X146Y2001D01*
X147Y2002D01*
X148Y2003D01*
X149Y2003D01*
X150Y2004D01*
X151Y2005D01*
X152Y2006D01*
X153Y2007D01*
X154Y2007D01*
X155Y2008D01*
X156Y2009D01*
X157Y2010D01*
X158Y2010D01*
X159Y2011D01*
X160Y2012D01*
X161Y2012D01*
X162Y2013D01*
X163Y2014D01*
X164Y2015D01*
X165Y2015D01*
X166Y2016D01*
X167Y2017D01*
X168Y2017D01*
X169Y2018D01*
X170Y2019D01*
X171Y2020D01*
X172Y2020D01*
X173Y2021D01*
X174Y2022D01*
X175Y2022D01*
X176Y2023D01*
X177Y2023D01*
X178Y2024D01*
X179Y2025D01*
X180Y2025D01*
X181Y2026D01*
X182Y2027D01*
X183Y2027D01*
X184Y2028D01*
X185Y2029D01*
X186Y2029D01*
X187Y2030D01*
X188Y2030D01*
X189Y2031D01*
X190Y2032D01*
X191Y2032D01*
X192Y2033D01*
X193Y2033D01*
X194Y2034D01*
X195Y2034D01*
X196Y2035D01*
X197Y2036D01*
X198Y2036D01*
X199Y2037D01*
X200Y2037D01*
X201Y2038D01*
X202Y2038D01*
X203Y2039D01*
X204Y2040D01*
X205Y2040D01*
X206Y2041D01*
X207Y2041D01*
X208Y2042D01*
X209Y2042D01*
X210Y2043D01*
X211Y2043D01*
X212Y2044D01*
X213Y2044D01*
X214Y2045D01*
X215Y2045D01*
X216Y2046D01*
X217Y2046D01*
X218Y2047D01*
X219Y2047D01*
X220Y2048D01*
X221Y2048D01*
X222Y2049D01*
X223Y2049D01*
X224Y2050D01*
X225Y2050D01*
X226Y2050D01*
X227Y2051D01*
X228Y2051D01*
X229Y2052D01*
X230Y2052D01*
X231Y2053D01*
X232Y2053D01*
X233Y2054D01*
X234Y2054D01*
X235Y2055D01*
X236Y2055D01*
X237Y2055D01*
X238Y2056D01*
X239Y2056D01*
X240Y2057D01*
X241Y2057D01*
X242Y2057D01*
X243Y2058D01*
X244Y2058D01*
X245Y2059D01*
X246Y2059D01*
X247Y2059D01*
X248Y2060D01*
X249Y2060D01*
X250Y2061D01*
X251Y2061D01*
X252Y2061D01*
X253Y2062D01*
X254Y2062D01*
X255Y2063D01*
X256Y2063D01*
X257Y2063D01*
X258Y2064D01*
X259Y2064D01*
X260Y2064D01*
X261Y2065D01*
X262Y2065D01*
X263Y2065D01*
X264Y2066D01*
X265Y2066D01*
X266Y2066D01*
X267Y2067D01*
X268Y2067D01*
X269Y2067D01*
X270Y2068D01*
X271Y2068D01*
X272Y2068D01*
X273Y2069D01*
X274Y2069D01*
X275Y2069D01*
X276Y2070D01*
X277Y2070D01*
X278Y2070D01*
X279Y2071D01*
X280Y2071D01*
X281Y2071D01*
X282Y2071D01*
X283Y2072D01*
X284Y2072D01*
X285Y2072D01*
X286Y2073D01*
X287Y2073D01*
X288Y2073D01*
X289Y2073D01*
X290Y2074D01*
X291Y2074D01*
X292Y2074D01*
X293Y2074D01*
X294Y2075D01*
X295Y2075D01*
X296Y2075D01*
X297Y2075D01*
X298Y2076D01*
X299Y2076D01*
X300Y2076D01*
X301Y2076D01*
X302Y2077D01*
X303Y2077D01*
X304Y2077D01*
X305Y2077D01*
X306Y2078D01*
X307Y2078D01*
X308Y2078D01*
X309Y2078D01*
X310Y2078D01*
X311Y2079D01*
X312Y2079D01*
X313Y2079D01*
X314Y2079D01*
X315Y2079D01*
X316Y2080D01*
X317Y2080D01*
X318Y2080D01*
X319Y2080D01*
X320Y2080D01*
X321Y2081D01*
X322Y2081D01*
X323Y2081D01*
X324Y2081D01*
X325Y2081D01*
X326Y2081D01*
X327Y2082D01*
X328Y2082D01*
X329Y2082D01*
X330Y2082D01*
X331Y2082D01*
X332Y2082D01*
X333Y2083D01*
X334Y2083D01*
X335Y2083D01*
X336Y2083D01*
X337Y2083D01*
X338Y2083D01*
X339Y2083D01*
X340Y2084D01*
X341Y2084D01*
X342Y2084D01*
X343Y2084D01*
X344Y2084D01*
X345Y2084D01*
X346Y2084D01*
X347Y2084D01*
X348Y2085D01*
X349Y2085D01*
X350Y2085D01*
X351Y2085D01*
X352Y2085D01*
X353Y2085D01*
X354Y2085D01*
X355Y2085D01*
X356Y2085D01*
X357Y2085D01*
X358Y2086D01*
X359Y2086D01*
X360Y2086D01*
X361Y2086D01*
X362Y2086D01*
X363Y2086D01*
X364Y2086D01*
X365Y2086D01*
X366Y2086D01*
X367Y2086D01*
X368Y2086D01*
X369Y2086D01*
X370Y2086D01*
X371Y2086D01*
X372Y2087D01*
D02*
G04 End of contour*
M02*