G04 MADE WITH FRITZING*
G04 WWW.FRITZING.ORG*
G04 DOUBLE SIDED*
G04 HOLES PLATED*
G04 CONTOUR ON CENTER OF CONTOUR VECTOR*
%ASAXBY*%
%FSLAX23Y23*%
%MOIN*%
%OFA0B0*%
%SFA1.0B1.0*%
%ADD10C,0.075000*%
%ADD11C,0.051496*%
%ADD12C,0.196851*%
%ADD13C,0.080000*%
%ADD14C,0.070000*%
%ADD15C,0.078000*%
%ADD16R,0.079986X0.080000*%
%ADD17R,0.069972X0.070000*%
%ADD18R,0.078000X0.078000*%
%ADD19C,0.048000*%
%ADD20C,0.024000*%
%LNCOPPER0*%
G90*
G70*
G54D10*
X122Y1435D03*
X122Y1035D03*
G54D11*
X122Y1535D03*
X122Y1635D03*
G54D12*
X322Y2135D03*
X622Y1035D03*
X2322Y235D03*
X2322Y2135D03*
G54D13*
X1922Y1935D03*
X1922Y1735D03*
G54D14*
X322Y1935D03*
X322Y1835D03*
X322Y1735D03*
X322Y1635D03*
X322Y1535D03*
X322Y1435D03*
X322Y1335D03*
X322Y1235D03*
X322Y1135D03*
X322Y1035D03*
X322Y935D03*
X322Y835D03*
X322Y735D03*
X322Y635D03*
X322Y535D03*
X922Y1935D03*
X922Y1835D03*
X922Y1735D03*
X922Y1635D03*
X922Y1535D03*
X922Y1435D03*
X922Y1335D03*
X922Y1235D03*
X922Y1135D03*
X922Y1035D03*
X922Y935D03*
X922Y835D03*
X922Y735D03*
X922Y635D03*
X922Y535D03*
G54D15*
X1822Y1435D03*
X1822Y1335D03*
X1822Y1235D03*
X1622Y1435D03*
X1622Y1335D03*
X1622Y1235D03*
X1422Y1435D03*
X1422Y1335D03*
X1422Y1235D03*
X1222Y1435D03*
X1222Y1335D03*
X1222Y1235D03*
X2322Y1635D03*
X2322Y1535D03*
X2322Y1435D03*
X2322Y1335D03*
X2322Y1235D03*
X2322Y1135D03*
X2322Y1635D03*
X2322Y1535D03*
X2322Y1435D03*
X2322Y1335D03*
X2322Y1235D03*
X2322Y1135D03*
G54D16*
X1922Y1935D03*
G54D17*
X322Y1935D03*
G54D18*
X1822Y1435D03*
X1622Y1435D03*
X1422Y1435D03*
X1222Y1435D03*
G54D19*
X1381Y1435D02*
X1263Y1435D01*
D02*
X1581Y1435D02*
X1463Y1435D01*
D02*
X1781Y1435D02*
X1663Y1435D01*
G54D20*
D02*
X1392Y1335D02*
X1252Y1335D01*
D02*
X1592Y1335D02*
X1452Y1335D01*
D02*
X1792Y1335D02*
X1652Y1335D01*
G54D19*
D02*
X1221Y1835D02*
X1222Y1476D01*
D02*
X962Y1835D02*
X1221Y1835D01*
G54D20*
D02*
X1022Y1334D02*
X1192Y1334D01*
D02*
X1022Y1636D02*
X1022Y1334D01*
D02*
X951Y1635D02*
X1022Y1636D01*
D02*
X1822Y836D02*
X951Y835D01*
D02*
X1822Y1204D02*
X1822Y836D01*
D02*
X1621Y934D02*
X1622Y1204D01*
D02*
X951Y935D02*
X1621Y934D01*
D02*
X1422Y1034D02*
X1422Y1204D01*
D02*
X951Y1035D02*
X1422Y1034D01*
D02*
X1221Y1135D02*
X1222Y1204D01*
D02*
X951Y1135D02*
X1221Y1135D01*
D02*
X1822Y1636D02*
X2292Y1635D01*
D02*
X1822Y1465D02*
X1822Y1636D01*
D02*
X1923Y1535D02*
X2292Y1535D01*
D02*
X1923Y1334D02*
X1923Y1535D01*
D02*
X1852Y1334D02*
X1923Y1334D01*
D02*
X2323Y436D02*
X2322Y1104D01*
D02*
X1322Y436D02*
X2323Y436D01*
D02*
X1322Y134D02*
X1322Y436D01*
D02*
X323Y134D02*
X1322Y134D01*
D02*
X322Y505D02*
X323Y134D01*
D02*
X2222Y534D02*
X2222Y1236D01*
D02*
X2222Y1236D02*
X2292Y1235D01*
D02*
X2122Y534D02*
X2222Y534D01*
D02*
X1221Y534D02*
X2122Y534D01*
D02*
X1221Y234D02*
X1221Y534D01*
D02*
X421Y234D02*
X1221Y234D01*
D02*
X421Y634D02*
X421Y234D01*
D02*
X351Y635D02*
X421Y634D01*
D02*
X2122Y1334D02*
X2292Y1334D01*
D02*
X2122Y634D02*
X2122Y1334D01*
D02*
X2021Y634D02*
X2122Y634D01*
D02*
X1123Y634D02*
X2021Y634D01*
D02*
X1123Y335D02*
X1123Y634D01*
D02*
X521Y335D02*
X1123Y335D01*
D02*
X521Y735D02*
X521Y335D01*
D02*
X351Y735D02*
X521Y735D01*
D02*
X2021Y735D02*
X2021Y1434D01*
D02*
X2021Y1434D02*
X2292Y1435D01*
D02*
X1022Y735D02*
X2021Y735D01*
D02*
X1022Y436D02*
X1022Y735D01*
D02*
X622Y436D02*
X1022Y436D01*
D02*
X622Y836D02*
X622Y436D01*
D02*
X351Y835D02*
X622Y836D01*
G04 End of Copper0*
M02*