G04 MADE WITH FRITZING*
G04 WWW.FRITZING.ORG*
G04 DOUBLE SIDED*
G04 HOLES PLATED*
G04 CONTOUR ON CENTER OF CONTOUR VECTOR*
%ASAXBY*%
%FSLAX23Y23*%
%MOIN*%
%OFA0B0*%
%SFA1.0B1.0*%
%ADD10C,0.090000*%
%ADD11C,0.080000*%
%ADD12C,0.088000*%
%ADD13C,0.061496*%
%ADD14C,0.128110*%
%ADD15R,0.089986X0.090000*%
%ADD16R,0.079972X0.080000*%
%ADD17R,0.088000X0.088000*%
%ADD18R,0.069055X0.065118*%
%LNMASK1*%
G90*
G70*
G54D10*
X1444Y1898D03*
X1444Y1698D03*
G54D11*
X344Y1898D03*
X344Y1798D03*
X344Y1698D03*
X344Y1598D03*
X344Y1498D03*
X344Y1398D03*
X344Y1298D03*
X344Y1198D03*
X344Y1098D03*
X344Y998D03*
X344Y898D03*
X344Y798D03*
X344Y698D03*
X344Y598D03*
X344Y498D03*
X944Y1898D03*
X944Y1798D03*
X944Y1698D03*
X944Y1598D03*
X944Y1498D03*
X944Y1398D03*
X944Y1298D03*
X944Y1198D03*
X944Y1098D03*
X944Y998D03*
X944Y898D03*
X944Y798D03*
X944Y698D03*
X944Y598D03*
X944Y498D03*
G54D12*
X1844Y1398D03*
X1844Y1298D03*
X1844Y1198D03*
X1644Y1398D03*
X1644Y1298D03*
X1644Y1198D03*
X1444Y1398D03*
X1444Y1298D03*
X1444Y1198D03*
X1244Y1398D03*
X1244Y1298D03*
X1244Y1198D03*
X2344Y1598D03*
X2344Y1498D03*
X2344Y1398D03*
X2344Y1298D03*
X2344Y1198D03*
X2344Y1098D03*
X2344Y1598D03*
X2344Y1498D03*
X2344Y1398D03*
X2344Y1298D03*
X2344Y1198D03*
X2344Y1098D03*
G54D13*
X144Y1498D03*
X144Y1598D03*
X144Y1498D03*
X144Y1598D03*
G54D14*
X2344Y1898D03*
X2344Y198D03*
X644Y998D03*
X644Y1898D03*
G54D15*
X1444Y1898D03*
G54D16*
X344Y1898D03*
G54D17*
X1844Y1398D03*
X1644Y1398D03*
X1444Y1398D03*
X1244Y1398D03*
G54D18*
X144Y1298D03*
X144Y1217D03*
G04 End of Mask1*
M02*