; NON-PLATED HOLES START AT T1
; THROUGH (PLATED) HOLES START AT T100
M48
INCH
T100C0.038000
T101C0.040000
T102C0.036000
T103C0.031496
T104C0.118110
%
T100
X014220Y013345
X014220Y014345
X016220Y014345
X023220Y014345
X012220Y014345
X018220Y013345
X016220Y013345
X014220Y012345
X023220Y015345
X018220Y012345
X012220Y012345
X016220Y012345
X023220Y012345
X023220Y016345
X023220Y011345
X023220Y013345
X018220Y014345
X012220Y013345
T101
X019220Y017345
X019220Y019345
T102
X009220Y016345
X009220Y010345
X003220Y015345
X003220Y007345
X003220Y005345
X003220Y010345
X009220Y011345
X003220Y017345
X003220Y012345
X003220Y009345
X009220Y007345
X009220Y005345
X003220Y014345
X009220Y009345
X009220Y013345
X003220Y011345
X009220Y008345
X009220Y015345
X003220Y016345
X003220Y013345
X009220Y017345
X009220Y019345
X003220Y008345
X009220Y012345
X009220Y006345
X003220Y006345
X003220Y019345
X009220Y018345
X009220Y014345
X003220Y018345
T103
X001220Y016345
X001220Y015345
T104
X006220Y010345
X003220Y021345
X023220Y002345
X023220Y021345
T00
M30
