; NON-PLATED HOLES START AT T1
; THROUGH (PLATED) HOLES START AT T100
M48
INCH
T100C0.031496
T101C0.038000
T102C0.036000
T103C0.040000
%
T100
X001444Y014977
X001444Y015977
T101
X016444Y012977
X023444Y015977
X023444Y013977
X023444Y011977
X014444Y012977
X012444Y011977
X012444Y013977
X014444Y011977
X018444Y013977
X023444Y012977
X023444Y014977
X023444Y010977
X016444Y013977
X014444Y013977
X018444Y011977
X018444Y012977
X012444Y012977
X016444Y011977
T102
X009444Y018977
X009444Y006977
X003444Y005977
X009444Y012977
X003444Y006977
X009444Y008977
X003444Y015977
X003444Y004977
X009444Y015977
X009444Y011977
X009444Y013977
X003444Y009977
X009444Y009977
X009444Y005977
X003444Y014977
X003444Y016977
X003444Y007977
X003444Y012977
X003444Y017977
X009444Y014977
X003444Y011977
X009444Y007977
X003444Y008977
X003444Y013977
X009444Y016977
X003444Y010977
X009444Y004977
X009444Y017977
X009444Y010977
X003444Y018977
T103
X014444Y016977
X014444Y018977
T00
M30
