G04 MADE WITH FRITZING*
G04 WWW.FRITZING.ORG*
G04 DOUBLE SIDED*
G04 HOLES PLATED*
G04 CONTOUR ON CENTER OF CONTOUR VECTOR*
%ASAXBY*%
%FSLAX23Y23*%
%MOIN*%
%OFA0B0*%
%SFA1.0B1.0*%
%ADD10C,0.061496*%
%ADD11C,0.206851*%
%ADD12C,0.090000*%
%ADD13C,0.080000*%
%ADD14C,0.088000*%
%ADD15R,0.069055X0.065118*%
%ADD16R,0.089986X0.090000*%
%ADD17R,0.079972X0.080000*%
%ADD18R,0.088000X0.088000*%
%ADD19R,0.128110X0.206850*%
%LNMASK1*%
G90*
G70*
G54D10*
X122Y1535D03*
X122Y1635D03*
X122Y1535D03*
X122Y1635D03*
G54D11*
X322Y2135D03*
X622Y1035D03*
X2322Y235D03*
X2322Y2135D03*
G54D12*
X1922Y1935D03*
X1922Y1735D03*
G54D13*
X322Y1935D03*
X322Y1835D03*
X322Y1735D03*
X322Y1635D03*
X322Y1535D03*
X322Y1435D03*
X322Y1335D03*
X322Y1235D03*
X322Y1135D03*
X322Y1035D03*
X322Y935D03*
X322Y835D03*
X322Y735D03*
X322Y635D03*
X322Y535D03*
X922Y1935D03*
X922Y1835D03*
X922Y1735D03*
X922Y1635D03*
X922Y1535D03*
X922Y1435D03*
X922Y1335D03*
X922Y1235D03*
X922Y1135D03*
X922Y1035D03*
X922Y935D03*
X922Y835D03*
X922Y735D03*
X922Y635D03*
X922Y535D03*
G54D14*
X1822Y1435D03*
X1822Y1335D03*
X1822Y1235D03*
X1622Y1435D03*
X1622Y1335D03*
X1622Y1235D03*
X1422Y1435D03*
X1422Y1335D03*
X1422Y1235D03*
X1222Y1435D03*
X1222Y1335D03*
X1222Y1235D03*
X2322Y1635D03*
X2322Y1535D03*
X2322Y1435D03*
X2322Y1335D03*
X2322Y1235D03*
X2322Y1135D03*
X2322Y1635D03*
X2322Y1535D03*
X2322Y1435D03*
X2322Y1335D03*
X2322Y1235D03*
X2322Y1135D03*
G54D15*
X122Y1335D03*
X122Y1254D03*
G54D16*
X1922Y1935D03*
G54D17*
X322Y1935D03*
G54D18*
X1822Y1435D03*
X1622Y1435D03*
X1422Y1435D03*
X1222Y1435D03*
G54D19*
X1122Y2135D03*
X2122Y235D03*
X1722Y235D03*
X1922Y235D03*
X1722Y2135D03*
X1522Y2135D03*
X1522Y235D03*
X1322Y2135D03*
G04 End of Mask1*
M02*