G04 MADE WITH FRITZING*
G04 WWW.FRITZING.ORG*
G04 DOUBLE SIDED*
G04 HOLES PLATED*
G04 CONTOUR ON CENTER OF CONTOUR VECTOR*
%ASAXBY*%
%FSLAX23Y23*%
%MOIN*%
%OFA0B0*%
%SFA1.0B1.0*%
%ADD10C,0.010417*%
%ADD11C,0.010000*%
%ADD12C,0.005000*%
%ADD13C,0.008000*%
%ADD14R,0.001000X0.001000*%
%LNSILK1*%
G90*
G70*
G54D10*
X1389Y2003D02*
X1389Y1592D01*
D02*
X1389Y1592D02*
X1785Y1592D01*
D02*
X1785Y1592D02*
X1785Y2003D01*
D02*
X1785Y2003D02*
X1389Y2003D01*
D02*
X1643Y1592D02*
X1643Y2003D01*
G54D11*
D02*
X1794Y1448D02*
X1794Y1148D01*
D02*
X1794Y1148D02*
X1894Y1148D01*
D02*
X1894Y1148D02*
X1894Y1448D01*
D02*
X1894Y1448D02*
X1794Y1448D01*
D02*
X1594Y1448D02*
X1594Y1148D01*
D02*
X1594Y1148D02*
X1694Y1148D01*
D02*
X1694Y1148D02*
X1694Y1448D01*
D02*
X1694Y1448D02*
X1594Y1448D01*
D02*
X1394Y1448D02*
X1394Y1148D01*
D02*
X1394Y1148D02*
X1494Y1148D01*
D02*
X1494Y1148D02*
X1494Y1448D01*
D02*
X1494Y1448D02*
X1394Y1448D01*
D02*
X1194Y1448D02*
X1194Y1148D01*
D02*
X1194Y1148D02*
X1294Y1148D01*
D02*
X1294Y1148D02*
X1294Y1448D01*
D02*
X1294Y1448D02*
X1194Y1448D01*
G54D12*
D02*
X174Y1463D02*
X114Y1463D01*
D02*
X114Y1518D02*
X114Y1533D01*
D02*
X114Y1533D02*
X114Y1563D01*
D02*
X114Y1563D02*
X114Y1578D01*
D02*
X114Y1633D02*
X174Y1633D01*
D02*
X174Y1563D02*
X174Y1533D01*
D02*
X144Y1563D02*
X174Y1533D01*
D02*
X174Y1533D02*
X114Y1533D01*
D02*
X114Y1533D02*
X144Y1563D01*
D02*
X144Y1563D02*
X174Y1563D01*
D02*
X144Y1563D02*
X114Y1563D01*
G54D13*
X298Y352D02*
X990Y352D01*
X990Y2045D01*
X298Y2045D01*
X298Y352D01*
D02*
G54D14*
X0Y2087D02*
X2597Y2087D01*
X0Y2086D02*
X2597Y2086D01*
X0Y2085D02*
X2597Y2085D01*
X0Y2084D02*
X2597Y2084D01*
X0Y2083D02*
X2597Y2083D01*
X0Y2082D02*
X2597Y2082D01*
X0Y2081D02*
X2597Y2081D01*
X0Y2080D02*
X2597Y2080D01*
X0Y2079D02*
X7Y2079D01*
X1002Y2079D02*
X1009Y2079D01*
X1029Y2079D02*
X1035Y2079D01*
X1052Y2079D02*
X1058Y2079D01*
X1106Y2079D02*
X1136Y2079D01*
X1155Y2079D02*
X1177Y2079D01*
X1180Y2079D02*
X1186Y2079D01*
X1206Y2079D02*
X1232Y2079D01*
X1252Y2079D02*
X1258Y2079D01*
X1280Y2079D02*
X1286Y2079D01*
X1306Y2079D02*
X1332Y2079D01*
X1402Y2079D02*
X1408Y2079D01*
X1430Y2079D02*
X1436Y2079D01*
X1454Y2079D02*
X1486Y2079D01*
X1502Y2079D02*
X1508Y2079D01*
X1530Y2079D02*
X1536Y2079D01*
X1556Y2079D02*
X1582Y2079D01*
X1822Y2079D02*
X1828Y2079D01*
X1862Y2079D02*
X1868Y2079D01*
X2590Y2079D02*
X2597Y2079D01*
X0Y2078D02*
X7Y2078D01*
X1002Y2078D02*
X1008Y2078D01*
X1029Y2078D02*
X1036Y2078D01*
X1052Y2078D02*
X1058Y2078D01*
X1107Y2078D02*
X1128Y2078D01*
X1130Y2078D02*
X1136Y2078D01*
X1155Y2078D02*
X1175Y2078D01*
X1180Y2078D02*
X1186Y2078D01*
X1206Y2078D02*
X1232Y2078D01*
X1252Y2078D02*
X1258Y2078D01*
X1280Y2078D02*
X1286Y2078D01*
X1307Y2078D02*
X1331Y2078D01*
X1402Y2078D02*
X1408Y2078D01*
X1430Y2078D02*
X1436Y2078D01*
X1455Y2078D02*
X1486Y2078D01*
X1502Y2078D02*
X1508Y2078D01*
X1530Y2078D02*
X1536Y2078D01*
X1557Y2078D02*
X1581Y2078D01*
X1822Y2078D02*
X1828Y2078D01*
X1862Y2078D02*
X1868Y2078D01*
X2590Y2078D02*
X2597Y2078D01*
X0Y2077D02*
X7Y2077D01*
X1002Y2077D02*
X1008Y2077D01*
X1030Y2077D02*
X1036Y2077D01*
X1052Y2077D02*
X1058Y2077D01*
X1108Y2077D02*
X1126Y2077D01*
X1130Y2077D02*
X1136Y2077D01*
X1156Y2077D02*
X1174Y2077D01*
X1180Y2077D02*
X1186Y2077D01*
X1206Y2077D02*
X1232Y2077D01*
X1252Y2077D02*
X1258Y2077D01*
X1280Y2077D02*
X1285Y2077D01*
X1308Y2077D02*
X1330Y2077D01*
X1402Y2077D02*
X1408Y2077D01*
X1430Y2077D02*
X1435Y2077D01*
X1456Y2077D02*
X1477Y2077D01*
X1480Y2077D02*
X1485Y2077D01*
X1502Y2077D02*
X1508Y2077D01*
X1530Y2077D02*
X1535Y2077D01*
X1558Y2077D02*
X1580Y2077D01*
X1822Y2077D02*
X1828Y2077D01*
X1862Y2077D02*
X1868Y2077D01*
X2590Y2077D02*
X2597Y2077D01*
X0Y2076D02*
X7Y2076D01*
X1003Y2076D02*
X1008Y2076D01*
X1030Y2076D02*
X1035Y2076D01*
X1053Y2076D02*
X1058Y2076D01*
X1109Y2076D02*
X1125Y2076D01*
X1130Y2076D02*
X1135Y2076D01*
X1158Y2076D02*
X1172Y2076D01*
X1180Y2076D02*
X1185Y2076D01*
X1206Y2076D02*
X1232Y2076D01*
X1253Y2076D02*
X1258Y2076D01*
X1280Y2076D02*
X1285Y2076D01*
X1309Y2076D02*
X1328Y2076D01*
X1403Y2076D02*
X1407Y2076D01*
X1430Y2076D02*
X1435Y2076D01*
X1457Y2076D02*
X1476Y2076D01*
X1480Y2076D02*
X1485Y2076D01*
X1503Y2076D02*
X1507Y2076D01*
X1530Y2076D02*
X1535Y2076D01*
X1559Y2076D02*
X1578Y2076D01*
X1822Y2076D02*
X1828Y2076D01*
X1862Y2076D02*
X1868Y2076D01*
X2590Y2076D02*
X2597Y2076D01*
X0Y2075D02*
X7Y2075D01*
X1004Y2075D02*
X1007Y2075D01*
X1031Y2075D02*
X1034Y2075D01*
X1054Y2075D02*
X1057Y2075D01*
X1111Y2075D02*
X1123Y2075D01*
X1131Y2075D02*
X1134Y2075D01*
X1160Y2075D02*
X1170Y2075D01*
X1181Y2075D02*
X1184Y2075D01*
X1207Y2075D02*
X1231Y2075D01*
X1254Y2075D02*
X1257Y2075D01*
X1281Y2075D02*
X1284Y2075D01*
X1311Y2075D02*
X1326Y2075D01*
X1404Y2075D02*
X1407Y2075D01*
X1431Y2075D02*
X1434Y2075D01*
X1459Y2075D02*
X1474Y2075D01*
X1481Y2075D02*
X1484Y2075D01*
X1504Y2075D02*
X1506Y2075D01*
X1531Y2075D02*
X1534Y2075D01*
X1561Y2075D02*
X1576Y2075D01*
X1822Y2075D02*
X1828Y2075D01*
X1862Y2075D02*
X1868Y2075D01*
X2590Y2075D02*
X2597Y2075D01*
X0Y2074D02*
X7Y2074D01*
X1822Y2074D02*
X1828Y2074D01*
X1862Y2074D02*
X1868Y2074D01*
X2590Y2074D02*
X2597Y2074D01*
X0Y2073D02*
X7Y2073D01*
X1822Y2073D02*
X1828Y2073D01*
X1862Y2073D02*
X1868Y2073D01*
X2590Y2073D02*
X2597Y2073D01*
X0Y2072D02*
X7Y2072D01*
X1822Y2072D02*
X1828Y2072D01*
X1862Y2072D02*
X1868Y2072D01*
X2590Y2072D02*
X2597Y2072D01*
X0Y2071D02*
X7Y2071D01*
X1822Y2071D02*
X1828Y2071D01*
X1862Y2071D02*
X1868Y2071D01*
X2590Y2071D02*
X2597Y2071D01*
X0Y2070D02*
X7Y2070D01*
X1822Y2070D02*
X1828Y2070D01*
X1862Y2070D02*
X1868Y2070D01*
X2590Y2070D02*
X2597Y2070D01*
X0Y2069D02*
X7Y2069D01*
X1822Y2069D02*
X1828Y2069D01*
X1862Y2069D02*
X1868Y2069D01*
X2590Y2069D02*
X2597Y2069D01*
X0Y2068D02*
X7Y2068D01*
X1822Y2068D02*
X1828Y2068D01*
X1862Y2068D02*
X1868Y2068D01*
X2590Y2068D02*
X2597Y2068D01*
X0Y2067D02*
X7Y2067D01*
X1822Y2067D02*
X1828Y2067D01*
X1862Y2067D02*
X1868Y2067D01*
X2590Y2067D02*
X2597Y2067D01*
X0Y2066D02*
X7Y2066D01*
X1822Y2066D02*
X1828Y2066D01*
X1862Y2066D02*
X1868Y2066D01*
X2590Y2066D02*
X2597Y2066D01*
X0Y2065D02*
X7Y2065D01*
X1822Y2065D02*
X1828Y2065D01*
X1862Y2065D02*
X1868Y2065D01*
X2590Y2065D02*
X2597Y2065D01*
X0Y2064D02*
X7Y2064D01*
X1822Y2064D02*
X1828Y2064D01*
X1862Y2064D02*
X1868Y2064D01*
X2590Y2064D02*
X2597Y2064D01*
X0Y2063D02*
X7Y2063D01*
X1822Y2063D02*
X1828Y2063D01*
X1862Y2063D02*
X1868Y2063D01*
X2590Y2063D02*
X2597Y2063D01*
X0Y2062D02*
X7Y2062D01*
X1822Y2062D02*
X1828Y2062D01*
X1862Y2062D02*
X1868Y2062D01*
X2590Y2062D02*
X2597Y2062D01*
X0Y2061D02*
X7Y2061D01*
X1822Y2061D02*
X1828Y2061D01*
X1862Y2061D02*
X1868Y2061D01*
X2590Y2061D02*
X2597Y2061D01*
X0Y2060D02*
X7Y2060D01*
X1822Y2060D02*
X1828Y2060D01*
X1862Y2060D02*
X1868Y2060D01*
X2590Y2060D02*
X2597Y2060D01*
X0Y2059D02*
X7Y2059D01*
X1822Y2059D02*
X1828Y2059D01*
X1862Y2059D02*
X1868Y2059D01*
X2590Y2059D02*
X2597Y2059D01*
X0Y2058D02*
X7Y2058D01*
X1802Y2058D02*
X1806Y2058D01*
X1822Y2058D02*
X1828Y2058D01*
X1862Y2058D02*
X1868Y2058D01*
X1876Y2058D02*
X1880Y2058D01*
X2590Y2058D02*
X2597Y2058D01*
X0Y2057D02*
X7Y2057D01*
X1802Y2057D02*
X1807Y2057D01*
X1822Y2057D02*
X1828Y2057D01*
X1862Y2057D02*
X1868Y2057D01*
X1876Y2057D02*
X1881Y2057D01*
X2590Y2057D02*
X2597Y2057D01*
X0Y2056D02*
X7Y2056D01*
X1801Y2056D02*
X1807Y2056D01*
X1822Y2056D02*
X1828Y2056D01*
X1862Y2056D02*
X1868Y2056D01*
X1875Y2056D02*
X1881Y2056D01*
X2590Y2056D02*
X2597Y2056D01*
X0Y2055D02*
X7Y2055D01*
X1801Y2055D02*
X1807Y2055D01*
X1822Y2055D02*
X1828Y2055D01*
X1862Y2055D02*
X1868Y2055D01*
X1875Y2055D02*
X1881Y2055D01*
X2590Y2055D02*
X2597Y2055D01*
X0Y2054D02*
X7Y2054D01*
X1801Y2054D02*
X1807Y2054D01*
X1822Y2054D02*
X1828Y2054D01*
X1862Y2054D02*
X1868Y2054D01*
X1875Y2054D02*
X1881Y2054D01*
X2590Y2054D02*
X2597Y2054D01*
X0Y2053D02*
X7Y2053D01*
X1801Y2053D02*
X1807Y2053D01*
X1822Y2053D02*
X1828Y2053D01*
X1862Y2053D02*
X1868Y2053D01*
X1875Y2053D02*
X1881Y2053D01*
X2590Y2053D02*
X2597Y2053D01*
X0Y2052D02*
X7Y2052D01*
X1801Y2052D02*
X1807Y2052D01*
X1822Y2052D02*
X1828Y2052D01*
X1862Y2052D02*
X1868Y2052D01*
X1875Y2052D02*
X1881Y2052D01*
X2590Y2052D02*
X2597Y2052D01*
X0Y2051D02*
X7Y2051D01*
X1801Y2051D02*
X1807Y2051D01*
X1822Y2051D02*
X1828Y2051D01*
X1862Y2051D02*
X1868Y2051D01*
X1875Y2051D02*
X1881Y2051D01*
X2590Y2051D02*
X2597Y2051D01*
X0Y2050D02*
X7Y2050D01*
X1801Y2050D02*
X1807Y2050D01*
X1822Y2050D02*
X1828Y2050D01*
X1862Y2050D02*
X1868Y2050D01*
X1875Y2050D02*
X1881Y2050D01*
X2590Y2050D02*
X2597Y2050D01*
X0Y2049D02*
X7Y2049D01*
X1801Y2049D02*
X1807Y2049D01*
X1822Y2049D02*
X1828Y2049D01*
X1862Y2049D02*
X1868Y2049D01*
X1875Y2049D02*
X1881Y2049D01*
X2590Y2049D02*
X2597Y2049D01*
X0Y2048D02*
X7Y2048D01*
X1801Y2048D02*
X1807Y2048D01*
X1822Y2048D02*
X1828Y2048D01*
X1862Y2048D02*
X1868Y2048D01*
X1875Y2048D02*
X1881Y2048D01*
X2590Y2048D02*
X2597Y2048D01*
X0Y2047D02*
X7Y2047D01*
X1801Y2047D02*
X1807Y2047D01*
X1822Y2047D02*
X1828Y2047D01*
X1862Y2047D02*
X1868Y2047D01*
X1875Y2047D02*
X1881Y2047D01*
X2590Y2047D02*
X2597Y2047D01*
X0Y2046D02*
X7Y2046D01*
X1801Y2046D02*
X1807Y2046D01*
X1822Y2046D02*
X1828Y2046D01*
X1862Y2046D02*
X1868Y2046D01*
X1875Y2046D02*
X1881Y2046D01*
X2590Y2046D02*
X2597Y2046D01*
X0Y2045D02*
X7Y2045D01*
X1801Y2045D02*
X1807Y2045D01*
X1822Y2045D02*
X1828Y2045D01*
X1862Y2045D02*
X1868Y2045D01*
X1875Y2045D02*
X1881Y2045D01*
X2590Y2045D02*
X2597Y2045D01*
X0Y2044D02*
X7Y2044D01*
X1801Y2044D02*
X1807Y2044D01*
X1822Y2044D02*
X1828Y2044D01*
X1862Y2044D02*
X1868Y2044D01*
X1875Y2044D02*
X1881Y2044D01*
X2590Y2044D02*
X2597Y2044D01*
X0Y2043D02*
X7Y2043D01*
X1801Y2043D02*
X1808Y2043D01*
X1821Y2043D02*
X1828Y2043D01*
X1862Y2043D02*
X1868Y2043D01*
X1875Y2043D02*
X1881Y2043D01*
X2590Y2043D02*
X2597Y2043D01*
X0Y2042D02*
X7Y2042D01*
X1802Y2042D02*
X1809Y2042D01*
X1820Y2042D02*
X1828Y2042D01*
X1862Y2042D02*
X1868Y2042D01*
X1875Y2042D02*
X1881Y2042D01*
X2590Y2042D02*
X2597Y2042D01*
X0Y2041D02*
X7Y2041D01*
X1802Y2041D02*
X1827Y2041D01*
X1850Y2041D02*
X1881Y2041D01*
X2590Y2041D02*
X2597Y2041D01*
X0Y2040D02*
X7Y2040D01*
X1802Y2040D02*
X1827Y2040D01*
X1849Y2040D02*
X1881Y2040D01*
X2590Y2040D02*
X2597Y2040D01*
X0Y2039D02*
X7Y2039D01*
X1803Y2039D02*
X1826Y2039D01*
X1848Y2039D02*
X1881Y2039D01*
X2590Y2039D02*
X2597Y2039D01*
X0Y2038D02*
X7Y2038D01*
X1804Y2038D02*
X1825Y2038D01*
X1848Y2038D02*
X1881Y2038D01*
X2590Y2038D02*
X2597Y2038D01*
X0Y2037D02*
X7Y2037D01*
X1805Y2037D02*
X1824Y2037D01*
X1848Y2037D02*
X1881Y2037D01*
X2590Y2037D02*
X2597Y2037D01*
X0Y2036D02*
X7Y2036D01*
X1806Y2036D02*
X1823Y2036D01*
X1848Y2036D02*
X1881Y2036D01*
X2590Y2036D02*
X2597Y2036D01*
X0Y2035D02*
X7Y2035D01*
X1808Y2035D02*
X1821Y2035D01*
X1849Y2035D02*
X1880Y2035D01*
X2590Y2035D02*
X2597Y2035D01*
X0Y2034D02*
X7Y2034D01*
X2590Y2034D02*
X2597Y2034D01*
X0Y2033D02*
X7Y2033D01*
X2590Y2033D02*
X2597Y2033D01*
X0Y2032D02*
X7Y2032D01*
X2590Y2032D02*
X2597Y2032D01*
X0Y2031D02*
X7Y2031D01*
X2590Y2031D02*
X2597Y2031D01*
X0Y2030D02*
X7Y2030D01*
X2590Y2030D02*
X2597Y2030D01*
X0Y2029D02*
X7Y2029D01*
X2590Y2029D02*
X2597Y2029D01*
X0Y2028D02*
X7Y2028D01*
X2590Y2028D02*
X2597Y2028D01*
X0Y2027D02*
X7Y2027D01*
X2590Y2027D02*
X2597Y2027D01*
X0Y2026D02*
X7Y2026D01*
X2590Y2026D02*
X2597Y2026D01*
X0Y2025D02*
X7Y2025D01*
X2590Y2025D02*
X2597Y2025D01*
X0Y2024D02*
X7Y2024D01*
X2590Y2024D02*
X2597Y2024D01*
X0Y2023D02*
X7Y2023D01*
X2590Y2023D02*
X2597Y2023D01*
X0Y2022D02*
X7Y2022D01*
X2590Y2022D02*
X2597Y2022D01*
X0Y2021D02*
X7Y2021D01*
X2590Y2021D02*
X2597Y2021D01*
X0Y2020D02*
X7Y2020D01*
X2590Y2020D02*
X2597Y2020D01*
X0Y2019D02*
X7Y2019D01*
X2590Y2019D02*
X2597Y2019D01*
X0Y2018D02*
X7Y2018D01*
X2590Y2018D02*
X2597Y2018D01*
X0Y2017D02*
X7Y2017D01*
X2590Y2017D02*
X2597Y2017D01*
X0Y2016D02*
X7Y2016D01*
X2590Y2016D02*
X2597Y2016D01*
X0Y2015D02*
X7Y2015D01*
X2590Y2015D02*
X2597Y2015D01*
X0Y2014D02*
X7Y2014D01*
X2590Y2014D02*
X2597Y2014D01*
X0Y2013D02*
X7Y2013D01*
X2590Y2013D02*
X2597Y2013D01*
X0Y2012D02*
X7Y2012D01*
X2590Y2012D02*
X2597Y2012D01*
X0Y2011D02*
X7Y2011D01*
X2590Y2011D02*
X2597Y2011D01*
X0Y2010D02*
X7Y2010D01*
X2590Y2010D02*
X2597Y2010D01*
X0Y2009D02*
X7Y2009D01*
X2590Y2009D02*
X2597Y2009D01*
X0Y2008D02*
X7Y2008D01*
X2590Y2008D02*
X2597Y2008D01*
X0Y2007D02*
X7Y2007D01*
X2590Y2007D02*
X2597Y2007D01*
X0Y2006D02*
X7Y2006D01*
X2590Y2006D02*
X2597Y2006D01*
X0Y2005D02*
X7Y2005D01*
X2590Y2005D02*
X2597Y2005D01*
X0Y2004D02*
X7Y2004D01*
X2590Y2004D02*
X2597Y2004D01*
X0Y2003D02*
X7Y2003D01*
X2590Y2003D02*
X2597Y2003D01*
X0Y2002D02*
X7Y2002D01*
X2590Y2002D02*
X2597Y2002D01*
X0Y2001D02*
X7Y2001D01*
X2590Y2001D02*
X2597Y2001D01*
X0Y2000D02*
X7Y2000D01*
X2590Y2000D02*
X2597Y2000D01*
X0Y1999D02*
X7Y1999D01*
X2590Y1999D02*
X2597Y1999D01*
X0Y1998D02*
X7Y1998D01*
X2590Y1998D02*
X2597Y1998D01*
X0Y1997D02*
X7Y1997D01*
X2590Y1997D02*
X2597Y1997D01*
X0Y1996D02*
X7Y1996D01*
X2590Y1996D02*
X2597Y1996D01*
X0Y1995D02*
X7Y1995D01*
X2590Y1995D02*
X2597Y1995D01*
X0Y1994D02*
X7Y1994D01*
X2590Y1994D02*
X2597Y1994D01*
X0Y1993D02*
X7Y1993D01*
X2590Y1993D02*
X2597Y1993D01*
X0Y1992D02*
X7Y1992D01*
X2590Y1992D02*
X2597Y1992D01*
X0Y1991D02*
X7Y1991D01*
X2590Y1991D02*
X2597Y1991D01*
X0Y1990D02*
X7Y1990D01*
X2590Y1990D02*
X2597Y1990D01*
X0Y1989D02*
X7Y1989D01*
X2590Y1989D02*
X2597Y1989D01*
X0Y1988D02*
X7Y1988D01*
X2590Y1988D02*
X2597Y1988D01*
X0Y1987D02*
X7Y1987D01*
X2590Y1987D02*
X2597Y1987D01*
X0Y1986D02*
X7Y1986D01*
X2590Y1986D02*
X2597Y1986D01*
X0Y1985D02*
X7Y1985D01*
X2590Y1985D02*
X2597Y1985D01*
X0Y1984D02*
X7Y1984D01*
X2590Y1984D02*
X2597Y1984D01*
X0Y1983D02*
X7Y1983D01*
X2590Y1983D02*
X2597Y1983D01*
X0Y1982D02*
X7Y1982D01*
X2590Y1982D02*
X2597Y1982D01*
X0Y1981D02*
X7Y1981D01*
X2590Y1981D02*
X2597Y1981D01*
X0Y1980D02*
X7Y1980D01*
X2590Y1980D02*
X2597Y1980D01*
X0Y1979D02*
X7Y1979D01*
X2590Y1979D02*
X2597Y1979D01*
X0Y1978D02*
X7Y1978D01*
X2590Y1978D02*
X2597Y1978D01*
X0Y1977D02*
X7Y1977D01*
X2590Y1977D02*
X2597Y1977D01*
X0Y1976D02*
X7Y1976D01*
X2590Y1976D02*
X2597Y1976D01*
X0Y1975D02*
X7Y1975D01*
X2590Y1975D02*
X2597Y1975D01*
X0Y1974D02*
X7Y1974D01*
X2590Y1974D02*
X2597Y1974D01*
X0Y1973D02*
X7Y1973D01*
X2590Y1973D02*
X2597Y1973D01*
X0Y1972D02*
X7Y1972D01*
X2590Y1972D02*
X2597Y1972D01*
X0Y1971D02*
X7Y1971D01*
X2590Y1971D02*
X2597Y1971D01*
X0Y1970D02*
X7Y1970D01*
X2590Y1970D02*
X2597Y1970D01*
X0Y1969D02*
X7Y1969D01*
X2590Y1969D02*
X2597Y1969D01*
X0Y1968D02*
X7Y1968D01*
X2590Y1968D02*
X2597Y1968D01*
X0Y1967D02*
X7Y1967D01*
X2590Y1967D02*
X2597Y1967D01*
X0Y1966D02*
X7Y1966D01*
X2590Y1966D02*
X2597Y1966D01*
X0Y1965D02*
X7Y1965D01*
X2590Y1965D02*
X2597Y1965D01*
X0Y1964D02*
X7Y1964D01*
X2590Y1964D02*
X2597Y1964D01*
X0Y1963D02*
X7Y1963D01*
X2590Y1963D02*
X2597Y1963D01*
X0Y1962D02*
X7Y1962D01*
X2590Y1962D02*
X2597Y1962D01*
X0Y1961D02*
X7Y1961D01*
X2590Y1961D02*
X2597Y1961D01*
X0Y1960D02*
X7Y1960D01*
X2590Y1960D02*
X2597Y1960D01*
X0Y1959D02*
X7Y1959D01*
X2590Y1959D02*
X2597Y1959D01*
X0Y1958D02*
X7Y1958D01*
X2590Y1958D02*
X2597Y1958D01*
X0Y1957D02*
X7Y1957D01*
X2590Y1957D02*
X2597Y1957D01*
X0Y1956D02*
X7Y1956D01*
X2590Y1956D02*
X2597Y1956D01*
X0Y1955D02*
X7Y1955D01*
X2590Y1955D02*
X2597Y1955D01*
X0Y1954D02*
X7Y1954D01*
X2590Y1954D02*
X2597Y1954D01*
X0Y1953D02*
X7Y1953D01*
X2590Y1953D02*
X2597Y1953D01*
X0Y1952D02*
X7Y1952D01*
X2590Y1952D02*
X2597Y1952D01*
X0Y1951D02*
X7Y1951D01*
X2590Y1951D02*
X2597Y1951D01*
X0Y1950D02*
X7Y1950D01*
X2590Y1950D02*
X2597Y1950D01*
X0Y1949D02*
X7Y1949D01*
X2590Y1949D02*
X2597Y1949D01*
X0Y1948D02*
X7Y1948D01*
X2590Y1948D02*
X2597Y1948D01*
X0Y1947D02*
X7Y1947D01*
X2590Y1947D02*
X2597Y1947D01*
X0Y1946D02*
X7Y1946D01*
X2590Y1946D02*
X2597Y1946D01*
X0Y1945D02*
X7Y1945D01*
X2590Y1945D02*
X2597Y1945D01*
X0Y1944D02*
X7Y1944D01*
X2590Y1944D02*
X2597Y1944D01*
X0Y1943D02*
X7Y1943D01*
X2590Y1943D02*
X2597Y1943D01*
X0Y1942D02*
X7Y1942D01*
X2590Y1942D02*
X2597Y1942D01*
X0Y1941D02*
X7Y1941D01*
X2590Y1941D02*
X2597Y1941D01*
X0Y1940D02*
X7Y1940D01*
X2590Y1940D02*
X2597Y1940D01*
X0Y1939D02*
X7Y1939D01*
X2590Y1939D02*
X2597Y1939D01*
X0Y1938D02*
X7Y1938D01*
X2590Y1938D02*
X2597Y1938D01*
X0Y1937D02*
X7Y1937D01*
X2590Y1937D02*
X2597Y1937D01*
X0Y1936D02*
X7Y1936D01*
X2590Y1936D02*
X2597Y1936D01*
X0Y1935D02*
X7Y1935D01*
X2590Y1935D02*
X2597Y1935D01*
X0Y1934D02*
X7Y1934D01*
X2590Y1934D02*
X2597Y1934D01*
X0Y1933D02*
X7Y1933D01*
X2590Y1933D02*
X2597Y1933D01*
X0Y1932D02*
X7Y1932D01*
X2590Y1932D02*
X2597Y1932D01*
X0Y1931D02*
X7Y1931D01*
X2590Y1931D02*
X2597Y1931D01*
X0Y1930D02*
X7Y1930D01*
X2590Y1930D02*
X2597Y1930D01*
X0Y1929D02*
X7Y1929D01*
X2590Y1929D02*
X2597Y1929D01*
X0Y1928D02*
X7Y1928D01*
X2590Y1928D02*
X2597Y1928D01*
X0Y1927D02*
X7Y1927D01*
X2590Y1927D02*
X2597Y1927D01*
X0Y1926D02*
X7Y1926D01*
X2590Y1926D02*
X2597Y1926D01*
X0Y1925D02*
X7Y1925D01*
X2590Y1925D02*
X2597Y1925D01*
X0Y1924D02*
X7Y1924D01*
X2590Y1924D02*
X2597Y1924D01*
X0Y1923D02*
X7Y1923D01*
X2590Y1923D02*
X2597Y1923D01*
X0Y1922D02*
X7Y1922D01*
X2590Y1922D02*
X2597Y1922D01*
X0Y1921D02*
X7Y1921D01*
X2590Y1921D02*
X2597Y1921D01*
X0Y1920D02*
X7Y1920D01*
X2590Y1920D02*
X2597Y1920D01*
X0Y1919D02*
X7Y1919D01*
X2590Y1919D02*
X2597Y1919D01*
X0Y1918D02*
X7Y1918D01*
X2590Y1918D02*
X2597Y1918D01*
X0Y1917D02*
X7Y1917D01*
X2590Y1917D02*
X2597Y1917D01*
X0Y1916D02*
X7Y1916D01*
X2590Y1916D02*
X2597Y1916D01*
X0Y1915D02*
X7Y1915D01*
X2590Y1915D02*
X2597Y1915D01*
X0Y1914D02*
X7Y1914D01*
X2590Y1914D02*
X2597Y1914D01*
X0Y1913D02*
X7Y1913D01*
X2590Y1913D02*
X2597Y1913D01*
X0Y1912D02*
X7Y1912D01*
X2590Y1912D02*
X2597Y1912D01*
X0Y1911D02*
X7Y1911D01*
X2590Y1911D02*
X2597Y1911D01*
X0Y1910D02*
X7Y1910D01*
X2590Y1910D02*
X2597Y1910D01*
X0Y1909D02*
X7Y1909D01*
X2590Y1909D02*
X2597Y1909D01*
X0Y1908D02*
X7Y1908D01*
X2590Y1908D02*
X2597Y1908D01*
X0Y1907D02*
X7Y1907D01*
X2590Y1907D02*
X2597Y1907D01*
X0Y1906D02*
X7Y1906D01*
X2590Y1906D02*
X2597Y1906D01*
X0Y1905D02*
X7Y1905D01*
X2590Y1905D02*
X2597Y1905D01*
X0Y1904D02*
X7Y1904D01*
X2590Y1904D02*
X2597Y1904D01*
X0Y1903D02*
X7Y1903D01*
X2590Y1903D02*
X2597Y1903D01*
X0Y1902D02*
X7Y1902D01*
X2590Y1902D02*
X2597Y1902D01*
X0Y1901D02*
X7Y1901D01*
X2590Y1901D02*
X2597Y1901D01*
X0Y1900D02*
X7Y1900D01*
X2590Y1900D02*
X2597Y1900D01*
X0Y1899D02*
X7Y1899D01*
X2590Y1899D02*
X2597Y1899D01*
X0Y1898D02*
X7Y1898D01*
X2590Y1898D02*
X2597Y1898D01*
X0Y1897D02*
X7Y1897D01*
X2590Y1897D02*
X2597Y1897D01*
X0Y1896D02*
X7Y1896D01*
X2590Y1896D02*
X2597Y1896D01*
X0Y1895D02*
X7Y1895D01*
X2590Y1895D02*
X2597Y1895D01*
X0Y1894D02*
X7Y1894D01*
X2590Y1894D02*
X2597Y1894D01*
X0Y1893D02*
X7Y1893D01*
X2590Y1893D02*
X2597Y1893D01*
X0Y1892D02*
X7Y1892D01*
X2590Y1892D02*
X2597Y1892D01*
X0Y1891D02*
X7Y1891D01*
X2590Y1891D02*
X2597Y1891D01*
X0Y1890D02*
X7Y1890D01*
X2590Y1890D02*
X2597Y1890D01*
X0Y1889D02*
X7Y1889D01*
X2590Y1889D02*
X2597Y1889D01*
X0Y1888D02*
X7Y1888D01*
X2590Y1888D02*
X2597Y1888D01*
X0Y1887D02*
X7Y1887D01*
X2590Y1887D02*
X2597Y1887D01*
X0Y1886D02*
X7Y1886D01*
X2590Y1886D02*
X2597Y1886D01*
X0Y1885D02*
X7Y1885D01*
X2590Y1885D02*
X2597Y1885D01*
X0Y1884D02*
X7Y1884D01*
X2590Y1884D02*
X2597Y1884D01*
X0Y1883D02*
X7Y1883D01*
X2590Y1883D02*
X2597Y1883D01*
X0Y1882D02*
X7Y1882D01*
X2590Y1882D02*
X2597Y1882D01*
X0Y1881D02*
X7Y1881D01*
X2590Y1881D02*
X2597Y1881D01*
X0Y1880D02*
X7Y1880D01*
X2590Y1880D02*
X2597Y1880D01*
X0Y1879D02*
X7Y1879D01*
X2590Y1879D02*
X2597Y1879D01*
X0Y1878D02*
X7Y1878D01*
X2590Y1878D02*
X2597Y1878D01*
X0Y1877D02*
X7Y1877D01*
X2590Y1877D02*
X2597Y1877D01*
X0Y1876D02*
X7Y1876D01*
X2590Y1876D02*
X2597Y1876D01*
X0Y1875D02*
X7Y1875D01*
X2590Y1875D02*
X2597Y1875D01*
X0Y1874D02*
X7Y1874D01*
X2590Y1874D02*
X2597Y1874D01*
X0Y1873D02*
X7Y1873D01*
X2590Y1873D02*
X2597Y1873D01*
X0Y1872D02*
X7Y1872D01*
X2590Y1872D02*
X2597Y1872D01*
X0Y1871D02*
X7Y1871D01*
X2590Y1871D02*
X2597Y1871D01*
X0Y1870D02*
X7Y1870D01*
X2590Y1870D02*
X2597Y1870D01*
X0Y1869D02*
X7Y1869D01*
X2590Y1869D02*
X2597Y1869D01*
X0Y1868D02*
X7Y1868D01*
X2590Y1868D02*
X2597Y1868D01*
X0Y1867D02*
X7Y1867D01*
X2590Y1867D02*
X2597Y1867D01*
X0Y1866D02*
X7Y1866D01*
X2590Y1866D02*
X2597Y1866D01*
X0Y1865D02*
X7Y1865D01*
X2590Y1865D02*
X2597Y1865D01*
X0Y1864D02*
X7Y1864D01*
X2590Y1864D02*
X2597Y1864D01*
X0Y1863D02*
X7Y1863D01*
X2590Y1863D02*
X2597Y1863D01*
X0Y1862D02*
X7Y1862D01*
X2590Y1862D02*
X2597Y1862D01*
X0Y1861D02*
X7Y1861D01*
X2590Y1861D02*
X2597Y1861D01*
X0Y1860D02*
X7Y1860D01*
X2590Y1860D02*
X2597Y1860D01*
X0Y1859D02*
X7Y1859D01*
X2590Y1859D02*
X2597Y1859D01*
X0Y1858D02*
X7Y1858D01*
X2590Y1858D02*
X2597Y1858D01*
X0Y1857D02*
X7Y1857D01*
X2590Y1857D02*
X2597Y1857D01*
X0Y1856D02*
X7Y1856D01*
X2590Y1856D02*
X2597Y1856D01*
X0Y1855D02*
X7Y1855D01*
X2590Y1855D02*
X2597Y1855D01*
X0Y1854D02*
X7Y1854D01*
X2590Y1854D02*
X2597Y1854D01*
X0Y1853D02*
X7Y1853D01*
X2590Y1853D02*
X2597Y1853D01*
X0Y1852D02*
X7Y1852D01*
X2590Y1852D02*
X2597Y1852D01*
X0Y1851D02*
X7Y1851D01*
X2590Y1851D02*
X2597Y1851D01*
X0Y1850D02*
X7Y1850D01*
X2590Y1850D02*
X2597Y1850D01*
X0Y1849D02*
X7Y1849D01*
X2590Y1849D02*
X2597Y1849D01*
X0Y1848D02*
X7Y1848D01*
X2590Y1848D02*
X2597Y1848D01*
X0Y1847D02*
X7Y1847D01*
X2590Y1847D02*
X2597Y1847D01*
X0Y1846D02*
X7Y1846D01*
X2590Y1846D02*
X2597Y1846D01*
X0Y1845D02*
X7Y1845D01*
X2590Y1845D02*
X2597Y1845D01*
X0Y1844D02*
X7Y1844D01*
X2590Y1844D02*
X2597Y1844D01*
X0Y1843D02*
X7Y1843D01*
X2590Y1843D02*
X2597Y1843D01*
X0Y1842D02*
X7Y1842D01*
X2590Y1842D02*
X2597Y1842D01*
X0Y1841D02*
X7Y1841D01*
X2590Y1841D02*
X2597Y1841D01*
X0Y1840D02*
X7Y1840D01*
X2590Y1840D02*
X2597Y1840D01*
X0Y1839D02*
X7Y1839D01*
X2590Y1839D02*
X2597Y1839D01*
X0Y1838D02*
X7Y1838D01*
X2590Y1838D02*
X2597Y1838D01*
X0Y1837D02*
X7Y1837D01*
X2590Y1837D02*
X2597Y1837D01*
X0Y1836D02*
X7Y1836D01*
X2590Y1836D02*
X2597Y1836D01*
X0Y1835D02*
X7Y1835D01*
X2590Y1835D02*
X2597Y1835D01*
X0Y1834D02*
X7Y1834D01*
X2590Y1834D02*
X2597Y1834D01*
X0Y1833D02*
X7Y1833D01*
X2590Y1833D02*
X2597Y1833D01*
X0Y1832D02*
X7Y1832D01*
X2590Y1832D02*
X2597Y1832D01*
X0Y1831D02*
X7Y1831D01*
X2590Y1831D02*
X2597Y1831D01*
X0Y1830D02*
X7Y1830D01*
X2590Y1830D02*
X2597Y1830D01*
X0Y1829D02*
X7Y1829D01*
X2590Y1829D02*
X2597Y1829D01*
X0Y1828D02*
X7Y1828D01*
X2590Y1828D02*
X2597Y1828D01*
X0Y1827D02*
X7Y1827D01*
X2590Y1827D02*
X2597Y1827D01*
X0Y1826D02*
X7Y1826D01*
X2590Y1826D02*
X2597Y1826D01*
X0Y1825D02*
X7Y1825D01*
X2590Y1825D02*
X2597Y1825D01*
X0Y1824D02*
X7Y1824D01*
X2590Y1824D02*
X2597Y1824D01*
X0Y1823D02*
X7Y1823D01*
X2590Y1823D02*
X2597Y1823D01*
X0Y1822D02*
X7Y1822D01*
X2590Y1822D02*
X2597Y1822D01*
X0Y1821D02*
X7Y1821D01*
X2590Y1821D02*
X2597Y1821D01*
X0Y1820D02*
X7Y1820D01*
X2590Y1820D02*
X2597Y1820D01*
X0Y1819D02*
X7Y1819D01*
X2590Y1819D02*
X2597Y1819D01*
X0Y1818D02*
X7Y1818D01*
X2590Y1818D02*
X2597Y1818D01*
X0Y1817D02*
X7Y1817D01*
X2590Y1817D02*
X2597Y1817D01*
X0Y1816D02*
X7Y1816D01*
X2590Y1816D02*
X2597Y1816D01*
X0Y1815D02*
X7Y1815D01*
X2590Y1815D02*
X2597Y1815D01*
X0Y1814D02*
X7Y1814D01*
X2590Y1814D02*
X2597Y1814D01*
X0Y1813D02*
X7Y1813D01*
X2590Y1813D02*
X2597Y1813D01*
X0Y1812D02*
X7Y1812D01*
X2590Y1812D02*
X2597Y1812D01*
X0Y1811D02*
X7Y1811D01*
X2590Y1811D02*
X2597Y1811D01*
X0Y1810D02*
X7Y1810D01*
X2590Y1810D02*
X2597Y1810D01*
X0Y1809D02*
X7Y1809D01*
X2590Y1809D02*
X2597Y1809D01*
X0Y1808D02*
X7Y1808D01*
X2590Y1808D02*
X2597Y1808D01*
X0Y1807D02*
X7Y1807D01*
X2590Y1807D02*
X2597Y1807D01*
X0Y1806D02*
X7Y1806D01*
X2590Y1806D02*
X2597Y1806D01*
X0Y1805D02*
X7Y1805D01*
X2590Y1805D02*
X2597Y1805D01*
X0Y1804D02*
X7Y1804D01*
X2590Y1804D02*
X2597Y1804D01*
X0Y1803D02*
X7Y1803D01*
X2590Y1803D02*
X2597Y1803D01*
X0Y1802D02*
X7Y1802D01*
X2590Y1802D02*
X2597Y1802D01*
X0Y1801D02*
X7Y1801D01*
X2590Y1801D02*
X2597Y1801D01*
X0Y1800D02*
X7Y1800D01*
X2590Y1800D02*
X2597Y1800D01*
X0Y1799D02*
X7Y1799D01*
X2590Y1799D02*
X2597Y1799D01*
X0Y1798D02*
X7Y1798D01*
X2590Y1798D02*
X2597Y1798D01*
X0Y1797D02*
X7Y1797D01*
X2590Y1797D02*
X2597Y1797D01*
X0Y1796D02*
X7Y1796D01*
X2590Y1796D02*
X2597Y1796D01*
X0Y1795D02*
X7Y1795D01*
X2590Y1795D02*
X2597Y1795D01*
X0Y1794D02*
X7Y1794D01*
X2590Y1794D02*
X2597Y1794D01*
X0Y1793D02*
X7Y1793D01*
X2590Y1793D02*
X2597Y1793D01*
X0Y1792D02*
X7Y1792D01*
X2590Y1792D02*
X2597Y1792D01*
X0Y1791D02*
X7Y1791D01*
X2590Y1791D02*
X2597Y1791D01*
X0Y1790D02*
X7Y1790D01*
X2590Y1790D02*
X2597Y1790D01*
X0Y1789D02*
X7Y1789D01*
X2590Y1789D02*
X2597Y1789D01*
X0Y1788D02*
X7Y1788D01*
X2590Y1788D02*
X2597Y1788D01*
X0Y1787D02*
X7Y1787D01*
X2590Y1787D02*
X2597Y1787D01*
X0Y1786D02*
X7Y1786D01*
X2590Y1786D02*
X2597Y1786D01*
X0Y1785D02*
X7Y1785D01*
X2590Y1785D02*
X2597Y1785D01*
X0Y1784D02*
X7Y1784D01*
X2590Y1784D02*
X2597Y1784D01*
X0Y1783D02*
X7Y1783D01*
X2590Y1783D02*
X2597Y1783D01*
X0Y1782D02*
X7Y1782D01*
X2590Y1782D02*
X2597Y1782D01*
X0Y1781D02*
X7Y1781D01*
X2590Y1781D02*
X2597Y1781D01*
X0Y1780D02*
X7Y1780D01*
X2590Y1780D02*
X2597Y1780D01*
X0Y1779D02*
X7Y1779D01*
X2590Y1779D02*
X2597Y1779D01*
X0Y1778D02*
X7Y1778D01*
X2590Y1778D02*
X2597Y1778D01*
X0Y1777D02*
X7Y1777D01*
X2590Y1777D02*
X2597Y1777D01*
X0Y1776D02*
X7Y1776D01*
X2590Y1776D02*
X2597Y1776D01*
X0Y1775D02*
X7Y1775D01*
X2590Y1775D02*
X2597Y1775D01*
X0Y1774D02*
X7Y1774D01*
X2590Y1774D02*
X2597Y1774D01*
X0Y1773D02*
X7Y1773D01*
X2590Y1773D02*
X2597Y1773D01*
X0Y1772D02*
X7Y1772D01*
X2590Y1772D02*
X2597Y1772D01*
X0Y1771D02*
X7Y1771D01*
X2590Y1771D02*
X2597Y1771D01*
X0Y1770D02*
X7Y1770D01*
X2590Y1770D02*
X2597Y1770D01*
X0Y1769D02*
X7Y1769D01*
X2590Y1769D02*
X2597Y1769D01*
X0Y1768D02*
X7Y1768D01*
X2590Y1768D02*
X2597Y1768D01*
X0Y1767D02*
X7Y1767D01*
X2590Y1767D02*
X2597Y1767D01*
X0Y1766D02*
X7Y1766D01*
X2590Y1766D02*
X2597Y1766D01*
X0Y1765D02*
X7Y1765D01*
X2590Y1765D02*
X2597Y1765D01*
X0Y1764D02*
X7Y1764D01*
X2590Y1764D02*
X2597Y1764D01*
X0Y1763D02*
X7Y1763D01*
X2590Y1763D02*
X2597Y1763D01*
X0Y1762D02*
X7Y1762D01*
X2590Y1762D02*
X2597Y1762D01*
X0Y1761D02*
X7Y1761D01*
X2590Y1761D02*
X2597Y1761D01*
X0Y1760D02*
X7Y1760D01*
X2590Y1760D02*
X2597Y1760D01*
X0Y1759D02*
X7Y1759D01*
X2590Y1759D02*
X2597Y1759D01*
X0Y1758D02*
X7Y1758D01*
X2590Y1758D02*
X2597Y1758D01*
X0Y1757D02*
X7Y1757D01*
X2590Y1757D02*
X2597Y1757D01*
X0Y1756D02*
X7Y1756D01*
X2590Y1756D02*
X2597Y1756D01*
X0Y1755D02*
X7Y1755D01*
X2590Y1755D02*
X2597Y1755D01*
X0Y1754D02*
X7Y1754D01*
X2590Y1754D02*
X2597Y1754D01*
X0Y1753D02*
X7Y1753D01*
X2590Y1753D02*
X2597Y1753D01*
X0Y1752D02*
X7Y1752D01*
X2590Y1752D02*
X2597Y1752D01*
X0Y1751D02*
X7Y1751D01*
X2590Y1751D02*
X2597Y1751D01*
X0Y1750D02*
X7Y1750D01*
X2590Y1750D02*
X2597Y1750D01*
X0Y1749D02*
X7Y1749D01*
X2590Y1749D02*
X2597Y1749D01*
X0Y1748D02*
X7Y1748D01*
X2590Y1748D02*
X2597Y1748D01*
X0Y1747D02*
X7Y1747D01*
X2590Y1747D02*
X2597Y1747D01*
X0Y1746D02*
X7Y1746D01*
X2590Y1746D02*
X2597Y1746D01*
X0Y1745D02*
X7Y1745D01*
X2590Y1745D02*
X2597Y1745D01*
X0Y1744D02*
X7Y1744D01*
X2590Y1744D02*
X2597Y1744D01*
X0Y1743D02*
X7Y1743D01*
X2590Y1743D02*
X2597Y1743D01*
X0Y1742D02*
X7Y1742D01*
X2590Y1742D02*
X2597Y1742D01*
X0Y1741D02*
X7Y1741D01*
X2590Y1741D02*
X2597Y1741D01*
X0Y1740D02*
X7Y1740D01*
X2590Y1740D02*
X2597Y1740D01*
X0Y1739D02*
X7Y1739D01*
X2590Y1739D02*
X2597Y1739D01*
X0Y1738D02*
X7Y1738D01*
X2590Y1738D02*
X2597Y1738D01*
X0Y1737D02*
X7Y1737D01*
X2590Y1737D02*
X2597Y1737D01*
X0Y1736D02*
X7Y1736D01*
X2590Y1736D02*
X2597Y1736D01*
X0Y1735D02*
X7Y1735D01*
X2590Y1735D02*
X2597Y1735D01*
X0Y1734D02*
X7Y1734D01*
X2590Y1734D02*
X2597Y1734D01*
X0Y1733D02*
X7Y1733D01*
X2590Y1733D02*
X2597Y1733D01*
X0Y1732D02*
X7Y1732D01*
X2590Y1732D02*
X2597Y1732D01*
X0Y1731D02*
X7Y1731D01*
X2590Y1731D02*
X2597Y1731D01*
X0Y1730D02*
X7Y1730D01*
X2590Y1730D02*
X2597Y1730D01*
X0Y1729D02*
X7Y1729D01*
X2590Y1729D02*
X2597Y1729D01*
X0Y1728D02*
X7Y1728D01*
X2590Y1728D02*
X2597Y1728D01*
X0Y1727D02*
X7Y1727D01*
X2590Y1727D02*
X2597Y1727D01*
X0Y1726D02*
X7Y1726D01*
X2590Y1726D02*
X2597Y1726D01*
X0Y1725D02*
X7Y1725D01*
X2590Y1725D02*
X2597Y1725D01*
X0Y1724D02*
X7Y1724D01*
X2590Y1724D02*
X2597Y1724D01*
X0Y1723D02*
X7Y1723D01*
X2590Y1723D02*
X2597Y1723D01*
X0Y1722D02*
X7Y1722D01*
X2590Y1722D02*
X2597Y1722D01*
X0Y1721D02*
X7Y1721D01*
X2590Y1721D02*
X2597Y1721D01*
X0Y1720D02*
X7Y1720D01*
X2590Y1720D02*
X2597Y1720D01*
X0Y1719D02*
X7Y1719D01*
X2590Y1719D02*
X2597Y1719D01*
X0Y1718D02*
X7Y1718D01*
X2590Y1718D02*
X2597Y1718D01*
X0Y1717D02*
X7Y1717D01*
X2590Y1717D02*
X2597Y1717D01*
X0Y1716D02*
X7Y1716D01*
X2590Y1716D02*
X2597Y1716D01*
X0Y1715D02*
X7Y1715D01*
X2590Y1715D02*
X2597Y1715D01*
X0Y1714D02*
X7Y1714D01*
X2590Y1714D02*
X2597Y1714D01*
X0Y1713D02*
X7Y1713D01*
X2590Y1713D02*
X2597Y1713D01*
X0Y1712D02*
X7Y1712D01*
X2590Y1712D02*
X2597Y1712D01*
X0Y1711D02*
X7Y1711D01*
X2590Y1711D02*
X2597Y1711D01*
X0Y1710D02*
X7Y1710D01*
X2590Y1710D02*
X2597Y1710D01*
X0Y1709D02*
X7Y1709D01*
X2590Y1709D02*
X2597Y1709D01*
X0Y1708D02*
X7Y1708D01*
X2590Y1708D02*
X2597Y1708D01*
X0Y1707D02*
X7Y1707D01*
X2590Y1707D02*
X2597Y1707D01*
X0Y1706D02*
X7Y1706D01*
X2590Y1706D02*
X2597Y1706D01*
X0Y1705D02*
X7Y1705D01*
X2590Y1705D02*
X2597Y1705D01*
X0Y1704D02*
X7Y1704D01*
X2590Y1704D02*
X2597Y1704D01*
X0Y1703D02*
X7Y1703D01*
X2590Y1703D02*
X2597Y1703D01*
X0Y1702D02*
X7Y1702D01*
X2590Y1702D02*
X2597Y1702D01*
X0Y1701D02*
X7Y1701D01*
X2590Y1701D02*
X2597Y1701D01*
X0Y1700D02*
X7Y1700D01*
X2590Y1700D02*
X2597Y1700D01*
X0Y1699D02*
X7Y1699D01*
X2590Y1699D02*
X2597Y1699D01*
X0Y1698D02*
X7Y1698D01*
X2590Y1698D02*
X2597Y1698D01*
X0Y1697D02*
X7Y1697D01*
X2590Y1697D02*
X2597Y1697D01*
X0Y1696D02*
X7Y1696D01*
X2590Y1696D02*
X2597Y1696D01*
X0Y1695D02*
X7Y1695D01*
X2590Y1695D02*
X2597Y1695D01*
X0Y1694D02*
X7Y1694D01*
X2590Y1694D02*
X2597Y1694D01*
X0Y1693D02*
X7Y1693D01*
X2590Y1693D02*
X2597Y1693D01*
X0Y1692D02*
X7Y1692D01*
X2590Y1692D02*
X2597Y1692D01*
X0Y1691D02*
X7Y1691D01*
X2590Y1691D02*
X2597Y1691D01*
X0Y1690D02*
X7Y1690D01*
X2590Y1690D02*
X2597Y1690D01*
X0Y1689D02*
X7Y1689D01*
X2590Y1689D02*
X2597Y1689D01*
X0Y1688D02*
X7Y1688D01*
X2590Y1688D02*
X2597Y1688D01*
X0Y1687D02*
X7Y1687D01*
X2590Y1687D02*
X2597Y1687D01*
X0Y1686D02*
X7Y1686D01*
X2590Y1686D02*
X2597Y1686D01*
X0Y1685D02*
X7Y1685D01*
X2590Y1685D02*
X2597Y1685D01*
X0Y1684D02*
X7Y1684D01*
X2590Y1684D02*
X2597Y1684D01*
X0Y1683D02*
X7Y1683D01*
X2590Y1683D02*
X2597Y1683D01*
X0Y1682D02*
X7Y1682D01*
X2590Y1682D02*
X2597Y1682D01*
X0Y1681D02*
X7Y1681D01*
X2590Y1681D02*
X2597Y1681D01*
X0Y1680D02*
X7Y1680D01*
X2590Y1680D02*
X2597Y1680D01*
X0Y1679D02*
X7Y1679D01*
X2590Y1679D02*
X2597Y1679D01*
X0Y1678D02*
X7Y1678D01*
X2590Y1678D02*
X2597Y1678D01*
X0Y1677D02*
X7Y1677D01*
X2590Y1677D02*
X2597Y1677D01*
X0Y1676D02*
X7Y1676D01*
X2590Y1676D02*
X2597Y1676D01*
X0Y1675D02*
X7Y1675D01*
X2590Y1675D02*
X2597Y1675D01*
X0Y1674D02*
X7Y1674D01*
X2590Y1674D02*
X2597Y1674D01*
X0Y1673D02*
X7Y1673D01*
X2590Y1673D02*
X2597Y1673D01*
X0Y1672D02*
X7Y1672D01*
X2590Y1672D02*
X2597Y1672D01*
X0Y1671D02*
X7Y1671D01*
X2590Y1671D02*
X2597Y1671D01*
X0Y1670D02*
X7Y1670D01*
X2590Y1670D02*
X2597Y1670D01*
X0Y1669D02*
X7Y1669D01*
X2590Y1669D02*
X2597Y1669D01*
X0Y1668D02*
X7Y1668D01*
X2590Y1668D02*
X2597Y1668D01*
X0Y1667D02*
X7Y1667D01*
X2590Y1667D02*
X2597Y1667D01*
X0Y1666D02*
X7Y1666D01*
X2590Y1666D02*
X2597Y1666D01*
X0Y1665D02*
X7Y1665D01*
X2590Y1665D02*
X2597Y1665D01*
X0Y1664D02*
X7Y1664D01*
X2590Y1664D02*
X2597Y1664D01*
X0Y1663D02*
X7Y1663D01*
X2590Y1663D02*
X2597Y1663D01*
X0Y1662D02*
X7Y1662D01*
X2590Y1662D02*
X2597Y1662D01*
X0Y1661D02*
X7Y1661D01*
X2590Y1661D02*
X2597Y1661D01*
X0Y1660D02*
X7Y1660D01*
X2590Y1660D02*
X2597Y1660D01*
X0Y1659D02*
X7Y1659D01*
X2590Y1659D02*
X2597Y1659D01*
X0Y1658D02*
X7Y1658D01*
X2590Y1658D02*
X2597Y1658D01*
X0Y1657D02*
X7Y1657D01*
X2590Y1657D02*
X2597Y1657D01*
X0Y1656D02*
X7Y1656D01*
X2590Y1656D02*
X2597Y1656D01*
X0Y1655D02*
X7Y1655D01*
X2590Y1655D02*
X2597Y1655D01*
X0Y1654D02*
X7Y1654D01*
X2590Y1654D02*
X2597Y1654D01*
X0Y1653D02*
X7Y1653D01*
X2590Y1653D02*
X2597Y1653D01*
X0Y1652D02*
X7Y1652D01*
X2590Y1652D02*
X2597Y1652D01*
X0Y1651D02*
X7Y1651D01*
X2590Y1651D02*
X2597Y1651D01*
X0Y1650D02*
X7Y1650D01*
X2590Y1650D02*
X2597Y1650D01*
X0Y1649D02*
X7Y1649D01*
X2590Y1649D02*
X2597Y1649D01*
X0Y1648D02*
X7Y1648D01*
X2590Y1648D02*
X2597Y1648D01*
X0Y1647D02*
X7Y1647D01*
X2590Y1647D02*
X2597Y1647D01*
X0Y1646D02*
X7Y1646D01*
X2590Y1646D02*
X2597Y1646D01*
X0Y1645D02*
X7Y1645D01*
X2590Y1645D02*
X2597Y1645D01*
X0Y1644D02*
X7Y1644D01*
X2590Y1644D02*
X2597Y1644D01*
X0Y1643D02*
X7Y1643D01*
X2590Y1643D02*
X2597Y1643D01*
X0Y1642D02*
X7Y1642D01*
X2590Y1642D02*
X2597Y1642D01*
X0Y1641D02*
X7Y1641D01*
X2590Y1641D02*
X2597Y1641D01*
X0Y1640D02*
X7Y1640D01*
X2590Y1640D02*
X2597Y1640D01*
X0Y1639D02*
X7Y1639D01*
X2590Y1639D02*
X2597Y1639D01*
X0Y1638D02*
X7Y1638D01*
X2590Y1638D02*
X2597Y1638D01*
X0Y1637D02*
X7Y1637D01*
X2590Y1637D02*
X2597Y1637D01*
X0Y1636D02*
X7Y1636D01*
X113Y1636D02*
X114Y1636D01*
X173Y1636D02*
X174Y1636D01*
X2590Y1636D02*
X2597Y1636D01*
X0Y1635D02*
X7Y1635D01*
X112Y1635D02*
X116Y1635D01*
X172Y1635D02*
X176Y1635D01*
X2590Y1635D02*
X2597Y1635D01*
X0Y1634D02*
X7Y1634D01*
X112Y1634D02*
X116Y1634D01*
X172Y1634D02*
X176Y1634D01*
X2590Y1634D02*
X2597Y1634D01*
X0Y1633D02*
X7Y1633D01*
X112Y1633D02*
X116Y1633D01*
X172Y1633D02*
X176Y1633D01*
X2590Y1633D02*
X2597Y1633D01*
X0Y1632D02*
X7Y1632D01*
X112Y1632D02*
X116Y1632D01*
X172Y1632D02*
X176Y1632D01*
X2590Y1632D02*
X2597Y1632D01*
X0Y1631D02*
X7Y1631D01*
X112Y1631D02*
X116Y1631D01*
X172Y1631D02*
X176Y1631D01*
X2590Y1631D02*
X2597Y1631D01*
X0Y1630D02*
X7Y1630D01*
X112Y1630D02*
X116Y1630D01*
X172Y1630D02*
X176Y1630D01*
X2590Y1630D02*
X2597Y1630D01*
X0Y1629D02*
X7Y1629D01*
X112Y1629D02*
X116Y1629D01*
X172Y1629D02*
X176Y1629D01*
X2590Y1629D02*
X2597Y1629D01*
X0Y1628D02*
X7Y1628D01*
X112Y1628D02*
X116Y1628D01*
X172Y1628D02*
X176Y1628D01*
X2590Y1628D02*
X2597Y1628D01*
X0Y1627D02*
X7Y1627D01*
X112Y1627D02*
X116Y1627D01*
X172Y1627D02*
X176Y1627D01*
X2590Y1627D02*
X2597Y1627D01*
X0Y1626D02*
X7Y1626D01*
X112Y1626D02*
X116Y1626D01*
X172Y1626D02*
X176Y1626D01*
X2590Y1626D02*
X2597Y1626D01*
X0Y1625D02*
X7Y1625D01*
X112Y1625D02*
X116Y1625D01*
X172Y1625D02*
X176Y1625D01*
X2590Y1625D02*
X2597Y1625D01*
X0Y1624D02*
X7Y1624D01*
X112Y1624D02*
X116Y1624D01*
X172Y1624D02*
X176Y1624D01*
X2590Y1624D02*
X2597Y1624D01*
X0Y1623D02*
X7Y1623D01*
X112Y1623D02*
X116Y1623D01*
X172Y1623D02*
X176Y1623D01*
X2590Y1623D02*
X2597Y1623D01*
X0Y1622D02*
X7Y1622D01*
X112Y1622D02*
X116Y1622D01*
X172Y1622D02*
X176Y1622D01*
X2590Y1622D02*
X2597Y1622D01*
X0Y1621D02*
X7Y1621D01*
X112Y1621D02*
X116Y1621D01*
X172Y1621D02*
X176Y1621D01*
X2590Y1621D02*
X2597Y1621D01*
X0Y1620D02*
X7Y1620D01*
X112Y1620D02*
X116Y1620D01*
X172Y1620D02*
X176Y1620D01*
X2590Y1620D02*
X2597Y1620D01*
X0Y1619D02*
X7Y1619D01*
X112Y1619D02*
X116Y1619D01*
X172Y1619D02*
X176Y1619D01*
X2590Y1619D02*
X2597Y1619D01*
X0Y1618D02*
X7Y1618D01*
X112Y1618D02*
X116Y1618D01*
X172Y1618D02*
X176Y1618D01*
X2590Y1618D02*
X2597Y1618D01*
X0Y1617D02*
X7Y1617D01*
X112Y1617D02*
X116Y1617D01*
X172Y1617D02*
X176Y1617D01*
X2590Y1617D02*
X2597Y1617D01*
X0Y1616D02*
X7Y1616D01*
X112Y1616D02*
X116Y1616D01*
X172Y1616D02*
X176Y1616D01*
X2590Y1616D02*
X2597Y1616D01*
X0Y1615D02*
X7Y1615D01*
X112Y1615D02*
X116Y1615D01*
X172Y1615D02*
X176Y1615D01*
X2590Y1615D02*
X2597Y1615D01*
X0Y1614D02*
X7Y1614D01*
X112Y1614D02*
X116Y1614D01*
X172Y1614D02*
X176Y1614D01*
X2590Y1614D02*
X2597Y1614D01*
X0Y1613D02*
X7Y1613D01*
X112Y1613D02*
X116Y1613D01*
X172Y1613D02*
X176Y1613D01*
X2590Y1613D02*
X2597Y1613D01*
X0Y1612D02*
X7Y1612D01*
X112Y1612D02*
X116Y1612D01*
X172Y1612D02*
X176Y1612D01*
X2590Y1612D02*
X2597Y1612D01*
X0Y1611D02*
X7Y1611D01*
X112Y1611D02*
X115Y1611D01*
X172Y1611D02*
X176Y1611D01*
X2590Y1611D02*
X2597Y1611D01*
X0Y1610D02*
X7Y1610D01*
X112Y1610D02*
X115Y1610D01*
X173Y1610D02*
X176Y1610D01*
X2590Y1610D02*
X2597Y1610D01*
X0Y1609D02*
X7Y1609D01*
X112Y1609D02*
X115Y1609D01*
X173Y1609D02*
X176Y1609D01*
X2590Y1609D02*
X2597Y1609D01*
X0Y1608D02*
X7Y1608D01*
X112Y1608D02*
X114Y1608D01*
X174Y1608D02*
X176Y1608D01*
X2590Y1608D02*
X2597Y1608D01*
X0Y1607D02*
X7Y1607D01*
X112Y1607D02*
X114Y1607D01*
X174Y1607D02*
X176Y1607D01*
X2590Y1607D02*
X2597Y1607D01*
X0Y1606D02*
X7Y1606D01*
X112Y1606D02*
X114Y1606D01*
X174Y1606D02*
X176Y1606D01*
X2590Y1606D02*
X2597Y1606D01*
X0Y1605D02*
X7Y1605D01*
X112Y1605D02*
X113Y1605D01*
X174Y1605D02*
X176Y1605D01*
X2590Y1605D02*
X2597Y1605D01*
X0Y1604D02*
X7Y1604D01*
X112Y1604D02*
X113Y1604D01*
X175Y1604D02*
X176Y1604D01*
X2590Y1604D02*
X2597Y1604D01*
X0Y1603D02*
X7Y1603D01*
X112Y1603D02*
X113Y1603D01*
X175Y1603D02*
X176Y1603D01*
X2590Y1603D02*
X2597Y1603D01*
X0Y1602D02*
X7Y1602D01*
X112Y1602D02*
X113Y1602D01*
X175Y1602D02*
X176Y1602D01*
X2590Y1602D02*
X2597Y1602D01*
X0Y1601D02*
X7Y1601D01*
X112Y1601D02*
X113Y1601D01*
X175Y1601D02*
X176Y1601D01*
X2590Y1601D02*
X2597Y1601D01*
X0Y1600D02*
X7Y1600D01*
X112Y1600D02*
X113Y1600D01*
X175Y1600D02*
X176Y1600D01*
X2590Y1600D02*
X2597Y1600D01*
X0Y1599D02*
X7Y1599D01*
X112Y1599D02*
X113Y1599D01*
X175Y1599D02*
X176Y1599D01*
X2590Y1599D02*
X2597Y1599D01*
X0Y1598D02*
X7Y1598D01*
X112Y1598D02*
X113Y1598D01*
X175Y1598D02*
X176Y1598D01*
X2590Y1598D02*
X2597Y1598D01*
X0Y1597D02*
X7Y1597D01*
X112Y1597D02*
X113Y1597D01*
X175Y1597D02*
X176Y1597D01*
X2590Y1597D02*
X2597Y1597D01*
X0Y1596D02*
X7Y1596D01*
X112Y1596D02*
X113Y1596D01*
X175Y1596D02*
X176Y1596D01*
X2590Y1596D02*
X2597Y1596D01*
X0Y1595D02*
X7Y1595D01*
X112Y1595D02*
X113Y1595D01*
X175Y1595D02*
X176Y1595D01*
X2590Y1595D02*
X2597Y1595D01*
X0Y1594D02*
X7Y1594D01*
X112Y1594D02*
X113Y1594D01*
X175Y1594D02*
X176Y1594D01*
X2590Y1594D02*
X2597Y1594D01*
X0Y1593D02*
X7Y1593D01*
X112Y1593D02*
X113Y1593D01*
X175Y1593D02*
X176Y1593D01*
X2590Y1593D02*
X2597Y1593D01*
X0Y1592D02*
X7Y1592D01*
X112Y1592D02*
X114Y1592D01*
X174Y1592D02*
X176Y1592D01*
X2590Y1592D02*
X2597Y1592D01*
X0Y1591D02*
X7Y1591D01*
X112Y1591D02*
X114Y1591D01*
X174Y1591D02*
X176Y1591D01*
X2590Y1591D02*
X2597Y1591D01*
X0Y1590D02*
X7Y1590D01*
X112Y1590D02*
X114Y1590D01*
X174Y1590D02*
X176Y1590D01*
X2590Y1590D02*
X2597Y1590D01*
X0Y1589D02*
X7Y1589D01*
X112Y1589D02*
X114Y1589D01*
X173Y1589D02*
X176Y1589D01*
X2590Y1589D02*
X2597Y1589D01*
X0Y1588D02*
X7Y1588D01*
X112Y1588D02*
X115Y1588D01*
X173Y1588D02*
X176Y1588D01*
X2590Y1588D02*
X2597Y1588D01*
X0Y1587D02*
X7Y1587D01*
X112Y1587D02*
X115Y1587D01*
X173Y1587D02*
X176Y1587D01*
X2590Y1587D02*
X2597Y1587D01*
X0Y1586D02*
X7Y1586D01*
X112Y1586D02*
X116Y1586D01*
X172Y1586D02*
X176Y1586D01*
X2590Y1586D02*
X2597Y1586D01*
X0Y1585D02*
X7Y1585D01*
X112Y1585D02*
X116Y1585D01*
X172Y1585D02*
X176Y1585D01*
X2590Y1585D02*
X2597Y1585D01*
X0Y1584D02*
X7Y1584D01*
X112Y1584D02*
X116Y1584D01*
X172Y1584D02*
X176Y1584D01*
X2590Y1584D02*
X2597Y1584D01*
X0Y1583D02*
X7Y1583D01*
X112Y1583D02*
X116Y1583D01*
X172Y1583D02*
X176Y1583D01*
X2590Y1583D02*
X2597Y1583D01*
X0Y1582D02*
X7Y1582D01*
X112Y1582D02*
X116Y1582D01*
X172Y1582D02*
X176Y1582D01*
X2590Y1582D02*
X2597Y1582D01*
X0Y1581D02*
X7Y1581D01*
X111Y1581D02*
X116Y1581D01*
X172Y1581D02*
X176Y1581D01*
X2590Y1581D02*
X2597Y1581D01*
X0Y1580D02*
X7Y1580D01*
X106Y1580D02*
X116Y1580D01*
X172Y1580D02*
X176Y1580D01*
X2590Y1580D02*
X2597Y1580D01*
X0Y1579D02*
X7Y1579D01*
X103Y1579D02*
X116Y1579D01*
X172Y1579D02*
X176Y1579D01*
X2590Y1579D02*
X2597Y1579D01*
X0Y1578D02*
X7Y1578D01*
X101Y1578D02*
X116Y1578D01*
X172Y1578D02*
X176Y1578D01*
X2590Y1578D02*
X2597Y1578D01*
X0Y1577D02*
X7Y1577D01*
X99Y1577D02*
X115Y1577D01*
X172Y1577D02*
X176Y1577D01*
X2590Y1577D02*
X2597Y1577D01*
X0Y1576D02*
X7Y1576D01*
X97Y1576D02*
X110Y1576D01*
X172Y1576D02*
X176Y1576D01*
X2590Y1576D02*
X2597Y1576D01*
X0Y1575D02*
X7Y1575D01*
X96Y1575D02*
X105Y1575D01*
X172Y1575D02*
X176Y1575D01*
X2590Y1575D02*
X2597Y1575D01*
X0Y1574D02*
X7Y1574D01*
X94Y1574D02*
X102Y1574D01*
X172Y1574D02*
X176Y1574D01*
X2590Y1574D02*
X2597Y1574D01*
X0Y1573D02*
X7Y1573D01*
X93Y1573D02*
X100Y1573D01*
X172Y1573D02*
X176Y1573D01*
X2590Y1573D02*
X2597Y1573D01*
X0Y1572D02*
X7Y1572D01*
X92Y1572D02*
X98Y1572D01*
X172Y1572D02*
X176Y1572D01*
X2590Y1572D02*
X2597Y1572D01*
X0Y1571D02*
X7Y1571D01*
X91Y1571D02*
X97Y1571D01*
X172Y1571D02*
X176Y1571D01*
X2590Y1571D02*
X2597Y1571D01*
X0Y1570D02*
X7Y1570D01*
X90Y1570D02*
X96Y1570D01*
X172Y1570D02*
X176Y1570D01*
X2590Y1570D02*
X2597Y1570D01*
X0Y1569D02*
X7Y1569D01*
X89Y1569D02*
X95Y1569D01*
X172Y1569D02*
X176Y1569D01*
X2590Y1569D02*
X2597Y1569D01*
X0Y1568D02*
X7Y1568D01*
X88Y1568D02*
X94Y1568D01*
X172Y1568D02*
X176Y1568D01*
X2590Y1568D02*
X2597Y1568D01*
X0Y1567D02*
X7Y1567D01*
X88Y1567D02*
X93Y1567D01*
X172Y1567D02*
X176Y1567D01*
X2590Y1567D02*
X2597Y1567D01*
X0Y1566D02*
X7Y1566D01*
X87Y1566D02*
X92Y1566D01*
X172Y1566D02*
X176Y1566D01*
X2590Y1566D02*
X2597Y1566D01*
X0Y1565D02*
X7Y1565D01*
X86Y1565D02*
X91Y1565D01*
X172Y1565D02*
X176Y1565D01*
X2590Y1565D02*
X2597Y1565D01*
X0Y1564D02*
X7Y1564D01*
X86Y1564D02*
X90Y1564D01*
X172Y1564D02*
X176Y1564D01*
X2590Y1564D02*
X2597Y1564D01*
X0Y1563D02*
X7Y1563D01*
X85Y1563D02*
X90Y1563D01*
X172Y1563D02*
X176Y1563D01*
X2590Y1563D02*
X2597Y1563D01*
X0Y1562D02*
X7Y1562D01*
X85Y1562D02*
X89Y1562D01*
X173Y1562D02*
X175Y1562D01*
X2590Y1562D02*
X2597Y1562D01*
X0Y1561D02*
X7Y1561D01*
X84Y1561D02*
X89Y1561D01*
X2590Y1561D02*
X2597Y1561D01*
X0Y1560D02*
X7Y1560D01*
X84Y1560D02*
X88Y1560D01*
X2590Y1560D02*
X2597Y1560D01*
X0Y1559D02*
X7Y1559D01*
X84Y1559D02*
X88Y1559D01*
X2590Y1559D02*
X2597Y1559D01*
X0Y1558D02*
X7Y1558D01*
X83Y1558D02*
X87Y1558D01*
X2590Y1558D02*
X2597Y1558D01*
X0Y1557D02*
X7Y1557D01*
X83Y1557D02*
X87Y1557D01*
X2590Y1557D02*
X2597Y1557D01*
X0Y1556D02*
X7Y1556D01*
X83Y1556D02*
X87Y1556D01*
X2590Y1556D02*
X2597Y1556D01*
X0Y1555D02*
X7Y1555D01*
X83Y1555D02*
X87Y1555D01*
X2590Y1555D02*
X2597Y1555D01*
X0Y1554D02*
X7Y1554D01*
X82Y1554D02*
X86Y1554D01*
X2590Y1554D02*
X2597Y1554D01*
X0Y1553D02*
X7Y1553D01*
X82Y1553D02*
X86Y1553D01*
X2590Y1553D02*
X2597Y1553D01*
X0Y1552D02*
X7Y1552D01*
X82Y1552D02*
X86Y1552D01*
X2590Y1552D02*
X2597Y1552D01*
X0Y1551D02*
X7Y1551D01*
X82Y1551D02*
X86Y1551D01*
X2590Y1551D02*
X2597Y1551D01*
X0Y1550D02*
X7Y1550D01*
X82Y1550D02*
X86Y1550D01*
X2590Y1550D02*
X2597Y1550D01*
X0Y1549D02*
X7Y1549D01*
X82Y1549D02*
X86Y1549D01*
X2590Y1549D02*
X2597Y1549D01*
X0Y1548D02*
X7Y1548D01*
X82Y1548D02*
X86Y1548D01*
X1327Y1548D02*
X1350Y1548D01*
X1527Y1548D02*
X1550Y1548D01*
X1674Y1548D02*
X1692Y1548D01*
X1727Y1548D02*
X1749Y1548D01*
X1874Y1548D02*
X1901Y1548D01*
X1927Y1548D02*
X1949Y1548D01*
X2074Y1548D02*
X2101Y1548D01*
X2275Y1548D02*
X2278Y1548D01*
X2590Y1548D02*
X2597Y1548D01*
X0Y1547D02*
X7Y1547D01*
X82Y1547D02*
X86Y1547D01*
X1325Y1547D02*
X1351Y1547D01*
X1525Y1547D02*
X1551Y1547D01*
X1673Y1547D02*
X1692Y1547D01*
X1725Y1547D02*
X1751Y1547D01*
X1873Y1547D02*
X1903Y1547D01*
X1925Y1547D02*
X1951Y1547D01*
X2073Y1547D02*
X2103Y1547D01*
X2274Y1547D02*
X2279Y1547D01*
X2590Y1547D02*
X2597Y1547D01*
X0Y1546D02*
X7Y1546D01*
X82Y1546D02*
X86Y1546D01*
X1324Y1546D02*
X1353Y1546D01*
X1524Y1546D02*
X1553Y1546D01*
X1672Y1546D02*
X1692Y1546D01*
X1724Y1546D02*
X1753Y1546D01*
X1872Y1546D02*
X1904Y1546D01*
X1924Y1546D02*
X1953Y1546D01*
X2072Y1546D02*
X2104Y1546D01*
X2274Y1546D02*
X2279Y1546D01*
X2590Y1546D02*
X2597Y1546D01*
X0Y1545D02*
X7Y1545D01*
X82Y1545D02*
X86Y1545D01*
X1323Y1545D02*
X1354Y1545D01*
X1523Y1545D02*
X1554Y1545D01*
X1672Y1545D02*
X1692Y1545D01*
X1723Y1545D02*
X1753Y1545D01*
X1872Y1545D02*
X1905Y1545D01*
X1923Y1545D02*
X1953Y1545D01*
X2072Y1545D02*
X2105Y1545D01*
X2274Y1545D02*
X2280Y1545D01*
X2590Y1545D02*
X2597Y1545D01*
X0Y1544D02*
X7Y1544D01*
X82Y1544D02*
X86Y1544D01*
X1323Y1544D02*
X1354Y1544D01*
X1523Y1544D02*
X1554Y1544D01*
X1672Y1544D02*
X1692Y1544D01*
X1723Y1544D02*
X1754Y1544D01*
X1872Y1544D02*
X1905Y1544D01*
X1923Y1544D02*
X1954Y1544D01*
X2072Y1544D02*
X2105Y1544D01*
X2274Y1544D02*
X2280Y1544D01*
X2590Y1544D02*
X2597Y1544D01*
X0Y1543D02*
X7Y1543D01*
X82Y1543D02*
X87Y1543D01*
X1322Y1543D02*
X1355Y1543D01*
X1522Y1543D02*
X1555Y1543D01*
X1673Y1543D02*
X1692Y1543D01*
X1722Y1543D02*
X1755Y1543D01*
X1873Y1543D02*
X1905Y1543D01*
X1922Y1543D02*
X1955Y1543D01*
X2073Y1543D02*
X2105Y1543D01*
X2274Y1543D02*
X2280Y1543D01*
X2590Y1543D02*
X2597Y1543D01*
X0Y1542D02*
X7Y1542D01*
X83Y1542D02*
X87Y1542D01*
X1322Y1542D02*
X1355Y1542D01*
X1522Y1542D02*
X1555Y1542D01*
X1674Y1542D02*
X1692Y1542D01*
X1722Y1542D02*
X1755Y1542D01*
X1874Y1542D02*
X1906Y1542D01*
X1922Y1542D02*
X1955Y1542D01*
X2074Y1542D02*
X2105Y1542D01*
X2274Y1542D02*
X2280Y1542D01*
X2296Y1542D02*
X2299Y1542D01*
X2590Y1542D02*
X2597Y1542D01*
X0Y1541D02*
X7Y1541D01*
X83Y1541D02*
X87Y1541D01*
X1322Y1541D02*
X1328Y1541D01*
X1349Y1541D02*
X1355Y1541D01*
X1522Y1541D02*
X1528Y1541D01*
X1549Y1541D02*
X1555Y1541D01*
X1686Y1541D02*
X1692Y1541D01*
X1722Y1541D02*
X1728Y1541D01*
X1749Y1541D02*
X1755Y1541D01*
X1900Y1541D02*
X1906Y1541D01*
X1922Y1541D02*
X1928Y1541D01*
X1949Y1541D02*
X1955Y1541D01*
X2100Y1541D02*
X2106Y1541D01*
X2274Y1541D02*
X2280Y1541D01*
X2295Y1541D02*
X2300Y1541D01*
X2590Y1541D02*
X2597Y1541D01*
X0Y1540D02*
X7Y1540D01*
X83Y1540D02*
X87Y1540D01*
X1322Y1540D02*
X1328Y1540D01*
X1349Y1540D02*
X1356Y1540D01*
X1522Y1540D02*
X1528Y1540D01*
X1549Y1540D02*
X1556Y1540D01*
X1686Y1540D02*
X1692Y1540D01*
X1722Y1540D02*
X1728Y1540D01*
X1749Y1540D02*
X1756Y1540D01*
X1900Y1540D02*
X1906Y1540D01*
X1922Y1540D02*
X1928Y1540D01*
X1949Y1540D02*
X1955Y1540D01*
X2100Y1540D02*
X2106Y1540D01*
X2274Y1540D02*
X2280Y1540D01*
X2294Y1540D02*
X2300Y1540D01*
X2590Y1540D02*
X2597Y1540D01*
X0Y1539D02*
X7Y1539D01*
X84Y1539D02*
X88Y1539D01*
X1322Y1539D02*
X1329Y1539D01*
X1350Y1539D02*
X1356Y1539D01*
X1522Y1539D02*
X1529Y1539D01*
X1550Y1539D02*
X1556Y1539D01*
X1686Y1539D02*
X1692Y1539D01*
X1722Y1539D02*
X1729Y1539D01*
X1750Y1539D02*
X1756Y1539D01*
X1900Y1539D02*
X1906Y1539D01*
X1922Y1539D02*
X1929Y1539D01*
X1950Y1539D02*
X1955Y1539D01*
X2100Y1539D02*
X2106Y1539D01*
X2274Y1539D02*
X2280Y1539D01*
X2294Y1539D02*
X2300Y1539D01*
X2590Y1539D02*
X2597Y1539D01*
X0Y1538D02*
X7Y1538D01*
X84Y1538D02*
X88Y1538D01*
X1323Y1538D02*
X1330Y1538D01*
X1350Y1538D02*
X1355Y1538D01*
X1523Y1538D02*
X1530Y1538D01*
X1550Y1538D02*
X1555Y1538D01*
X1686Y1538D02*
X1692Y1538D01*
X1723Y1538D02*
X1730Y1538D01*
X1750Y1538D02*
X1755Y1538D01*
X1900Y1538D02*
X1906Y1538D01*
X1922Y1538D02*
X1930Y1538D01*
X1950Y1538D02*
X1955Y1538D01*
X2100Y1538D02*
X2106Y1538D01*
X2274Y1538D02*
X2280Y1538D01*
X2294Y1538D02*
X2300Y1538D01*
X2590Y1538D02*
X2597Y1538D01*
X0Y1537D02*
X7Y1537D01*
X84Y1537D02*
X88Y1537D01*
X1323Y1537D02*
X1331Y1537D01*
X1351Y1537D02*
X1355Y1537D01*
X1523Y1537D02*
X1531Y1537D01*
X1550Y1537D02*
X1555Y1537D01*
X1686Y1537D02*
X1692Y1537D01*
X1723Y1537D02*
X1731Y1537D01*
X1750Y1537D02*
X1755Y1537D01*
X1900Y1537D02*
X1906Y1537D01*
X1923Y1537D02*
X1931Y1537D01*
X1950Y1537D02*
X1955Y1537D01*
X2100Y1537D02*
X2106Y1537D01*
X2274Y1537D02*
X2280Y1537D01*
X2294Y1537D02*
X2300Y1537D01*
X2590Y1537D02*
X2597Y1537D01*
X0Y1536D02*
X7Y1536D01*
X85Y1536D02*
X89Y1536D01*
X173Y1536D02*
X174Y1536D01*
X1324Y1536D02*
X1332Y1536D01*
X1352Y1536D02*
X1353Y1536D01*
X1524Y1536D02*
X1532Y1536D01*
X1552Y1536D02*
X1553Y1536D01*
X1686Y1536D02*
X1692Y1536D01*
X1724Y1536D02*
X1731Y1536D01*
X1752Y1536D02*
X1753Y1536D01*
X1900Y1536D02*
X1906Y1536D01*
X1924Y1536D02*
X1931Y1536D01*
X1952Y1536D02*
X1953Y1536D01*
X2100Y1536D02*
X2106Y1536D01*
X2274Y1536D02*
X2280Y1536D01*
X2294Y1536D02*
X2300Y1536D01*
X2590Y1536D02*
X2597Y1536D01*
X0Y1535D02*
X7Y1535D01*
X85Y1535D02*
X89Y1535D01*
X172Y1535D02*
X176Y1535D01*
X1324Y1535D02*
X1332Y1535D01*
X1524Y1535D02*
X1532Y1535D01*
X1686Y1535D02*
X1692Y1535D01*
X1724Y1535D02*
X1732Y1535D01*
X1900Y1535D02*
X1906Y1535D01*
X1924Y1535D02*
X1932Y1535D01*
X2100Y1535D02*
X2106Y1535D01*
X2274Y1535D02*
X2280Y1535D01*
X2294Y1535D02*
X2300Y1535D01*
X2590Y1535D02*
X2597Y1535D01*
X0Y1534D02*
X7Y1534D01*
X86Y1534D02*
X90Y1534D01*
X172Y1534D02*
X176Y1534D01*
X1325Y1534D02*
X1333Y1534D01*
X1525Y1534D02*
X1533Y1534D01*
X1686Y1534D02*
X1692Y1534D01*
X1725Y1534D02*
X1733Y1534D01*
X1900Y1534D02*
X1906Y1534D01*
X1925Y1534D02*
X1933Y1534D01*
X2100Y1534D02*
X2106Y1534D01*
X2274Y1534D02*
X2280Y1534D01*
X2294Y1534D02*
X2300Y1534D01*
X2590Y1534D02*
X2597Y1534D01*
X0Y1533D02*
X7Y1533D01*
X86Y1533D02*
X91Y1533D01*
X172Y1533D02*
X176Y1533D01*
X1326Y1533D02*
X1334Y1533D01*
X1381Y1533D02*
X1397Y1533D01*
X1423Y1533D02*
X1427Y1533D01*
X1437Y1533D02*
X1449Y1533D01*
X1478Y1533D02*
X1500Y1533D01*
X1526Y1533D02*
X1547Y1533D01*
X1573Y1533D02*
X1577Y1533D01*
X1581Y1533D02*
X1599Y1533D01*
X1623Y1533D02*
X1627Y1533D01*
X1637Y1533D02*
X1649Y1533D01*
X1678Y1533D02*
X1700Y1533D01*
X1726Y1533D02*
X1747Y1533D01*
X1773Y1533D02*
X1777Y1533D01*
X1781Y1533D02*
X1799Y1533D01*
X1823Y1533D02*
X1827Y1533D01*
X1837Y1533D02*
X1849Y1533D01*
X1878Y1533D02*
X1906Y1533D01*
X1926Y1533D02*
X1947Y1533D01*
X1973Y1533D02*
X1977Y1533D01*
X1981Y1533D02*
X1999Y1533D01*
X2023Y1533D02*
X2027Y1533D01*
X2037Y1533D02*
X2048Y1533D01*
X2078Y1533D02*
X2106Y1533D01*
X2131Y1533D02*
X2147Y1533D01*
X2173Y1533D02*
X2177Y1533D01*
X2187Y1533D02*
X2199Y1533D01*
X2274Y1533D02*
X2280Y1533D01*
X2294Y1533D02*
X2300Y1533D01*
X2590Y1533D02*
X2597Y1533D01*
X0Y1532D02*
X7Y1532D01*
X87Y1532D02*
X92Y1532D01*
X172Y1532D02*
X176Y1532D01*
X1327Y1532D02*
X1335Y1532D01*
X1379Y1532D02*
X1399Y1532D01*
X1422Y1532D02*
X1428Y1532D01*
X1435Y1532D02*
X1450Y1532D01*
X1476Y1532D02*
X1502Y1532D01*
X1527Y1532D02*
X1549Y1532D01*
X1572Y1532D02*
X1601Y1532D01*
X1622Y1532D02*
X1628Y1532D01*
X1635Y1532D02*
X1650Y1532D01*
X1676Y1532D02*
X1702Y1532D01*
X1727Y1532D02*
X1749Y1532D01*
X1772Y1532D02*
X1801Y1532D01*
X1822Y1532D02*
X1828Y1532D01*
X1835Y1532D02*
X1850Y1532D01*
X1876Y1532D02*
X1906Y1532D01*
X1927Y1532D02*
X1948Y1532D01*
X1972Y1532D02*
X2001Y1532D01*
X2022Y1532D02*
X2028Y1532D01*
X2035Y1532D02*
X2050Y1532D01*
X2076Y1532D02*
X2106Y1532D01*
X2129Y1532D02*
X2148Y1532D01*
X2172Y1532D02*
X2177Y1532D01*
X2186Y1532D02*
X2201Y1532D01*
X2274Y1532D02*
X2280Y1532D01*
X2294Y1532D02*
X2300Y1532D01*
X2590Y1532D02*
X2597Y1532D01*
X0Y1531D02*
X7Y1531D01*
X87Y1531D02*
X92Y1531D01*
X172Y1531D02*
X176Y1531D01*
X1327Y1531D02*
X1335Y1531D01*
X1378Y1531D02*
X1400Y1531D01*
X1422Y1531D02*
X1428Y1531D01*
X1434Y1531D02*
X1451Y1531D01*
X1475Y1531D02*
X1503Y1531D01*
X1527Y1531D02*
X1550Y1531D01*
X1572Y1531D02*
X1602Y1531D01*
X1622Y1531D02*
X1628Y1531D01*
X1634Y1531D02*
X1651Y1531D01*
X1675Y1531D02*
X1703Y1531D01*
X1727Y1531D02*
X1750Y1531D01*
X1772Y1531D02*
X1802Y1531D01*
X1822Y1531D02*
X1828Y1531D01*
X1834Y1531D02*
X1851Y1531D01*
X1875Y1531D02*
X1906Y1531D01*
X1927Y1531D02*
X1950Y1531D01*
X1972Y1531D02*
X2002Y1531D01*
X2022Y1531D02*
X2028Y1531D01*
X2034Y1531D02*
X2051Y1531D01*
X2075Y1531D02*
X2106Y1531D01*
X2128Y1531D02*
X2150Y1531D01*
X2172Y1531D02*
X2178Y1531D01*
X2184Y1531D02*
X2202Y1531D01*
X2274Y1531D02*
X2280Y1531D01*
X2294Y1531D02*
X2300Y1531D01*
X2590Y1531D02*
X2597Y1531D01*
X0Y1530D02*
X7Y1530D01*
X88Y1530D02*
X93Y1530D01*
X172Y1530D02*
X176Y1530D01*
X1328Y1530D02*
X1336Y1530D01*
X1377Y1530D02*
X1401Y1530D01*
X1422Y1530D02*
X1428Y1530D01*
X1432Y1530D02*
X1452Y1530D01*
X1474Y1530D02*
X1504Y1530D01*
X1527Y1530D02*
X1551Y1530D01*
X1572Y1530D02*
X1603Y1530D01*
X1622Y1530D02*
X1628Y1530D01*
X1632Y1530D02*
X1652Y1530D01*
X1674Y1530D02*
X1704Y1530D01*
X1727Y1530D02*
X1751Y1530D01*
X1772Y1530D02*
X1803Y1530D01*
X1822Y1530D02*
X1828Y1530D01*
X1832Y1530D02*
X1852Y1530D01*
X1874Y1530D02*
X1906Y1530D01*
X1927Y1530D02*
X1951Y1530D01*
X1972Y1530D02*
X2003Y1530D01*
X2022Y1530D02*
X2028Y1530D01*
X2032Y1530D02*
X2052Y1530D01*
X2074Y1530D02*
X2106Y1530D01*
X2126Y1530D02*
X2151Y1530D01*
X2172Y1530D02*
X2178Y1530D01*
X2183Y1530D02*
X2203Y1530D01*
X2274Y1530D02*
X2280Y1530D01*
X2294Y1530D02*
X2300Y1530D01*
X2590Y1530D02*
X2597Y1530D01*
X0Y1529D02*
X7Y1529D01*
X89Y1529D02*
X94Y1529D01*
X172Y1529D02*
X176Y1529D01*
X1329Y1529D02*
X1337Y1529D01*
X1375Y1529D02*
X1402Y1529D01*
X1422Y1529D02*
X1428Y1529D01*
X1431Y1529D02*
X1453Y1529D01*
X1474Y1529D02*
X1504Y1529D01*
X1525Y1529D02*
X1552Y1529D01*
X1572Y1529D02*
X1604Y1529D01*
X1622Y1529D02*
X1628Y1529D01*
X1631Y1529D02*
X1653Y1529D01*
X1674Y1529D02*
X1704Y1529D01*
X1725Y1529D02*
X1752Y1529D01*
X1772Y1529D02*
X1804Y1529D01*
X1822Y1529D02*
X1828Y1529D01*
X1831Y1529D02*
X1853Y1529D01*
X1874Y1529D02*
X1906Y1529D01*
X1925Y1529D02*
X1952Y1529D01*
X1972Y1529D02*
X2004Y1529D01*
X2022Y1529D02*
X2028Y1529D01*
X2031Y1529D02*
X2053Y1529D01*
X2074Y1529D02*
X2106Y1529D01*
X2125Y1529D02*
X2152Y1529D01*
X2172Y1529D02*
X2178Y1529D01*
X2182Y1529D02*
X2204Y1529D01*
X2274Y1529D02*
X2280Y1529D01*
X2294Y1529D02*
X2300Y1529D01*
X2590Y1529D02*
X2597Y1529D01*
X0Y1528D02*
X7Y1528D01*
X90Y1528D02*
X95Y1528D01*
X172Y1528D02*
X176Y1528D01*
X1330Y1528D02*
X1338Y1528D01*
X1375Y1528D02*
X1403Y1528D01*
X1422Y1528D02*
X1454Y1528D01*
X1473Y1528D02*
X1505Y1528D01*
X1525Y1528D02*
X1553Y1528D01*
X1572Y1528D02*
X1605Y1528D01*
X1622Y1528D02*
X1654Y1528D01*
X1673Y1528D02*
X1705Y1528D01*
X1724Y1528D02*
X1753Y1528D01*
X1772Y1528D02*
X1804Y1528D01*
X1822Y1528D02*
X1854Y1528D01*
X1873Y1528D02*
X1906Y1528D01*
X1924Y1528D02*
X1953Y1528D01*
X1972Y1528D02*
X2004Y1528D01*
X2022Y1528D02*
X2054Y1528D01*
X2073Y1528D02*
X2105Y1528D01*
X2124Y1528D02*
X2153Y1528D01*
X2172Y1528D02*
X2178Y1528D01*
X2181Y1528D02*
X2204Y1528D01*
X2274Y1528D02*
X2280Y1528D01*
X2294Y1528D02*
X2300Y1528D01*
X2590Y1528D02*
X2597Y1528D01*
X0Y1527D02*
X7Y1527D01*
X91Y1527D02*
X97Y1527D01*
X172Y1527D02*
X176Y1527D01*
X1331Y1527D02*
X1339Y1527D01*
X1374Y1527D02*
X1404Y1527D01*
X1422Y1527D02*
X1454Y1527D01*
X1473Y1527D02*
X1505Y1527D01*
X1524Y1527D02*
X1554Y1527D01*
X1572Y1527D02*
X1605Y1527D01*
X1622Y1527D02*
X1654Y1527D01*
X1673Y1527D02*
X1705Y1527D01*
X1724Y1527D02*
X1754Y1527D01*
X1772Y1527D02*
X1805Y1527D01*
X1822Y1527D02*
X1854Y1527D01*
X1873Y1527D02*
X1906Y1527D01*
X1924Y1527D02*
X1954Y1527D01*
X1972Y1527D02*
X2005Y1527D01*
X2022Y1527D02*
X2054Y1527D01*
X2073Y1527D02*
X2105Y1527D01*
X2124Y1527D02*
X2154Y1527D01*
X2172Y1527D02*
X2178Y1527D01*
X2180Y1527D02*
X2205Y1527D01*
X2274Y1527D02*
X2280Y1527D01*
X2294Y1527D02*
X2300Y1527D01*
X2590Y1527D02*
X2597Y1527D01*
X0Y1526D02*
X7Y1526D01*
X92Y1526D02*
X98Y1526D01*
X172Y1526D02*
X176Y1526D01*
X1331Y1526D02*
X1339Y1526D01*
X1373Y1526D02*
X1382Y1526D01*
X1396Y1526D02*
X1405Y1526D01*
X1422Y1526D02*
X1438Y1526D01*
X1447Y1526D02*
X1454Y1526D01*
X1473Y1526D02*
X1479Y1526D01*
X1499Y1526D02*
X1504Y1526D01*
X1523Y1526D02*
X1539Y1526D01*
X1546Y1526D02*
X1554Y1526D01*
X1572Y1526D02*
X1589Y1526D01*
X1596Y1526D02*
X1605Y1526D01*
X1622Y1526D02*
X1638Y1526D01*
X1647Y1526D02*
X1654Y1526D01*
X1673Y1526D02*
X1679Y1526D01*
X1686Y1526D02*
X1692Y1526D01*
X1699Y1526D02*
X1704Y1526D01*
X1723Y1526D02*
X1739Y1526D01*
X1746Y1526D02*
X1754Y1526D01*
X1772Y1526D02*
X1788Y1526D01*
X1796Y1526D02*
X1805Y1526D01*
X1822Y1526D02*
X1838Y1526D01*
X1847Y1526D02*
X1854Y1526D01*
X1873Y1526D02*
X1879Y1526D01*
X1899Y1526D02*
X1906Y1526D01*
X1923Y1526D02*
X1939Y1526D01*
X1946Y1526D02*
X1954Y1526D01*
X1972Y1526D02*
X1988Y1526D01*
X1996Y1526D02*
X2005Y1526D01*
X2022Y1526D02*
X2038Y1526D01*
X2047Y1526D02*
X2054Y1526D01*
X2073Y1526D02*
X2079Y1526D01*
X2098Y1526D02*
X2105Y1526D01*
X2123Y1526D02*
X2132Y1526D01*
X2146Y1526D02*
X2154Y1526D01*
X2172Y1526D02*
X2188Y1526D01*
X2198Y1526D02*
X2205Y1526D01*
X2274Y1526D02*
X2280Y1526D01*
X2294Y1526D02*
X2300Y1526D01*
X2590Y1526D02*
X2597Y1526D01*
X0Y1525D02*
X7Y1525D01*
X93Y1525D02*
X99Y1525D01*
X172Y1525D02*
X176Y1525D01*
X1332Y1525D02*
X1340Y1525D01*
X1373Y1525D02*
X1380Y1525D01*
X1398Y1525D02*
X1405Y1525D01*
X1422Y1525D02*
X1436Y1525D01*
X1448Y1525D02*
X1455Y1525D01*
X1473Y1525D02*
X1479Y1525D01*
X1500Y1525D02*
X1504Y1525D01*
X1523Y1525D02*
X1530Y1525D01*
X1532Y1525D02*
X1540Y1525D01*
X1547Y1525D02*
X1555Y1525D01*
X1572Y1525D02*
X1587Y1525D01*
X1597Y1525D02*
X1605Y1525D01*
X1622Y1525D02*
X1636Y1525D01*
X1648Y1525D02*
X1655Y1525D01*
X1673Y1525D02*
X1679Y1525D01*
X1686Y1525D02*
X1692Y1525D01*
X1700Y1525D02*
X1704Y1525D01*
X1723Y1525D02*
X1730Y1525D01*
X1732Y1525D02*
X1740Y1525D01*
X1747Y1525D02*
X1755Y1525D01*
X1772Y1525D02*
X1787Y1525D01*
X1797Y1525D02*
X1805Y1525D01*
X1822Y1525D02*
X1836Y1525D01*
X1848Y1525D02*
X1855Y1525D01*
X1873Y1525D02*
X1906Y1525D01*
X1923Y1525D02*
X1930Y1525D01*
X1932Y1525D02*
X1940Y1525D01*
X1947Y1525D02*
X1955Y1525D01*
X1972Y1525D02*
X1987Y1525D01*
X1997Y1525D02*
X2005Y1525D01*
X2022Y1525D02*
X2036Y1525D01*
X2048Y1525D02*
X2054Y1525D01*
X2073Y1525D02*
X2079Y1525D01*
X2082Y1525D02*
X2105Y1525D01*
X2123Y1525D02*
X2130Y1525D01*
X2147Y1525D02*
X2155Y1525D01*
X2172Y1525D02*
X2187Y1525D01*
X2199Y1525D02*
X2205Y1525D01*
X2274Y1525D02*
X2280Y1525D01*
X2294Y1525D02*
X2300Y1525D01*
X2590Y1525D02*
X2597Y1525D01*
X0Y1524D02*
X7Y1524D01*
X94Y1524D02*
X101Y1524D01*
X172Y1524D02*
X176Y1524D01*
X1333Y1524D02*
X1341Y1524D01*
X1372Y1524D02*
X1379Y1524D01*
X1398Y1524D02*
X1405Y1524D01*
X1422Y1524D02*
X1435Y1524D01*
X1449Y1524D02*
X1455Y1524D01*
X1473Y1524D02*
X1479Y1524D01*
X1502Y1524D02*
X1502Y1524D01*
X1522Y1524D02*
X1529Y1524D01*
X1533Y1524D02*
X1541Y1524D01*
X1548Y1524D02*
X1555Y1524D01*
X1572Y1524D02*
X1586Y1524D01*
X1598Y1524D02*
X1606Y1524D01*
X1622Y1524D02*
X1635Y1524D01*
X1649Y1524D02*
X1655Y1524D01*
X1673Y1524D02*
X1679Y1524D01*
X1686Y1524D02*
X1692Y1524D01*
X1702Y1524D02*
X1702Y1524D01*
X1722Y1524D02*
X1729Y1524D01*
X1733Y1524D02*
X1741Y1524D01*
X1748Y1524D02*
X1755Y1524D01*
X1772Y1524D02*
X1786Y1524D01*
X1798Y1524D02*
X1806Y1524D01*
X1822Y1524D02*
X1835Y1524D01*
X1849Y1524D02*
X1855Y1524D01*
X1873Y1524D02*
X1905Y1524D01*
X1922Y1524D02*
X1929Y1524D01*
X1933Y1524D02*
X1941Y1524D01*
X1948Y1524D02*
X1955Y1524D01*
X1972Y1524D02*
X1986Y1524D01*
X1998Y1524D02*
X2005Y1524D01*
X2022Y1524D02*
X2035Y1524D01*
X2049Y1524D02*
X2055Y1524D01*
X2073Y1524D02*
X2104Y1524D01*
X2122Y1524D02*
X2129Y1524D01*
X2148Y1524D02*
X2155Y1524D01*
X2172Y1524D02*
X2186Y1524D01*
X2199Y1524D02*
X2205Y1524D01*
X2274Y1524D02*
X2280Y1524D01*
X2294Y1524D02*
X2300Y1524D01*
X2590Y1524D02*
X2597Y1524D01*
X0Y1523D02*
X7Y1523D01*
X95Y1523D02*
X104Y1523D01*
X172Y1523D02*
X176Y1523D01*
X1334Y1523D02*
X1342Y1523D01*
X1372Y1523D02*
X1379Y1523D01*
X1399Y1523D02*
X1405Y1523D01*
X1422Y1523D02*
X1433Y1523D01*
X1449Y1523D02*
X1455Y1523D01*
X1473Y1523D02*
X1480Y1523D01*
X1522Y1523D02*
X1529Y1523D01*
X1534Y1523D02*
X1542Y1523D01*
X1549Y1523D02*
X1555Y1523D01*
X1572Y1523D02*
X1585Y1523D01*
X1599Y1523D02*
X1606Y1523D01*
X1622Y1523D02*
X1633Y1523D01*
X1649Y1523D02*
X1655Y1523D01*
X1673Y1523D02*
X1680Y1523D01*
X1686Y1523D02*
X1692Y1523D01*
X1722Y1523D02*
X1729Y1523D01*
X1734Y1523D02*
X1742Y1523D01*
X1749Y1523D02*
X1755Y1523D01*
X1772Y1523D02*
X1785Y1523D01*
X1799Y1523D02*
X1806Y1523D01*
X1822Y1523D02*
X1833Y1523D01*
X1849Y1523D02*
X1855Y1523D01*
X1873Y1523D02*
X1905Y1523D01*
X1922Y1523D02*
X1928Y1523D01*
X1934Y1523D02*
X1942Y1523D01*
X1949Y1523D02*
X1955Y1523D01*
X1972Y1523D02*
X1985Y1523D01*
X1999Y1523D02*
X2006Y1523D01*
X2022Y1523D02*
X2033Y1523D01*
X2049Y1523D02*
X2055Y1523D01*
X2073Y1523D02*
X2104Y1523D01*
X2122Y1523D02*
X2128Y1523D01*
X2149Y1523D02*
X2155Y1523D01*
X2172Y1523D02*
X2185Y1523D01*
X2199Y1523D02*
X2206Y1523D01*
X2274Y1523D02*
X2280Y1523D01*
X2294Y1523D02*
X2300Y1523D01*
X2590Y1523D02*
X2597Y1523D01*
X0Y1522D02*
X7Y1522D01*
X96Y1522D02*
X107Y1522D01*
X172Y1522D02*
X176Y1522D01*
X1334Y1522D02*
X1342Y1522D01*
X1372Y1522D02*
X1378Y1522D01*
X1400Y1522D02*
X1406Y1522D01*
X1422Y1522D02*
X1432Y1522D01*
X1449Y1522D02*
X1455Y1522D01*
X1474Y1522D02*
X1483Y1522D01*
X1522Y1522D02*
X1528Y1522D01*
X1534Y1522D02*
X1542Y1522D01*
X1549Y1522D02*
X1556Y1522D01*
X1572Y1522D02*
X1584Y1522D01*
X1599Y1522D02*
X1606Y1522D01*
X1622Y1522D02*
X1632Y1522D01*
X1649Y1522D02*
X1655Y1522D01*
X1673Y1522D02*
X1683Y1522D01*
X1686Y1522D02*
X1692Y1522D01*
X1722Y1522D02*
X1728Y1522D01*
X1734Y1522D02*
X1742Y1522D01*
X1749Y1522D02*
X1756Y1522D01*
X1772Y1522D02*
X1784Y1522D01*
X1799Y1522D02*
X1806Y1522D01*
X1822Y1522D02*
X1832Y1522D01*
X1849Y1522D02*
X1855Y1522D01*
X1873Y1522D02*
X1905Y1522D01*
X1922Y1522D02*
X1928Y1522D01*
X1934Y1522D02*
X1942Y1522D01*
X1949Y1522D02*
X1955Y1522D01*
X1972Y1522D02*
X1984Y1522D01*
X1999Y1522D02*
X2006Y1522D01*
X2022Y1522D02*
X2032Y1522D01*
X2049Y1522D02*
X2055Y1522D01*
X2073Y1522D02*
X2103Y1522D01*
X2122Y1522D02*
X2128Y1522D01*
X2149Y1522D02*
X2155Y1522D01*
X2172Y1522D02*
X2184Y1522D01*
X2199Y1522D02*
X2206Y1522D01*
X2274Y1522D02*
X2280Y1522D01*
X2294Y1522D02*
X2300Y1522D01*
X2590Y1522D02*
X2597Y1522D01*
X0Y1521D02*
X7Y1521D01*
X98Y1521D02*
X114Y1521D01*
X172Y1521D02*
X176Y1521D01*
X1335Y1521D02*
X1343Y1521D01*
X1372Y1521D02*
X1378Y1521D01*
X1400Y1521D02*
X1406Y1521D01*
X1422Y1521D02*
X1430Y1521D01*
X1449Y1521D02*
X1455Y1521D01*
X1474Y1521D02*
X1485Y1521D01*
X1522Y1521D02*
X1528Y1521D01*
X1535Y1521D02*
X1543Y1521D01*
X1550Y1521D02*
X1556Y1521D01*
X1572Y1521D02*
X1583Y1521D01*
X1600Y1521D02*
X1606Y1521D01*
X1622Y1521D02*
X1630Y1521D01*
X1649Y1521D02*
X1655Y1521D01*
X1674Y1521D02*
X1692Y1521D01*
X1722Y1521D02*
X1728Y1521D01*
X1735Y1521D02*
X1743Y1521D01*
X1750Y1521D02*
X1756Y1521D01*
X1772Y1521D02*
X1783Y1521D01*
X1800Y1521D02*
X1806Y1521D01*
X1822Y1521D02*
X1830Y1521D01*
X1849Y1521D02*
X1855Y1521D01*
X1873Y1521D02*
X1904Y1521D01*
X1922Y1521D02*
X1928Y1521D01*
X1935Y1521D02*
X1943Y1521D01*
X1950Y1521D02*
X1956Y1521D01*
X1972Y1521D02*
X1983Y1521D01*
X2000Y1521D02*
X2006Y1521D01*
X2022Y1521D02*
X2030Y1521D01*
X2049Y1521D02*
X2055Y1521D01*
X2074Y1521D02*
X2103Y1521D01*
X2122Y1521D02*
X2128Y1521D01*
X2149Y1521D02*
X2156Y1521D01*
X2172Y1521D02*
X2183Y1521D01*
X2200Y1521D02*
X2205Y1521D01*
X2274Y1521D02*
X2280Y1521D01*
X2294Y1521D02*
X2300Y1521D01*
X2590Y1521D02*
X2597Y1521D01*
X0Y1520D02*
X7Y1520D01*
X100Y1520D02*
X116Y1520D01*
X172Y1520D02*
X176Y1520D01*
X1336Y1520D02*
X1344Y1520D01*
X1372Y1520D02*
X1378Y1520D01*
X1400Y1520D02*
X1406Y1520D01*
X1422Y1520D02*
X1429Y1520D01*
X1449Y1520D02*
X1455Y1520D01*
X1475Y1520D02*
X1487Y1520D01*
X1522Y1520D02*
X1528Y1520D01*
X1536Y1520D02*
X1544Y1520D01*
X1550Y1520D02*
X1556Y1520D01*
X1572Y1520D02*
X1582Y1520D01*
X1600Y1520D02*
X1606Y1520D01*
X1622Y1520D02*
X1629Y1520D01*
X1649Y1520D02*
X1655Y1520D01*
X1674Y1520D02*
X1692Y1520D01*
X1722Y1520D02*
X1728Y1520D01*
X1736Y1520D02*
X1744Y1520D01*
X1750Y1520D02*
X1756Y1520D01*
X1772Y1520D02*
X1782Y1520D01*
X1800Y1520D02*
X1806Y1520D01*
X1822Y1520D02*
X1829Y1520D01*
X1849Y1520D02*
X1855Y1520D01*
X1872Y1520D02*
X1903Y1520D01*
X1922Y1520D02*
X1928Y1520D01*
X1936Y1520D02*
X1944Y1520D01*
X1950Y1520D02*
X1956Y1520D01*
X1972Y1520D02*
X1981Y1520D01*
X2000Y1520D02*
X2006Y1520D01*
X2022Y1520D02*
X2029Y1520D01*
X2049Y1520D02*
X2055Y1520D01*
X2074Y1520D02*
X2104Y1520D01*
X2122Y1520D02*
X2128Y1520D01*
X2149Y1520D02*
X2156Y1520D01*
X2172Y1520D02*
X2181Y1520D01*
X2200Y1520D02*
X2205Y1520D01*
X2274Y1520D02*
X2280Y1520D01*
X2294Y1520D02*
X2300Y1520D01*
X2590Y1520D02*
X2597Y1520D01*
X0Y1519D02*
X7Y1519D01*
X102Y1519D02*
X116Y1519D01*
X172Y1519D02*
X176Y1519D01*
X1337Y1519D02*
X1345Y1519D01*
X1372Y1519D02*
X1378Y1519D01*
X1400Y1519D02*
X1406Y1519D01*
X1422Y1519D02*
X1428Y1519D01*
X1449Y1519D02*
X1455Y1519D01*
X1475Y1519D02*
X1490Y1519D01*
X1522Y1519D02*
X1528Y1519D01*
X1537Y1519D02*
X1545Y1519D01*
X1550Y1519D02*
X1556Y1519D01*
X1572Y1519D02*
X1580Y1519D01*
X1600Y1519D02*
X1606Y1519D01*
X1622Y1519D02*
X1628Y1519D01*
X1649Y1519D02*
X1655Y1519D01*
X1675Y1519D02*
X1692Y1519D01*
X1702Y1519D02*
X1703Y1519D01*
X1722Y1519D02*
X1728Y1519D01*
X1737Y1519D02*
X1745Y1519D01*
X1750Y1519D02*
X1756Y1519D01*
X1772Y1519D02*
X1780Y1519D01*
X1800Y1519D02*
X1806Y1519D01*
X1822Y1519D02*
X1828Y1519D01*
X1849Y1519D02*
X1855Y1519D01*
X1872Y1519D02*
X1902Y1519D01*
X1922Y1519D02*
X1928Y1519D01*
X1937Y1519D02*
X1945Y1519D01*
X1950Y1519D02*
X1956Y1519D01*
X1972Y1519D02*
X1980Y1519D01*
X2000Y1519D02*
X2006Y1519D01*
X2022Y1519D02*
X2028Y1519D01*
X2049Y1519D02*
X2055Y1519D01*
X2075Y1519D02*
X2104Y1519D01*
X2122Y1519D02*
X2128Y1519D01*
X2149Y1519D02*
X2156Y1519D01*
X2172Y1519D02*
X2180Y1519D01*
X2201Y1519D02*
X2204Y1519D01*
X2274Y1519D02*
X2301Y1519D01*
X2590Y1519D02*
X2597Y1519D01*
X0Y1518D02*
X7Y1518D01*
X104Y1518D02*
X116Y1518D01*
X172Y1518D02*
X176Y1518D01*
X1338Y1518D02*
X1346Y1518D01*
X1372Y1518D02*
X1378Y1518D01*
X1400Y1518D02*
X1406Y1518D01*
X1422Y1518D02*
X1428Y1518D01*
X1449Y1518D02*
X1455Y1518D01*
X1476Y1518D02*
X1492Y1518D01*
X1522Y1518D02*
X1528Y1518D01*
X1537Y1518D02*
X1546Y1518D01*
X1550Y1518D02*
X1556Y1518D01*
X1572Y1518D02*
X1579Y1518D01*
X1600Y1518D02*
X1606Y1518D01*
X1622Y1518D02*
X1628Y1518D01*
X1649Y1518D02*
X1655Y1518D01*
X1676Y1518D02*
X1692Y1518D01*
X1701Y1518D02*
X1705Y1518D01*
X1722Y1518D02*
X1728Y1518D01*
X1737Y1518D02*
X1745Y1518D01*
X1750Y1518D02*
X1756Y1518D01*
X1772Y1518D02*
X1779Y1518D01*
X1800Y1518D02*
X1806Y1518D01*
X1822Y1518D02*
X1828Y1518D01*
X1849Y1518D02*
X1855Y1518D01*
X1872Y1518D02*
X1892Y1518D01*
X1922Y1518D02*
X1928Y1518D01*
X1937Y1518D02*
X1945Y1518D01*
X1950Y1518D02*
X1956Y1518D01*
X1972Y1518D02*
X1979Y1518D01*
X2000Y1518D02*
X2006Y1518D01*
X2022Y1518D02*
X2028Y1518D01*
X2049Y1518D02*
X2055Y1518D01*
X2076Y1518D02*
X2092Y1518D01*
X2096Y1518D02*
X2105Y1518D01*
X2122Y1518D02*
X2128Y1518D01*
X2149Y1518D02*
X2156Y1518D01*
X2172Y1518D02*
X2179Y1518D01*
X2274Y1518D02*
X2303Y1518D01*
X2590Y1518D02*
X2597Y1518D01*
X0Y1517D02*
X7Y1517D01*
X108Y1517D02*
X116Y1517D01*
X172Y1517D02*
X176Y1517D01*
X1338Y1517D02*
X1346Y1517D01*
X1372Y1517D02*
X1378Y1517D01*
X1400Y1517D02*
X1406Y1517D01*
X1422Y1517D02*
X1428Y1517D01*
X1449Y1517D02*
X1455Y1517D01*
X1478Y1517D02*
X1494Y1517D01*
X1522Y1517D02*
X1528Y1517D01*
X1538Y1517D02*
X1546Y1517D01*
X1550Y1517D02*
X1556Y1517D01*
X1572Y1517D02*
X1578Y1517D01*
X1600Y1517D02*
X1606Y1517D01*
X1622Y1517D02*
X1628Y1517D01*
X1649Y1517D02*
X1655Y1517D01*
X1678Y1517D02*
X1694Y1517D01*
X1700Y1517D02*
X1705Y1517D01*
X1722Y1517D02*
X1728Y1517D01*
X1738Y1517D02*
X1746Y1517D01*
X1750Y1517D02*
X1756Y1517D01*
X1772Y1517D02*
X1778Y1517D01*
X1800Y1517D02*
X1806Y1517D01*
X1822Y1517D02*
X1828Y1517D01*
X1849Y1517D02*
X1855Y1517D01*
X1872Y1517D02*
X1894Y1517D01*
X1922Y1517D02*
X1928Y1517D01*
X1938Y1517D02*
X1946Y1517D01*
X1950Y1517D02*
X1956Y1517D01*
X1972Y1517D02*
X1978Y1517D01*
X2000Y1517D02*
X2006Y1517D01*
X2022Y1517D02*
X2028Y1517D01*
X2049Y1517D02*
X2055Y1517D01*
X2078Y1517D02*
X2094Y1517D01*
X2098Y1517D02*
X2105Y1517D01*
X2122Y1517D02*
X2128Y1517D01*
X2149Y1517D02*
X2156Y1517D01*
X2172Y1517D02*
X2178Y1517D01*
X2274Y1517D02*
X2303Y1517D01*
X2590Y1517D02*
X2597Y1517D01*
X0Y1516D02*
X7Y1516D01*
X112Y1516D02*
X116Y1516D01*
X172Y1516D02*
X176Y1516D01*
X1339Y1516D02*
X1347Y1516D01*
X1372Y1516D02*
X1406Y1516D01*
X1422Y1516D02*
X1428Y1516D01*
X1449Y1516D02*
X1455Y1516D01*
X1480Y1516D02*
X1497Y1516D01*
X1522Y1516D02*
X1528Y1516D01*
X1539Y1516D02*
X1547Y1516D01*
X1550Y1516D02*
X1556Y1516D01*
X1572Y1516D02*
X1606Y1516D01*
X1622Y1516D02*
X1628Y1516D01*
X1649Y1516D02*
X1655Y1516D01*
X1680Y1516D02*
X1697Y1516D01*
X1700Y1516D02*
X1706Y1516D01*
X1722Y1516D02*
X1728Y1516D01*
X1739Y1516D02*
X1747Y1516D01*
X1750Y1516D02*
X1756Y1516D01*
X1772Y1516D02*
X1806Y1516D01*
X1822Y1516D02*
X1828Y1516D01*
X1849Y1516D02*
X1855Y1516D01*
X1872Y1516D02*
X1878Y1516D01*
X1880Y1516D02*
X1897Y1516D01*
X1922Y1516D02*
X1928Y1516D01*
X1939Y1516D02*
X1947Y1516D01*
X1950Y1516D02*
X1956Y1516D01*
X1972Y1516D02*
X2006Y1516D01*
X2022Y1516D02*
X2028Y1516D01*
X2049Y1516D02*
X2055Y1516D01*
X2080Y1516D02*
X2097Y1516D01*
X2099Y1516D02*
X2105Y1516D01*
X2122Y1516D02*
X2128Y1516D01*
X2149Y1516D02*
X2156Y1516D01*
X2172Y1516D02*
X2178Y1516D01*
X2274Y1516D02*
X2303Y1516D01*
X2590Y1516D02*
X2597Y1516D01*
X0Y1515D02*
X7Y1515D01*
X112Y1515D02*
X116Y1515D01*
X172Y1515D02*
X176Y1515D01*
X1340Y1515D02*
X1348Y1515D01*
X1372Y1515D02*
X1406Y1515D01*
X1422Y1515D02*
X1428Y1515D01*
X1449Y1515D02*
X1455Y1515D01*
X1482Y1515D02*
X1499Y1515D01*
X1522Y1515D02*
X1528Y1515D01*
X1540Y1515D02*
X1548Y1515D01*
X1550Y1515D02*
X1556Y1515D01*
X1572Y1515D02*
X1606Y1515D01*
X1622Y1515D02*
X1628Y1515D01*
X1649Y1515D02*
X1655Y1515D01*
X1682Y1515D02*
X1706Y1515D01*
X1722Y1515D02*
X1728Y1515D01*
X1740Y1515D02*
X1748Y1515D01*
X1750Y1515D02*
X1756Y1515D01*
X1772Y1515D02*
X1806Y1515D01*
X1822Y1515D02*
X1828Y1515D01*
X1849Y1515D02*
X1855Y1515D01*
X1872Y1515D02*
X1878Y1515D01*
X1882Y1515D02*
X1899Y1515D01*
X1922Y1515D02*
X1928Y1515D01*
X1940Y1515D02*
X1948Y1515D01*
X1950Y1515D02*
X1956Y1515D01*
X1972Y1515D02*
X2006Y1515D01*
X2022Y1515D02*
X2028Y1515D01*
X2049Y1515D02*
X2055Y1515D01*
X2082Y1515D02*
X2105Y1515D01*
X2122Y1515D02*
X2128Y1515D01*
X2149Y1515D02*
X2156Y1515D01*
X2172Y1515D02*
X2178Y1515D01*
X2274Y1515D02*
X2302Y1515D01*
X2590Y1515D02*
X2597Y1515D01*
X0Y1514D02*
X7Y1514D01*
X112Y1514D02*
X116Y1514D01*
X172Y1514D02*
X176Y1514D01*
X1341Y1514D02*
X1349Y1514D01*
X1372Y1514D02*
X1406Y1514D01*
X1422Y1514D02*
X1428Y1514D01*
X1449Y1514D02*
X1455Y1514D01*
X1485Y1514D02*
X1501Y1514D01*
X1522Y1514D02*
X1528Y1514D01*
X1541Y1514D02*
X1556Y1514D01*
X1572Y1514D02*
X1606Y1514D01*
X1622Y1514D02*
X1628Y1514D01*
X1649Y1514D02*
X1655Y1514D01*
X1685Y1514D02*
X1706Y1514D01*
X1722Y1514D02*
X1728Y1514D01*
X1741Y1514D02*
X1756Y1514D01*
X1772Y1514D02*
X1806Y1514D01*
X1822Y1514D02*
X1828Y1514D01*
X1849Y1514D02*
X1855Y1514D01*
X1872Y1514D02*
X1878Y1514D01*
X1885Y1514D02*
X1901Y1514D01*
X1922Y1514D02*
X1928Y1514D01*
X1941Y1514D02*
X1956Y1514D01*
X1972Y1514D02*
X2006Y1514D01*
X2022Y1514D02*
X2028Y1514D01*
X2049Y1514D02*
X2055Y1514D01*
X2085Y1514D02*
X2106Y1514D01*
X2122Y1514D02*
X2128Y1514D01*
X2149Y1514D02*
X2156Y1514D01*
X2172Y1514D02*
X2178Y1514D01*
X2274Y1514D02*
X2302Y1514D01*
X2590Y1514D02*
X2597Y1514D01*
X0Y1513D02*
X7Y1513D01*
X112Y1513D02*
X116Y1513D01*
X172Y1513D02*
X176Y1513D01*
X1341Y1513D02*
X1349Y1513D01*
X1372Y1513D02*
X1406Y1513D01*
X1422Y1513D02*
X1428Y1513D01*
X1449Y1513D02*
X1455Y1513D01*
X1487Y1513D02*
X1502Y1513D01*
X1522Y1513D02*
X1528Y1513D01*
X1541Y1513D02*
X1556Y1513D01*
X1572Y1513D02*
X1606Y1513D01*
X1622Y1513D02*
X1628Y1513D01*
X1649Y1513D02*
X1655Y1513D01*
X1686Y1513D02*
X1706Y1513D01*
X1722Y1513D02*
X1728Y1513D01*
X1741Y1513D02*
X1756Y1513D01*
X1772Y1513D02*
X1806Y1513D01*
X1822Y1513D02*
X1828Y1513D01*
X1849Y1513D02*
X1855Y1513D01*
X1872Y1513D02*
X1878Y1513D01*
X1887Y1513D02*
X1902Y1513D01*
X1922Y1513D02*
X1928Y1513D01*
X1941Y1513D02*
X1956Y1513D01*
X1972Y1513D02*
X2006Y1513D01*
X2022Y1513D02*
X2028Y1513D01*
X2049Y1513D02*
X2055Y1513D01*
X2087Y1513D02*
X2106Y1513D01*
X2122Y1513D02*
X2128Y1513D01*
X2149Y1513D02*
X2156Y1513D01*
X2172Y1513D02*
X2178Y1513D01*
X2274Y1513D02*
X2301Y1513D01*
X2590Y1513D02*
X2597Y1513D01*
X0Y1512D02*
X7Y1512D01*
X112Y1512D02*
X116Y1512D01*
X172Y1512D02*
X176Y1512D01*
X1342Y1512D02*
X1350Y1512D01*
X1372Y1512D02*
X1405Y1512D01*
X1422Y1512D02*
X1428Y1512D01*
X1449Y1512D02*
X1455Y1512D01*
X1489Y1512D02*
X1503Y1512D01*
X1522Y1512D02*
X1528Y1512D01*
X1542Y1512D02*
X1556Y1512D01*
X1572Y1512D02*
X1605Y1512D01*
X1622Y1512D02*
X1628Y1512D01*
X1649Y1512D02*
X1655Y1512D01*
X1686Y1512D02*
X1706Y1512D01*
X1722Y1512D02*
X1728Y1512D01*
X1742Y1512D02*
X1756Y1512D01*
X1772Y1512D02*
X1805Y1512D01*
X1822Y1512D02*
X1828Y1512D01*
X1849Y1512D02*
X1855Y1512D01*
X1872Y1512D02*
X1878Y1512D01*
X1889Y1512D02*
X1903Y1512D01*
X1922Y1512D02*
X1928Y1512D01*
X1942Y1512D02*
X1956Y1512D01*
X1972Y1512D02*
X2005Y1512D01*
X2022Y1512D02*
X2028Y1512D01*
X2049Y1512D02*
X2055Y1512D01*
X2089Y1512D02*
X2106Y1512D01*
X2122Y1512D02*
X2128Y1512D01*
X2149Y1512D02*
X2156Y1512D01*
X2172Y1512D02*
X2178Y1512D01*
X2294Y1512D02*
X2300Y1512D01*
X2590Y1512D02*
X2597Y1512D01*
X0Y1511D02*
X7Y1511D01*
X112Y1511D02*
X115Y1511D01*
X172Y1511D02*
X176Y1511D01*
X1343Y1511D02*
X1351Y1511D01*
X1372Y1511D02*
X1405Y1511D01*
X1422Y1511D02*
X1428Y1511D01*
X1449Y1511D02*
X1455Y1511D01*
X1492Y1511D02*
X1504Y1511D01*
X1522Y1511D02*
X1528Y1511D01*
X1543Y1511D02*
X1556Y1511D01*
X1572Y1511D02*
X1605Y1511D01*
X1622Y1511D02*
X1628Y1511D01*
X1649Y1511D02*
X1655Y1511D01*
X1686Y1511D02*
X1706Y1511D01*
X1722Y1511D02*
X1728Y1511D01*
X1743Y1511D02*
X1756Y1511D01*
X1772Y1511D02*
X1805Y1511D01*
X1822Y1511D02*
X1828Y1511D01*
X1849Y1511D02*
X1855Y1511D01*
X1872Y1511D02*
X1878Y1511D01*
X1892Y1511D02*
X1904Y1511D01*
X1922Y1511D02*
X1928Y1511D01*
X1943Y1511D02*
X1956Y1511D01*
X1972Y1511D02*
X2005Y1511D01*
X2022Y1511D02*
X2028Y1511D01*
X2049Y1511D02*
X2055Y1511D01*
X2092Y1511D02*
X2106Y1511D01*
X2122Y1511D02*
X2128Y1511D01*
X2149Y1511D02*
X2156Y1511D01*
X2172Y1511D02*
X2178Y1511D01*
X2294Y1511D02*
X2300Y1511D01*
X2590Y1511D02*
X2597Y1511D01*
X0Y1510D02*
X7Y1510D01*
X112Y1510D02*
X115Y1510D01*
X173Y1510D02*
X176Y1510D01*
X1344Y1510D02*
X1352Y1510D01*
X1372Y1510D02*
X1404Y1510D01*
X1422Y1510D02*
X1428Y1510D01*
X1449Y1510D02*
X1455Y1510D01*
X1494Y1510D02*
X1504Y1510D01*
X1522Y1510D02*
X1528Y1510D01*
X1544Y1510D02*
X1556Y1510D01*
X1572Y1510D02*
X1604Y1510D01*
X1622Y1510D02*
X1628Y1510D01*
X1649Y1510D02*
X1655Y1510D01*
X1686Y1510D02*
X1692Y1510D01*
X1694Y1510D02*
X1706Y1510D01*
X1722Y1510D02*
X1728Y1510D01*
X1744Y1510D02*
X1756Y1510D01*
X1772Y1510D02*
X1804Y1510D01*
X1822Y1510D02*
X1828Y1510D01*
X1849Y1510D02*
X1855Y1510D01*
X1872Y1510D02*
X1878Y1510D01*
X1894Y1510D02*
X1904Y1510D01*
X1922Y1510D02*
X1928Y1510D01*
X1944Y1510D02*
X1956Y1510D01*
X1972Y1510D02*
X2004Y1510D01*
X2022Y1510D02*
X2028Y1510D01*
X2049Y1510D02*
X2055Y1510D01*
X2094Y1510D02*
X2106Y1510D01*
X2122Y1510D02*
X2128Y1510D01*
X2149Y1510D02*
X2156Y1510D01*
X2172Y1510D02*
X2178Y1510D01*
X2294Y1510D02*
X2300Y1510D01*
X2590Y1510D02*
X2597Y1510D01*
X0Y1509D02*
X7Y1509D01*
X112Y1509D02*
X115Y1509D01*
X173Y1509D02*
X176Y1509D01*
X1345Y1509D02*
X1353Y1509D01*
X1372Y1509D02*
X1378Y1509D01*
X1422Y1509D02*
X1428Y1509D01*
X1449Y1509D02*
X1455Y1509D01*
X1496Y1509D02*
X1505Y1509D01*
X1522Y1509D02*
X1528Y1509D01*
X1544Y1509D02*
X1556Y1509D01*
X1572Y1509D02*
X1578Y1509D01*
X1622Y1509D02*
X1628Y1509D01*
X1649Y1509D02*
X1655Y1509D01*
X1686Y1509D02*
X1692Y1509D01*
X1696Y1509D02*
X1706Y1509D01*
X1722Y1509D02*
X1728Y1509D01*
X1744Y1509D02*
X1756Y1509D01*
X1772Y1509D02*
X1778Y1509D01*
X1822Y1509D02*
X1828Y1509D01*
X1849Y1509D02*
X1855Y1509D01*
X1872Y1509D02*
X1878Y1509D01*
X1896Y1509D02*
X1905Y1509D01*
X1922Y1509D02*
X1928Y1509D01*
X1944Y1509D02*
X1956Y1509D01*
X1972Y1509D02*
X1978Y1509D01*
X2022Y1509D02*
X2028Y1509D01*
X2049Y1509D02*
X2055Y1509D01*
X2096Y1509D02*
X2106Y1509D01*
X2122Y1509D02*
X2128Y1509D01*
X2149Y1509D02*
X2156Y1509D01*
X2172Y1509D02*
X2178Y1509D01*
X2294Y1509D02*
X2300Y1509D01*
X2590Y1509D02*
X2597Y1509D01*
X0Y1508D02*
X7Y1508D01*
X112Y1508D02*
X114Y1508D01*
X174Y1508D02*
X176Y1508D01*
X1345Y1508D02*
X1353Y1508D01*
X1372Y1508D02*
X1378Y1508D01*
X1422Y1508D02*
X1428Y1508D01*
X1449Y1508D02*
X1455Y1508D01*
X1498Y1508D02*
X1505Y1508D01*
X1522Y1508D02*
X1528Y1508D01*
X1545Y1508D02*
X1556Y1508D01*
X1572Y1508D02*
X1578Y1508D01*
X1622Y1508D02*
X1628Y1508D01*
X1649Y1508D02*
X1655Y1508D01*
X1686Y1508D02*
X1692Y1508D01*
X1698Y1508D02*
X1706Y1508D01*
X1722Y1508D02*
X1728Y1508D01*
X1745Y1508D02*
X1756Y1508D01*
X1772Y1508D02*
X1778Y1508D01*
X1822Y1508D02*
X1828Y1508D01*
X1849Y1508D02*
X1855Y1508D01*
X1872Y1508D02*
X1878Y1508D01*
X1898Y1508D02*
X1905Y1508D01*
X1922Y1508D02*
X1928Y1508D01*
X1945Y1508D02*
X1956Y1508D01*
X1972Y1508D02*
X1978Y1508D01*
X2022Y1508D02*
X2028Y1508D01*
X2049Y1508D02*
X2055Y1508D01*
X2098Y1508D02*
X2106Y1508D01*
X2122Y1508D02*
X2128Y1508D01*
X2149Y1508D02*
X2156Y1508D01*
X2172Y1508D02*
X2178Y1508D01*
X2294Y1508D02*
X2300Y1508D01*
X2590Y1508D02*
X2597Y1508D01*
X0Y1507D02*
X7Y1507D01*
X112Y1507D02*
X114Y1507D01*
X174Y1507D02*
X176Y1507D01*
X1324Y1507D02*
X1326Y1507D01*
X1346Y1507D02*
X1354Y1507D01*
X1372Y1507D02*
X1378Y1507D01*
X1422Y1507D02*
X1428Y1507D01*
X1449Y1507D02*
X1455Y1507D01*
X1499Y1507D02*
X1505Y1507D01*
X1522Y1507D02*
X1528Y1507D01*
X1546Y1507D02*
X1556Y1507D01*
X1572Y1507D02*
X1578Y1507D01*
X1622Y1507D02*
X1628Y1507D01*
X1649Y1507D02*
X1655Y1507D01*
X1686Y1507D02*
X1692Y1507D01*
X1699Y1507D02*
X1706Y1507D01*
X1722Y1507D02*
X1728Y1507D01*
X1746Y1507D02*
X1756Y1507D01*
X1772Y1507D02*
X1778Y1507D01*
X1822Y1507D02*
X1828Y1507D01*
X1849Y1507D02*
X1855Y1507D01*
X1872Y1507D02*
X1878Y1507D01*
X1899Y1507D02*
X1905Y1507D01*
X1922Y1507D02*
X1928Y1507D01*
X1946Y1507D02*
X1956Y1507D01*
X1972Y1507D02*
X1978Y1507D01*
X2022Y1507D02*
X2028Y1507D01*
X2049Y1507D02*
X2055Y1507D01*
X2099Y1507D02*
X2106Y1507D01*
X2122Y1507D02*
X2128Y1507D01*
X2149Y1507D02*
X2156Y1507D01*
X2172Y1507D02*
X2178Y1507D01*
X2294Y1507D02*
X2300Y1507D01*
X2590Y1507D02*
X2597Y1507D01*
X0Y1506D02*
X7Y1506D01*
X112Y1506D02*
X114Y1506D01*
X174Y1506D02*
X176Y1506D01*
X1323Y1506D02*
X1327Y1506D01*
X1347Y1506D02*
X1355Y1506D01*
X1372Y1506D02*
X1378Y1506D01*
X1422Y1506D02*
X1428Y1506D01*
X1449Y1506D02*
X1455Y1506D01*
X1499Y1506D02*
X1505Y1506D01*
X1522Y1506D02*
X1528Y1506D01*
X1547Y1506D02*
X1556Y1506D01*
X1572Y1506D02*
X1578Y1506D01*
X1622Y1506D02*
X1628Y1506D01*
X1649Y1506D02*
X1655Y1506D01*
X1686Y1506D02*
X1692Y1506D01*
X1699Y1506D02*
X1706Y1506D01*
X1722Y1506D02*
X1728Y1506D01*
X1747Y1506D02*
X1756Y1506D01*
X1772Y1506D02*
X1778Y1506D01*
X1822Y1506D02*
X1828Y1506D01*
X1849Y1506D02*
X1855Y1506D01*
X1872Y1506D02*
X1878Y1506D01*
X1899Y1506D02*
X1905Y1506D01*
X1922Y1506D02*
X1928Y1506D01*
X1947Y1506D02*
X1955Y1506D01*
X1972Y1506D02*
X1978Y1506D01*
X2022Y1506D02*
X2028Y1506D01*
X2049Y1506D02*
X2055Y1506D01*
X2099Y1506D02*
X2106Y1506D01*
X2122Y1506D02*
X2128Y1506D01*
X2149Y1506D02*
X2155Y1506D01*
X2172Y1506D02*
X2178Y1506D01*
X2294Y1506D02*
X2300Y1506D01*
X2590Y1506D02*
X2597Y1506D01*
X0Y1505D02*
X7Y1505D01*
X112Y1505D02*
X113Y1505D01*
X174Y1505D02*
X176Y1505D01*
X1322Y1505D02*
X1328Y1505D01*
X1348Y1505D02*
X1355Y1505D01*
X1372Y1505D02*
X1379Y1505D01*
X1422Y1505D02*
X1428Y1505D01*
X1449Y1505D02*
X1455Y1505D01*
X1499Y1505D02*
X1506Y1505D01*
X1522Y1505D02*
X1529Y1505D01*
X1548Y1505D02*
X1555Y1505D01*
X1572Y1505D02*
X1579Y1505D01*
X1622Y1505D02*
X1628Y1505D01*
X1649Y1505D02*
X1655Y1505D01*
X1686Y1505D02*
X1692Y1505D01*
X1699Y1505D02*
X1706Y1505D01*
X1722Y1505D02*
X1729Y1505D01*
X1748Y1505D02*
X1755Y1505D01*
X1772Y1505D02*
X1779Y1505D01*
X1822Y1505D02*
X1828Y1505D01*
X1849Y1505D02*
X1855Y1505D01*
X1872Y1505D02*
X1878Y1505D01*
X1899Y1505D02*
X1905Y1505D01*
X1922Y1505D02*
X1929Y1505D01*
X1948Y1505D02*
X1955Y1505D01*
X1972Y1505D02*
X1979Y1505D01*
X2022Y1505D02*
X2028Y1505D01*
X2049Y1505D02*
X2055Y1505D01*
X2099Y1505D02*
X2106Y1505D01*
X2122Y1505D02*
X2129Y1505D01*
X2149Y1505D02*
X2155Y1505D01*
X2172Y1505D02*
X2178Y1505D01*
X2294Y1505D02*
X2300Y1505D01*
X2590Y1505D02*
X2597Y1505D01*
X0Y1504D02*
X7Y1504D01*
X112Y1504D02*
X113Y1504D01*
X175Y1504D02*
X176Y1504D01*
X1322Y1504D02*
X1328Y1504D01*
X1348Y1504D02*
X1355Y1504D01*
X1373Y1504D02*
X1380Y1504D01*
X1422Y1504D02*
X1428Y1504D01*
X1449Y1504D02*
X1455Y1504D01*
X1474Y1504D02*
X1476Y1504D01*
X1499Y1504D02*
X1505Y1504D01*
X1522Y1504D02*
X1530Y1504D01*
X1548Y1504D02*
X1555Y1504D01*
X1572Y1504D02*
X1580Y1504D01*
X1622Y1504D02*
X1628Y1504D01*
X1649Y1504D02*
X1655Y1504D01*
X1674Y1504D02*
X1676Y1504D01*
X1686Y1504D02*
X1692Y1504D01*
X1699Y1504D02*
X1706Y1504D01*
X1722Y1504D02*
X1730Y1504D01*
X1748Y1504D02*
X1755Y1504D01*
X1772Y1504D02*
X1780Y1504D01*
X1822Y1504D02*
X1828Y1504D01*
X1849Y1504D02*
X1855Y1504D01*
X1872Y1504D02*
X1878Y1504D01*
X1899Y1504D02*
X1905Y1504D01*
X1922Y1504D02*
X1930Y1504D01*
X1948Y1504D02*
X1955Y1504D01*
X1972Y1504D02*
X1980Y1504D01*
X2022Y1504D02*
X2028Y1504D01*
X2049Y1504D02*
X2055Y1504D01*
X2074Y1504D02*
X2076Y1504D01*
X2099Y1504D02*
X2106Y1504D01*
X2122Y1504D02*
X2130Y1504D01*
X2148Y1504D02*
X2155Y1504D01*
X2172Y1504D02*
X2178Y1504D01*
X2294Y1504D02*
X2299Y1504D01*
X2590Y1504D02*
X2597Y1504D01*
X0Y1503D02*
X7Y1503D01*
X112Y1503D02*
X113Y1503D01*
X175Y1503D02*
X176Y1503D01*
X1322Y1503D02*
X1328Y1503D01*
X1349Y1503D02*
X1356Y1503D01*
X1373Y1503D02*
X1381Y1503D01*
X1422Y1503D02*
X1428Y1503D01*
X1449Y1503D02*
X1455Y1503D01*
X1473Y1503D02*
X1478Y1503D01*
X1499Y1503D02*
X1505Y1503D01*
X1522Y1503D02*
X1531Y1503D01*
X1547Y1503D02*
X1556Y1503D01*
X1572Y1503D02*
X1581Y1503D01*
X1622Y1503D02*
X1628Y1503D01*
X1649Y1503D02*
X1655Y1503D01*
X1673Y1503D02*
X1678Y1503D01*
X1686Y1503D02*
X1692Y1503D01*
X1699Y1503D02*
X1706Y1503D01*
X1722Y1503D02*
X1731Y1503D01*
X1747Y1503D02*
X1756Y1503D01*
X1772Y1503D02*
X1781Y1503D01*
X1822Y1503D02*
X1828Y1503D01*
X1849Y1503D02*
X1855Y1503D01*
X1872Y1503D02*
X1878Y1503D01*
X1899Y1503D02*
X1905Y1503D01*
X1922Y1503D02*
X1931Y1503D01*
X1947Y1503D02*
X1955Y1503D01*
X1972Y1503D02*
X1981Y1503D01*
X2022Y1503D02*
X2028Y1503D01*
X2049Y1503D02*
X2055Y1503D01*
X2073Y1503D02*
X2078Y1503D01*
X2099Y1503D02*
X2106Y1503D01*
X2123Y1503D02*
X2131Y1503D01*
X2147Y1503D02*
X2155Y1503D01*
X2172Y1503D02*
X2178Y1503D01*
X2294Y1503D02*
X2299Y1503D01*
X2590Y1503D02*
X2597Y1503D01*
X0Y1502D02*
X7Y1502D01*
X112Y1502D02*
X113Y1502D01*
X175Y1502D02*
X176Y1502D01*
X1322Y1502D02*
X1329Y1502D01*
X1349Y1502D02*
X1356Y1502D01*
X1373Y1502D02*
X1382Y1502D01*
X1422Y1502D02*
X1428Y1502D01*
X1449Y1502D02*
X1455Y1502D01*
X1472Y1502D02*
X1479Y1502D01*
X1498Y1502D02*
X1505Y1502D01*
X1522Y1502D02*
X1532Y1502D01*
X1545Y1502D02*
X1556Y1502D01*
X1572Y1502D02*
X1582Y1502D01*
X1622Y1502D02*
X1628Y1502D01*
X1649Y1502D02*
X1655Y1502D01*
X1672Y1502D02*
X1679Y1502D01*
X1686Y1502D02*
X1692Y1502D01*
X1698Y1502D02*
X1706Y1502D01*
X1722Y1502D02*
X1732Y1502D01*
X1745Y1502D02*
X1756Y1502D01*
X1772Y1502D02*
X1782Y1502D01*
X1822Y1502D02*
X1828Y1502D01*
X1849Y1502D02*
X1855Y1502D01*
X1872Y1502D02*
X1879Y1502D01*
X1898Y1502D02*
X1905Y1502D01*
X1922Y1502D02*
X1932Y1502D01*
X1945Y1502D02*
X1955Y1502D01*
X1972Y1502D02*
X1982Y1502D01*
X2022Y1502D02*
X2028Y1502D01*
X2049Y1502D02*
X2055Y1502D01*
X2072Y1502D02*
X2079Y1502D01*
X2098Y1502D02*
X2106Y1502D01*
X2123Y1502D02*
X2132Y1502D01*
X2145Y1502D02*
X2154Y1502D01*
X2172Y1502D02*
X2178Y1502D01*
X2294Y1502D02*
X2299Y1502D01*
X2590Y1502D02*
X2597Y1502D01*
X0Y1501D02*
X7Y1501D01*
X112Y1501D02*
X113Y1501D01*
X175Y1501D02*
X176Y1501D01*
X1323Y1501D02*
X1355Y1501D01*
X1374Y1501D02*
X1404Y1501D01*
X1422Y1501D02*
X1428Y1501D01*
X1449Y1501D02*
X1455Y1501D01*
X1472Y1501D02*
X1505Y1501D01*
X1523Y1501D02*
X1555Y1501D01*
X1572Y1501D02*
X1604Y1501D01*
X1622Y1501D02*
X1628Y1501D01*
X1649Y1501D02*
X1655Y1501D01*
X1672Y1501D02*
X1706Y1501D01*
X1722Y1501D02*
X1755Y1501D01*
X1772Y1501D02*
X1804Y1501D01*
X1822Y1501D02*
X1828Y1501D01*
X1849Y1501D02*
X1855Y1501D01*
X1872Y1501D02*
X1905Y1501D01*
X1922Y1501D02*
X1955Y1501D01*
X1972Y1501D02*
X2004Y1501D01*
X2022Y1501D02*
X2028Y1501D01*
X2049Y1501D02*
X2055Y1501D01*
X2072Y1501D02*
X2105Y1501D01*
X2124Y1501D02*
X2153Y1501D01*
X2172Y1501D02*
X2178Y1501D01*
X2294Y1501D02*
X2299Y1501D01*
X2590Y1501D02*
X2597Y1501D01*
X0Y1500D02*
X7Y1500D01*
X112Y1500D02*
X113Y1500D01*
X175Y1500D02*
X176Y1500D01*
X1323Y1500D02*
X1355Y1500D01*
X1375Y1500D02*
X1405Y1500D01*
X1422Y1500D02*
X1428Y1500D01*
X1450Y1500D02*
X1455Y1500D01*
X1472Y1500D02*
X1504Y1500D01*
X1523Y1500D02*
X1555Y1500D01*
X1572Y1500D02*
X1605Y1500D01*
X1622Y1500D02*
X1628Y1500D01*
X1649Y1500D02*
X1655Y1500D01*
X1672Y1500D02*
X1706Y1500D01*
X1723Y1500D02*
X1755Y1500D01*
X1772Y1500D02*
X1805Y1500D01*
X1822Y1500D02*
X1828Y1500D01*
X1849Y1500D02*
X1855Y1500D01*
X1872Y1500D02*
X1905Y1500D01*
X1923Y1500D02*
X1955Y1500D01*
X1972Y1500D02*
X2005Y1500D01*
X2022Y1500D02*
X2028Y1500D01*
X2049Y1500D02*
X2055Y1500D01*
X2072Y1500D02*
X2105Y1500D01*
X2125Y1500D02*
X2153Y1500D01*
X2172Y1500D02*
X2178Y1500D01*
X2294Y1500D02*
X2299Y1500D01*
X2590Y1500D02*
X2597Y1500D01*
X0Y1499D02*
X7Y1499D01*
X112Y1499D02*
X113Y1499D01*
X175Y1499D02*
X176Y1499D01*
X1323Y1499D02*
X1355Y1499D01*
X1376Y1499D02*
X1405Y1499D01*
X1422Y1499D02*
X1428Y1499D01*
X1450Y1499D02*
X1456Y1499D01*
X1473Y1499D02*
X1504Y1499D01*
X1523Y1499D02*
X1555Y1499D01*
X1572Y1499D02*
X1605Y1499D01*
X1622Y1499D02*
X1628Y1499D01*
X1650Y1499D02*
X1655Y1499D01*
X1672Y1499D02*
X1706Y1499D01*
X1723Y1499D02*
X1755Y1499D01*
X1772Y1499D02*
X1805Y1499D01*
X1822Y1499D02*
X1828Y1499D01*
X1850Y1499D02*
X1855Y1499D01*
X1872Y1499D02*
X1905Y1499D01*
X1923Y1499D02*
X1955Y1499D01*
X1972Y1499D02*
X2005Y1499D01*
X2022Y1499D02*
X2028Y1499D01*
X2049Y1499D02*
X2055Y1499D01*
X2072Y1499D02*
X2105Y1499D01*
X2126Y1499D02*
X2152Y1499D01*
X2172Y1499D02*
X2178Y1499D01*
X2294Y1499D02*
X2299Y1499D01*
X2590Y1499D02*
X2597Y1499D01*
X0Y1498D02*
X7Y1498D01*
X112Y1498D02*
X113Y1498D01*
X175Y1498D02*
X176Y1498D01*
X1324Y1498D02*
X1354Y1498D01*
X1377Y1498D02*
X1406Y1498D01*
X1422Y1498D02*
X1428Y1498D01*
X1450Y1498D02*
X1456Y1498D01*
X1474Y1498D02*
X1503Y1498D01*
X1524Y1498D02*
X1554Y1498D01*
X1572Y1498D02*
X1606Y1498D01*
X1622Y1498D02*
X1628Y1498D01*
X1650Y1498D02*
X1656Y1498D01*
X1672Y1498D02*
X1706Y1498D01*
X1724Y1498D02*
X1754Y1498D01*
X1772Y1498D02*
X1806Y1498D01*
X1822Y1498D02*
X1828Y1498D01*
X1850Y1498D02*
X1855Y1498D01*
X1872Y1498D02*
X1906Y1498D01*
X1924Y1498D02*
X1954Y1498D01*
X1972Y1498D02*
X2005Y1498D01*
X2022Y1498D02*
X2028Y1498D01*
X2050Y1498D02*
X2055Y1498D01*
X2072Y1498D02*
X2105Y1498D01*
X2127Y1498D02*
X2150Y1498D01*
X2172Y1498D02*
X2178Y1498D01*
X2294Y1498D02*
X2299Y1498D01*
X2590Y1498D02*
X2597Y1498D01*
X0Y1497D02*
X7Y1497D01*
X112Y1497D02*
X113Y1497D01*
X175Y1497D02*
X176Y1497D01*
X1325Y1497D02*
X1353Y1497D01*
X1378Y1497D02*
X1405Y1497D01*
X1422Y1497D02*
X1428Y1497D01*
X1450Y1497D02*
X1455Y1497D01*
X1475Y1497D02*
X1502Y1497D01*
X1525Y1497D02*
X1553Y1497D01*
X1572Y1497D02*
X1605Y1497D01*
X1622Y1497D02*
X1628Y1497D01*
X1650Y1497D02*
X1655Y1497D01*
X1672Y1497D02*
X1705Y1497D01*
X1725Y1497D02*
X1753Y1497D01*
X1772Y1497D02*
X1805Y1497D01*
X1822Y1497D02*
X1828Y1497D01*
X1850Y1497D02*
X1855Y1497D01*
X1872Y1497D02*
X1905Y1497D01*
X1925Y1497D02*
X1953Y1497D01*
X1972Y1497D02*
X2005Y1497D01*
X2022Y1497D02*
X2028Y1497D01*
X2050Y1497D02*
X2055Y1497D01*
X2072Y1497D02*
X2104Y1497D01*
X2128Y1497D02*
X2149Y1497D01*
X2172Y1497D02*
X2178Y1497D01*
X2294Y1497D02*
X2299Y1497D01*
X2590Y1497D02*
X2597Y1497D01*
X0Y1496D02*
X7Y1496D01*
X112Y1496D02*
X113Y1496D01*
X175Y1496D02*
X176Y1496D01*
X1326Y1496D02*
X1352Y1496D01*
X1380Y1496D02*
X1405Y1496D01*
X1423Y1496D02*
X1427Y1496D01*
X1450Y1496D02*
X1455Y1496D01*
X1477Y1496D02*
X1500Y1496D01*
X1526Y1496D02*
X1552Y1496D01*
X1573Y1496D02*
X1577Y1496D01*
X1580Y1496D02*
X1605Y1496D01*
X1623Y1496D02*
X1627Y1496D01*
X1650Y1496D02*
X1655Y1496D01*
X1673Y1496D02*
X1705Y1496D01*
X1726Y1496D02*
X1752Y1496D01*
X1773Y1496D02*
X1777Y1496D01*
X1779Y1496D02*
X1805Y1496D01*
X1823Y1496D02*
X1827Y1496D01*
X1850Y1496D02*
X1855Y1496D01*
X1872Y1496D02*
X1905Y1496D01*
X1926Y1496D02*
X1952Y1496D01*
X1973Y1496D02*
X1977Y1496D01*
X1979Y1496D02*
X2005Y1496D01*
X2023Y1496D02*
X2027Y1496D01*
X2050Y1496D02*
X2055Y1496D01*
X2073Y1496D02*
X2103Y1496D01*
X2130Y1496D02*
X2148Y1496D01*
X2173Y1496D02*
X2177Y1496D01*
X2295Y1496D02*
X2299Y1496D01*
X2590Y1496D02*
X2597Y1496D01*
X0Y1495D02*
X7Y1495D01*
X112Y1495D02*
X113Y1495D01*
X175Y1495D02*
X176Y1495D01*
X1328Y1495D02*
X1351Y1495D01*
X1382Y1495D02*
X1404Y1495D01*
X1424Y1495D02*
X1426Y1495D01*
X1451Y1495D02*
X1454Y1495D01*
X1479Y1495D02*
X1498Y1495D01*
X1528Y1495D02*
X1550Y1495D01*
X1574Y1495D02*
X1576Y1495D01*
X1582Y1495D02*
X1604Y1495D01*
X1624Y1495D02*
X1626Y1495D01*
X1651Y1495D02*
X1654Y1495D01*
X1674Y1495D02*
X1704Y1495D01*
X1728Y1495D02*
X1750Y1495D01*
X1774Y1495D02*
X1776Y1495D01*
X1782Y1495D02*
X1804Y1495D01*
X1824Y1495D02*
X1826Y1495D01*
X1851Y1495D02*
X1854Y1495D01*
X1872Y1495D02*
X1904Y1495D01*
X1928Y1495D02*
X1950Y1495D01*
X1974Y1495D02*
X1976Y1495D01*
X1982Y1495D02*
X2004Y1495D01*
X2024Y1495D02*
X2026Y1495D01*
X2051Y1495D02*
X2054Y1495D01*
X2074Y1495D02*
X2101Y1495D01*
X2132Y1495D02*
X2146Y1495D01*
X2174Y1495D02*
X2176Y1495D01*
X2296Y1495D02*
X2298Y1495D01*
X2590Y1495D02*
X2597Y1495D01*
X0Y1494D02*
X7Y1494D01*
X112Y1494D02*
X113Y1494D01*
X175Y1494D02*
X176Y1494D01*
X2590Y1494D02*
X2597Y1494D01*
X0Y1493D02*
X7Y1493D01*
X112Y1493D02*
X113Y1493D01*
X175Y1493D02*
X176Y1493D01*
X2590Y1493D02*
X2597Y1493D01*
X0Y1492D02*
X7Y1492D01*
X112Y1492D02*
X114Y1492D01*
X174Y1492D02*
X176Y1492D01*
X2590Y1492D02*
X2597Y1492D01*
X0Y1491D02*
X7Y1491D01*
X112Y1491D02*
X114Y1491D01*
X174Y1491D02*
X176Y1491D01*
X2590Y1491D02*
X2597Y1491D01*
X0Y1490D02*
X7Y1490D01*
X112Y1490D02*
X114Y1490D01*
X174Y1490D02*
X176Y1490D01*
X2590Y1490D02*
X2597Y1490D01*
X0Y1489D02*
X7Y1489D01*
X112Y1489D02*
X114Y1489D01*
X173Y1489D02*
X176Y1489D01*
X2590Y1489D02*
X2597Y1489D01*
X0Y1488D02*
X7Y1488D01*
X112Y1488D02*
X115Y1488D01*
X173Y1488D02*
X176Y1488D01*
X2590Y1488D02*
X2597Y1488D01*
X0Y1487D02*
X7Y1487D01*
X112Y1487D02*
X115Y1487D01*
X173Y1487D02*
X176Y1487D01*
X2590Y1487D02*
X2597Y1487D01*
X0Y1486D02*
X7Y1486D01*
X112Y1486D02*
X116Y1486D01*
X172Y1486D02*
X176Y1486D01*
X2590Y1486D02*
X2597Y1486D01*
X0Y1485D02*
X7Y1485D01*
X112Y1485D02*
X116Y1485D01*
X172Y1485D02*
X176Y1485D01*
X2590Y1485D02*
X2597Y1485D01*
X0Y1484D02*
X7Y1484D01*
X112Y1484D02*
X116Y1484D01*
X172Y1484D02*
X176Y1484D01*
X2590Y1484D02*
X2597Y1484D01*
X0Y1483D02*
X7Y1483D01*
X112Y1483D02*
X116Y1483D01*
X172Y1483D02*
X176Y1483D01*
X2590Y1483D02*
X2597Y1483D01*
X0Y1482D02*
X7Y1482D01*
X112Y1482D02*
X116Y1482D01*
X172Y1482D02*
X176Y1482D01*
X2590Y1482D02*
X2597Y1482D01*
X0Y1481D02*
X7Y1481D01*
X112Y1481D02*
X116Y1481D01*
X172Y1481D02*
X176Y1481D01*
X2590Y1481D02*
X2597Y1481D01*
X0Y1480D02*
X7Y1480D01*
X112Y1480D02*
X116Y1480D01*
X172Y1480D02*
X176Y1480D01*
X2590Y1480D02*
X2597Y1480D01*
X0Y1479D02*
X7Y1479D01*
X112Y1479D02*
X116Y1479D01*
X172Y1479D02*
X176Y1479D01*
X2590Y1479D02*
X2597Y1479D01*
X0Y1478D02*
X7Y1478D01*
X112Y1478D02*
X116Y1478D01*
X172Y1478D02*
X176Y1478D01*
X2590Y1478D02*
X2597Y1478D01*
X0Y1477D02*
X7Y1477D01*
X112Y1477D02*
X116Y1477D01*
X172Y1477D02*
X176Y1477D01*
X2590Y1477D02*
X2597Y1477D01*
X0Y1476D02*
X7Y1476D01*
X112Y1476D02*
X116Y1476D01*
X172Y1476D02*
X176Y1476D01*
X2590Y1476D02*
X2597Y1476D01*
X0Y1475D02*
X7Y1475D01*
X112Y1475D02*
X116Y1475D01*
X172Y1475D02*
X176Y1475D01*
X2590Y1475D02*
X2597Y1475D01*
X0Y1474D02*
X7Y1474D01*
X112Y1474D02*
X116Y1474D01*
X172Y1474D02*
X176Y1474D01*
X2590Y1474D02*
X2597Y1474D01*
X0Y1473D02*
X7Y1473D01*
X112Y1473D02*
X116Y1473D01*
X172Y1473D02*
X176Y1473D01*
X2590Y1473D02*
X2597Y1473D01*
X0Y1472D02*
X7Y1472D01*
X112Y1472D02*
X116Y1472D01*
X172Y1472D02*
X176Y1472D01*
X2590Y1472D02*
X2597Y1472D01*
X0Y1471D02*
X7Y1471D01*
X112Y1471D02*
X116Y1471D01*
X172Y1471D02*
X176Y1471D01*
X2590Y1471D02*
X2597Y1471D01*
X0Y1470D02*
X7Y1470D01*
X112Y1470D02*
X116Y1470D01*
X172Y1470D02*
X176Y1470D01*
X2590Y1470D02*
X2597Y1470D01*
X0Y1469D02*
X7Y1469D01*
X112Y1469D02*
X116Y1469D01*
X172Y1469D02*
X176Y1469D01*
X2590Y1469D02*
X2597Y1469D01*
X0Y1468D02*
X7Y1468D01*
X112Y1468D02*
X116Y1468D01*
X172Y1468D02*
X176Y1468D01*
X2590Y1468D02*
X2597Y1468D01*
X0Y1467D02*
X7Y1467D01*
X112Y1467D02*
X116Y1467D01*
X172Y1467D02*
X176Y1467D01*
X2590Y1467D02*
X2597Y1467D01*
X0Y1466D02*
X7Y1466D01*
X112Y1466D02*
X116Y1466D01*
X172Y1466D02*
X176Y1466D01*
X2590Y1466D02*
X2597Y1466D01*
X0Y1465D02*
X7Y1465D01*
X112Y1465D02*
X116Y1465D01*
X172Y1465D02*
X176Y1465D01*
X2590Y1465D02*
X2597Y1465D01*
X0Y1464D02*
X7Y1464D01*
X112Y1464D02*
X116Y1464D01*
X172Y1464D02*
X176Y1464D01*
X2590Y1464D02*
X2597Y1464D01*
X0Y1463D02*
X7Y1463D01*
X112Y1463D02*
X116Y1463D01*
X172Y1463D02*
X176Y1463D01*
X2590Y1463D02*
X2597Y1463D01*
X0Y1462D02*
X7Y1462D01*
X113Y1462D02*
X115Y1462D01*
X173Y1462D02*
X175Y1462D01*
X2590Y1462D02*
X2597Y1462D01*
X0Y1461D02*
X7Y1461D01*
X2590Y1461D02*
X2597Y1461D01*
X0Y1460D02*
X7Y1460D01*
X2590Y1460D02*
X2597Y1460D01*
X0Y1459D02*
X7Y1459D01*
X2590Y1459D02*
X2597Y1459D01*
X0Y1458D02*
X7Y1458D01*
X2590Y1458D02*
X2597Y1458D01*
X0Y1457D02*
X7Y1457D01*
X2590Y1457D02*
X2597Y1457D01*
X0Y1456D02*
X7Y1456D01*
X2590Y1456D02*
X2597Y1456D01*
X0Y1455D02*
X7Y1455D01*
X2590Y1455D02*
X2597Y1455D01*
X0Y1454D02*
X7Y1454D01*
X2590Y1454D02*
X2597Y1454D01*
X0Y1453D02*
X7Y1453D01*
X204Y1453D02*
X207Y1453D01*
X252Y1453D02*
X254Y1453D01*
X2590Y1453D02*
X2597Y1453D01*
X0Y1452D02*
X7Y1452D01*
X203Y1452D02*
X208Y1452D01*
X250Y1452D02*
X255Y1452D01*
X2590Y1452D02*
X2597Y1452D01*
X0Y1451D02*
X7Y1451D01*
X203Y1451D02*
X208Y1451D01*
X250Y1451D02*
X256Y1451D01*
X2590Y1451D02*
X2597Y1451D01*
X0Y1450D02*
X7Y1450D01*
X203Y1450D02*
X209Y1450D01*
X250Y1450D02*
X256Y1450D01*
X1227Y1450D02*
X1227Y1450D01*
X1427Y1450D02*
X1427Y1450D01*
X1627Y1450D02*
X1627Y1450D01*
X1827Y1450D02*
X1827Y1450D01*
X2590Y1450D02*
X2597Y1450D01*
X0Y1449D02*
X7Y1449D01*
X203Y1449D02*
X209Y1449D01*
X250Y1449D02*
X256Y1449D01*
X1226Y1449D02*
X1228Y1449D01*
X1426Y1449D02*
X1428Y1449D01*
X1626Y1449D02*
X1628Y1449D01*
X1826Y1449D02*
X1828Y1449D01*
X2590Y1449D02*
X2597Y1449D01*
X0Y1448D02*
X7Y1448D01*
X203Y1448D02*
X209Y1448D01*
X250Y1448D02*
X256Y1448D01*
X1225Y1448D02*
X1229Y1448D01*
X1425Y1448D02*
X1429Y1448D01*
X1625Y1448D02*
X1629Y1448D01*
X1825Y1448D02*
X1829Y1448D01*
X2590Y1448D02*
X2597Y1448D01*
X0Y1447D02*
X7Y1447D01*
X203Y1447D02*
X209Y1447D01*
X250Y1447D02*
X256Y1447D01*
X1224Y1447D02*
X1230Y1447D01*
X1424Y1447D02*
X1430Y1447D01*
X1624Y1447D02*
X1630Y1447D01*
X1824Y1447D02*
X1830Y1447D01*
X2590Y1447D02*
X2597Y1447D01*
X0Y1446D02*
X7Y1446D01*
X203Y1446D02*
X256Y1446D01*
X1223Y1446D02*
X1229Y1446D01*
X1423Y1446D02*
X1429Y1446D01*
X1623Y1446D02*
X1629Y1446D01*
X1823Y1446D02*
X1829Y1446D01*
X2590Y1446D02*
X2597Y1446D01*
X0Y1445D02*
X7Y1445D01*
X203Y1445D02*
X256Y1445D01*
X1222Y1445D02*
X1228Y1445D01*
X1422Y1445D02*
X1428Y1445D01*
X1622Y1445D02*
X1628Y1445D01*
X1822Y1445D02*
X1828Y1445D01*
X2590Y1445D02*
X2597Y1445D01*
X0Y1444D02*
X7Y1444D01*
X203Y1444D02*
X256Y1444D01*
X1221Y1444D02*
X1227Y1444D01*
X1421Y1444D02*
X1427Y1444D01*
X1621Y1444D02*
X1627Y1444D01*
X1821Y1444D02*
X1827Y1444D01*
X2590Y1444D02*
X2597Y1444D01*
X0Y1443D02*
X7Y1443D01*
X203Y1443D02*
X256Y1443D01*
X1220Y1443D02*
X1226Y1443D01*
X1420Y1443D02*
X1426Y1443D01*
X1620Y1443D02*
X1626Y1443D01*
X1820Y1443D02*
X1826Y1443D01*
X2590Y1443D02*
X2597Y1443D01*
X0Y1442D02*
X7Y1442D01*
X203Y1442D02*
X256Y1442D01*
X2590Y1442D02*
X2597Y1442D01*
X0Y1441D02*
X7Y1441D01*
X203Y1441D02*
X256Y1441D01*
X2590Y1441D02*
X2597Y1441D01*
X0Y1440D02*
X7Y1440D01*
X203Y1440D02*
X256Y1440D01*
X2590Y1440D02*
X2597Y1440D01*
X0Y1439D02*
X7Y1439D01*
X203Y1439D02*
X209Y1439D01*
X250Y1439D02*
X256Y1439D01*
X2590Y1439D02*
X2597Y1439D01*
X0Y1438D02*
X7Y1438D01*
X203Y1438D02*
X209Y1438D01*
X250Y1438D02*
X256Y1438D01*
X2590Y1438D02*
X2597Y1438D01*
X0Y1437D02*
X7Y1437D01*
X203Y1437D02*
X209Y1437D01*
X250Y1437D02*
X256Y1437D01*
X2590Y1437D02*
X2597Y1437D01*
X0Y1436D02*
X7Y1436D01*
X203Y1436D02*
X209Y1436D01*
X250Y1436D02*
X256Y1436D01*
X2590Y1436D02*
X2597Y1436D01*
X0Y1435D02*
X7Y1435D01*
X203Y1435D02*
X209Y1435D01*
X249Y1435D02*
X256Y1435D01*
X2590Y1435D02*
X2597Y1435D01*
X0Y1434D02*
X7Y1434D01*
X203Y1434D02*
X211Y1434D01*
X248Y1434D02*
X255Y1434D01*
X2590Y1434D02*
X2597Y1434D01*
X0Y1433D02*
X7Y1433D01*
X203Y1433D02*
X213Y1433D01*
X246Y1433D02*
X255Y1433D01*
X2590Y1433D02*
X2597Y1433D01*
X0Y1432D02*
X7Y1432D01*
X204Y1432D02*
X215Y1432D01*
X244Y1432D02*
X254Y1432D01*
X2590Y1432D02*
X2597Y1432D01*
X0Y1431D02*
X7Y1431D01*
X205Y1431D02*
X217Y1431D01*
X242Y1431D02*
X254Y1431D01*
X2590Y1431D02*
X2597Y1431D01*
X0Y1430D02*
X7Y1430D01*
X205Y1430D02*
X218Y1430D01*
X240Y1430D02*
X253Y1430D01*
X2590Y1430D02*
X2597Y1430D01*
X0Y1429D02*
X7Y1429D01*
X206Y1429D02*
X220Y1429D01*
X238Y1429D02*
X252Y1429D01*
X2590Y1429D02*
X2597Y1429D01*
X0Y1428D02*
X7Y1428D01*
X208Y1428D02*
X222Y1428D01*
X236Y1428D02*
X250Y1428D01*
X2590Y1428D02*
X2597Y1428D01*
X0Y1427D02*
X7Y1427D01*
X210Y1427D02*
X224Y1427D01*
X234Y1427D02*
X249Y1427D01*
X2590Y1427D02*
X2597Y1427D01*
X0Y1426D02*
X7Y1426D01*
X212Y1426D02*
X228Y1426D01*
X231Y1426D02*
X247Y1426D01*
X2590Y1426D02*
X2597Y1426D01*
X0Y1425D02*
X7Y1425D01*
X214Y1425D02*
X245Y1425D01*
X2590Y1425D02*
X2597Y1425D01*
X0Y1424D02*
X7Y1424D01*
X216Y1424D02*
X243Y1424D01*
X2590Y1424D02*
X2597Y1424D01*
X0Y1423D02*
X7Y1423D01*
X218Y1423D02*
X241Y1423D01*
X2590Y1423D02*
X2597Y1423D01*
X0Y1422D02*
X7Y1422D01*
X220Y1422D02*
X239Y1422D01*
X1199Y1422D02*
X1199Y1422D01*
X1399Y1422D02*
X1399Y1422D01*
X1599Y1422D02*
X1599Y1422D01*
X1799Y1422D02*
X1799Y1422D01*
X2590Y1422D02*
X2597Y1422D01*
X0Y1421D02*
X7Y1421D01*
X222Y1421D02*
X237Y1421D01*
X1198Y1421D02*
X1199Y1421D01*
X1398Y1421D02*
X1399Y1421D01*
X1598Y1421D02*
X1599Y1421D01*
X1798Y1421D02*
X1799Y1421D01*
X2590Y1421D02*
X2597Y1421D01*
X0Y1420D02*
X7Y1420D01*
X224Y1420D02*
X234Y1420D01*
X1197Y1420D02*
X1199Y1420D01*
X1397Y1420D02*
X1399Y1420D01*
X1597Y1420D02*
X1599Y1420D01*
X1797Y1420D02*
X1799Y1420D01*
X2590Y1420D02*
X2597Y1420D01*
X0Y1419D02*
X7Y1419D01*
X228Y1419D02*
X230Y1419D01*
X1196Y1419D02*
X1199Y1419D01*
X1396Y1419D02*
X1399Y1419D01*
X1596Y1419D02*
X1599Y1419D01*
X1796Y1419D02*
X1799Y1419D01*
X2590Y1419D02*
X2597Y1419D01*
X0Y1418D02*
X7Y1418D01*
X1195Y1418D02*
X1199Y1418D01*
X1395Y1418D02*
X1399Y1418D01*
X1595Y1418D02*
X1599Y1418D01*
X1795Y1418D02*
X1799Y1418D01*
X2590Y1418D02*
X2597Y1418D01*
X0Y1417D02*
X7Y1417D01*
X1194Y1417D02*
X1199Y1417D01*
X1394Y1417D02*
X1399Y1417D01*
X1594Y1417D02*
X1599Y1417D01*
X1794Y1417D02*
X1799Y1417D01*
X2590Y1417D02*
X2597Y1417D01*
X0Y1416D02*
X7Y1416D01*
X1193Y1416D02*
X1199Y1416D01*
X1393Y1416D02*
X1399Y1416D01*
X1593Y1416D02*
X1599Y1416D01*
X1793Y1416D02*
X1799Y1416D01*
X2590Y1416D02*
X2597Y1416D01*
X0Y1415D02*
X7Y1415D01*
X1193Y1415D02*
X1198Y1415D01*
X1393Y1415D02*
X1398Y1415D01*
X1593Y1415D02*
X1598Y1415D01*
X1793Y1415D02*
X1798Y1415D01*
X2590Y1415D02*
X2597Y1415D01*
X0Y1414D02*
X7Y1414D01*
X1194Y1414D02*
X1197Y1414D01*
X1394Y1414D02*
X1397Y1414D01*
X1594Y1414D02*
X1597Y1414D01*
X1794Y1414D02*
X1797Y1414D01*
X2590Y1414D02*
X2597Y1414D01*
X0Y1413D02*
X7Y1413D01*
X1195Y1413D02*
X1196Y1413D01*
X1395Y1413D02*
X1396Y1413D01*
X1595Y1413D02*
X1596Y1413D01*
X1795Y1413D02*
X1796Y1413D01*
X2590Y1413D02*
X2597Y1413D01*
X0Y1412D02*
X7Y1412D01*
X2590Y1412D02*
X2597Y1412D01*
X0Y1411D02*
X7Y1411D01*
X2590Y1411D02*
X2597Y1411D01*
X0Y1410D02*
X7Y1410D01*
X2590Y1410D02*
X2597Y1410D01*
X0Y1409D02*
X7Y1409D01*
X2590Y1409D02*
X2597Y1409D01*
X0Y1408D02*
X7Y1408D01*
X2590Y1408D02*
X2597Y1408D01*
X0Y1407D02*
X7Y1407D01*
X2590Y1407D02*
X2597Y1407D01*
X0Y1406D02*
X7Y1406D01*
X2590Y1406D02*
X2597Y1406D01*
X0Y1405D02*
X7Y1405D01*
X2590Y1405D02*
X2597Y1405D01*
X0Y1404D02*
X7Y1404D01*
X2590Y1404D02*
X2597Y1404D01*
X0Y1403D02*
X7Y1403D01*
X204Y1403D02*
X207Y1403D01*
X252Y1403D02*
X254Y1403D01*
X2590Y1403D02*
X2597Y1403D01*
X0Y1402D02*
X7Y1402D01*
X203Y1402D02*
X208Y1402D01*
X250Y1402D02*
X255Y1402D01*
X2590Y1402D02*
X2597Y1402D01*
X0Y1401D02*
X7Y1401D01*
X203Y1401D02*
X208Y1401D01*
X250Y1401D02*
X256Y1401D01*
X2590Y1401D02*
X2597Y1401D01*
X0Y1400D02*
X7Y1400D01*
X203Y1400D02*
X209Y1400D01*
X250Y1400D02*
X256Y1400D01*
X2590Y1400D02*
X2597Y1400D01*
X0Y1399D02*
X7Y1399D01*
X203Y1399D02*
X209Y1399D01*
X250Y1399D02*
X256Y1399D01*
X2590Y1399D02*
X2597Y1399D01*
X0Y1398D02*
X7Y1398D01*
X203Y1398D02*
X209Y1398D01*
X250Y1398D02*
X256Y1398D01*
X2590Y1398D02*
X2597Y1398D01*
X0Y1397D02*
X7Y1397D01*
X203Y1397D02*
X209Y1397D01*
X250Y1397D02*
X256Y1397D01*
X2590Y1397D02*
X2597Y1397D01*
X0Y1396D02*
X7Y1396D01*
X203Y1396D02*
X209Y1396D01*
X250Y1396D02*
X256Y1396D01*
X2590Y1396D02*
X2597Y1396D01*
X0Y1395D02*
X7Y1395D01*
X203Y1395D02*
X209Y1395D01*
X250Y1395D02*
X256Y1395D01*
X2590Y1395D02*
X2597Y1395D01*
X0Y1394D02*
X7Y1394D01*
X203Y1394D02*
X209Y1394D01*
X250Y1394D02*
X256Y1394D01*
X2590Y1394D02*
X2597Y1394D01*
X0Y1393D02*
X7Y1393D01*
X203Y1393D02*
X209Y1393D01*
X250Y1393D02*
X256Y1393D01*
X2590Y1393D02*
X2597Y1393D01*
X0Y1392D02*
X7Y1392D01*
X203Y1392D02*
X209Y1392D01*
X250Y1392D02*
X256Y1392D01*
X2590Y1392D02*
X2597Y1392D01*
X0Y1391D02*
X7Y1391D01*
X203Y1391D02*
X209Y1391D01*
X250Y1391D02*
X256Y1391D01*
X2590Y1391D02*
X2597Y1391D01*
X0Y1390D02*
X7Y1390D01*
X203Y1390D02*
X209Y1390D01*
X250Y1390D02*
X256Y1390D01*
X2590Y1390D02*
X2597Y1390D01*
X0Y1389D02*
X7Y1389D01*
X203Y1389D02*
X256Y1389D01*
X2590Y1389D02*
X2597Y1389D01*
X0Y1388D02*
X7Y1388D01*
X203Y1388D02*
X256Y1388D01*
X2590Y1388D02*
X2597Y1388D01*
X0Y1387D02*
X7Y1387D01*
X203Y1387D02*
X256Y1387D01*
X2590Y1387D02*
X2597Y1387D01*
X0Y1386D02*
X7Y1386D01*
X203Y1386D02*
X256Y1386D01*
X2590Y1386D02*
X2597Y1386D01*
X0Y1385D02*
X7Y1385D01*
X203Y1385D02*
X256Y1385D01*
X2590Y1385D02*
X2597Y1385D01*
X0Y1384D02*
X7Y1384D01*
X203Y1384D02*
X256Y1384D01*
X2590Y1384D02*
X2597Y1384D01*
X0Y1383D02*
X7Y1383D01*
X203Y1383D02*
X256Y1383D01*
X2590Y1383D02*
X2597Y1383D01*
X0Y1382D02*
X7Y1382D01*
X203Y1382D02*
X209Y1382D01*
X2590Y1382D02*
X2597Y1382D01*
X0Y1381D02*
X7Y1381D01*
X203Y1381D02*
X209Y1381D01*
X2590Y1381D02*
X2597Y1381D01*
X0Y1380D02*
X7Y1380D01*
X203Y1380D02*
X209Y1380D01*
X2590Y1380D02*
X2597Y1380D01*
X0Y1379D02*
X7Y1379D01*
X203Y1379D02*
X209Y1379D01*
X2590Y1379D02*
X2597Y1379D01*
X0Y1378D02*
X7Y1378D01*
X203Y1378D02*
X209Y1378D01*
X2590Y1378D02*
X2597Y1378D01*
X0Y1377D02*
X7Y1377D01*
X203Y1377D02*
X209Y1377D01*
X2590Y1377D02*
X2597Y1377D01*
X0Y1376D02*
X7Y1376D01*
X203Y1376D02*
X209Y1376D01*
X2590Y1376D02*
X2597Y1376D01*
X0Y1375D02*
X7Y1375D01*
X203Y1375D02*
X225Y1375D01*
X2590Y1375D02*
X2597Y1375D01*
X0Y1374D02*
X7Y1374D01*
X203Y1374D02*
X226Y1374D01*
X2590Y1374D02*
X2597Y1374D01*
X0Y1373D02*
X7Y1373D01*
X203Y1373D02*
X226Y1373D01*
X2590Y1373D02*
X2597Y1373D01*
X0Y1372D02*
X7Y1372D01*
X203Y1372D02*
X226Y1372D01*
X2590Y1372D02*
X2597Y1372D01*
X0Y1371D02*
X7Y1371D01*
X203Y1371D02*
X226Y1371D01*
X2590Y1371D02*
X2597Y1371D01*
X0Y1370D02*
X7Y1370D01*
X204Y1370D02*
X225Y1370D01*
X2590Y1370D02*
X2597Y1370D01*
X0Y1369D02*
X7Y1369D01*
X206Y1369D02*
X223Y1369D01*
X2590Y1369D02*
X2597Y1369D01*
X0Y1368D02*
X7Y1368D01*
X2590Y1368D02*
X2597Y1368D01*
X0Y1367D02*
X7Y1367D01*
X2590Y1367D02*
X2597Y1367D01*
X0Y1366D02*
X7Y1366D01*
X2590Y1366D02*
X2597Y1366D01*
X0Y1365D02*
X7Y1365D01*
X2590Y1365D02*
X2597Y1365D01*
X0Y1364D02*
X7Y1364D01*
X2590Y1364D02*
X2597Y1364D01*
X0Y1363D02*
X7Y1363D01*
X2590Y1363D02*
X2597Y1363D01*
X0Y1362D02*
X7Y1362D01*
X2590Y1362D02*
X2597Y1362D01*
X0Y1361D02*
X7Y1361D01*
X2590Y1361D02*
X2597Y1361D01*
X0Y1360D02*
X7Y1360D01*
X2590Y1360D02*
X2597Y1360D01*
X0Y1359D02*
X7Y1359D01*
X2590Y1359D02*
X2597Y1359D01*
X0Y1358D02*
X7Y1358D01*
X2590Y1358D02*
X2597Y1358D01*
X0Y1357D02*
X7Y1357D01*
X2590Y1357D02*
X2597Y1357D01*
X0Y1356D02*
X7Y1356D01*
X2590Y1356D02*
X2597Y1356D01*
X0Y1355D02*
X7Y1355D01*
X2590Y1355D02*
X2597Y1355D01*
X0Y1354D02*
X7Y1354D01*
X2590Y1354D02*
X2597Y1354D01*
X0Y1353D02*
X7Y1353D01*
X2590Y1353D02*
X2597Y1353D01*
X0Y1352D02*
X7Y1352D01*
X2590Y1352D02*
X2597Y1352D01*
X0Y1351D02*
X7Y1351D01*
X2590Y1351D02*
X2597Y1351D01*
X0Y1350D02*
X7Y1350D01*
X2590Y1350D02*
X2597Y1350D01*
X0Y1349D02*
X7Y1349D01*
X2590Y1349D02*
X2597Y1349D01*
X0Y1348D02*
X7Y1348D01*
X2590Y1348D02*
X2597Y1348D01*
X0Y1347D02*
X7Y1347D01*
X2590Y1347D02*
X2597Y1347D01*
X0Y1346D02*
X7Y1346D01*
X2590Y1346D02*
X2597Y1346D01*
X0Y1345D02*
X7Y1345D01*
X2590Y1345D02*
X2597Y1345D01*
X0Y1344D02*
X7Y1344D01*
X2590Y1344D02*
X2597Y1344D01*
X0Y1343D02*
X7Y1343D01*
X2590Y1343D02*
X2597Y1343D01*
X0Y1342D02*
X7Y1342D01*
X2590Y1342D02*
X2597Y1342D01*
X0Y1341D02*
X7Y1341D01*
X2590Y1341D02*
X2597Y1341D01*
X0Y1340D02*
X7Y1340D01*
X2590Y1340D02*
X2597Y1340D01*
X0Y1339D02*
X7Y1339D01*
X2590Y1339D02*
X2597Y1339D01*
X0Y1338D02*
X7Y1338D01*
X2590Y1338D02*
X2597Y1338D01*
X0Y1337D02*
X7Y1337D01*
X2590Y1337D02*
X2597Y1337D01*
X0Y1336D02*
X7Y1336D01*
X2590Y1336D02*
X2597Y1336D01*
X0Y1335D02*
X7Y1335D01*
X2590Y1335D02*
X2597Y1335D01*
X0Y1334D02*
X7Y1334D01*
X107Y1334D02*
X181Y1334D01*
X2590Y1334D02*
X2597Y1334D01*
X0Y1333D02*
X7Y1333D01*
X107Y1333D02*
X181Y1333D01*
X2590Y1333D02*
X2597Y1333D01*
X0Y1332D02*
X7Y1332D01*
X107Y1332D02*
X181Y1332D01*
X2590Y1332D02*
X2597Y1332D01*
X0Y1331D02*
X7Y1331D01*
X107Y1331D02*
X109Y1331D01*
X179Y1331D02*
X181Y1331D01*
X2590Y1331D02*
X2597Y1331D01*
X0Y1330D02*
X7Y1330D01*
X107Y1330D02*
X109Y1330D01*
X179Y1330D02*
X181Y1330D01*
X2590Y1330D02*
X2597Y1330D01*
X0Y1329D02*
X7Y1329D01*
X107Y1329D02*
X109Y1329D01*
X179Y1329D02*
X181Y1329D01*
X2590Y1329D02*
X2597Y1329D01*
X0Y1328D02*
X7Y1328D01*
X107Y1328D02*
X109Y1328D01*
X179Y1328D02*
X181Y1328D01*
X2590Y1328D02*
X2597Y1328D01*
X0Y1327D02*
X7Y1327D01*
X107Y1327D02*
X109Y1327D01*
X179Y1327D02*
X181Y1327D01*
X2590Y1327D02*
X2597Y1327D01*
X0Y1326D02*
X7Y1326D01*
X107Y1326D02*
X109Y1326D01*
X179Y1326D02*
X181Y1326D01*
X2590Y1326D02*
X2597Y1326D01*
X0Y1325D02*
X7Y1325D01*
X107Y1325D02*
X109Y1325D01*
X179Y1325D02*
X181Y1325D01*
X2590Y1325D02*
X2597Y1325D01*
X0Y1324D02*
X7Y1324D01*
X107Y1324D02*
X109Y1324D01*
X179Y1324D02*
X181Y1324D01*
X2590Y1324D02*
X2597Y1324D01*
X0Y1323D02*
X7Y1323D01*
X107Y1323D02*
X109Y1323D01*
X179Y1323D02*
X181Y1323D01*
X2590Y1323D02*
X2597Y1323D01*
X0Y1322D02*
X7Y1322D01*
X107Y1322D02*
X109Y1322D01*
X179Y1322D02*
X181Y1322D01*
X2590Y1322D02*
X2597Y1322D01*
X0Y1321D02*
X7Y1321D01*
X107Y1321D02*
X109Y1321D01*
X179Y1321D02*
X181Y1321D01*
X2590Y1321D02*
X2597Y1321D01*
X0Y1320D02*
X7Y1320D01*
X107Y1320D02*
X109Y1320D01*
X179Y1320D02*
X181Y1320D01*
X2590Y1320D02*
X2597Y1320D01*
X0Y1319D02*
X7Y1319D01*
X107Y1319D02*
X109Y1319D01*
X179Y1319D02*
X181Y1319D01*
X2590Y1319D02*
X2597Y1319D01*
X0Y1318D02*
X7Y1318D01*
X107Y1318D02*
X109Y1318D01*
X179Y1318D02*
X181Y1318D01*
X2590Y1318D02*
X2597Y1318D01*
X0Y1317D02*
X7Y1317D01*
X107Y1317D02*
X109Y1317D01*
X179Y1317D02*
X181Y1317D01*
X2590Y1317D02*
X2597Y1317D01*
X0Y1316D02*
X7Y1316D01*
X107Y1316D02*
X109Y1316D01*
X179Y1316D02*
X181Y1316D01*
X2590Y1316D02*
X2597Y1316D01*
X0Y1315D02*
X7Y1315D01*
X107Y1315D02*
X109Y1315D01*
X179Y1315D02*
X181Y1315D01*
X2590Y1315D02*
X2597Y1315D01*
X0Y1314D02*
X7Y1314D01*
X107Y1314D02*
X109Y1314D01*
X179Y1314D02*
X181Y1314D01*
X2590Y1314D02*
X2597Y1314D01*
X0Y1313D02*
X7Y1313D01*
X107Y1313D02*
X109Y1313D01*
X179Y1313D02*
X181Y1313D01*
X2590Y1313D02*
X2597Y1313D01*
X0Y1312D02*
X7Y1312D01*
X107Y1312D02*
X109Y1312D01*
X179Y1312D02*
X181Y1312D01*
X2590Y1312D02*
X2597Y1312D01*
X0Y1311D02*
X7Y1311D01*
X107Y1311D02*
X109Y1311D01*
X179Y1311D02*
X181Y1311D01*
X2590Y1311D02*
X2597Y1311D01*
X0Y1310D02*
X7Y1310D01*
X107Y1310D02*
X109Y1310D01*
X179Y1310D02*
X181Y1310D01*
X2590Y1310D02*
X2597Y1310D01*
X0Y1309D02*
X7Y1309D01*
X107Y1309D02*
X109Y1309D01*
X179Y1309D02*
X181Y1309D01*
X2590Y1309D02*
X2597Y1309D01*
X0Y1308D02*
X7Y1308D01*
X107Y1308D02*
X109Y1308D01*
X179Y1308D02*
X181Y1308D01*
X2590Y1308D02*
X2597Y1308D01*
X0Y1307D02*
X7Y1307D01*
X107Y1307D02*
X109Y1307D01*
X179Y1307D02*
X181Y1307D01*
X2590Y1307D02*
X2597Y1307D01*
X0Y1306D02*
X7Y1306D01*
X107Y1306D02*
X109Y1306D01*
X179Y1306D02*
X181Y1306D01*
X2590Y1306D02*
X2597Y1306D01*
X0Y1305D02*
X7Y1305D01*
X107Y1305D02*
X109Y1305D01*
X179Y1305D02*
X181Y1305D01*
X2590Y1305D02*
X2597Y1305D01*
X0Y1304D02*
X7Y1304D01*
X107Y1304D02*
X109Y1304D01*
X179Y1304D02*
X181Y1304D01*
X2590Y1304D02*
X2597Y1304D01*
X0Y1303D02*
X7Y1303D01*
X107Y1303D02*
X109Y1303D01*
X179Y1303D02*
X181Y1303D01*
X2590Y1303D02*
X2597Y1303D01*
X0Y1302D02*
X7Y1302D01*
X107Y1302D02*
X109Y1302D01*
X179Y1302D02*
X181Y1302D01*
X2590Y1302D02*
X2597Y1302D01*
X0Y1301D02*
X7Y1301D01*
X107Y1301D02*
X109Y1301D01*
X179Y1301D02*
X181Y1301D01*
X2590Y1301D02*
X2597Y1301D01*
X0Y1300D02*
X7Y1300D01*
X107Y1300D02*
X109Y1300D01*
X179Y1300D02*
X181Y1300D01*
X2590Y1300D02*
X2597Y1300D01*
X0Y1299D02*
X7Y1299D01*
X107Y1299D02*
X109Y1299D01*
X179Y1299D02*
X181Y1299D01*
X2590Y1299D02*
X2597Y1299D01*
X0Y1298D02*
X7Y1298D01*
X107Y1298D02*
X109Y1298D01*
X179Y1298D02*
X181Y1298D01*
X2590Y1298D02*
X2597Y1298D01*
X0Y1297D02*
X7Y1297D01*
X107Y1297D02*
X109Y1297D01*
X179Y1297D02*
X181Y1297D01*
X2590Y1297D02*
X2597Y1297D01*
X0Y1296D02*
X7Y1296D01*
X107Y1296D02*
X109Y1296D01*
X179Y1296D02*
X181Y1296D01*
X2590Y1296D02*
X2597Y1296D01*
X0Y1295D02*
X7Y1295D01*
X107Y1295D02*
X109Y1295D01*
X179Y1295D02*
X181Y1295D01*
X2590Y1295D02*
X2597Y1295D01*
X0Y1294D02*
X7Y1294D01*
X107Y1294D02*
X109Y1294D01*
X179Y1294D02*
X181Y1294D01*
X2590Y1294D02*
X2597Y1294D01*
X0Y1293D02*
X7Y1293D01*
X107Y1293D02*
X109Y1293D01*
X179Y1293D02*
X181Y1293D01*
X2590Y1293D02*
X2597Y1293D01*
X0Y1292D02*
X7Y1292D01*
X107Y1292D02*
X109Y1292D01*
X179Y1292D02*
X181Y1292D01*
X2590Y1292D02*
X2597Y1292D01*
X0Y1291D02*
X7Y1291D01*
X107Y1291D02*
X109Y1291D01*
X179Y1291D02*
X181Y1291D01*
X2590Y1291D02*
X2597Y1291D01*
X0Y1290D02*
X7Y1290D01*
X107Y1290D02*
X109Y1290D01*
X179Y1290D02*
X181Y1290D01*
X2590Y1290D02*
X2597Y1290D01*
X0Y1289D02*
X7Y1289D01*
X107Y1289D02*
X109Y1289D01*
X179Y1289D02*
X181Y1289D01*
X2590Y1289D02*
X2597Y1289D01*
X0Y1288D02*
X7Y1288D01*
X107Y1288D02*
X109Y1288D01*
X179Y1288D02*
X181Y1288D01*
X2590Y1288D02*
X2597Y1288D01*
X0Y1287D02*
X7Y1287D01*
X107Y1287D02*
X109Y1287D01*
X179Y1287D02*
X181Y1287D01*
X2590Y1287D02*
X2597Y1287D01*
X0Y1286D02*
X7Y1286D01*
X107Y1286D02*
X109Y1286D01*
X179Y1286D02*
X181Y1286D01*
X2590Y1286D02*
X2597Y1286D01*
X0Y1285D02*
X7Y1285D01*
X107Y1285D02*
X109Y1285D01*
X179Y1285D02*
X181Y1285D01*
X2590Y1285D02*
X2597Y1285D01*
X0Y1284D02*
X7Y1284D01*
X107Y1284D02*
X109Y1284D01*
X179Y1284D02*
X181Y1284D01*
X2590Y1284D02*
X2597Y1284D01*
X0Y1283D02*
X7Y1283D01*
X107Y1283D02*
X109Y1283D01*
X179Y1283D02*
X181Y1283D01*
X2590Y1283D02*
X2597Y1283D01*
X0Y1282D02*
X7Y1282D01*
X107Y1282D02*
X109Y1282D01*
X179Y1282D02*
X181Y1282D01*
X2590Y1282D02*
X2597Y1282D01*
X0Y1281D02*
X7Y1281D01*
X107Y1281D02*
X109Y1281D01*
X179Y1281D02*
X181Y1281D01*
X2590Y1281D02*
X2597Y1281D01*
X0Y1280D02*
X7Y1280D01*
X107Y1280D02*
X109Y1280D01*
X179Y1280D02*
X181Y1280D01*
X2590Y1280D02*
X2597Y1280D01*
X0Y1279D02*
X7Y1279D01*
X107Y1279D02*
X109Y1279D01*
X179Y1279D02*
X181Y1279D01*
X2590Y1279D02*
X2597Y1279D01*
X0Y1278D02*
X7Y1278D01*
X107Y1278D02*
X109Y1278D01*
X179Y1278D02*
X181Y1278D01*
X2590Y1278D02*
X2597Y1278D01*
X0Y1277D02*
X7Y1277D01*
X107Y1277D02*
X109Y1277D01*
X179Y1277D02*
X181Y1277D01*
X2590Y1277D02*
X2597Y1277D01*
X0Y1276D02*
X7Y1276D01*
X107Y1276D02*
X109Y1276D01*
X179Y1276D02*
X181Y1276D01*
X2590Y1276D02*
X2597Y1276D01*
X0Y1275D02*
X7Y1275D01*
X107Y1275D02*
X109Y1275D01*
X179Y1275D02*
X181Y1275D01*
X2590Y1275D02*
X2597Y1275D01*
X0Y1274D02*
X7Y1274D01*
X107Y1274D02*
X109Y1274D01*
X179Y1274D02*
X181Y1274D01*
X2590Y1274D02*
X2597Y1274D01*
X0Y1273D02*
X7Y1273D01*
X107Y1273D02*
X109Y1273D01*
X179Y1273D02*
X181Y1273D01*
X2590Y1273D02*
X2597Y1273D01*
X0Y1272D02*
X7Y1272D01*
X107Y1272D02*
X109Y1272D01*
X179Y1272D02*
X181Y1272D01*
X2590Y1272D02*
X2597Y1272D01*
X0Y1271D02*
X7Y1271D01*
X107Y1271D02*
X109Y1271D01*
X179Y1271D02*
X181Y1271D01*
X2590Y1271D02*
X2597Y1271D01*
X0Y1270D02*
X7Y1270D01*
X107Y1270D02*
X109Y1270D01*
X179Y1270D02*
X181Y1270D01*
X2590Y1270D02*
X2597Y1270D01*
X0Y1269D02*
X7Y1269D01*
X107Y1269D02*
X109Y1269D01*
X179Y1269D02*
X181Y1269D01*
X2590Y1269D02*
X2597Y1269D01*
X0Y1268D02*
X7Y1268D01*
X107Y1268D02*
X109Y1268D01*
X179Y1268D02*
X181Y1268D01*
X2590Y1268D02*
X2597Y1268D01*
X0Y1267D02*
X7Y1267D01*
X107Y1267D02*
X109Y1267D01*
X179Y1267D02*
X181Y1267D01*
X2590Y1267D02*
X2597Y1267D01*
X0Y1266D02*
X7Y1266D01*
X107Y1266D02*
X110Y1266D01*
X178Y1266D02*
X181Y1266D01*
X2590Y1266D02*
X2597Y1266D01*
X0Y1265D02*
X7Y1265D01*
X107Y1265D02*
X110Y1265D01*
X178Y1265D02*
X181Y1265D01*
X2590Y1265D02*
X2597Y1265D01*
X0Y1264D02*
X7Y1264D01*
X107Y1264D02*
X110Y1264D01*
X178Y1264D02*
X181Y1264D01*
X2590Y1264D02*
X2597Y1264D01*
X0Y1263D02*
X7Y1263D01*
X107Y1263D02*
X110Y1263D01*
X178Y1263D02*
X181Y1263D01*
X2590Y1263D02*
X2597Y1263D01*
X0Y1262D02*
X7Y1262D01*
X107Y1262D02*
X110Y1262D01*
X178Y1262D02*
X181Y1262D01*
X2590Y1262D02*
X2597Y1262D01*
X0Y1261D02*
X7Y1261D01*
X107Y1261D02*
X110Y1261D01*
X178Y1261D02*
X181Y1261D01*
X2590Y1261D02*
X2597Y1261D01*
X0Y1260D02*
X7Y1260D01*
X107Y1260D02*
X110Y1260D01*
X178Y1260D02*
X181Y1260D01*
X2590Y1260D02*
X2597Y1260D01*
X0Y1259D02*
X7Y1259D01*
X107Y1259D02*
X110Y1259D01*
X178Y1259D02*
X181Y1259D01*
X2590Y1259D02*
X2597Y1259D01*
X0Y1258D02*
X7Y1258D01*
X107Y1258D02*
X110Y1258D01*
X178Y1258D02*
X181Y1258D01*
X2590Y1258D02*
X2597Y1258D01*
X0Y1257D02*
X7Y1257D01*
X107Y1257D02*
X110Y1257D01*
X178Y1257D02*
X181Y1257D01*
X2590Y1257D02*
X2597Y1257D01*
X0Y1256D02*
X7Y1256D01*
X107Y1256D02*
X110Y1256D01*
X178Y1256D02*
X181Y1256D01*
X2590Y1256D02*
X2597Y1256D01*
X0Y1255D02*
X7Y1255D01*
X107Y1255D02*
X110Y1255D01*
X178Y1255D02*
X181Y1255D01*
X2590Y1255D02*
X2597Y1255D01*
X0Y1254D02*
X7Y1254D01*
X107Y1254D02*
X110Y1254D01*
X178Y1254D02*
X181Y1254D01*
X2590Y1254D02*
X2597Y1254D01*
X0Y1253D02*
X7Y1253D01*
X107Y1253D02*
X110Y1253D01*
X178Y1253D02*
X181Y1253D01*
X2590Y1253D02*
X2597Y1253D01*
X0Y1252D02*
X7Y1252D01*
X107Y1252D02*
X110Y1252D01*
X178Y1252D02*
X181Y1252D01*
X2590Y1252D02*
X2597Y1252D01*
X0Y1251D02*
X7Y1251D01*
X107Y1251D02*
X110Y1251D01*
X178Y1251D02*
X181Y1251D01*
X2590Y1251D02*
X2597Y1251D01*
X0Y1250D02*
X7Y1250D01*
X107Y1250D02*
X109Y1250D01*
X179Y1250D02*
X181Y1250D01*
X2590Y1250D02*
X2597Y1250D01*
X0Y1249D02*
X7Y1249D01*
X107Y1249D02*
X109Y1249D01*
X179Y1249D02*
X181Y1249D01*
X2590Y1249D02*
X2597Y1249D01*
X0Y1248D02*
X7Y1248D01*
X107Y1248D02*
X109Y1248D01*
X179Y1248D02*
X181Y1248D01*
X2590Y1248D02*
X2597Y1248D01*
X0Y1247D02*
X7Y1247D01*
X107Y1247D02*
X109Y1247D01*
X179Y1247D02*
X181Y1247D01*
X2590Y1247D02*
X2597Y1247D01*
X0Y1246D02*
X7Y1246D01*
X107Y1246D02*
X109Y1246D01*
X179Y1246D02*
X181Y1246D01*
X2590Y1246D02*
X2597Y1246D01*
X0Y1245D02*
X7Y1245D01*
X107Y1245D02*
X109Y1245D01*
X179Y1245D02*
X181Y1245D01*
X2590Y1245D02*
X2597Y1245D01*
X0Y1244D02*
X7Y1244D01*
X107Y1244D02*
X109Y1244D01*
X179Y1244D02*
X181Y1244D01*
X2590Y1244D02*
X2597Y1244D01*
X0Y1243D02*
X7Y1243D01*
X107Y1243D02*
X109Y1243D01*
X179Y1243D02*
X181Y1243D01*
X2590Y1243D02*
X2597Y1243D01*
X0Y1242D02*
X7Y1242D01*
X107Y1242D02*
X109Y1242D01*
X179Y1242D02*
X181Y1242D01*
X2590Y1242D02*
X2597Y1242D01*
X0Y1241D02*
X7Y1241D01*
X107Y1241D02*
X109Y1241D01*
X179Y1241D02*
X181Y1241D01*
X2590Y1241D02*
X2597Y1241D01*
X0Y1240D02*
X7Y1240D01*
X107Y1240D02*
X109Y1240D01*
X179Y1240D02*
X181Y1240D01*
X2590Y1240D02*
X2597Y1240D01*
X0Y1239D02*
X7Y1239D01*
X107Y1239D02*
X109Y1239D01*
X179Y1239D02*
X181Y1239D01*
X2590Y1239D02*
X2597Y1239D01*
X0Y1238D02*
X7Y1238D01*
X107Y1238D02*
X109Y1238D01*
X179Y1238D02*
X181Y1238D01*
X2590Y1238D02*
X2597Y1238D01*
X0Y1237D02*
X7Y1237D01*
X107Y1237D02*
X109Y1237D01*
X179Y1237D02*
X181Y1237D01*
X2590Y1237D02*
X2597Y1237D01*
X0Y1236D02*
X7Y1236D01*
X107Y1236D02*
X109Y1236D01*
X179Y1236D02*
X181Y1236D01*
X2590Y1236D02*
X2597Y1236D01*
X0Y1235D02*
X7Y1235D01*
X107Y1235D02*
X109Y1235D01*
X179Y1235D02*
X181Y1235D01*
X2590Y1235D02*
X2597Y1235D01*
X0Y1234D02*
X7Y1234D01*
X107Y1234D02*
X109Y1234D01*
X179Y1234D02*
X181Y1234D01*
X2590Y1234D02*
X2597Y1234D01*
X0Y1233D02*
X7Y1233D01*
X107Y1233D02*
X109Y1233D01*
X179Y1233D02*
X181Y1233D01*
X2590Y1233D02*
X2597Y1233D01*
X0Y1232D02*
X7Y1232D01*
X107Y1232D02*
X109Y1232D01*
X179Y1232D02*
X181Y1232D01*
X2590Y1232D02*
X2597Y1232D01*
X0Y1231D02*
X7Y1231D01*
X107Y1231D02*
X109Y1231D01*
X179Y1231D02*
X181Y1231D01*
X2590Y1231D02*
X2597Y1231D01*
X0Y1230D02*
X7Y1230D01*
X107Y1230D02*
X109Y1230D01*
X179Y1230D02*
X181Y1230D01*
X2590Y1230D02*
X2597Y1230D01*
X0Y1229D02*
X7Y1229D01*
X107Y1229D02*
X109Y1229D01*
X179Y1229D02*
X181Y1229D01*
X2590Y1229D02*
X2597Y1229D01*
X0Y1228D02*
X7Y1228D01*
X107Y1228D02*
X109Y1228D01*
X179Y1228D02*
X181Y1228D01*
X2590Y1228D02*
X2597Y1228D01*
X0Y1227D02*
X7Y1227D01*
X107Y1227D02*
X109Y1227D01*
X179Y1227D02*
X181Y1227D01*
X2590Y1227D02*
X2597Y1227D01*
X0Y1226D02*
X7Y1226D01*
X107Y1226D02*
X109Y1226D01*
X179Y1226D02*
X181Y1226D01*
X2590Y1226D02*
X2597Y1226D01*
X0Y1225D02*
X7Y1225D01*
X107Y1225D02*
X109Y1225D01*
X179Y1225D02*
X181Y1225D01*
X2590Y1225D02*
X2597Y1225D01*
X0Y1224D02*
X7Y1224D01*
X107Y1224D02*
X109Y1224D01*
X179Y1224D02*
X181Y1224D01*
X2590Y1224D02*
X2597Y1224D01*
X0Y1223D02*
X7Y1223D01*
X107Y1223D02*
X109Y1223D01*
X179Y1223D02*
X181Y1223D01*
X2590Y1223D02*
X2597Y1223D01*
X0Y1222D02*
X7Y1222D01*
X107Y1222D02*
X109Y1222D01*
X179Y1222D02*
X181Y1222D01*
X2590Y1222D02*
X2597Y1222D01*
X0Y1221D02*
X7Y1221D01*
X107Y1221D02*
X109Y1221D01*
X179Y1221D02*
X181Y1221D01*
X2590Y1221D02*
X2597Y1221D01*
X0Y1220D02*
X7Y1220D01*
X107Y1220D02*
X109Y1220D01*
X179Y1220D02*
X181Y1220D01*
X2590Y1220D02*
X2597Y1220D01*
X0Y1219D02*
X7Y1219D01*
X107Y1219D02*
X109Y1219D01*
X179Y1219D02*
X181Y1219D01*
X2590Y1219D02*
X2597Y1219D01*
X0Y1218D02*
X7Y1218D01*
X107Y1218D02*
X109Y1218D01*
X179Y1218D02*
X181Y1218D01*
X2590Y1218D02*
X2597Y1218D01*
X0Y1217D02*
X7Y1217D01*
X107Y1217D02*
X109Y1217D01*
X179Y1217D02*
X181Y1217D01*
X2590Y1217D02*
X2597Y1217D01*
X0Y1216D02*
X7Y1216D01*
X107Y1216D02*
X109Y1216D01*
X179Y1216D02*
X181Y1216D01*
X2590Y1216D02*
X2597Y1216D01*
X0Y1215D02*
X7Y1215D01*
X107Y1215D02*
X109Y1215D01*
X179Y1215D02*
X181Y1215D01*
X2590Y1215D02*
X2597Y1215D01*
X0Y1214D02*
X7Y1214D01*
X107Y1214D02*
X109Y1214D01*
X179Y1214D02*
X181Y1214D01*
X2590Y1214D02*
X2597Y1214D01*
X0Y1213D02*
X7Y1213D01*
X107Y1213D02*
X109Y1213D01*
X179Y1213D02*
X181Y1213D01*
X2590Y1213D02*
X2597Y1213D01*
X0Y1212D02*
X7Y1212D01*
X107Y1212D02*
X109Y1212D01*
X179Y1212D02*
X181Y1212D01*
X2590Y1212D02*
X2597Y1212D01*
X0Y1211D02*
X7Y1211D01*
X107Y1211D02*
X109Y1211D01*
X179Y1211D02*
X181Y1211D01*
X2590Y1211D02*
X2597Y1211D01*
X0Y1210D02*
X7Y1210D01*
X107Y1210D02*
X109Y1210D01*
X179Y1210D02*
X181Y1210D01*
X2590Y1210D02*
X2597Y1210D01*
X0Y1209D02*
X7Y1209D01*
X107Y1209D02*
X109Y1209D01*
X179Y1209D02*
X181Y1209D01*
X2590Y1209D02*
X2597Y1209D01*
X0Y1208D02*
X7Y1208D01*
X107Y1208D02*
X109Y1208D01*
X179Y1208D02*
X181Y1208D01*
X2590Y1208D02*
X2597Y1208D01*
X0Y1207D02*
X7Y1207D01*
X107Y1207D02*
X109Y1207D01*
X179Y1207D02*
X181Y1207D01*
X2590Y1207D02*
X2597Y1207D01*
X0Y1206D02*
X7Y1206D01*
X107Y1206D02*
X109Y1206D01*
X179Y1206D02*
X181Y1206D01*
X2590Y1206D02*
X2597Y1206D01*
X0Y1205D02*
X7Y1205D01*
X107Y1205D02*
X109Y1205D01*
X179Y1205D02*
X181Y1205D01*
X2590Y1205D02*
X2597Y1205D01*
X0Y1204D02*
X7Y1204D01*
X107Y1204D02*
X109Y1204D01*
X179Y1204D02*
X181Y1204D01*
X2590Y1204D02*
X2597Y1204D01*
X0Y1203D02*
X7Y1203D01*
X107Y1203D02*
X109Y1203D01*
X179Y1203D02*
X181Y1203D01*
X2590Y1203D02*
X2597Y1203D01*
X0Y1202D02*
X7Y1202D01*
X107Y1202D02*
X109Y1202D01*
X179Y1202D02*
X181Y1202D01*
X2590Y1202D02*
X2597Y1202D01*
X0Y1201D02*
X7Y1201D01*
X107Y1201D02*
X109Y1201D01*
X179Y1201D02*
X181Y1201D01*
X2590Y1201D02*
X2597Y1201D01*
X0Y1200D02*
X7Y1200D01*
X107Y1200D02*
X109Y1200D01*
X179Y1200D02*
X181Y1200D01*
X2590Y1200D02*
X2597Y1200D01*
X0Y1199D02*
X7Y1199D01*
X107Y1199D02*
X109Y1199D01*
X179Y1199D02*
X181Y1199D01*
X2590Y1199D02*
X2597Y1199D01*
X0Y1198D02*
X7Y1198D01*
X107Y1198D02*
X109Y1198D01*
X179Y1198D02*
X181Y1198D01*
X2590Y1198D02*
X2597Y1198D01*
X0Y1197D02*
X7Y1197D01*
X107Y1197D02*
X109Y1197D01*
X179Y1197D02*
X181Y1197D01*
X2590Y1197D02*
X2597Y1197D01*
X0Y1196D02*
X7Y1196D01*
X107Y1196D02*
X109Y1196D01*
X179Y1196D02*
X181Y1196D01*
X2590Y1196D02*
X2597Y1196D01*
X0Y1195D02*
X7Y1195D01*
X107Y1195D02*
X109Y1195D01*
X179Y1195D02*
X181Y1195D01*
X2590Y1195D02*
X2597Y1195D01*
X0Y1194D02*
X7Y1194D01*
X107Y1194D02*
X109Y1194D01*
X179Y1194D02*
X181Y1194D01*
X2590Y1194D02*
X2597Y1194D01*
X0Y1193D02*
X7Y1193D01*
X107Y1193D02*
X109Y1193D01*
X179Y1193D02*
X181Y1193D01*
X2590Y1193D02*
X2597Y1193D01*
X0Y1192D02*
X7Y1192D01*
X107Y1192D02*
X109Y1192D01*
X179Y1192D02*
X181Y1192D01*
X2590Y1192D02*
X2597Y1192D01*
X0Y1191D02*
X7Y1191D01*
X107Y1191D02*
X109Y1191D01*
X179Y1191D02*
X181Y1191D01*
X2590Y1191D02*
X2597Y1191D01*
X0Y1190D02*
X7Y1190D01*
X107Y1190D02*
X109Y1190D01*
X179Y1190D02*
X181Y1190D01*
X2590Y1190D02*
X2597Y1190D01*
X0Y1189D02*
X7Y1189D01*
X107Y1189D02*
X109Y1189D01*
X179Y1189D02*
X181Y1189D01*
X2590Y1189D02*
X2597Y1189D01*
X0Y1188D02*
X7Y1188D01*
X107Y1188D02*
X109Y1188D01*
X179Y1188D02*
X181Y1188D01*
X2590Y1188D02*
X2597Y1188D01*
X0Y1187D02*
X7Y1187D01*
X107Y1187D02*
X109Y1187D01*
X179Y1187D02*
X181Y1187D01*
X2590Y1187D02*
X2597Y1187D01*
X0Y1186D02*
X7Y1186D01*
X107Y1186D02*
X109Y1186D01*
X179Y1186D02*
X181Y1186D01*
X2590Y1186D02*
X2597Y1186D01*
X0Y1185D02*
X7Y1185D01*
X107Y1185D02*
X181Y1185D01*
X2590Y1185D02*
X2597Y1185D01*
X0Y1184D02*
X7Y1184D01*
X107Y1184D02*
X181Y1184D01*
X2590Y1184D02*
X2597Y1184D01*
X0Y1183D02*
X7Y1183D01*
X107Y1183D02*
X181Y1183D01*
X2590Y1183D02*
X2597Y1183D01*
X0Y1182D02*
X7Y1182D01*
X2590Y1182D02*
X2597Y1182D01*
X0Y1181D02*
X7Y1181D01*
X2590Y1181D02*
X2597Y1181D01*
X0Y1180D02*
X7Y1180D01*
X2590Y1180D02*
X2597Y1180D01*
X0Y1179D02*
X7Y1179D01*
X2590Y1179D02*
X2597Y1179D01*
X0Y1178D02*
X7Y1178D01*
X2590Y1178D02*
X2597Y1178D01*
X0Y1177D02*
X7Y1177D01*
X2590Y1177D02*
X2597Y1177D01*
X0Y1176D02*
X7Y1176D01*
X2590Y1176D02*
X2597Y1176D01*
X0Y1175D02*
X7Y1175D01*
X2590Y1175D02*
X2597Y1175D01*
X0Y1174D02*
X7Y1174D01*
X209Y1174D02*
X261Y1174D01*
X2590Y1174D02*
X2597Y1174D01*
X0Y1173D02*
X7Y1173D01*
X208Y1173D02*
X261Y1173D01*
X2590Y1173D02*
X2597Y1173D01*
X0Y1172D02*
X7Y1172D01*
X208Y1172D02*
X261Y1172D01*
X2590Y1172D02*
X2597Y1172D01*
X0Y1171D02*
X7Y1171D01*
X208Y1171D02*
X261Y1171D01*
X2590Y1171D02*
X2597Y1171D01*
X0Y1170D02*
X7Y1170D01*
X208Y1170D02*
X261Y1170D01*
X2590Y1170D02*
X2597Y1170D01*
X0Y1169D02*
X7Y1169D01*
X209Y1169D02*
X261Y1169D01*
X2590Y1169D02*
X2597Y1169D01*
X0Y1168D02*
X7Y1168D01*
X210Y1168D02*
X261Y1168D01*
X2590Y1168D02*
X2597Y1168D01*
X0Y1167D02*
X7Y1167D01*
X237Y1167D02*
X243Y1167D01*
X255Y1167D02*
X261Y1167D01*
X2590Y1167D02*
X2597Y1167D01*
X0Y1166D02*
X7Y1166D01*
X237Y1166D02*
X243Y1166D01*
X255Y1166D02*
X261Y1166D01*
X2590Y1166D02*
X2597Y1166D01*
X0Y1165D02*
X7Y1165D01*
X237Y1165D02*
X243Y1165D01*
X255Y1165D02*
X261Y1165D01*
X2590Y1165D02*
X2597Y1165D01*
X0Y1164D02*
X7Y1164D01*
X237Y1164D02*
X243Y1164D01*
X255Y1164D02*
X261Y1164D01*
X2590Y1164D02*
X2597Y1164D01*
X0Y1163D02*
X7Y1163D01*
X237Y1163D02*
X243Y1163D01*
X255Y1163D02*
X261Y1163D01*
X2590Y1163D02*
X2597Y1163D01*
X0Y1162D02*
X7Y1162D01*
X235Y1162D02*
X243Y1162D01*
X255Y1162D02*
X261Y1162D01*
X2590Y1162D02*
X2597Y1162D01*
X0Y1161D02*
X7Y1161D01*
X233Y1161D02*
X243Y1161D01*
X255Y1161D02*
X261Y1161D01*
X2590Y1161D02*
X2597Y1161D01*
X0Y1160D02*
X7Y1160D01*
X232Y1160D02*
X243Y1160D01*
X255Y1160D02*
X261Y1160D01*
X2590Y1160D02*
X2597Y1160D01*
X0Y1159D02*
X7Y1159D01*
X230Y1159D02*
X243Y1159D01*
X255Y1159D02*
X261Y1159D01*
X2590Y1159D02*
X2597Y1159D01*
X0Y1158D02*
X7Y1158D01*
X228Y1158D02*
X243Y1158D01*
X255Y1158D02*
X261Y1158D01*
X2590Y1158D02*
X2597Y1158D01*
X0Y1157D02*
X7Y1157D01*
X227Y1157D02*
X243Y1157D01*
X255Y1157D02*
X261Y1157D01*
X2590Y1157D02*
X2597Y1157D01*
X0Y1156D02*
X7Y1156D01*
X225Y1156D02*
X243Y1156D01*
X255Y1156D02*
X261Y1156D01*
X2590Y1156D02*
X2597Y1156D01*
X0Y1155D02*
X7Y1155D01*
X223Y1155D02*
X243Y1155D01*
X255Y1155D02*
X261Y1155D01*
X2590Y1155D02*
X2597Y1155D01*
X0Y1154D02*
X7Y1154D01*
X221Y1154D02*
X234Y1154D01*
X237Y1154D02*
X243Y1154D01*
X255Y1154D02*
X261Y1154D01*
X2590Y1154D02*
X2597Y1154D01*
X0Y1153D02*
X7Y1153D01*
X220Y1153D02*
X233Y1153D01*
X237Y1153D02*
X243Y1153D01*
X255Y1153D02*
X261Y1153D01*
X2590Y1153D02*
X2597Y1153D01*
X0Y1152D02*
X7Y1152D01*
X218Y1152D02*
X231Y1152D01*
X237Y1152D02*
X243Y1152D01*
X255Y1152D02*
X261Y1152D01*
X2590Y1152D02*
X2597Y1152D01*
X0Y1151D02*
X7Y1151D01*
X216Y1151D02*
X229Y1151D01*
X237Y1151D02*
X243Y1151D01*
X255Y1151D02*
X261Y1151D01*
X2590Y1151D02*
X2597Y1151D01*
X0Y1150D02*
X7Y1150D01*
X215Y1150D02*
X228Y1150D01*
X237Y1150D02*
X243Y1150D01*
X254Y1150D02*
X261Y1150D01*
X2590Y1150D02*
X2597Y1150D01*
X0Y1149D02*
X7Y1149D01*
X213Y1149D02*
X226Y1149D01*
X237Y1149D02*
X244Y1149D01*
X254Y1149D02*
X260Y1149D01*
X2590Y1149D02*
X2597Y1149D01*
X0Y1148D02*
X7Y1148D01*
X211Y1148D02*
X224Y1148D01*
X237Y1148D02*
X245Y1148D01*
X253Y1148D02*
X260Y1148D01*
X2590Y1148D02*
X2597Y1148D01*
X0Y1147D02*
X7Y1147D01*
X209Y1147D02*
X222Y1147D01*
X238Y1147D02*
X260Y1147D01*
X2590Y1147D02*
X2597Y1147D01*
X0Y1146D02*
X7Y1146D01*
X208Y1146D02*
X221Y1146D01*
X238Y1146D02*
X259Y1146D01*
X2590Y1146D02*
X2597Y1146D01*
X0Y1145D02*
X7Y1145D01*
X208Y1145D02*
X219Y1145D01*
X239Y1145D02*
X259Y1145D01*
X2590Y1145D02*
X2597Y1145D01*
X0Y1144D02*
X7Y1144D01*
X208Y1144D02*
X217Y1144D01*
X240Y1144D02*
X258Y1144D01*
X2590Y1144D02*
X2597Y1144D01*
X0Y1143D02*
X7Y1143D01*
X208Y1143D02*
X216Y1143D01*
X241Y1143D02*
X257Y1143D01*
X2590Y1143D02*
X2597Y1143D01*
X0Y1142D02*
X7Y1142D01*
X208Y1142D02*
X214Y1142D01*
X242Y1142D02*
X256Y1142D01*
X2590Y1142D02*
X2597Y1142D01*
X0Y1141D02*
X7Y1141D01*
X209Y1141D02*
X212Y1141D01*
X244Y1141D02*
X254Y1141D01*
X2590Y1141D02*
X2597Y1141D01*
X0Y1140D02*
X7Y1140D01*
X2590Y1140D02*
X2597Y1140D01*
X0Y1139D02*
X7Y1139D01*
X2590Y1139D02*
X2597Y1139D01*
X0Y1138D02*
X7Y1138D01*
X2590Y1138D02*
X2597Y1138D01*
X0Y1137D02*
X7Y1137D01*
X2590Y1137D02*
X2597Y1137D01*
X0Y1136D02*
X7Y1136D01*
X2590Y1136D02*
X2597Y1136D01*
X0Y1135D02*
X7Y1135D01*
X2590Y1135D02*
X2597Y1135D01*
X0Y1134D02*
X7Y1134D01*
X2590Y1134D02*
X2597Y1134D01*
X0Y1133D02*
X7Y1133D01*
X2590Y1133D02*
X2597Y1133D01*
X0Y1132D02*
X7Y1132D01*
X2590Y1132D02*
X2597Y1132D01*
X0Y1131D02*
X7Y1131D01*
X2590Y1131D02*
X2597Y1131D01*
X0Y1130D02*
X7Y1130D01*
X2590Y1130D02*
X2597Y1130D01*
X0Y1129D02*
X7Y1129D01*
X2590Y1129D02*
X2597Y1129D01*
X0Y1128D02*
X7Y1128D01*
X2590Y1128D02*
X2597Y1128D01*
X0Y1127D02*
X7Y1127D01*
X2590Y1127D02*
X2597Y1127D01*
X0Y1126D02*
X7Y1126D01*
X2590Y1126D02*
X2597Y1126D01*
X0Y1125D02*
X7Y1125D01*
X2590Y1125D02*
X2597Y1125D01*
X0Y1124D02*
X7Y1124D01*
X209Y1124D02*
X212Y1124D01*
X256Y1124D02*
X259Y1124D01*
X2590Y1124D02*
X2597Y1124D01*
X0Y1123D02*
X7Y1123D01*
X208Y1123D02*
X213Y1123D01*
X255Y1123D02*
X260Y1123D01*
X2590Y1123D02*
X2597Y1123D01*
X0Y1122D02*
X7Y1122D01*
X208Y1122D02*
X213Y1122D01*
X255Y1122D02*
X261Y1122D01*
X2590Y1122D02*
X2597Y1122D01*
X0Y1121D02*
X7Y1121D01*
X207Y1121D02*
X214Y1121D01*
X255Y1121D02*
X261Y1121D01*
X2590Y1121D02*
X2597Y1121D01*
X0Y1120D02*
X7Y1120D01*
X207Y1120D02*
X214Y1120D01*
X255Y1120D02*
X261Y1120D01*
X2590Y1120D02*
X2597Y1120D01*
X0Y1119D02*
X7Y1119D01*
X207Y1119D02*
X214Y1119D01*
X255Y1119D02*
X261Y1119D01*
X2590Y1119D02*
X2597Y1119D01*
X0Y1118D02*
X7Y1118D01*
X207Y1118D02*
X214Y1118D01*
X255Y1118D02*
X261Y1118D01*
X2590Y1118D02*
X2597Y1118D01*
X0Y1117D02*
X7Y1117D01*
X207Y1117D02*
X214Y1117D01*
X255Y1117D02*
X261Y1117D01*
X2590Y1117D02*
X2597Y1117D01*
X0Y1116D02*
X7Y1116D01*
X207Y1116D02*
X214Y1116D01*
X255Y1116D02*
X261Y1116D01*
X2590Y1116D02*
X2597Y1116D01*
X0Y1115D02*
X7Y1115D01*
X207Y1115D02*
X214Y1115D01*
X255Y1115D02*
X261Y1115D01*
X2590Y1115D02*
X2597Y1115D01*
X0Y1114D02*
X7Y1114D01*
X207Y1114D02*
X214Y1114D01*
X255Y1114D02*
X261Y1114D01*
X2590Y1114D02*
X2597Y1114D01*
X0Y1113D02*
X7Y1113D01*
X207Y1113D02*
X214Y1113D01*
X255Y1113D02*
X261Y1113D01*
X2590Y1113D02*
X2597Y1113D01*
X0Y1112D02*
X7Y1112D01*
X207Y1112D02*
X214Y1112D01*
X255Y1112D02*
X261Y1112D01*
X2590Y1112D02*
X2597Y1112D01*
X0Y1111D02*
X7Y1111D01*
X207Y1111D02*
X261Y1111D01*
X2590Y1111D02*
X2597Y1111D01*
X0Y1110D02*
X7Y1110D01*
X207Y1110D02*
X261Y1110D01*
X2590Y1110D02*
X2597Y1110D01*
X0Y1109D02*
X7Y1109D01*
X207Y1109D02*
X261Y1109D01*
X2590Y1109D02*
X2597Y1109D01*
X0Y1108D02*
X7Y1108D01*
X207Y1108D02*
X261Y1108D01*
X2590Y1108D02*
X2597Y1108D01*
X0Y1107D02*
X7Y1107D01*
X207Y1107D02*
X261Y1107D01*
X2590Y1107D02*
X2597Y1107D01*
X0Y1106D02*
X7Y1106D01*
X207Y1106D02*
X261Y1106D01*
X2590Y1106D02*
X2597Y1106D01*
X0Y1105D02*
X7Y1105D01*
X207Y1105D02*
X261Y1105D01*
X2590Y1105D02*
X2597Y1105D01*
X0Y1104D02*
X7Y1104D01*
X207Y1104D02*
X214Y1104D01*
X2590Y1104D02*
X2597Y1104D01*
X0Y1103D02*
X7Y1103D01*
X207Y1103D02*
X214Y1103D01*
X2590Y1103D02*
X2597Y1103D01*
X0Y1102D02*
X7Y1102D01*
X207Y1102D02*
X214Y1102D01*
X2590Y1102D02*
X2597Y1102D01*
X0Y1101D02*
X7Y1101D01*
X207Y1101D02*
X214Y1101D01*
X2590Y1101D02*
X2597Y1101D01*
X0Y1100D02*
X7Y1100D01*
X207Y1100D02*
X214Y1100D01*
X2590Y1100D02*
X2597Y1100D01*
X0Y1099D02*
X7Y1099D01*
X207Y1099D02*
X214Y1099D01*
X2590Y1099D02*
X2597Y1099D01*
X0Y1098D02*
X7Y1098D01*
X207Y1098D02*
X214Y1098D01*
X2590Y1098D02*
X2597Y1098D01*
X0Y1097D02*
X7Y1097D01*
X207Y1097D02*
X229Y1097D01*
X2590Y1097D02*
X2597Y1097D01*
X0Y1096D02*
X7Y1096D01*
X207Y1096D02*
X230Y1096D01*
X2590Y1096D02*
X2597Y1096D01*
X0Y1095D02*
X7Y1095D01*
X207Y1095D02*
X231Y1095D01*
X2590Y1095D02*
X2597Y1095D01*
X0Y1094D02*
X7Y1094D01*
X208Y1094D02*
X231Y1094D01*
X2590Y1094D02*
X2597Y1094D01*
X0Y1093D02*
X7Y1093D01*
X208Y1093D02*
X231Y1093D01*
X2590Y1093D02*
X2597Y1093D01*
X0Y1092D02*
X7Y1092D01*
X208Y1092D02*
X231Y1092D01*
X2590Y1092D02*
X2597Y1092D01*
X0Y1091D02*
X7Y1091D01*
X209Y1091D02*
X230Y1091D01*
X2590Y1091D02*
X2597Y1091D01*
X0Y1090D02*
X7Y1090D01*
X2590Y1090D02*
X2597Y1090D01*
X0Y1089D02*
X7Y1089D01*
X2590Y1089D02*
X2597Y1089D01*
X0Y1088D02*
X7Y1088D01*
X2590Y1088D02*
X2597Y1088D01*
X0Y1087D02*
X7Y1087D01*
X2590Y1087D02*
X2597Y1087D01*
X0Y1086D02*
X7Y1086D01*
X2590Y1086D02*
X2597Y1086D01*
X0Y1085D02*
X7Y1085D01*
X2590Y1085D02*
X2597Y1085D01*
X0Y1084D02*
X7Y1084D01*
X2590Y1084D02*
X2597Y1084D01*
X0Y1083D02*
X7Y1083D01*
X2590Y1083D02*
X2597Y1083D01*
X0Y1082D02*
X7Y1082D01*
X2590Y1082D02*
X2597Y1082D01*
X0Y1081D02*
X7Y1081D01*
X2590Y1081D02*
X2597Y1081D01*
X0Y1080D02*
X7Y1080D01*
X2590Y1080D02*
X2597Y1080D01*
X0Y1079D02*
X7Y1079D01*
X2590Y1079D02*
X2597Y1079D01*
X0Y1078D02*
X7Y1078D01*
X2590Y1078D02*
X2597Y1078D01*
X0Y1077D02*
X7Y1077D01*
X2590Y1077D02*
X2597Y1077D01*
X0Y1076D02*
X7Y1076D01*
X2590Y1076D02*
X2597Y1076D01*
X0Y1075D02*
X7Y1075D01*
X2590Y1075D02*
X2597Y1075D01*
X0Y1074D02*
X7Y1074D01*
X2590Y1074D02*
X2597Y1074D01*
X0Y1073D02*
X7Y1073D01*
X2590Y1073D02*
X2597Y1073D01*
X0Y1072D02*
X7Y1072D01*
X2590Y1072D02*
X2597Y1072D01*
X0Y1071D02*
X7Y1071D01*
X2590Y1071D02*
X2597Y1071D01*
X0Y1070D02*
X7Y1070D01*
X2590Y1070D02*
X2597Y1070D01*
X0Y1069D02*
X7Y1069D01*
X2590Y1069D02*
X2597Y1069D01*
X0Y1068D02*
X7Y1068D01*
X2590Y1068D02*
X2597Y1068D01*
X0Y1067D02*
X7Y1067D01*
X2590Y1067D02*
X2597Y1067D01*
X0Y1066D02*
X7Y1066D01*
X2590Y1066D02*
X2597Y1066D01*
X0Y1065D02*
X7Y1065D01*
X2590Y1065D02*
X2597Y1065D01*
X0Y1064D02*
X7Y1064D01*
X2590Y1064D02*
X2597Y1064D01*
X0Y1063D02*
X7Y1063D01*
X2590Y1063D02*
X2597Y1063D01*
X0Y1062D02*
X7Y1062D01*
X2590Y1062D02*
X2597Y1062D01*
X0Y1061D02*
X7Y1061D01*
X2590Y1061D02*
X2597Y1061D01*
X0Y1060D02*
X7Y1060D01*
X2590Y1060D02*
X2597Y1060D01*
X0Y1059D02*
X7Y1059D01*
X2590Y1059D02*
X2597Y1059D01*
X0Y1058D02*
X7Y1058D01*
X2590Y1058D02*
X2597Y1058D01*
X0Y1057D02*
X7Y1057D01*
X2590Y1057D02*
X2597Y1057D01*
X0Y1056D02*
X7Y1056D01*
X2590Y1056D02*
X2597Y1056D01*
X0Y1055D02*
X7Y1055D01*
X2590Y1055D02*
X2597Y1055D01*
X0Y1054D02*
X7Y1054D01*
X2590Y1054D02*
X2597Y1054D01*
X0Y1053D02*
X7Y1053D01*
X2590Y1053D02*
X2597Y1053D01*
X0Y1052D02*
X7Y1052D01*
X2590Y1052D02*
X2597Y1052D01*
X0Y1051D02*
X7Y1051D01*
X2590Y1051D02*
X2597Y1051D01*
X0Y1050D02*
X7Y1050D01*
X2590Y1050D02*
X2597Y1050D01*
X0Y1049D02*
X7Y1049D01*
X2590Y1049D02*
X2597Y1049D01*
X0Y1048D02*
X7Y1048D01*
X2590Y1048D02*
X2597Y1048D01*
X0Y1047D02*
X7Y1047D01*
X2590Y1047D02*
X2597Y1047D01*
X0Y1046D02*
X7Y1046D01*
X2590Y1046D02*
X2597Y1046D01*
X0Y1045D02*
X7Y1045D01*
X2590Y1045D02*
X2597Y1045D01*
X0Y1044D02*
X7Y1044D01*
X2590Y1044D02*
X2597Y1044D01*
X0Y1043D02*
X7Y1043D01*
X2590Y1043D02*
X2597Y1043D01*
X0Y1042D02*
X7Y1042D01*
X2590Y1042D02*
X2597Y1042D01*
X0Y1041D02*
X7Y1041D01*
X2590Y1041D02*
X2597Y1041D01*
X0Y1040D02*
X7Y1040D01*
X2590Y1040D02*
X2597Y1040D01*
X0Y1039D02*
X7Y1039D01*
X2590Y1039D02*
X2597Y1039D01*
X0Y1038D02*
X7Y1038D01*
X2590Y1038D02*
X2597Y1038D01*
X0Y1037D02*
X7Y1037D01*
X2590Y1037D02*
X2597Y1037D01*
X0Y1036D02*
X7Y1036D01*
X2590Y1036D02*
X2597Y1036D01*
X0Y1035D02*
X7Y1035D01*
X2590Y1035D02*
X2597Y1035D01*
X0Y1034D02*
X7Y1034D01*
X2590Y1034D02*
X2597Y1034D01*
X0Y1033D02*
X7Y1033D01*
X2590Y1033D02*
X2597Y1033D01*
X0Y1032D02*
X7Y1032D01*
X2590Y1032D02*
X2597Y1032D01*
X0Y1031D02*
X7Y1031D01*
X2590Y1031D02*
X2597Y1031D01*
X0Y1030D02*
X7Y1030D01*
X2590Y1030D02*
X2597Y1030D01*
X0Y1029D02*
X7Y1029D01*
X2590Y1029D02*
X2597Y1029D01*
X0Y1028D02*
X7Y1028D01*
X2590Y1028D02*
X2597Y1028D01*
X0Y1027D02*
X7Y1027D01*
X2590Y1027D02*
X2597Y1027D01*
X0Y1026D02*
X7Y1026D01*
X2590Y1026D02*
X2597Y1026D01*
X0Y1025D02*
X7Y1025D01*
X2590Y1025D02*
X2597Y1025D01*
X0Y1024D02*
X7Y1024D01*
X2590Y1024D02*
X2597Y1024D01*
X0Y1023D02*
X7Y1023D01*
X2590Y1023D02*
X2597Y1023D01*
X0Y1022D02*
X7Y1022D01*
X2590Y1022D02*
X2597Y1022D01*
X0Y1021D02*
X7Y1021D01*
X2590Y1021D02*
X2597Y1021D01*
X0Y1020D02*
X7Y1020D01*
X2590Y1020D02*
X2597Y1020D01*
X0Y1019D02*
X7Y1019D01*
X2590Y1019D02*
X2597Y1019D01*
X0Y1018D02*
X7Y1018D01*
X2590Y1018D02*
X2597Y1018D01*
X0Y1017D02*
X7Y1017D01*
X2590Y1017D02*
X2597Y1017D01*
X0Y1016D02*
X7Y1016D01*
X2590Y1016D02*
X2597Y1016D01*
X0Y1015D02*
X7Y1015D01*
X2590Y1015D02*
X2597Y1015D01*
X0Y1014D02*
X7Y1014D01*
X2590Y1014D02*
X2597Y1014D01*
X0Y1013D02*
X7Y1013D01*
X2590Y1013D02*
X2597Y1013D01*
X0Y1012D02*
X7Y1012D01*
X2590Y1012D02*
X2597Y1012D01*
X0Y1011D02*
X7Y1011D01*
X2590Y1011D02*
X2597Y1011D01*
X0Y1010D02*
X7Y1010D01*
X2590Y1010D02*
X2597Y1010D01*
X0Y1009D02*
X7Y1009D01*
X2590Y1009D02*
X2597Y1009D01*
X0Y1008D02*
X7Y1008D01*
X2590Y1008D02*
X2597Y1008D01*
X0Y1007D02*
X7Y1007D01*
X2590Y1007D02*
X2597Y1007D01*
X0Y1006D02*
X7Y1006D01*
X2590Y1006D02*
X2597Y1006D01*
X0Y1005D02*
X7Y1005D01*
X2590Y1005D02*
X2597Y1005D01*
X0Y1004D02*
X7Y1004D01*
X2590Y1004D02*
X2597Y1004D01*
X0Y1003D02*
X7Y1003D01*
X2590Y1003D02*
X2597Y1003D01*
X0Y1002D02*
X7Y1002D01*
X2590Y1002D02*
X2597Y1002D01*
X0Y1001D02*
X7Y1001D01*
X2590Y1001D02*
X2597Y1001D01*
X0Y1000D02*
X7Y1000D01*
X2590Y1000D02*
X2597Y1000D01*
X0Y999D02*
X7Y999D01*
X2590Y999D02*
X2597Y999D01*
X0Y998D02*
X7Y998D01*
X2590Y998D02*
X2597Y998D01*
X0Y997D02*
X7Y997D01*
X2590Y997D02*
X2597Y997D01*
X0Y996D02*
X7Y996D01*
X2590Y996D02*
X2597Y996D01*
X0Y995D02*
X7Y995D01*
X2590Y995D02*
X2597Y995D01*
X0Y994D02*
X7Y994D01*
X2590Y994D02*
X2597Y994D01*
X0Y993D02*
X7Y993D01*
X2590Y993D02*
X2597Y993D01*
X0Y992D02*
X7Y992D01*
X2590Y992D02*
X2597Y992D01*
X0Y991D02*
X7Y991D01*
X2590Y991D02*
X2597Y991D01*
X0Y990D02*
X7Y990D01*
X2590Y990D02*
X2597Y990D01*
X0Y989D02*
X7Y989D01*
X2590Y989D02*
X2597Y989D01*
X0Y988D02*
X7Y988D01*
X2590Y988D02*
X2597Y988D01*
X0Y987D02*
X7Y987D01*
X2590Y987D02*
X2597Y987D01*
X0Y986D02*
X7Y986D01*
X2590Y986D02*
X2597Y986D01*
X0Y985D02*
X7Y985D01*
X2590Y985D02*
X2597Y985D01*
X0Y984D02*
X7Y984D01*
X2590Y984D02*
X2597Y984D01*
X0Y983D02*
X7Y983D01*
X2590Y983D02*
X2597Y983D01*
X0Y982D02*
X7Y982D01*
X2590Y982D02*
X2597Y982D01*
X0Y981D02*
X7Y981D01*
X2590Y981D02*
X2597Y981D01*
X0Y980D02*
X7Y980D01*
X2590Y980D02*
X2597Y980D01*
X0Y979D02*
X7Y979D01*
X2590Y979D02*
X2597Y979D01*
X0Y978D02*
X7Y978D01*
X2590Y978D02*
X2597Y978D01*
X0Y977D02*
X7Y977D01*
X2590Y977D02*
X2597Y977D01*
X0Y976D02*
X7Y976D01*
X2590Y976D02*
X2597Y976D01*
X0Y975D02*
X7Y975D01*
X2590Y975D02*
X2597Y975D01*
X0Y974D02*
X7Y974D01*
X2590Y974D02*
X2597Y974D01*
X0Y973D02*
X7Y973D01*
X2590Y973D02*
X2597Y973D01*
X0Y972D02*
X7Y972D01*
X2590Y972D02*
X2597Y972D01*
X0Y971D02*
X7Y971D01*
X2590Y971D02*
X2597Y971D01*
X0Y970D02*
X7Y970D01*
X2590Y970D02*
X2597Y970D01*
X0Y969D02*
X7Y969D01*
X2590Y969D02*
X2597Y969D01*
X0Y968D02*
X7Y968D01*
X2590Y968D02*
X2597Y968D01*
X0Y967D02*
X7Y967D01*
X2590Y967D02*
X2597Y967D01*
X0Y966D02*
X7Y966D01*
X2590Y966D02*
X2597Y966D01*
X0Y965D02*
X7Y965D01*
X2590Y965D02*
X2597Y965D01*
X0Y964D02*
X7Y964D01*
X2590Y964D02*
X2597Y964D01*
X0Y963D02*
X7Y963D01*
X2590Y963D02*
X2597Y963D01*
X0Y962D02*
X7Y962D01*
X2590Y962D02*
X2597Y962D01*
X0Y961D02*
X7Y961D01*
X2590Y961D02*
X2597Y961D01*
X0Y960D02*
X7Y960D01*
X2590Y960D02*
X2597Y960D01*
X0Y959D02*
X7Y959D01*
X2590Y959D02*
X2597Y959D01*
X0Y958D02*
X7Y958D01*
X2590Y958D02*
X2597Y958D01*
X0Y957D02*
X7Y957D01*
X2590Y957D02*
X2597Y957D01*
X0Y956D02*
X7Y956D01*
X2590Y956D02*
X2597Y956D01*
X0Y955D02*
X7Y955D01*
X2590Y955D02*
X2597Y955D01*
X0Y954D02*
X7Y954D01*
X2590Y954D02*
X2597Y954D01*
X0Y953D02*
X7Y953D01*
X2590Y953D02*
X2597Y953D01*
X0Y952D02*
X7Y952D01*
X2590Y952D02*
X2597Y952D01*
X0Y951D02*
X7Y951D01*
X2590Y951D02*
X2597Y951D01*
X0Y950D02*
X7Y950D01*
X2590Y950D02*
X2597Y950D01*
X0Y949D02*
X7Y949D01*
X2590Y949D02*
X2597Y949D01*
X0Y948D02*
X7Y948D01*
X2590Y948D02*
X2597Y948D01*
X0Y947D02*
X7Y947D01*
X2590Y947D02*
X2597Y947D01*
X0Y946D02*
X7Y946D01*
X2590Y946D02*
X2597Y946D01*
X0Y945D02*
X7Y945D01*
X2590Y945D02*
X2597Y945D01*
X0Y944D02*
X7Y944D01*
X2590Y944D02*
X2597Y944D01*
X0Y943D02*
X7Y943D01*
X2590Y943D02*
X2597Y943D01*
X0Y942D02*
X7Y942D01*
X2590Y942D02*
X2597Y942D01*
X0Y941D02*
X7Y941D01*
X2590Y941D02*
X2597Y941D01*
X0Y940D02*
X7Y940D01*
X2590Y940D02*
X2597Y940D01*
X0Y939D02*
X7Y939D01*
X2590Y939D02*
X2597Y939D01*
X0Y938D02*
X7Y938D01*
X2590Y938D02*
X2597Y938D01*
X0Y937D02*
X7Y937D01*
X2590Y937D02*
X2597Y937D01*
X0Y936D02*
X7Y936D01*
X2590Y936D02*
X2597Y936D01*
X0Y935D02*
X7Y935D01*
X2590Y935D02*
X2597Y935D01*
X0Y934D02*
X7Y934D01*
X2590Y934D02*
X2597Y934D01*
X0Y933D02*
X7Y933D01*
X2590Y933D02*
X2597Y933D01*
X0Y932D02*
X7Y932D01*
X2590Y932D02*
X2597Y932D01*
X0Y931D02*
X7Y931D01*
X2590Y931D02*
X2597Y931D01*
X0Y930D02*
X7Y930D01*
X2590Y930D02*
X2597Y930D01*
X0Y929D02*
X7Y929D01*
X2590Y929D02*
X2597Y929D01*
X0Y928D02*
X7Y928D01*
X2590Y928D02*
X2597Y928D01*
X0Y927D02*
X7Y927D01*
X2590Y927D02*
X2597Y927D01*
X0Y926D02*
X7Y926D01*
X2590Y926D02*
X2597Y926D01*
X0Y925D02*
X7Y925D01*
X2590Y925D02*
X2597Y925D01*
X0Y924D02*
X7Y924D01*
X2590Y924D02*
X2597Y924D01*
X0Y923D02*
X7Y923D01*
X2590Y923D02*
X2597Y923D01*
X0Y922D02*
X7Y922D01*
X2590Y922D02*
X2597Y922D01*
X0Y921D02*
X7Y921D01*
X2590Y921D02*
X2597Y921D01*
X0Y920D02*
X7Y920D01*
X2590Y920D02*
X2597Y920D01*
X0Y919D02*
X7Y919D01*
X2590Y919D02*
X2597Y919D01*
X0Y918D02*
X7Y918D01*
X2590Y918D02*
X2597Y918D01*
X0Y917D02*
X7Y917D01*
X2590Y917D02*
X2597Y917D01*
X0Y916D02*
X7Y916D01*
X2590Y916D02*
X2597Y916D01*
X0Y915D02*
X7Y915D01*
X2590Y915D02*
X2597Y915D01*
X0Y914D02*
X7Y914D01*
X2590Y914D02*
X2597Y914D01*
X0Y913D02*
X7Y913D01*
X2590Y913D02*
X2597Y913D01*
X0Y912D02*
X7Y912D01*
X2590Y912D02*
X2597Y912D01*
X0Y911D02*
X7Y911D01*
X2590Y911D02*
X2597Y911D01*
X0Y910D02*
X7Y910D01*
X2590Y910D02*
X2597Y910D01*
X0Y909D02*
X7Y909D01*
X2590Y909D02*
X2597Y909D01*
X0Y908D02*
X7Y908D01*
X2590Y908D02*
X2597Y908D01*
X0Y907D02*
X7Y907D01*
X2590Y907D02*
X2597Y907D01*
X0Y906D02*
X7Y906D01*
X2590Y906D02*
X2597Y906D01*
X0Y905D02*
X7Y905D01*
X2590Y905D02*
X2597Y905D01*
X0Y904D02*
X7Y904D01*
X2590Y904D02*
X2597Y904D01*
X0Y903D02*
X7Y903D01*
X2590Y903D02*
X2597Y903D01*
X0Y902D02*
X7Y902D01*
X2590Y902D02*
X2597Y902D01*
X0Y901D02*
X7Y901D01*
X2590Y901D02*
X2597Y901D01*
X0Y900D02*
X7Y900D01*
X2590Y900D02*
X2597Y900D01*
X0Y899D02*
X7Y899D01*
X2590Y899D02*
X2597Y899D01*
X0Y898D02*
X7Y898D01*
X2590Y898D02*
X2597Y898D01*
X0Y897D02*
X7Y897D01*
X2590Y897D02*
X2597Y897D01*
X0Y896D02*
X7Y896D01*
X2590Y896D02*
X2597Y896D01*
X0Y895D02*
X7Y895D01*
X2590Y895D02*
X2597Y895D01*
X0Y894D02*
X7Y894D01*
X2590Y894D02*
X2597Y894D01*
X0Y893D02*
X7Y893D01*
X2590Y893D02*
X2597Y893D01*
X0Y892D02*
X7Y892D01*
X2590Y892D02*
X2597Y892D01*
X0Y891D02*
X7Y891D01*
X2590Y891D02*
X2597Y891D01*
X0Y890D02*
X7Y890D01*
X2590Y890D02*
X2597Y890D01*
X0Y889D02*
X7Y889D01*
X2590Y889D02*
X2597Y889D01*
X0Y888D02*
X7Y888D01*
X2590Y888D02*
X2597Y888D01*
X0Y887D02*
X7Y887D01*
X2590Y887D02*
X2597Y887D01*
X0Y886D02*
X7Y886D01*
X2590Y886D02*
X2597Y886D01*
X0Y885D02*
X7Y885D01*
X2590Y885D02*
X2597Y885D01*
X0Y884D02*
X7Y884D01*
X2590Y884D02*
X2597Y884D01*
X0Y883D02*
X7Y883D01*
X2590Y883D02*
X2597Y883D01*
X0Y882D02*
X7Y882D01*
X2590Y882D02*
X2597Y882D01*
X0Y881D02*
X7Y881D01*
X2590Y881D02*
X2597Y881D01*
X0Y880D02*
X7Y880D01*
X2590Y880D02*
X2597Y880D01*
X0Y879D02*
X7Y879D01*
X2590Y879D02*
X2597Y879D01*
X0Y878D02*
X7Y878D01*
X2590Y878D02*
X2597Y878D01*
X0Y877D02*
X7Y877D01*
X2590Y877D02*
X2597Y877D01*
X0Y876D02*
X7Y876D01*
X2590Y876D02*
X2597Y876D01*
X0Y875D02*
X7Y875D01*
X2590Y875D02*
X2597Y875D01*
X0Y874D02*
X7Y874D01*
X2590Y874D02*
X2597Y874D01*
X0Y873D02*
X7Y873D01*
X2590Y873D02*
X2597Y873D01*
X0Y872D02*
X7Y872D01*
X2590Y872D02*
X2597Y872D01*
X0Y871D02*
X7Y871D01*
X2590Y871D02*
X2597Y871D01*
X0Y870D02*
X7Y870D01*
X2590Y870D02*
X2597Y870D01*
X0Y869D02*
X7Y869D01*
X2590Y869D02*
X2597Y869D01*
X0Y868D02*
X7Y868D01*
X2590Y868D02*
X2597Y868D01*
X0Y867D02*
X7Y867D01*
X2590Y867D02*
X2597Y867D01*
X0Y866D02*
X7Y866D01*
X2590Y866D02*
X2597Y866D01*
X0Y865D02*
X7Y865D01*
X2590Y865D02*
X2597Y865D01*
X0Y864D02*
X7Y864D01*
X2590Y864D02*
X2597Y864D01*
X0Y863D02*
X7Y863D01*
X2590Y863D02*
X2597Y863D01*
X0Y862D02*
X7Y862D01*
X2590Y862D02*
X2597Y862D01*
X0Y861D02*
X7Y861D01*
X2590Y861D02*
X2597Y861D01*
X0Y860D02*
X7Y860D01*
X2590Y860D02*
X2597Y860D01*
X0Y859D02*
X7Y859D01*
X2590Y859D02*
X2597Y859D01*
X0Y858D02*
X7Y858D01*
X2590Y858D02*
X2597Y858D01*
X0Y857D02*
X7Y857D01*
X2590Y857D02*
X2597Y857D01*
X0Y856D02*
X7Y856D01*
X2590Y856D02*
X2597Y856D01*
X0Y855D02*
X7Y855D01*
X2590Y855D02*
X2597Y855D01*
X0Y854D02*
X7Y854D01*
X2590Y854D02*
X2597Y854D01*
X0Y853D02*
X7Y853D01*
X2590Y853D02*
X2597Y853D01*
X0Y852D02*
X7Y852D01*
X2590Y852D02*
X2597Y852D01*
X0Y851D02*
X7Y851D01*
X2590Y851D02*
X2597Y851D01*
X0Y850D02*
X7Y850D01*
X2590Y850D02*
X2597Y850D01*
X0Y849D02*
X7Y849D01*
X2590Y849D02*
X2597Y849D01*
X0Y848D02*
X7Y848D01*
X2590Y848D02*
X2597Y848D01*
X0Y847D02*
X7Y847D01*
X2590Y847D02*
X2597Y847D01*
X0Y846D02*
X7Y846D01*
X2590Y846D02*
X2597Y846D01*
X0Y845D02*
X7Y845D01*
X2590Y845D02*
X2597Y845D01*
X0Y844D02*
X7Y844D01*
X2590Y844D02*
X2597Y844D01*
X0Y843D02*
X7Y843D01*
X2590Y843D02*
X2597Y843D01*
X0Y842D02*
X7Y842D01*
X2590Y842D02*
X2597Y842D01*
X0Y841D02*
X7Y841D01*
X2590Y841D02*
X2597Y841D01*
X0Y840D02*
X7Y840D01*
X2590Y840D02*
X2597Y840D01*
X0Y839D02*
X7Y839D01*
X2590Y839D02*
X2597Y839D01*
X0Y838D02*
X7Y838D01*
X2590Y838D02*
X2597Y838D01*
X0Y837D02*
X7Y837D01*
X2590Y837D02*
X2597Y837D01*
X0Y836D02*
X7Y836D01*
X2590Y836D02*
X2597Y836D01*
X0Y835D02*
X7Y835D01*
X2590Y835D02*
X2597Y835D01*
X0Y834D02*
X7Y834D01*
X2590Y834D02*
X2597Y834D01*
X0Y833D02*
X7Y833D01*
X2590Y833D02*
X2597Y833D01*
X0Y832D02*
X7Y832D01*
X2590Y832D02*
X2597Y832D01*
X0Y831D02*
X7Y831D01*
X2590Y831D02*
X2597Y831D01*
X0Y830D02*
X7Y830D01*
X2590Y830D02*
X2597Y830D01*
X0Y829D02*
X7Y829D01*
X2590Y829D02*
X2597Y829D01*
X0Y828D02*
X7Y828D01*
X2590Y828D02*
X2597Y828D01*
X0Y827D02*
X7Y827D01*
X2590Y827D02*
X2597Y827D01*
X0Y826D02*
X7Y826D01*
X2590Y826D02*
X2597Y826D01*
X0Y825D02*
X7Y825D01*
X2590Y825D02*
X2597Y825D01*
X0Y824D02*
X7Y824D01*
X2590Y824D02*
X2597Y824D01*
X0Y823D02*
X7Y823D01*
X2590Y823D02*
X2597Y823D01*
X0Y822D02*
X7Y822D01*
X2590Y822D02*
X2597Y822D01*
X0Y821D02*
X7Y821D01*
X2590Y821D02*
X2597Y821D01*
X0Y820D02*
X7Y820D01*
X2590Y820D02*
X2597Y820D01*
X0Y819D02*
X7Y819D01*
X2590Y819D02*
X2597Y819D01*
X0Y818D02*
X7Y818D01*
X2590Y818D02*
X2597Y818D01*
X0Y817D02*
X7Y817D01*
X2590Y817D02*
X2597Y817D01*
X0Y816D02*
X7Y816D01*
X2590Y816D02*
X2597Y816D01*
X0Y815D02*
X7Y815D01*
X2590Y815D02*
X2597Y815D01*
X0Y814D02*
X7Y814D01*
X2590Y814D02*
X2597Y814D01*
X0Y813D02*
X7Y813D01*
X2590Y813D02*
X2597Y813D01*
X0Y812D02*
X7Y812D01*
X2590Y812D02*
X2597Y812D01*
X0Y811D02*
X7Y811D01*
X2590Y811D02*
X2597Y811D01*
X0Y810D02*
X7Y810D01*
X2590Y810D02*
X2597Y810D01*
X0Y809D02*
X7Y809D01*
X2590Y809D02*
X2597Y809D01*
X0Y808D02*
X7Y808D01*
X2590Y808D02*
X2597Y808D01*
X0Y807D02*
X7Y807D01*
X2590Y807D02*
X2597Y807D01*
X0Y806D02*
X7Y806D01*
X2590Y806D02*
X2597Y806D01*
X0Y805D02*
X7Y805D01*
X2590Y805D02*
X2597Y805D01*
X0Y804D02*
X7Y804D01*
X2590Y804D02*
X2597Y804D01*
X0Y803D02*
X7Y803D01*
X2590Y803D02*
X2597Y803D01*
X0Y802D02*
X7Y802D01*
X2590Y802D02*
X2597Y802D01*
X0Y801D02*
X7Y801D01*
X2590Y801D02*
X2597Y801D01*
X0Y800D02*
X7Y800D01*
X2590Y800D02*
X2597Y800D01*
X0Y799D02*
X7Y799D01*
X2590Y799D02*
X2597Y799D01*
X0Y798D02*
X7Y798D01*
X2590Y798D02*
X2597Y798D01*
X0Y797D02*
X7Y797D01*
X2590Y797D02*
X2597Y797D01*
X0Y796D02*
X7Y796D01*
X2590Y796D02*
X2597Y796D01*
X0Y795D02*
X7Y795D01*
X2590Y795D02*
X2597Y795D01*
X0Y794D02*
X7Y794D01*
X2590Y794D02*
X2597Y794D01*
X0Y793D02*
X7Y793D01*
X2590Y793D02*
X2597Y793D01*
X0Y792D02*
X7Y792D01*
X2590Y792D02*
X2597Y792D01*
X0Y791D02*
X7Y791D01*
X2590Y791D02*
X2597Y791D01*
X0Y790D02*
X7Y790D01*
X2590Y790D02*
X2597Y790D01*
X0Y789D02*
X7Y789D01*
X2590Y789D02*
X2597Y789D01*
X0Y788D02*
X7Y788D01*
X2590Y788D02*
X2597Y788D01*
X0Y787D02*
X7Y787D01*
X2590Y787D02*
X2597Y787D01*
X0Y786D02*
X7Y786D01*
X2590Y786D02*
X2597Y786D01*
X0Y785D02*
X7Y785D01*
X2590Y785D02*
X2597Y785D01*
X0Y784D02*
X7Y784D01*
X2590Y784D02*
X2597Y784D01*
X0Y783D02*
X7Y783D01*
X2590Y783D02*
X2597Y783D01*
X0Y782D02*
X7Y782D01*
X2590Y782D02*
X2597Y782D01*
X0Y781D02*
X7Y781D01*
X2590Y781D02*
X2597Y781D01*
X0Y780D02*
X7Y780D01*
X2590Y780D02*
X2597Y780D01*
X0Y779D02*
X7Y779D01*
X2590Y779D02*
X2597Y779D01*
X0Y778D02*
X7Y778D01*
X2590Y778D02*
X2597Y778D01*
X0Y777D02*
X7Y777D01*
X2590Y777D02*
X2597Y777D01*
X0Y776D02*
X7Y776D01*
X2590Y776D02*
X2597Y776D01*
X0Y775D02*
X7Y775D01*
X2590Y775D02*
X2597Y775D01*
X0Y774D02*
X7Y774D01*
X2590Y774D02*
X2597Y774D01*
X0Y773D02*
X7Y773D01*
X2590Y773D02*
X2597Y773D01*
X0Y772D02*
X7Y772D01*
X2590Y772D02*
X2597Y772D01*
X0Y771D02*
X7Y771D01*
X2590Y771D02*
X2597Y771D01*
X0Y770D02*
X7Y770D01*
X2590Y770D02*
X2597Y770D01*
X0Y769D02*
X7Y769D01*
X2590Y769D02*
X2597Y769D01*
X0Y768D02*
X7Y768D01*
X2590Y768D02*
X2597Y768D01*
X0Y767D02*
X7Y767D01*
X2590Y767D02*
X2597Y767D01*
X0Y766D02*
X7Y766D01*
X2590Y766D02*
X2597Y766D01*
X0Y765D02*
X7Y765D01*
X2590Y765D02*
X2597Y765D01*
X0Y764D02*
X7Y764D01*
X2590Y764D02*
X2597Y764D01*
X0Y763D02*
X7Y763D01*
X2590Y763D02*
X2597Y763D01*
X0Y762D02*
X7Y762D01*
X2590Y762D02*
X2597Y762D01*
X0Y761D02*
X7Y761D01*
X2590Y761D02*
X2597Y761D01*
X0Y760D02*
X7Y760D01*
X2590Y760D02*
X2597Y760D01*
X0Y759D02*
X7Y759D01*
X2590Y759D02*
X2597Y759D01*
X0Y758D02*
X7Y758D01*
X2590Y758D02*
X2597Y758D01*
X0Y757D02*
X7Y757D01*
X2590Y757D02*
X2597Y757D01*
X0Y756D02*
X7Y756D01*
X2590Y756D02*
X2597Y756D01*
X0Y755D02*
X7Y755D01*
X2590Y755D02*
X2597Y755D01*
X0Y754D02*
X7Y754D01*
X2590Y754D02*
X2597Y754D01*
X0Y753D02*
X7Y753D01*
X2590Y753D02*
X2597Y753D01*
X0Y752D02*
X7Y752D01*
X2590Y752D02*
X2597Y752D01*
X0Y751D02*
X7Y751D01*
X2590Y751D02*
X2597Y751D01*
X0Y750D02*
X7Y750D01*
X2590Y750D02*
X2597Y750D01*
X0Y749D02*
X7Y749D01*
X2590Y749D02*
X2597Y749D01*
X0Y748D02*
X7Y748D01*
X2590Y748D02*
X2597Y748D01*
X0Y747D02*
X7Y747D01*
X2590Y747D02*
X2597Y747D01*
X0Y746D02*
X7Y746D01*
X2590Y746D02*
X2597Y746D01*
X0Y745D02*
X7Y745D01*
X2590Y745D02*
X2597Y745D01*
X0Y744D02*
X7Y744D01*
X2590Y744D02*
X2597Y744D01*
X0Y743D02*
X7Y743D01*
X2590Y743D02*
X2597Y743D01*
X0Y742D02*
X7Y742D01*
X2590Y742D02*
X2597Y742D01*
X0Y741D02*
X7Y741D01*
X2590Y741D02*
X2597Y741D01*
X0Y740D02*
X7Y740D01*
X2590Y740D02*
X2597Y740D01*
X0Y739D02*
X7Y739D01*
X2590Y739D02*
X2597Y739D01*
X0Y738D02*
X7Y738D01*
X2590Y738D02*
X2597Y738D01*
X0Y737D02*
X7Y737D01*
X2590Y737D02*
X2597Y737D01*
X0Y736D02*
X7Y736D01*
X2590Y736D02*
X2597Y736D01*
X0Y735D02*
X7Y735D01*
X2590Y735D02*
X2597Y735D01*
X0Y734D02*
X7Y734D01*
X2590Y734D02*
X2597Y734D01*
X0Y733D02*
X7Y733D01*
X2590Y733D02*
X2597Y733D01*
X0Y732D02*
X7Y732D01*
X2590Y732D02*
X2597Y732D01*
X0Y731D02*
X7Y731D01*
X2590Y731D02*
X2597Y731D01*
X0Y730D02*
X7Y730D01*
X2590Y730D02*
X2597Y730D01*
X0Y729D02*
X7Y729D01*
X2590Y729D02*
X2597Y729D01*
X0Y728D02*
X7Y728D01*
X2590Y728D02*
X2597Y728D01*
X0Y727D02*
X7Y727D01*
X2590Y727D02*
X2597Y727D01*
X0Y726D02*
X7Y726D01*
X2590Y726D02*
X2597Y726D01*
X0Y725D02*
X7Y725D01*
X2590Y725D02*
X2597Y725D01*
X0Y724D02*
X7Y724D01*
X2590Y724D02*
X2597Y724D01*
X0Y723D02*
X7Y723D01*
X2590Y723D02*
X2597Y723D01*
X0Y722D02*
X7Y722D01*
X2590Y722D02*
X2597Y722D01*
X0Y721D02*
X7Y721D01*
X2590Y721D02*
X2597Y721D01*
X0Y720D02*
X7Y720D01*
X2590Y720D02*
X2597Y720D01*
X0Y719D02*
X7Y719D01*
X2590Y719D02*
X2597Y719D01*
X0Y718D02*
X7Y718D01*
X2590Y718D02*
X2597Y718D01*
X0Y717D02*
X7Y717D01*
X2590Y717D02*
X2597Y717D01*
X0Y716D02*
X7Y716D01*
X2590Y716D02*
X2597Y716D01*
X0Y715D02*
X7Y715D01*
X2590Y715D02*
X2597Y715D01*
X0Y714D02*
X7Y714D01*
X2590Y714D02*
X2597Y714D01*
X0Y713D02*
X7Y713D01*
X2590Y713D02*
X2597Y713D01*
X0Y712D02*
X7Y712D01*
X2590Y712D02*
X2597Y712D01*
X0Y711D02*
X7Y711D01*
X2590Y711D02*
X2597Y711D01*
X0Y710D02*
X7Y710D01*
X2590Y710D02*
X2597Y710D01*
X0Y709D02*
X7Y709D01*
X2590Y709D02*
X2597Y709D01*
X0Y708D02*
X7Y708D01*
X2590Y708D02*
X2597Y708D01*
X0Y707D02*
X7Y707D01*
X2590Y707D02*
X2597Y707D01*
X0Y706D02*
X7Y706D01*
X2590Y706D02*
X2597Y706D01*
X0Y705D02*
X7Y705D01*
X2590Y705D02*
X2597Y705D01*
X0Y704D02*
X7Y704D01*
X2590Y704D02*
X2597Y704D01*
X0Y703D02*
X7Y703D01*
X2590Y703D02*
X2597Y703D01*
X0Y702D02*
X7Y702D01*
X2590Y702D02*
X2597Y702D01*
X0Y701D02*
X7Y701D01*
X2590Y701D02*
X2597Y701D01*
X0Y700D02*
X7Y700D01*
X2590Y700D02*
X2597Y700D01*
X0Y699D02*
X7Y699D01*
X2590Y699D02*
X2597Y699D01*
X0Y698D02*
X7Y698D01*
X2590Y698D02*
X2597Y698D01*
X0Y697D02*
X7Y697D01*
X2590Y697D02*
X2597Y697D01*
X0Y696D02*
X7Y696D01*
X2590Y696D02*
X2597Y696D01*
X0Y695D02*
X7Y695D01*
X2590Y695D02*
X2597Y695D01*
X0Y694D02*
X7Y694D01*
X2590Y694D02*
X2597Y694D01*
X0Y693D02*
X7Y693D01*
X2590Y693D02*
X2597Y693D01*
X0Y692D02*
X7Y692D01*
X2590Y692D02*
X2597Y692D01*
X0Y691D02*
X7Y691D01*
X2590Y691D02*
X2597Y691D01*
X0Y690D02*
X7Y690D01*
X2590Y690D02*
X2597Y690D01*
X0Y689D02*
X7Y689D01*
X2590Y689D02*
X2597Y689D01*
X0Y688D02*
X7Y688D01*
X2590Y688D02*
X2597Y688D01*
X0Y687D02*
X7Y687D01*
X2590Y687D02*
X2597Y687D01*
X0Y686D02*
X7Y686D01*
X2590Y686D02*
X2597Y686D01*
X0Y685D02*
X7Y685D01*
X2590Y685D02*
X2597Y685D01*
X0Y684D02*
X7Y684D01*
X2590Y684D02*
X2597Y684D01*
X0Y683D02*
X7Y683D01*
X2590Y683D02*
X2597Y683D01*
X0Y682D02*
X7Y682D01*
X2590Y682D02*
X2597Y682D01*
X0Y681D02*
X7Y681D01*
X2590Y681D02*
X2597Y681D01*
X0Y680D02*
X7Y680D01*
X2590Y680D02*
X2597Y680D01*
X0Y679D02*
X7Y679D01*
X2590Y679D02*
X2597Y679D01*
X0Y678D02*
X7Y678D01*
X2590Y678D02*
X2597Y678D01*
X0Y677D02*
X7Y677D01*
X2590Y677D02*
X2597Y677D01*
X0Y676D02*
X7Y676D01*
X2590Y676D02*
X2597Y676D01*
X0Y675D02*
X7Y675D01*
X2590Y675D02*
X2597Y675D01*
X0Y674D02*
X7Y674D01*
X2590Y674D02*
X2597Y674D01*
X0Y673D02*
X7Y673D01*
X2590Y673D02*
X2597Y673D01*
X0Y672D02*
X7Y672D01*
X2590Y672D02*
X2597Y672D01*
X0Y671D02*
X7Y671D01*
X2590Y671D02*
X2597Y671D01*
X0Y670D02*
X7Y670D01*
X2590Y670D02*
X2597Y670D01*
X0Y669D02*
X7Y669D01*
X2590Y669D02*
X2597Y669D01*
X0Y668D02*
X7Y668D01*
X2590Y668D02*
X2597Y668D01*
X0Y667D02*
X7Y667D01*
X2590Y667D02*
X2597Y667D01*
X0Y666D02*
X7Y666D01*
X2590Y666D02*
X2597Y666D01*
X0Y665D02*
X7Y665D01*
X2590Y665D02*
X2597Y665D01*
X0Y664D02*
X7Y664D01*
X2590Y664D02*
X2597Y664D01*
X0Y663D02*
X7Y663D01*
X2590Y663D02*
X2597Y663D01*
X0Y662D02*
X7Y662D01*
X2590Y662D02*
X2597Y662D01*
X0Y661D02*
X7Y661D01*
X2590Y661D02*
X2597Y661D01*
X0Y660D02*
X7Y660D01*
X2590Y660D02*
X2597Y660D01*
X0Y659D02*
X7Y659D01*
X2590Y659D02*
X2597Y659D01*
X0Y658D02*
X7Y658D01*
X2590Y658D02*
X2597Y658D01*
X0Y657D02*
X7Y657D01*
X2590Y657D02*
X2597Y657D01*
X0Y656D02*
X7Y656D01*
X2590Y656D02*
X2597Y656D01*
X0Y655D02*
X7Y655D01*
X2590Y655D02*
X2597Y655D01*
X0Y654D02*
X7Y654D01*
X2590Y654D02*
X2597Y654D01*
X0Y653D02*
X7Y653D01*
X2590Y653D02*
X2597Y653D01*
X0Y652D02*
X7Y652D01*
X2590Y652D02*
X2597Y652D01*
X0Y651D02*
X7Y651D01*
X2590Y651D02*
X2597Y651D01*
X0Y650D02*
X7Y650D01*
X2590Y650D02*
X2597Y650D01*
X0Y649D02*
X7Y649D01*
X2590Y649D02*
X2597Y649D01*
X0Y648D02*
X7Y648D01*
X2590Y648D02*
X2597Y648D01*
X0Y647D02*
X7Y647D01*
X2590Y647D02*
X2597Y647D01*
X0Y646D02*
X7Y646D01*
X2590Y646D02*
X2597Y646D01*
X0Y645D02*
X7Y645D01*
X2590Y645D02*
X2597Y645D01*
X0Y644D02*
X7Y644D01*
X2590Y644D02*
X2597Y644D01*
X0Y643D02*
X7Y643D01*
X2590Y643D02*
X2597Y643D01*
X0Y642D02*
X7Y642D01*
X2590Y642D02*
X2597Y642D01*
X0Y641D02*
X7Y641D01*
X2590Y641D02*
X2597Y641D01*
X0Y640D02*
X7Y640D01*
X2590Y640D02*
X2597Y640D01*
X0Y639D02*
X7Y639D01*
X2590Y639D02*
X2597Y639D01*
X0Y638D02*
X7Y638D01*
X2590Y638D02*
X2597Y638D01*
X0Y637D02*
X7Y637D01*
X2590Y637D02*
X2597Y637D01*
X0Y636D02*
X7Y636D01*
X2590Y636D02*
X2597Y636D01*
X0Y635D02*
X7Y635D01*
X2590Y635D02*
X2597Y635D01*
X0Y634D02*
X7Y634D01*
X2590Y634D02*
X2597Y634D01*
X0Y633D02*
X7Y633D01*
X2590Y633D02*
X2597Y633D01*
X0Y632D02*
X7Y632D01*
X2590Y632D02*
X2597Y632D01*
X0Y631D02*
X7Y631D01*
X2590Y631D02*
X2597Y631D01*
X0Y630D02*
X7Y630D01*
X2590Y630D02*
X2597Y630D01*
X0Y629D02*
X7Y629D01*
X2590Y629D02*
X2597Y629D01*
X0Y628D02*
X7Y628D01*
X2590Y628D02*
X2597Y628D01*
X0Y627D02*
X7Y627D01*
X2590Y627D02*
X2597Y627D01*
X0Y626D02*
X7Y626D01*
X2590Y626D02*
X2597Y626D01*
X0Y625D02*
X7Y625D01*
X2590Y625D02*
X2597Y625D01*
X0Y624D02*
X7Y624D01*
X2590Y624D02*
X2597Y624D01*
X0Y623D02*
X7Y623D01*
X2590Y623D02*
X2597Y623D01*
X0Y622D02*
X7Y622D01*
X2590Y622D02*
X2597Y622D01*
X0Y621D02*
X7Y621D01*
X2590Y621D02*
X2597Y621D01*
X0Y620D02*
X7Y620D01*
X2590Y620D02*
X2597Y620D01*
X0Y619D02*
X7Y619D01*
X2590Y619D02*
X2597Y619D01*
X0Y618D02*
X7Y618D01*
X2590Y618D02*
X2597Y618D01*
X0Y617D02*
X7Y617D01*
X2590Y617D02*
X2597Y617D01*
X0Y616D02*
X7Y616D01*
X2590Y616D02*
X2597Y616D01*
X0Y615D02*
X7Y615D01*
X2590Y615D02*
X2597Y615D01*
X0Y614D02*
X7Y614D01*
X2590Y614D02*
X2597Y614D01*
X0Y613D02*
X7Y613D01*
X2590Y613D02*
X2597Y613D01*
X0Y612D02*
X7Y612D01*
X2590Y612D02*
X2597Y612D01*
X0Y611D02*
X7Y611D01*
X2590Y611D02*
X2597Y611D01*
X0Y610D02*
X7Y610D01*
X2590Y610D02*
X2597Y610D01*
X0Y609D02*
X7Y609D01*
X2590Y609D02*
X2597Y609D01*
X0Y608D02*
X7Y608D01*
X2590Y608D02*
X2597Y608D01*
X0Y607D02*
X7Y607D01*
X2590Y607D02*
X2597Y607D01*
X0Y606D02*
X7Y606D01*
X2590Y606D02*
X2597Y606D01*
X0Y605D02*
X7Y605D01*
X2590Y605D02*
X2597Y605D01*
X0Y604D02*
X7Y604D01*
X2590Y604D02*
X2597Y604D01*
X0Y603D02*
X7Y603D01*
X2590Y603D02*
X2597Y603D01*
X0Y602D02*
X7Y602D01*
X2590Y602D02*
X2597Y602D01*
X0Y601D02*
X7Y601D01*
X2590Y601D02*
X2597Y601D01*
X0Y600D02*
X7Y600D01*
X2590Y600D02*
X2597Y600D01*
X0Y599D02*
X7Y599D01*
X2590Y599D02*
X2597Y599D01*
X0Y598D02*
X7Y598D01*
X2590Y598D02*
X2597Y598D01*
X0Y597D02*
X7Y597D01*
X2590Y597D02*
X2597Y597D01*
X0Y596D02*
X7Y596D01*
X2590Y596D02*
X2597Y596D01*
X0Y595D02*
X7Y595D01*
X2590Y595D02*
X2597Y595D01*
X0Y594D02*
X7Y594D01*
X2590Y594D02*
X2597Y594D01*
X0Y593D02*
X7Y593D01*
X2590Y593D02*
X2597Y593D01*
X0Y592D02*
X7Y592D01*
X2590Y592D02*
X2597Y592D01*
X0Y591D02*
X7Y591D01*
X2590Y591D02*
X2597Y591D01*
X0Y590D02*
X7Y590D01*
X2590Y590D02*
X2597Y590D01*
X0Y589D02*
X7Y589D01*
X2590Y589D02*
X2597Y589D01*
X0Y588D02*
X7Y588D01*
X2590Y588D02*
X2597Y588D01*
X0Y587D02*
X7Y587D01*
X2590Y587D02*
X2597Y587D01*
X0Y586D02*
X7Y586D01*
X2590Y586D02*
X2597Y586D01*
X0Y585D02*
X7Y585D01*
X2590Y585D02*
X2597Y585D01*
X0Y584D02*
X7Y584D01*
X2590Y584D02*
X2597Y584D01*
X0Y583D02*
X7Y583D01*
X2590Y583D02*
X2597Y583D01*
X0Y582D02*
X7Y582D01*
X2590Y582D02*
X2597Y582D01*
X0Y581D02*
X7Y581D01*
X2590Y581D02*
X2597Y581D01*
X0Y580D02*
X7Y580D01*
X2590Y580D02*
X2597Y580D01*
X0Y579D02*
X7Y579D01*
X2590Y579D02*
X2597Y579D01*
X0Y578D02*
X7Y578D01*
X2590Y578D02*
X2597Y578D01*
X0Y577D02*
X7Y577D01*
X2590Y577D02*
X2597Y577D01*
X0Y576D02*
X7Y576D01*
X2590Y576D02*
X2597Y576D01*
X0Y575D02*
X7Y575D01*
X2590Y575D02*
X2597Y575D01*
X0Y574D02*
X7Y574D01*
X2590Y574D02*
X2597Y574D01*
X0Y573D02*
X7Y573D01*
X2590Y573D02*
X2597Y573D01*
X0Y572D02*
X7Y572D01*
X2590Y572D02*
X2597Y572D01*
X0Y571D02*
X7Y571D01*
X2590Y571D02*
X2597Y571D01*
X0Y570D02*
X7Y570D01*
X2590Y570D02*
X2597Y570D01*
X0Y569D02*
X7Y569D01*
X2590Y569D02*
X2597Y569D01*
X0Y568D02*
X7Y568D01*
X2590Y568D02*
X2597Y568D01*
X0Y567D02*
X7Y567D01*
X2590Y567D02*
X2597Y567D01*
X0Y566D02*
X7Y566D01*
X2590Y566D02*
X2597Y566D01*
X0Y565D02*
X7Y565D01*
X2590Y565D02*
X2597Y565D01*
X0Y564D02*
X7Y564D01*
X2590Y564D02*
X2597Y564D01*
X0Y563D02*
X7Y563D01*
X2590Y563D02*
X2597Y563D01*
X0Y562D02*
X7Y562D01*
X2590Y562D02*
X2597Y562D01*
X0Y561D02*
X7Y561D01*
X2590Y561D02*
X2597Y561D01*
X0Y560D02*
X7Y560D01*
X2590Y560D02*
X2597Y560D01*
X0Y559D02*
X7Y559D01*
X2590Y559D02*
X2597Y559D01*
X0Y558D02*
X7Y558D01*
X2590Y558D02*
X2597Y558D01*
X0Y557D02*
X7Y557D01*
X2590Y557D02*
X2597Y557D01*
X0Y556D02*
X7Y556D01*
X2590Y556D02*
X2597Y556D01*
X0Y555D02*
X7Y555D01*
X2590Y555D02*
X2597Y555D01*
X0Y554D02*
X7Y554D01*
X2590Y554D02*
X2597Y554D01*
X0Y553D02*
X7Y553D01*
X2590Y553D02*
X2597Y553D01*
X0Y552D02*
X7Y552D01*
X2590Y552D02*
X2597Y552D01*
X0Y551D02*
X7Y551D01*
X2590Y551D02*
X2597Y551D01*
X0Y550D02*
X7Y550D01*
X2590Y550D02*
X2597Y550D01*
X0Y549D02*
X7Y549D01*
X2590Y549D02*
X2597Y549D01*
X0Y548D02*
X7Y548D01*
X2590Y548D02*
X2597Y548D01*
X0Y547D02*
X7Y547D01*
X2590Y547D02*
X2597Y547D01*
X0Y546D02*
X7Y546D01*
X2590Y546D02*
X2597Y546D01*
X0Y545D02*
X7Y545D01*
X2590Y545D02*
X2597Y545D01*
X0Y544D02*
X7Y544D01*
X2590Y544D02*
X2597Y544D01*
X0Y543D02*
X7Y543D01*
X2590Y543D02*
X2597Y543D01*
X0Y542D02*
X7Y542D01*
X2590Y542D02*
X2597Y542D01*
X0Y541D02*
X7Y541D01*
X2590Y541D02*
X2597Y541D01*
X0Y540D02*
X7Y540D01*
X2590Y540D02*
X2597Y540D01*
X0Y539D02*
X7Y539D01*
X2590Y539D02*
X2597Y539D01*
X0Y538D02*
X7Y538D01*
X2590Y538D02*
X2597Y538D01*
X0Y537D02*
X7Y537D01*
X2590Y537D02*
X2597Y537D01*
X0Y536D02*
X7Y536D01*
X2590Y536D02*
X2597Y536D01*
X0Y535D02*
X7Y535D01*
X2590Y535D02*
X2597Y535D01*
X0Y534D02*
X7Y534D01*
X2590Y534D02*
X2597Y534D01*
X0Y533D02*
X7Y533D01*
X2590Y533D02*
X2597Y533D01*
X0Y532D02*
X7Y532D01*
X2590Y532D02*
X2597Y532D01*
X0Y531D02*
X7Y531D01*
X2590Y531D02*
X2597Y531D01*
X0Y530D02*
X7Y530D01*
X2590Y530D02*
X2597Y530D01*
X0Y529D02*
X7Y529D01*
X2590Y529D02*
X2597Y529D01*
X0Y528D02*
X7Y528D01*
X2590Y528D02*
X2597Y528D01*
X0Y527D02*
X7Y527D01*
X2590Y527D02*
X2597Y527D01*
X0Y526D02*
X7Y526D01*
X2590Y526D02*
X2597Y526D01*
X0Y525D02*
X7Y525D01*
X2590Y525D02*
X2597Y525D01*
X0Y524D02*
X7Y524D01*
X2590Y524D02*
X2597Y524D01*
X0Y523D02*
X7Y523D01*
X2590Y523D02*
X2597Y523D01*
X0Y522D02*
X7Y522D01*
X2590Y522D02*
X2597Y522D01*
X0Y521D02*
X7Y521D01*
X2590Y521D02*
X2597Y521D01*
X0Y520D02*
X7Y520D01*
X2590Y520D02*
X2597Y520D01*
X0Y519D02*
X7Y519D01*
X2590Y519D02*
X2597Y519D01*
X0Y518D02*
X7Y518D01*
X2590Y518D02*
X2597Y518D01*
X0Y517D02*
X7Y517D01*
X2590Y517D02*
X2597Y517D01*
X0Y516D02*
X7Y516D01*
X2590Y516D02*
X2597Y516D01*
X0Y515D02*
X7Y515D01*
X2590Y515D02*
X2597Y515D01*
X0Y514D02*
X7Y514D01*
X2590Y514D02*
X2597Y514D01*
X0Y513D02*
X7Y513D01*
X2590Y513D02*
X2597Y513D01*
X0Y512D02*
X7Y512D01*
X2590Y512D02*
X2597Y512D01*
X0Y511D02*
X7Y511D01*
X2590Y511D02*
X2597Y511D01*
X0Y510D02*
X7Y510D01*
X2590Y510D02*
X2597Y510D01*
X0Y509D02*
X7Y509D01*
X2590Y509D02*
X2597Y509D01*
X0Y508D02*
X7Y508D01*
X2590Y508D02*
X2597Y508D01*
X0Y507D02*
X7Y507D01*
X2590Y507D02*
X2597Y507D01*
X0Y506D02*
X7Y506D01*
X2590Y506D02*
X2597Y506D01*
X0Y505D02*
X7Y505D01*
X2590Y505D02*
X2597Y505D01*
X0Y504D02*
X7Y504D01*
X2590Y504D02*
X2597Y504D01*
X0Y503D02*
X7Y503D01*
X2590Y503D02*
X2597Y503D01*
X0Y502D02*
X7Y502D01*
X2590Y502D02*
X2597Y502D01*
X0Y501D02*
X7Y501D01*
X2590Y501D02*
X2597Y501D01*
X0Y500D02*
X7Y500D01*
X2590Y500D02*
X2597Y500D01*
X0Y499D02*
X7Y499D01*
X2590Y499D02*
X2597Y499D01*
X0Y498D02*
X7Y498D01*
X2590Y498D02*
X2597Y498D01*
X0Y497D02*
X7Y497D01*
X2590Y497D02*
X2597Y497D01*
X0Y496D02*
X7Y496D01*
X2590Y496D02*
X2597Y496D01*
X0Y495D02*
X7Y495D01*
X2590Y495D02*
X2597Y495D01*
X0Y494D02*
X7Y494D01*
X2590Y494D02*
X2597Y494D01*
X0Y493D02*
X7Y493D01*
X2590Y493D02*
X2597Y493D01*
X0Y492D02*
X7Y492D01*
X2590Y492D02*
X2597Y492D01*
X0Y491D02*
X7Y491D01*
X2590Y491D02*
X2597Y491D01*
X0Y490D02*
X7Y490D01*
X2590Y490D02*
X2597Y490D01*
X0Y489D02*
X7Y489D01*
X2590Y489D02*
X2597Y489D01*
X0Y488D02*
X7Y488D01*
X2590Y488D02*
X2597Y488D01*
X0Y487D02*
X7Y487D01*
X2590Y487D02*
X2597Y487D01*
X0Y486D02*
X7Y486D01*
X2590Y486D02*
X2597Y486D01*
X0Y485D02*
X7Y485D01*
X2590Y485D02*
X2597Y485D01*
X0Y484D02*
X7Y484D01*
X2590Y484D02*
X2597Y484D01*
X0Y483D02*
X7Y483D01*
X2590Y483D02*
X2597Y483D01*
X0Y482D02*
X7Y482D01*
X2590Y482D02*
X2597Y482D01*
X0Y481D02*
X7Y481D01*
X2590Y481D02*
X2597Y481D01*
X0Y480D02*
X7Y480D01*
X2590Y480D02*
X2597Y480D01*
X0Y479D02*
X7Y479D01*
X2590Y479D02*
X2597Y479D01*
X0Y478D02*
X7Y478D01*
X2590Y478D02*
X2597Y478D01*
X0Y477D02*
X7Y477D01*
X2590Y477D02*
X2597Y477D01*
X0Y476D02*
X7Y476D01*
X2590Y476D02*
X2597Y476D01*
X0Y475D02*
X7Y475D01*
X2590Y475D02*
X2597Y475D01*
X0Y474D02*
X7Y474D01*
X2590Y474D02*
X2597Y474D01*
X0Y473D02*
X7Y473D01*
X2590Y473D02*
X2597Y473D01*
X0Y472D02*
X7Y472D01*
X2590Y472D02*
X2597Y472D01*
X0Y471D02*
X7Y471D01*
X2590Y471D02*
X2597Y471D01*
X0Y470D02*
X7Y470D01*
X2590Y470D02*
X2597Y470D01*
X0Y469D02*
X7Y469D01*
X2590Y469D02*
X2597Y469D01*
X0Y468D02*
X7Y468D01*
X2590Y468D02*
X2597Y468D01*
X0Y467D02*
X7Y467D01*
X2590Y467D02*
X2597Y467D01*
X0Y466D02*
X7Y466D01*
X2590Y466D02*
X2597Y466D01*
X0Y465D02*
X7Y465D01*
X2590Y465D02*
X2597Y465D01*
X0Y464D02*
X7Y464D01*
X2590Y464D02*
X2597Y464D01*
X0Y463D02*
X7Y463D01*
X2590Y463D02*
X2597Y463D01*
X0Y462D02*
X7Y462D01*
X2590Y462D02*
X2597Y462D01*
X0Y461D02*
X7Y461D01*
X2590Y461D02*
X2597Y461D01*
X0Y460D02*
X7Y460D01*
X2590Y460D02*
X2597Y460D01*
X0Y459D02*
X7Y459D01*
X2590Y459D02*
X2597Y459D01*
X0Y458D02*
X7Y458D01*
X2590Y458D02*
X2597Y458D01*
X0Y457D02*
X7Y457D01*
X2590Y457D02*
X2597Y457D01*
X0Y456D02*
X7Y456D01*
X2590Y456D02*
X2597Y456D01*
X0Y455D02*
X7Y455D01*
X2590Y455D02*
X2597Y455D01*
X0Y454D02*
X7Y454D01*
X2590Y454D02*
X2597Y454D01*
X0Y453D02*
X7Y453D01*
X2590Y453D02*
X2597Y453D01*
X0Y452D02*
X7Y452D01*
X2590Y452D02*
X2597Y452D01*
X0Y451D02*
X7Y451D01*
X2590Y451D02*
X2597Y451D01*
X0Y450D02*
X7Y450D01*
X2590Y450D02*
X2597Y450D01*
X0Y449D02*
X7Y449D01*
X2590Y449D02*
X2597Y449D01*
X0Y448D02*
X7Y448D01*
X2590Y448D02*
X2597Y448D01*
X0Y447D02*
X7Y447D01*
X2590Y447D02*
X2597Y447D01*
X0Y446D02*
X7Y446D01*
X2590Y446D02*
X2597Y446D01*
X0Y445D02*
X7Y445D01*
X2590Y445D02*
X2597Y445D01*
X0Y444D02*
X7Y444D01*
X2590Y444D02*
X2597Y444D01*
X0Y443D02*
X7Y443D01*
X2590Y443D02*
X2597Y443D01*
X0Y442D02*
X7Y442D01*
X2590Y442D02*
X2597Y442D01*
X0Y441D02*
X7Y441D01*
X2590Y441D02*
X2597Y441D01*
X0Y440D02*
X7Y440D01*
X2590Y440D02*
X2597Y440D01*
X0Y439D02*
X7Y439D01*
X2590Y439D02*
X2597Y439D01*
X0Y438D02*
X7Y438D01*
X2590Y438D02*
X2597Y438D01*
X0Y437D02*
X7Y437D01*
X2590Y437D02*
X2597Y437D01*
X0Y436D02*
X7Y436D01*
X2590Y436D02*
X2597Y436D01*
X0Y435D02*
X7Y435D01*
X2590Y435D02*
X2597Y435D01*
X0Y434D02*
X7Y434D01*
X2590Y434D02*
X2597Y434D01*
X0Y433D02*
X7Y433D01*
X2590Y433D02*
X2597Y433D01*
X0Y432D02*
X7Y432D01*
X2590Y432D02*
X2597Y432D01*
X0Y431D02*
X7Y431D01*
X2590Y431D02*
X2597Y431D01*
X0Y430D02*
X7Y430D01*
X2590Y430D02*
X2597Y430D01*
X0Y429D02*
X7Y429D01*
X2590Y429D02*
X2597Y429D01*
X0Y428D02*
X7Y428D01*
X2590Y428D02*
X2597Y428D01*
X0Y427D02*
X7Y427D01*
X2590Y427D02*
X2597Y427D01*
X0Y426D02*
X7Y426D01*
X2590Y426D02*
X2597Y426D01*
X0Y425D02*
X7Y425D01*
X2590Y425D02*
X2597Y425D01*
X0Y424D02*
X7Y424D01*
X2590Y424D02*
X2597Y424D01*
X0Y423D02*
X7Y423D01*
X2590Y423D02*
X2597Y423D01*
X0Y422D02*
X7Y422D01*
X2590Y422D02*
X2597Y422D01*
X0Y421D02*
X7Y421D01*
X2590Y421D02*
X2597Y421D01*
X0Y420D02*
X7Y420D01*
X2590Y420D02*
X2597Y420D01*
X0Y419D02*
X7Y419D01*
X2590Y419D02*
X2597Y419D01*
X0Y418D02*
X7Y418D01*
X2590Y418D02*
X2597Y418D01*
X0Y417D02*
X7Y417D01*
X2590Y417D02*
X2597Y417D01*
X0Y416D02*
X7Y416D01*
X2590Y416D02*
X2597Y416D01*
X0Y415D02*
X7Y415D01*
X2590Y415D02*
X2597Y415D01*
X0Y414D02*
X7Y414D01*
X2590Y414D02*
X2597Y414D01*
X0Y413D02*
X7Y413D01*
X2590Y413D02*
X2597Y413D01*
X0Y412D02*
X7Y412D01*
X2590Y412D02*
X2597Y412D01*
X0Y411D02*
X7Y411D01*
X2590Y411D02*
X2597Y411D01*
X0Y410D02*
X7Y410D01*
X2590Y410D02*
X2597Y410D01*
X0Y409D02*
X7Y409D01*
X2590Y409D02*
X2597Y409D01*
X0Y408D02*
X7Y408D01*
X2590Y408D02*
X2597Y408D01*
X0Y407D02*
X7Y407D01*
X2590Y407D02*
X2597Y407D01*
X0Y406D02*
X7Y406D01*
X2590Y406D02*
X2597Y406D01*
X0Y405D02*
X7Y405D01*
X2590Y405D02*
X2597Y405D01*
X0Y404D02*
X7Y404D01*
X2590Y404D02*
X2597Y404D01*
X0Y403D02*
X7Y403D01*
X2590Y403D02*
X2597Y403D01*
X0Y402D02*
X7Y402D01*
X2590Y402D02*
X2597Y402D01*
X0Y401D02*
X7Y401D01*
X2590Y401D02*
X2597Y401D01*
X0Y400D02*
X7Y400D01*
X2590Y400D02*
X2597Y400D01*
X0Y399D02*
X7Y399D01*
X2590Y399D02*
X2597Y399D01*
X0Y398D02*
X7Y398D01*
X2590Y398D02*
X2597Y398D01*
X0Y397D02*
X7Y397D01*
X2590Y397D02*
X2597Y397D01*
X0Y396D02*
X7Y396D01*
X2590Y396D02*
X2597Y396D01*
X0Y395D02*
X7Y395D01*
X2590Y395D02*
X2597Y395D01*
X0Y394D02*
X7Y394D01*
X2590Y394D02*
X2597Y394D01*
X0Y393D02*
X7Y393D01*
X2590Y393D02*
X2597Y393D01*
X0Y392D02*
X7Y392D01*
X2590Y392D02*
X2597Y392D01*
X0Y391D02*
X7Y391D01*
X2590Y391D02*
X2597Y391D01*
X0Y390D02*
X7Y390D01*
X2590Y390D02*
X2597Y390D01*
X0Y389D02*
X7Y389D01*
X2590Y389D02*
X2597Y389D01*
X0Y388D02*
X7Y388D01*
X2590Y388D02*
X2597Y388D01*
X0Y387D02*
X7Y387D01*
X2590Y387D02*
X2597Y387D01*
X0Y386D02*
X7Y386D01*
X2590Y386D02*
X2597Y386D01*
X0Y385D02*
X7Y385D01*
X2590Y385D02*
X2597Y385D01*
X0Y384D02*
X7Y384D01*
X2590Y384D02*
X2597Y384D01*
X0Y383D02*
X7Y383D01*
X2590Y383D02*
X2597Y383D01*
X0Y382D02*
X7Y382D01*
X2590Y382D02*
X2597Y382D01*
X0Y381D02*
X7Y381D01*
X2590Y381D02*
X2597Y381D01*
X0Y380D02*
X7Y380D01*
X2590Y380D02*
X2597Y380D01*
X0Y379D02*
X7Y379D01*
X2590Y379D02*
X2597Y379D01*
X0Y378D02*
X7Y378D01*
X2590Y378D02*
X2597Y378D01*
X0Y377D02*
X7Y377D01*
X2590Y377D02*
X2597Y377D01*
X0Y376D02*
X7Y376D01*
X2590Y376D02*
X2597Y376D01*
X0Y375D02*
X7Y375D01*
X2590Y375D02*
X2597Y375D01*
X0Y374D02*
X7Y374D01*
X2590Y374D02*
X2597Y374D01*
X0Y373D02*
X7Y373D01*
X2590Y373D02*
X2597Y373D01*
X0Y372D02*
X7Y372D01*
X2590Y372D02*
X2597Y372D01*
X0Y371D02*
X7Y371D01*
X2590Y371D02*
X2597Y371D01*
X0Y370D02*
X7Y370D01*
X2590Y370D02*
X2597Y370D01*
X0Y369D02*
X7Y369D01*
X2590Y369D02*
X2597Y369D01*
X0Y368D02*
X7Y368D01*
X2590Y368D02*
X2597Y368D01*
X0Y367D02*
X7Y367D01*
X2590Y367D02*
X2597Y367D01*
X0Y366D02*
X7Y366D01*
X2590Y366D02*
X2597Y366D01*
X0Y365D02*
X7Y365D01*
X2590Y365D02*
X2597Y365D01*
X0Y364D02*
X7Y364D01*
X2590Y364D02*
X2597Y364D01*
X0Y363D02*
X7Y363D01*
X2590Y363D02*
X2597Y363D01*
X0Y362D02*
X7Y362D01*
X2590Y362D02*
X2597Y362D01*
X0Y361D02*
X7Y361D01*
X2590Y361D02*
X2597Y361D01*
X0Y360D02*
X7Y360D01*
X2590Y360D02*
X2597Y360D01*
X0Y359D02*
X7Y359D01*
X2590Y359D02*
X2597Y359D01*
X0Y358D02*
X7Y358D01*
X2590Y358D02*
X2597Y358D01*
X0Y357D02*
X7Y357D01*
X2590Y357D02*
X2597Y357D01*
X0Y356D02*
X7Y356D01*
X2590Y356D02*
X2597Y356D01*
X0Y355D02*
X7Y355D01*
X2590Y355D02*
X2597Y355D01*
X0Y354D02*
X7Y354D01*
X2590Y354D02*
X2597Y354D01*
X0Y353D02*
X7Y353D01*
X2590Y353D02*
X2597Y353D01*
X0Y352D02*
X7Y352D01*
X2590Y352D02*
X2597Y352D01*
X0Y351D02*
X7Y351D01*
X2590Y351D02*
X2597Y351D01*
X0Y350D02*
X7Y350D01*
X2590Y350D02*
X2597Y350D01*
X0Y349D02*
X7Y349D01*
X2590Y349D02*
X2597Y349D01*
X0Y348D02*
X7Y348D01*
X2590Y348D02*
X2597Y348D01*
X0Y347D02*
X7Y347D01*
X2590Y347D02*
X2597Y347D01*
X0Y346D02*
X7Y346D01*
X2590Y346D02*
X2597Y346D01*
X0Y345D02*
X7Y345D01*
X2590Y345D02*
X2597Y345D01*
X0Y344D02*
X7Y344D01*
X2590Y344D02*
X2597Y344D01*
X0Y343D02*
X7Y343D01*
X2590Y343D02*
X2597Y343D01*
X0Y342D02*
X7Y342D01*
X2590Y342D02*
X2597Y342D01*
X0Y341D02*
X7Y341D01*
X2590Y341D02*
X2597Y341D01*
X0Y340D02*
X7Y340D01*
X2590Y340D02*
X2597Y340D01*
X0Y339D02*
X7Y339D01*
X2590Y339D02*
X2597Y339D01*
X0Y338D02*
X7Y338D01*
X2590Y338D02*
X2597Y338D01*
X0Y337D02*
X7Y337D01*
X2590Y337D02*
X2597Y337D01*
X0Y336D02*
X7Y336D01*
X2590Y336D02*
X2597Y336D01*
X0Y335D02*
X7Y335D01*
X2590Y335D02*
X2597Y335D01*
X0Y334D02*
X7Y334D01*
X2590Y334D02*
X2597Y334D01*
X0Y333D02*
X7Y333D01*
X2590Y333D02*
X2597Y333D01*
X0Y332D02*
X7Y332D01*
X2590Y332D02*
X2597Y332D01*
X0Y331D02*
X7Y331D01*
X2590Y331D02*
X2597Y331D01*
X0Y330D02*
X7Y330D01*
X2590Y330D02*
X2597Y330D01*
X0Y329D02*
X7Y329D01*
X2590Y329D02*
X2597Y329D01*
X0Y328D02*
X7Y328D01*
X2590Y328D02*
X2597Y328D01*
X0Y327D02*
X7Y327D01*
X2590Y327D02*
X2597Y327D01*
X0Y326D02*
X7Y326D01*
X2590Y326D02*
X2597Y326D01*
X0Y325D02*
X7Y325D01*
X2590Y325D02*
X2597Y325D01*
X0Y324D02*
X7Y324D01*
X2590Y324D02*
X2597Y324D01*
X0Y323D02*
X7Y323D01*
X2590Y323D02*
X2597Y323D01*
X0Y322D02*
X7Y322D01*
X2590Y322D02*
X2597Y322D01*
X0Y321D02*
X7Y321D01*
X2590Y321D02*
X2597Y321D01*
X0Y320D02*
X7Y320D01*
X2590Y320D02*
X2597Y320D01*
X0Y319D02*
X7Y319D01*
X2590Y319D02*
X2597Y319D01*
X0Y318D02*
X7Y318D01*
X2590Y318D02*
X2597Y318D01*
X0Y317D02*
X7Y317D01*
X2590Y317D02*
X2597Y317D01*
X0Y316D02*
X7Y316D01*
X2590Y316D02*
X2597Y316D01*
X0Y315D02*
X7Y315D01*
X2590Y315D02*
X2597Y315D01*
X0Y314D02*
X7Y314D01*
X2590Y314D02*
X2597Y314D01*
X0Y313D02*
X7Y313D01*
X2590Y313D02*
X2597Y313D01*
X0Y312D02*
X7Y312D01*
X2590Y312D02*
X2597Y312D01*
X0Y311D02*
X7Y311D01*
X2590Y311D02*
X2597Y311D01*
X0Y310D02*
X7Y310D01*
X2590Y310D02*
X2597Y310D01*
X0Y309D02*
X7Y309D01*
X2590Y309D02*
X2597Y309D01*
X0Y308D02*
X7Y308D01*
X2590Y308D02*
X2597Y308D01*
X0Y307D02*
X7Y307D01*
X2590Y307D02*
X2597Y307D01*
X0Y306D02*
X7Y306D01*
X2590Y306D02*
X2597Y306D01*
X0Y305D02*
X7Y305D01*
X2590Y305D02*
X2597Y305D01*
X0Y304D02*
X7Y304D01*
X2590Y304D02*
X2597Y304D01*
X0Y303D02*
X7Y303D01*
X2590Y303D02*
X2597Y303D01*
X0Y302D02*
X7Y302D01*
X2590Y302D02*
X2597Y302D01*
X0Y301D02*
X7Y301D01*
X2590Y301D02*
X2597Y301D01*
X0Y300D02*
X7Y300D01*
X2590Y300D02*
X2597Y300D01*
X0Y299D02*
X7Y299D01*
X2590Y299D02*
X2597Y299D01*
X0Y298D02*
X7Y298D01*
X2590Y298D02*
X2597Y298D01*
X0Y297D02*
X7Y297D01*
X2590Y297D02*
X2597Y297D01*
X0Y296D02*
X7Y296D01*
X2590Y296D02*
X2597Y296D01*
X0Y295D02*
X7Y295D01*
X2590Y295D02*
X2597Y295D01*
X0Y294D02*
X7Y294D01*
X2590Y294D02*
X2597Y294D01*
X0Y293D02*
X7Y293D01*
X2590Y293D02*
X2597Y293D01*
X0Y292D02*
X7Y292D01*
X2590Y292D02*
X2597Y292D01*
X0Y291D02*
X7Y291D01*
X2590Y291D02*
X2597Y291D01*
X0Y290D02*
X7Y290D01*
X2590Y290D02*
X2597Y290D01*
X0Y289D02*
X7Y289D01*
X2590Y289D02*
X2597Y289D01*
X0Y288D02*
X7Y288D01*
X2590Y288D02*
X2597Y288D01*
X0Y287D02*
X7Y287D01*
X2590Y287D02*
X2597Y287D01*
X0Y286D02*
X7Y286D01*
X2590Y286D02*
X2597Y286D01*
X0Y285D02*
X7Y285D01*
X2590Y285D02*
X2597Y285D01*
X0Y284D02*
X7Y284D01*
X2590Y284D02*
X2597Y284D01*
X0Y283D02*
X7Y283D01*
X2590Y283D02*
X2597Y283D01*
X0Y282D02*
X7Y282D01*
X2590Y282D02*
X2597Y282D01*
X0Y281D02*
X7Y281D01*
X2590Y281D02*
X2597Y281D01*
X0Y280D02*
X7Y280D01*
X2590Y280D02*
X2597Y280D01*
X0Y279D02*
X7Y279D01*
X2590Y279D02*
X2597Y279D01*
X0Y278D02*
X7Y278D01*
X2590Y278D02*
X2597Y278D01*
X0Y277D02*
X7Y277D01*
X2590Y277D02*
X2597Y277D01*
X0Y276D02*
X7Y276D01*
X2590Y276D02*
X2597Y276D01*
X0Y275D02*
X7Y275D01*
X2590Y275D02*
X2597Y275D01*
X0Y274D02*
X7Y274D01*
X2590Y274D02*
X2597Y274D01*
X0Y273D02*
X7Y273D01*
X2590Y273D02*
X2597Y273D01*
X0Y272D02*
X7Y272D01*
X2590Y272D02*
X2597Y272D01*
X0Y271D02*
X7Y271D01*
X2590Y271D02*
X2597Y271D01*
X0Y270D02*
X7Y270D01*
X2590Y270D02*
X2597Y270D01*
X0Y269D02*
X7Y269D01*
X2590Y269D02*
X2597Y269D01*
X0Y268D02*
X7Y268D01*
X2590Y268D02*
X2597Y268D01*
X0Y267D02*
X7Y267D01*
X2590Y267D02*
X2597Y267D01*
X0Y266D02*
X7Y266D01*
X2590Y266D02*
X2597Y266D01*
X0Y265D02*
X7Y265D01*
X2590Y265D02*
X2597Y265D01*
X0Y264D02*
X7Y264D01*
X2590Y264D02*
X2597Y264D01*
X0Y263D02*
X7Y263D01*
X2590Y263D02*
X2597Y263D01*
X0Y262D02*
X7Y262D01*
X2590Y262D02*
X2597Y262D01*
X0Y261D02*
X7Y261D01*
X2590Y261D02*
X2597Y261D01*
X0Y260D02*
X7Y260D01*
X2590Y260D02*
X2597Y260D01*
X0Y259D02*
X7Y259D01*
X2590Y259D02*
X2597Y259D01*
X0Y258D02*
X7Y258D01*
X2590Y258D02*
X2597Y258D01*
X0Y257D02*
X7Y257D01*
X2590Y257D02*
X2597Y257D01*
X0Y256D02*
X7Y256D01*
X2590Y256D02*
X2597Y256D01*
X0Y255D02*
X7Y255D01*
X2590Y255D02*
X2597Y255D01*
X0Y254D02*
X7Y254D01*
X2590Y254D02*
X2597Y254D01*
X0Y253D02*
X7Y253D01*
X2590Y253D02*
X2597Y253D01*
X0Y252D02*
X7Y252D01*
X2590Y252D02*
X2597Y252D01*
X0Y251D02*
X7Y251D01*
X2590Y251D02*
X2597Y251D01*
X0Y250D02*
X7Y250D01*
X2590Y250D02*
X2597Y250D01*
X0Y249D02*
X7Y249D01*
X2590Y249D02*
X2597Y249D01*
X0Y248D02*
X7Y248D01*
X2590Y248D02*
X2597Y248D01*
X0Y247D02*
X7Y247D01*
X2590Y247D02*
X2597Y247D01*
X0Y246D02*
X7Y246D01*
X2590Y246D02*
X2597Y246D01*
X0Y245D02*
X7Y245D01*
X2590Y245D02*
X2597Y245D01*
X0Y244D02*
X7Y244D01*
X2590Y244D02*
X2597Y244D01*
X0Y243D02*
X7Y243D01*
X2590Y243D02*
X2597Y243D01*
X0Y242D02*
X7Y242D01*
X2590Y242D02*
X2597Y242D01*
X0Y241D02*
X7Y241D01*
X2590Y241D02*
X2597Y241D01*
X0Y240D02*
X7Y240D01*
X2590Y240D02*
X2597Y240D01*
X0Y239D02*
X7Y239D01*
X2590Y239D02*
X2597Y239D01*
X0Y238D02*
X7Y238D01*
X2590Y238D02*
X2597Y238D01*
X0Y237D02*
X7Y237D01*
X2590Y237D02*
X2597Y237D01*
X0Y236D02*
X7Y236D01*
X2590Y236D02*
X2597Y236D01*
X0Y235D02*
X7Y235D01*
X2590Y235D02*
X2597Y235D01*
X0Y234D02*
X7Y234D01*
X2590Y234D02*
X2597Y234D01*
X0Y233D02*
X7Y233D01*
X2590Y233D02*
X2597Y233D01*
X0Y232D02*
X7Y232D01*
X2590Y232D02*
X2597Y232D01*
X0Y231D02*
X7Y231D01*
X2590Y231D02*
X2597Y231D01*
X0Y230D02*
X7Y230D01*
X2590Y230D02*
X2597Y230D01*
X0Y229D02*
X7Y229D01*
X2590Y229D02*
X2597Y229D01*
X0Y228D02*
X7Y228D01*
X2590Y228D02*
X2597Y228D01*
X0Y227D02*
X7Y227D01*
X2590Y227D02*
X2597Y227D01*
X0Y226D02*
X7Y226D01*
X2590Y226D02*
X2597Y226D01*
X0Y225D02*
X7Y225D01*
X2590Y225D02*
X2597Y225D01*
X0Y224D02*
X7Y224D01*
X2590Y224D02*
X2597Y224D01*
X0Y223D02*
X7Y223D01*
X2590Y223D02*
X2597Y223D01*
X0Y222D02*
X7Y222D01*
X2590Y222D02*
X2597Y222D01*
X0Y221D02*
X7Y221D01*
X2590Y221D02*
X2597Y221D01*
X0Y220D02*
X7Y220D01*
X2590Y220D02*
X2597Y220D01*
X0Y219D02*
X7Y219D01*
X2590Y219D02*
X2597Y219D01*
X0Y218D02*
X7Y218D01*
X2590Y218D02*
X2597Y218D01*
X0Y217D02*
X7Y217D01*
X2590Y217D02*
X2597Y217D01*
X0Y216D02*
X7Y216D01*
X2590Y216D02*
X2597Y216D01*
X0Y215D02*
X7Y215D01*
X2590Y215D02*
X2597Y215D01*
X0Y214D02*
X7Y214D01*
X2590Y214D02*
X2597Y214D01*
X0Y213D02*
X7Y213D01*
X2590Y213D02*
X2597Y213D01*
X0Y212D02*
X7Y212D01*
X2590Y212D02*
X2597Y212D01*
X0Y211D02*
X7Y211D01*
X2590Y211D02*
X2597Y211D01*
X0Y210D02*
X7Y210D01*
X2590Y210D02*
X2597Y210D01*
X0Y209D02*
X7Y209D01*
X2590Y209D02*
X2597Y209D01*
X0Y208D02*
X7Y208D01*
X2590Y208D02*
X2597Y208D01*
X0Y207D02*
X7Y207D01*
X2590Y207D02*
X2597Y207D01*
X0Y206D02*
X7Y206D01*
X2590Y206D02*
X2597Y206D01*
X0Y205D02*
X7Y205D01*
X2590Y205D02*
X2597Y205D01*
X0Y204D02*
X7Y204D01*
X2590Y204D02*
X2597Y204D01*
X0Y203D02*
X7Y203D01*
X2590Y203D02*
X2597Y203D01*
X0Y202D02*
X7Y202D01*
X2590Y202D02*
X2597Y202D01*
X0Y201D02*
X7Y201D01*
X2590Y201D02*
X2597Y201D01*
X0Y200D02*
X7Y200D01*
X2590Y200D02*
X2597Y200D01*
X0Y199D02*
X7Y199D01*
X2590Y199D02*
X2597Y199D01*
X0Y198D02*
X7Y198D01*
X2590Y198D02*
X2597Y198D01*
X0Y197D02*
X7Y197D01*
X2590Y197D02*
X2597Y197D01*
X0Y196D02*
X7Y196D01*
X2590Y196D02*
X2597Y196D01*
X0Y195D02*
X7Y195D01*
X2590Y195D02*
X2597Y195D01*
X0Y194D02*
X7Y194D01*
X2590Y194D02*
X2597Y194D01*
X0Y193D02*
X7Y193D01*
X2590Y193D02*
X2597Y193D01*
X0Y192D02*
X7Y192D01*
X2590Y192D02*
X2597Y192D01*
X0Y191D02*
X7Y191D01*
X2590Y191D02*
X2597Y191D01*
X0Y190D02*
X7Y190D01*
X2590Y190D02*
X2597Y190D01*
X0Y189D02*
X7Y189D01*
X2590Y189D02*
X2597Y189D01*
X0Y188D02*
X7Y188D01*
X2590Y188D02*
X2597Y188D01*
X0Y187D02*
X7Y187D01*
X2590Y187D02*
X2597Y187D01*
X0Y186D02*
X7Y186D01*
X2590Y186D02*
X2597Y186D01*
X0Y185D02*
X7Y185D01*
X2590Y185D02*
X2597Y185D01*
X0Y184D02*
X7Y184D01*
X2590Y184D02*
X2597Y184D01*
X0Y183D02*
X7Y183D01*
X2590Y183D02*
X2597Y183D01*
X0Y182D02*
X7Y182D01*
X2590Y182D02*
X2597Y182D01*
X0Y181D02*
X7Y181D01*
X2590Y181D02*
X2597Y181D01*
X0Y180D02*
X7Y180D01*
X2590Y180D02*
X2597Y180D01*
X0Y179D02*
X7Y179D01*
X2590Y179D02*
X2597Y179D01*
X0Y178D02*
X7Y178D01*
X2590Y178D02*
X2597Y178D01*
X0Y177D02*
X7Y177D01*
X2590Y177D02*
X2597Y177D01*
X0Y176D02*
X7Y176D01*
X2590Y176D02*
X2597Y176D01*
X0Y175D02*
X7Y175D01*
X2590Y175D02*
X2597Y175D01*
X0Y174D02*
X7Y174D01*
X2590Y174D02*
X2597Y174D01*
X0Y173D02*
X7Y173D01*
X2590Y173D02*
X2597Y173D01*
X0Y172D02*
X7Y172D01*
X2590Y172D02*
X2597Y172D01*
X0Y171D02*
X7Y171D01*
X2590Y171D02*
X2597Y171D01*
X0Y170D02*
X7Y170D01*
X2590Y170D02*
X2597Y170D01*
X0Y169D02*
X7Y169D01*
X2590Y169D02*
X2597Y169D01*
X0Y168D02*
X7Y168D01*
X2590Y168D02*
X2597Y168D01*
X0Y167D02*
X7Y167D01*
X2590Y167D02*
X2597Y167D01*
X0Y166D02*
X7Y166D01*
X2590Y166D02*
X2597Y166D01*
X0Y165D02*
X7Y165D01*
X2590Y165D02*
X2597Y165D01*
X0Y164D02*
X7Y164D01*
X2590Y164D02*
X2597Y164D01*
X0Y163D02*
X7Y163D01*
X2590Y163D02*
X2597Y163D01*
X0Y162D02*
X7Y162D01*
X2590Y162D02*
X2597Y162D01*
X0Y161D02*
X7Y161D01*
X2590Y161D02*
X2597Y161D01*
X0Y160D02*
X7Y160D01*
X2590Y160D02*
X2597Y160D01*
X0Y159D02*
X7Y159D01*
X2590Y159D02*
X2597Y159D01*
X0Y158D02*
X7Y158D01*
X2590Y158D02*
X2597Y158D01*
X0Y157D02*
X7Y157D01*
X2590Y157D02*
X2597Y157D01*
X0Y156D02*
X7Y156D01*
X2590Y156D02*
X2597Y156D01*
X0Y155D02*
X7Y155D01*
X2590Y155D02*
X2597Y155D01*
X0Y154D02*
X7Y154D01*
X2590Y154D02*
X2597Y154D01*
X0Y153D02*
X7Y153D01*
X2590Y153D02*
X2597Y153D01*
X0Y152D02*
X7Y152D01*
X2590Y152D02*
X2597Y152D01*
X0Y151D02*
X7Y151D01*
X2590Y151D02*
X2597Y151D01*
X0Y150D02*
X7Y150D01*
X2590Y150D02*
X2597Y150D01*
X0Y149D02*
X7Y149D01*
X2590Y149D02*
X2597Y149D01*
X0Y148D02*
X7Y148D01*
X2590Y148D02*
X2597Y148D01*
X0Y147D02*
X7Y147D01*
X2590Y147D02*
X2597Y147D01*
X0Y146D02*
X7Y146D01*
X2590Y146D02*
X2597Y146D01*
X0Y145D02*
X7Y145D01*
X2590Y145D02*
X2597Y145D01*
X0Y144D02*
X7Y144D01*
X2590Y144D02*
X2597Y144D01*
X0Y143D02*
X7Y143D01*
X2590Y143D02*
X2597Y143D01*
X0Y142D02*
X7Y142D01*
X2590Y142D02*
X2597Y142D01*
X0Y141D02*
X7Y141D01*
X2590Y141D02*
X2597Y141D01*
X0Y140D02*
X7Y140D01*
X2590Y140D02*
X2597Y140D01*
X0Y139D02*
X7Y139D01*
X2590Y139D02*
X2597Y139D01*
X0Y138D02*
X7Y138D01*
X2590Y138D02*
X2597Y138D01*
X0Y137D02*
X7Y137D01*
X2590Y137D02*
X2597Y137D01*
X0Y136D02*
X7Y136D01*
X2590Y136D02*
X2597Y136D01*
X0Y135D02*
X7Y135D01*
X2590Y135D02*
X2597Y135D01*
X0Y134D02*
X7Y134D01*
X2590Y134D02*
X2597Y134D01*
X0Y133D02*
X7Y133D01*
X2590Y133D02*
X2597Y133D01*
X0Y132D02*
X7Y132D01*
X2590Y132D02*
X2597Y132D01*
X0Y131D02*
X7Y131D01*
X2590Y131D02*
X2597Y131D01*
X0Y130D02*
X7Y130D01*
X2590Y130D02*
X2597Y130D01*
X0Y129D02*
X7Y129D01*
X2590Y129D02*
X2597Y129D01*
X0Y128D02*
X7Y128D01*
X2590Y128D02*
X2597Y128D01*
X0Y127D02*
X7Y127D01*
X2590Y127D02*
X2597Y127D01*
X0Y126D02*
X7Y126D01*
X2590Y126D02*
X2597Y126D01*
X0Y125D02*
X7Y125D01*
X2590Y125D02*
X2597Y125D01*
X0Y124D02*
X7Y124D01*
X2590Y124D02*
X2597Y124D01*
X0Y123D02*
X7Y123D01*
X2590Y123D02*
X2597Y123D01*
X0Y122D02*
X7Y122D01*
X2590Y122D02*
X2597Y122D01*
X0Y121D02*
X7Y121D01*
X2590Y121D02*
X2597Y121D01*
X0Y120D02*
X7Y120D01*
X2590Y120D02*
X2597Y120D01*
X0Y119D02*
X7Y119D01*
X2590Y119D02*
X2597Y119D01*
X0Y118D02*
X7Y118D01*
X2590Y118D02*
X2597Y118D01*
X0Y117D02*
X7Y117D01*
X2590Y117D02*
X2597Y117D01*
X0Y116D02*
X7Y116D01*
X2590Y116D02*
X2597Y116D01*
X0Y115D02*
X7Y115D01*
X2590Y115D02*
X2597Y115D01*
X0Y114D02*
X7Y114D01*
X2590Y114D02*
X2597Y114D01*
X0Y113D02*
X7Y113D01*
X2590Y113D02*
X2597Y113D01*
X0Y112D02*
X7Y112D01*
X2590Y112D02*
X2597Y112D01*
X0Y111D02*
X7Y111D01*
X2590Y111D02*
X2597Y111D01*
X0Y110D02*
X7Y110D01*
X2590Y110D02*
X2597Y110D01*
X0Y109D02*
X7Y109D01*
X2590Y109D02*
X2597Y109D01*
X0Y108D02*
X7Y108D01*
X2590Y108D02*
X2597Y108D01*
X0Y107D02*
X7Y107D01*
X2590Y107D02*
X2597Y107D01*
X0Y106D02*
X7Y106D01*
X2590Y106D02*
X2597Y106D01*
X0Y105D02*
X7Y105D01*
X2590Y105D02*
X2597Y105D01*
X0Y104D02*
X7Y104D01*
X2590Y104D02*
X2597Y104D01*
X0Y103D02*
X7Y103D01*
X2590Y103D02*
X2597Y103D01*
X0Y102D02*
X7Y102D01*
X2590Y102D02*
X2597Y102D01*
X0Y101D02*
X7Y101D01*
X2590Y101D02*
X2597Y101D01*
X0Y100D02*
X7Y100D01*
X2590Y100D02*
X2597Y100D01*
X0Y99D02*
X7Y99D01*
X2590Y99D02*
X2597Y99D01*
X0Y98D02*
X7Y98D01*
X2590Y98D02*
X2597Y98D01*
X0Y97D02*
X7Y97D01*
X2590Y97D02*
X2597Y97D01*
X0Y96D02*
X7Y96D01*
X2590Y96D02*
X2597Y96D01*
X0Y95D02*
X7Y95D01*
X2590Y95D02*
X2597Y95D01*
X0Y94D02*
X7Y94D01*
X2590Y94D02*
X2597Y94D01*
X0Y93D02*
X7Y93D01*
X2590Y93D02*
X2597Y93D01*
X0Y92D02*
X7Y92D01*
X2590Y92D02*
X2597Y92D01*
X0Y91D02*
X7Y91D01*
X2590Y91D02*
X2597Y91D01*
X0Y90D02*
X7Y90D01*
X2590Y90D02*
X2597Y90D01*
X0Y89D02*
X7Y89D01*
X2590Y89D02*
X2597Y89D01*
X0Y88D02*
X7Y88D01*
X2590Y88D02*
X2597Y88D01*
X0Y87D02*
X7Y87D01*
X2590Y87D02*
X2597Y87D01*
X0Y86D02*
X7Y86D01*
X2590Y86D02*
X2597Y86D01*
X0Y85D02*
X7Y85D01*
X2590Y85D02*
X2597Y85D01*
X0Y84D02*
X7Y84D01*
X2590Y84D02*
X2597Y84D01*
X0Y83D02*
X7Y83D01*
X2590Y83D02*
X2597Y83D01*
X0Y82D02*
X7Y82D01*
X2590Y82D02*
X2597Y82D01*
X0Y81D02*
X7Y81D01*
X2590Y81D02*
X2597Y81D01*
X0Y80D02*
X7Y80D01*
X2590Y80D02*
X2597Y80D01*
X0Y79D02*
X7Y79D01*
X2590Y79D02*
X2597Y79D01*
X0Y78D02*
X7Y78D01*
X2590Y78D02*
X2597Y78D01*
X0Y77D02*
X7Y77D01*
X2590Y77D02*
X2597Y77D01*
X0Y76D02*
X7Y76D01*
X2590Y76D02*
X2597Y76D01*
X0Y75D02*
X7Y75D01*
X2590Y75D02*
X2597Y75D01*
X0Y74D02*
X7Y74D01*
X2590Y74D02*
X2597Y74D01*
X0Y73D02*
X7Y73D01*
X2590Y73D02*
X2597Y73D01*
X0Y72D02*
X7Y72D01*
X2590Y72D02*
X2597Y72D01*
X0Y71D02*
X7Y71D01*
X2590Y71D02*
X2597Y71D01*
X0Y70D02*
X7Y70D01*
X2590Y70D02*
X2597Y70D01*
X0Y69D02*
X7Y69D01*
X2590Y69D02*
X2597Y69D01*
X0Y68D02*
X7Y68D01*
X2590Y68D02*
X2597Y68D01*
X0Y67D02*
X7Y67D01*
X2590Y67D02*
X2597Y67D01*
X0Y66D02*
X7Y66D01*
X2590Y66D02*
X2597Y66D01*
X0Y65D02*
X7Y65D01*
X2590Y65D02*
X2597Y65D01*
X0Y64D02*
X7Y64D01*
X2590Y64D02*
X2597Y64D01*
X0Y63D02*
X7Y63D01*
X2590Y63D02*
X2597Y63D01*
X0Y62D02*
X7Y62D01*
X2590Y62D02*
X2597Y62D01*
X0Y61D02*
X7Y61D01*
X2590Y61D02*
X2597Y61D01*
X0Y60D02*
X7Y60D01*
X2590Y60D02*
X2597Y60D01*
X0Y59D02*
X7Y59D01*
X2590Y59D02*
X2597Y59D01*
X0Y58D02*
X7Y58D01*
X2590Y58D02*
X2597Y58D01*
X0Y57D02*
X7Y57D01*
X2590Y57D02*
X2597Y57D01*
X0Y56D02*
X7Y56D01*
X2590Y56D02*
X2597Y56D01*
X0Y55D02*
X7Y55D01*
X2590Y55D02*
X2597Y55D01*
X0Y54D02*
X7Y54D01*
X2590Y54D02*
X2597Y54D01*
X0Y53D02*
X7Y53D01*
X2590Y53D02*
X2597Y53D01*
X0Y52D02*
X7Y52D01*
X2590Y52D02*
X2597Y52D01*
X0Y51D02*
X7Y51D01*
X2590Y51D02*
X2597Y51D01*
X0Y50D02*
X7Y50D01*
X2590Y50D02*
X2597Y50D01*
X0Y49D02*
X7Y49D01*
X2590Y49D02*
X2597Y49D01*
X0Y48D02*
X7Y48D01*
X2590Y48D02*
X2597Y48D01*
X0Y47D02*
X7Y47D01*
X2590Y47D02*
X2597Y47D01*
X0Y46D02*
X7Y46D01*
X2590Y46D02*
X2597Y46D01*
X0Y45D02*
X7Y45D01*
X2590Y45D02*
X2597Y45D01*
X0Y44D02*
X7Y44D01*
X2590Y44D02*
X2597Y44D01*
X0Y43D02*
X7Y43D01*
X2590Y43D02*
X2597Y43D01*
X0Y42D02*
X7Y42D01*
X2590Y42D02*
X2597Y42D01*
X0Y41D02*
X7Y41D01*
X2590Y41D02*
X2597Y41D01*
X0Y40D02*
X7Y40D01*
X2590Y40D02*
X2597Y40D01*
X0Y39D02*
X7Y39D01*
X2590Y39D02*
X2597Y39D01*
X0Y38D02*
X7Y38D01*
X2590Y38D02*
X2597Y38D01*
X0Y37D02*
X7Y37D01*
X2590Y37D02*
X2597Y37D01*
X0Y36D02*
X7Y36D01*
X2590Y36D02*
X2597Y36D01*
X0Y35D02*
X7Y35D01*
X2590Y35D02*
X2597Y35D01*
X0Y34D02*
X7Y34D01*
X2590Y34D02*
X2597Y34D01*
X0Y33D02*
X7Y33D01*
X2590Y33D02*
X2597Y33D01*
X0Y32D02*
X7Y32D01*
X2590Y32D02*
X2597Y32D01*
X0Y31D02*
X7Y31D01*
X2590Y31D02*
X2597Y31D01*
X0Y30D02*
X7Y30D01*
X2590Y30D02*
X2597Y30D01*
X0Y29D02*
X7Y29D01*
X2590Y29D02*
X2597Y29D01*
X0Y28D02*
X7Y28D01*
X2590Y28D02*
X2597Y28D01*
X0Y27D02*
X7Y27D01*
X2590Y27D02*
X2597Y27D01*
X0Y26D02*
X7Y26D01*
X2590Y26D02*
X2597Y26D01*
X0Y25D02*
X7Y25D01*
X2590Y25D02*
X2597Y25D01*
X0Y24D02*
X7Y24D01*
X2590Y24D02*
X2597Y24D01*
X0Y23D02*
X7Y23D01*
X2590Y23D02*
X2597Y23D01*
X0Y22D02*
X7Y22D01*
X2590Y22D02*
X2597Y22D01*
X0Y21D02*
X7Y21D01*
X2590Y21D02*
X2597Y21D01*
X0Y20D02*
X7Y20D01*
X2590Y20D02*
X2597Y20D01*
X0Y19D02*
X7Y19D01*
X2590Y19D02*
X2597Y19D01*
X0Y18D02*
X7Y18D01*
X2590Y18D02*
X2597Y18D01*
X0Y17D02*
X7Y17D01*
X2590Y17D02*
X2597Y17D01*
X0Y16D02*
X7Y16D01*
X2590Y16D02*
X2597Y16D01*
X0Y15D02*
X7Y15D01*
X2590Y15D02*
X2597Y15D01*
X0Y14D02*
X7Y14D01*
X2590Y14D02*
X2597Y14D01*
X0Y13D02*
X7Y13D01*
X2590Y13D02*
X2597Y13D01*
X0Y12D02*
X7Y12D01*
X2590Y12D02*
X2597Y12D01*
X0Y11D02*
X7Y11D01*
X2590Y11D02*
X2597Y11D01*
X0Y10D02*
X7Y10D01*
X2590Y10D02*
X2597Y10D01*
X0Y9D02*
X2597Y9D01*
X0Y8D02*
X2597Y8D01*
X0Y7D02*
X2597Y7D01*
X0Y6D02*
X2597Y6D01*
X0Y5D02*
X2597Y5D01*
X0Y4D02*
X2597Y4D01*
X0Y3D02*
X2597Y3D01*
X0Y2D02*
X2597Y2D01*
D02*
G04 End of Silk1*
M02*